<?xml version="1.0" standalone="no"?>
<!DOCTYPE svg PUBLIC "-//W3C//DTD SVG 20010904//EN"
 "http://www.w3.org/TR/2001/REC-SVG-20010904/DTD/svg10.dtd">
<svg version="1.0" xmlns="http://www.w3.org/2000/svg"
 width="250.000000pt" height="250.000000pt" viewBox="0 0 250.000000 250.000000"
 preserveAspectRatio="xMidYMid meet">
<metadata>
Created by potrace 1.11, written by Peter Selinger 2001-2013
</metadata>
<g transform="translate(0.000000,250.000000) scale(0.100000,-0.100000)"
fill="#000000" stroke="none">
<path d="M1223 2402 c-18 -2 -33 -8 -33 -13 0 -6 -4 -8 -9 -5 -17 11 -88 -90
-83 -116 1 -5 -3 -8 -9 -8 -6 0 -9 -6 -6 -14 3 -8 -1 -17 -9 -20 -8 -3 -14 -9
-13 -13 2 -14 -13 -53 -21 -53 -4 0 -11 -10 -15 -22 -4 -13 -8 -25 -9 -28 -11
-29 -90 -176 -97 -178 -4 -2 -5 -10 -2 -18 3 -8 -1 -14 -8 -14 -7 0 -9 -3 -6
-6 4 -4 -3 -20 -14 -35 -11 -16 -18 -33 -15 -38 3 -5 -1 -12 -10 -15 -8 -3
-12 -10 -9 -16 3 -5 1 -10 -4 -10 -6 0 -11 -9 -11 -19 0 -29 -20 -35 -140 -47
-36 -3 -69 -10 -75 -14 -5 -4 -21 -7 -35 -6 -14 1 -38 -3 -55 -9 -16 -6 -49
-11 -73 -10 -23 1 -45 -2 -48 -7 -3 -4 -27 -8 -54 -8 -27 0 -51 -4 -54 -8 -3
-5 -28 -8 -56 -7 -31 1 -55 -3 -61 -12 -6 -7 -16 -10 -21 -7 -12 8 -68 -16
-90 -38 -10 -10 -16 -18 -13 -18 3 0 -2 -15 -12 -32 -20 -38 -27 -88 -13 -88
6 0 10 -9 10 -21 0 -21 471 -499 505 -513 14 -5 16 -9 7 -18 -7 -7 -12 -34
-12 -60 0 -26 -4 -48 -8 -48 -5 0 -9 -18 -10 -41 -1 -22 -6 -48 -10 -57 -5 -9
-8 -34 -7 -55 1 -20 -2 -37 -7 -37 -4 0 -8 -19 -8 -43 0 -24 -3 -47 -7 -51 -4
-4 -8 -23 -8 -43 -1 -20 -6 -38 -11 -40 -5 -2 -8 -21 -6 -43 2 -22 -1 -46 -6
-53 -13 -15 -15 -170 -2 -162 5 3 10 -5 12 -17 2 -12 18 -32 36 -44 43 -29
134 -31 171 -4 15 10 31 19 36 20 6 2 18 5 28 8 9 2 17 8 17 13 0 5 3 9 8 8
15 -2 52 14 52 22 0 5 4 9 10 9 18 0 90 34 90 43 0 4 4 6 9 3 5 -3 14 1 21 9
6 8 42 29 78 46 37 18 68 36 70 40 2 4 10 5 19 2 11 -4 14 -2 9 5 -4 8 0 12
12 12 10 0 22 3 26 7 4 5 11 8 14 8 4 1 21 9 39 18 35 19 73 22 73 7 0 -5 7
-10 15 -10 8 0 15 -5 15 -11 0 -5 5 -7 10 -4 6 3 24 -3 40 -15 17 -12 30 -18
30 -14 0 4 8 0 18 -9 10 -10 22 -14 25 -10 4 3 7 1 7 -5 0 -7 7 -12 15 -12 8
0 15 -5 15 -11 0 -5 5 -7 10 -4 6 3 24 -4 42 -16 43 -31 218 -120 218 -111 0
4 4 2 8 -3 4 -6 33 -23 64 -38 99 -50 207 -25 234 53 10 33 12 150 2 156 -4 3
-8 27 -8 55 0 27 -4 49 -8 49 -4 0 -8 19 -9 42 -1 23 -5 44 -10 45 -5 2 -8 23
-7 48 1 25 -1 45 -5 45 -8 0 -11 19 -11 59 0 12 -3 28 -7 35 -4 6 -9 27 -10
46 -8 88 -16 136 -26 149 -9 10 -7 17 8 27 11 8 129 123 263 256 176 174 242
246 239 259 -3 10 1 20 8 23 8 3 12 11 11 18 -7 34 -20 73 -25 78 -3 3 -11 14
-17 24 -6 11 -19 24 -30 30 -10 6 -21 13 -24 16 -3 3 -16 7 -30 9 -14 1 -32 6
-40 10 -8 4 -35 7 -60 6 -25 0 -48 4 -52 9 -3 5 -27 9 -52 7 -26 -1 -52 2 -59
6 -6 4 -28 8 -47 9 -19 0 -46 4 -60 9 -14 4 -42 7 -62 7 -21 -1 -38 3 -38 8 0
6 -27 10 -60 10 -33 0 -60 4 -60 9 0 5 -17 8 -37 7 -35 -1 -40 3 -58 39 -11
22 -24 43 -28 46 -5 3 -8 8 -8 10 2 14 -13 49 -21 49 -6 0 -8 7 -4 15 3 8 1
15 -4 15 -5 0 -14 16 -21 35 -7 19 -17 35 -21 35 -4 0 -8 3 -7 8 2 15 -14 52
-22 52 -5 0 -9 3 -8 8 2 15 -14 52 -22 52 -5 0 -9 9 -9 20 0 11 -4 20 -10 20
-5 0 -9 3 -8 8 2 11 -13 44 -36 77 -12 17 -20 30 -19 30 1 0 0 10 -3 23 -4 12
-11 22 -16 22 -6 0 -8 7 -4 15 3 8 1 15 -4 15 -6 0 -10 4 -10 10 0 16 -42 60
-52 54 -4 -3 -8 -1 -8 4 0 11 -59 19 -107 14z"/>
</g>
</svg>
