<?xml version="1.0" standalone="no"?>
<!DOCTYPE svg PUBLIC "-//W3C//DTD SVG 20010904//EN"
 "http://www.w3.org/TR/2001/REC-SVG-20010904/DTD/svg10.dtd">
<svg version="1.0" xmlns="http://www.w3.org/2000/svg"
 width="1536.000000pt" height="811.000000pt" viewBox="0 0 1536.000000 811.000000"
 preserveAspectRatio="xMidYMid meet">
<metadata>
Created by potrace 1.16, written by Peter Selinger 2001-2019
</metadata>
<g transform="translate(0.000000,811.000000) scale(0.100000,-0.100000)"
fill="#000000" stroke="none">
<path d="M14361 8099 c-13 -5 -53 -30 -89 -55 l-65 -46 -85 22 c-143 35 -408
60 -670 63 -208 2 -254 -1 -372 -21 -328 -56 -623 -175 -810 -325 -165 -133
-194 -165 -249 -274 -36 -73 -84 -141 -183 -263 -74 -91 -207 -274 -296 -406
-89 -133 -208 -302 -265 -375 -94 -121 -115 -141 -213 -211 -128 -91 -186
-147 -252 -243 -26 -38 -58 -74 -72 -80 -14 -5 -80 -38 -148 -72 -68 -35 -170
-79 -226 -98 -97 -33 -110 -35 -235 -35 -99 0 -152 -5 -209 -20 -99 -25 -213
-37 -437 -47 -259 -11 -258 -11 -406 40 -137 46 -635 205 -789 251 -102 30
-815 189 -950 211 -61 10 -193 18 -370 21 -244 5 -291 4 -417 -15 -78 -11
-159 -27 -180 -36 -21 -9 -82 -20 -137 -25 -261 -25 -697 -194 -928 -359 -46
-33 -112 -76 -148 -96 -105 -59 -207 -137 -334 -255 -65 -60 -181 -158 -258
-217 -125 -95 -158 -127 -300 -292 -228 -266 -355 -463 -420 -651 -58 -169
-97 -265 -182 -457 l-77 -172 -39 -233 c-51 -309 -61 -348 -114 -457 -43 -88
-50 -128 -20 -117 11 4 14 -8 14 -53 0 -71 -21 -107 -158 -264 -48 -56 -119
-146 -156 -200 -107 -156 -227 -305 -323 -399 -98 -96 -201 -157 -408 -241
-60 -25 -171 -72 -245 -105 -167 -73 -204 -85 -355 -116 -66 -14 -221 -47
-345 -75 -303 -68 -325 -70 -587 -64 -244 6 -305 1 -476 -42 -215 -54 -259
-98 -341 -334 -39 -112 -46 -185 -25 -281 13 -61 95 -179 156 -226 60 -46 181
-93 307 -119 104 -22 164 -25 961 -50 1007 -30 1036 -30 1186 -6 97 16 144 30
273 85 85 36 160 66 165 66 5 0 11 -7 15 -15 9 -24 23 -18 66 26 29 31 40 37
40 24 0 -11 62 46 159 146 141 147 274 262 413 359 54 38 136 63 156 47 30
-24 81 -135 92 -199 13 -87 62 -235 105 -323 59 -118 101 -158 238 -227 l121
-60 245 -34 c197 -27 278 -34 411 -34 117 0 179 -5 214 -15 77 -24 242 -20
303 6 47 21 49 21 136 4 113 -23 210 -16 302 20 66 27 67 27 124 11 104 -29
320 -17 345 20 8 10 23 30 34 44 l20 25 36 -19 c42 -22 66 -16 66 18 0 23 5
25 63 31 94 10 412 0 498 -15 69 -12 80 -12 125 5 42 15 83 18 279 19 253 1
272 5 310 62 11 16 29 67 39 112 17 74 17 84 3 105 -9 14 -17 42 -19 63 -3 36
-6 40 -43 52 -33 11 -55 11 -120 1 -103 -16 -219 -16 -323 1 -73 11 -101 10
-233 -6 -144 -17 -152 -17 -217 0 -72 19 -167 68 -175 90 -3 8 2 21 11 30 40
36 429 203 560 241 52 15 128 42 169 61 42 19 155 67 252 106 208 83 291 124
386 188 233 157 363 218 515 244 80 14 166 16 550 14 l455 -3 130 -48 c151
-56 283 -117 307 -144 9 -10 51 -115 93 -233 41 -118 82 -233 90 -256 26 -70
71 -132 113 -153 22 -11 42 -27 45 -36 4 -8 9 -62 13 -120 7 -105 7 -106 43
-137 34 -30 182 -129 345 -230 45 -28 87 -64 106 -90 37 -51 50 -57 149 -64
42 -3 111 -15 154 -26 92 -24 173 -21 233 10 38 19 53 20 376 14 357 -5 466 3
511 38 20 16 32 17 110 7 84 -11 91 -10 130 11 23 13 55 41 71 62 23 30 37 40
58 40 39 0 38 35 -3 86 -33 42 -26 53 22 34 26 -11 33 -11 47 4 15 15 15 19 2
44 -9 15 -35 38 -58 51 -24 13 -55 41 -69 62 -28 43 -46 50 -181 74 -43 7
-100 22 -127 33 -67 26 -233 62 -290 62 -25 0 -73 -8 -106 -17 -73 -20 -74
-19 -83 80 -27 287 -27 305 -6 388 11 44 43 139 70 212 27 72 79 215 115 317
37 102 113 282 169 400 56 118 185 390 286 603 l184 389 134 161 c196 238 235
291 298 407 62 115 167 276 439 675 186 272 251 391 387 705 l63 145 140 1
c110 0 167 6 265 26 231 48 340 124 340 238 0 22 9 36 38 56 54 40 62 53 62
99 l0 42 58 16 c31 9 93 38 137 64 70 42 84 56 116 113 47 81 55 130 40 238
-27 194 -52 245 -146 308 l-55 36 0 70 c0 132 -93 334 -196 424 -55 49 -65 63
-94 142 -18 48 -41 103 -51 122 -10 19 -51 105 -92 191 -41 86 -88 176 -105
201 -29 42 -30 48 -34 173 -4 129 -5 131 -57 266 -42 109 -58 139 -81 152 -32
19 -44 20 -79 6z"/>
</g>
</svg>
