<?xml version="1.0" standalone="no"?>
<!DOCTYPE svg PUBLIC "-//W3C//DTD SVG 20010904//EN"
 "http://www.w3.org/TR/2001/REC-SVG-20010904/DTD/svg10.dtd">
<svg version="1.0" xmlns="http://www.w3.org/2000/svg"
 width="1536.000000pt" height="771.000000pt" viewBox="0 0 1536.000000 771.000000"
 preserveAspectRatio="xMidYMid meet">
<metadata>
Created by potrace 1.16, written by Peter Selinger 2001-2019
</metadata>
<g transform="translate(0.000000,771.000000) scale(0.100000,-0.100000)"
fill="#000000" stroke="none">
<path d="M4155 7694 c-211 -46 -482 -190 -709 -375 -158 -129 -171 -138 -216
-148 -25 -5 -88 -12 -140 -16 -160 -10 -525 -54 -715 -86 -99 -16 -288 -46
-420 -65 -251 -37 -388 -63 -492 -95 -87 -27 -165 -100 -217 -204 -46 -92 -89
-129 -251 -215 -195 -104 -226 -129 -626 -501 -325 -302 -368 -359 -369 -485
0 -96 22 -154 81 -209 61 -57 69 -76 69 -163 0 -37 7 -95 15 -130 44 -184 144
-284 330 -328 66 -16 74 -21 147 -95 49 -49 99 -88 135 -106 55 -27 66 -28
223 -31 111 -3 245 3 407 17 285 25 348 25 588 6 99 -7 324 -19 500 -25 606
-20 732 -35 892 -103 160 -68 270 -142 808 -542 397 -295 441 -327 670 -477
428 -282 664 -409 986 -532 52 -20 116 -49 142 -65 39 -25 48 -38 62 -83 22
-75 62 -557 82 -1001 19 -422 16 -467 -36 -582 -40 -87 -190 -340 -241 -404
-64 -81 -76 -84 -264 -76 l-161 7 -75 -35 c-55 -26 -98 -38 -161 -46 -138 -16
-237 -64 -315 -155 -39 -44 -81 -113 -73 -120 2 -2 44 3 92 11 107 18 140 9
157 -43 7 -20 18 -34 28 -34 9 0 37 -10 62 -22 37 -17 62 -20 137 -19 69 1
106 -3 152 -19 48 -16 86 -20 188 -20 121 0 131 -2 191 -30 56 -26 75 -30 150
-30 48 0 116 7 151 15 105 25 151 57 259 179 144 165 243 266 274 282 23 12
40 13 90 4 37 -7 149 -10 282 -8 l221 3 70 -40 c67 -38 75 -40 170 -43 171 -7
396 47 507 121 81 54 158 149 298 367 65 102 145 214 176 250 74 83 88 118
114 270 58 343 99 501 162 628 30 62 45 82 56 77 168 -64 1416 -423 1637 -470
149 -32 151 -34 392 -288 290 -306 372 -401 360 -413 -14 -14 -217 -45 -417
-64 -124 -11 -253 -25 -288 -31 -87 -13 -323 -13 -402 0 -36 7 -105 24 -153
38 -84 25 -93 26 -160 15 -44 -8 -105 -29 -161 -57 -141 -69 -353 -187 -391
-218 -39 -31 -80 -97 -90 -143 l-6 -32 68 19 c41 12 100 19 150 19 l83 0 0
-51 0 -51 33 8 c77 21 177 9 304 -35 67 -23 157 -46 200 -51 71 -10 202 -6
261 6 21 4 23 2 20 -28 l-3 -33 95 -1 c119 0 106 3 167 -43 29 -21 68 -42 88
-45 20 -4 51 -16 68 -27 42 -25 53 -24 131 12 79 37 100 35 213 -19 86 -41
112 -43 298 -28 89 8 108 6 175 -13 68 -20 112 -23 470 -33 429 -13 693 -15
950 -8 158 4 169 3 270 -25 94 -26 121 -30 250 -30 142 0 146 1 210 31 94 45
326 244 357 306 l23 46 88 1 c247 3 437 115 592 351 71 107 378 718 469 933
151 357 200 579 208 937 4 202 2 245 -21 425 -49 368 -104 671 -173 935 -96
372 -286 845 -422 1050 -183 275 -498 580 -851 822 -198 136 -751 444 -1209
673 -416 208 -565 273 -896 395 -71 27 -247 93 -390 148 -353 136 -470 175
-659 222 -410 101 -1042 179 -2061 256 -565 43 -870 35 -1255 -31 -407 -71
-1117 -281 -1505 -445 -336 -143 -425 -169 -607 -177 -96 -4 -128 -3 -128 6 0
7 5 43 11 80 23 137 -26 273 -148 416 -141 166 -233 254 -302 288 l-65 32
-226 2 c-172 2 -242 -1 -295 -13z m3407 -6292 c31 -48 64 -104 73 -124 22 -55
19 -134 -9 -193 -52 -111 -114 -155 -223 -155 -90 0 -273 21 -273 32 0 20 354
528 368 528 4 0 33 -40 64 -88z"/>
</g>
</svg>
