<?xml version="1.0" standalone="no"?>
<!DOCTYPE svg PUBLIC "-//W3C//DTD SVG 20010904//EN"
 "http://www.w3.org/TR/2001/REC-SVG-20010904/DTD/svg10.dtd">
<svg version="1.0" xmlns="http://www.w3.org/2000/svg"
 width="1536.000000pt" height="792.000000pt" viewBox="0 0 1536.000000 792.000000"
 preserveAspectRatio="xMidYMid meet">
<metadata>
Created by potrace 1.16, written by Peter Selinger 2001-2019
</metadata>
<g transform="translate(0.000000,792.000000) scale(0.100000,-0.100000)"
fill="#000000" stroke="none">
<path d="M5244 7896 c-61 -13 -137 -35 -170 -49 -75 -31 -108 -38 -394 -87
-270 -46 -240 -32 -426 -202 -158 -144 -341 -249 -649 -372 -121 -49 -245
-101 -276 -117 -31 -15 -130 -53 -220 -84 -184 -63 -201 -72 -494 -270 -366
-247 -673 -418 -935 -520 -171 -67 -369 -164 -423 -208 -44 -34 -402 -460
-471 -559 -24 -35 -148 -227 -276 -428 -128 -201 -261 -406 -296 -457 -107
-155 -203 -364 -211 -458 -8 -97 19 -234 61 -310 50 -89 79 -120 158 -172 57
-38 75 -57 110 -116 50 -88 59 -105 96 -188 67 -150 127 -182 378 -204 210
-19 244 -26 269 -62 51 -73 162 -170 240 -210 86 -44 317 -140 375 -155 19 -6
242 -13 495 -16 l460 -7 310 -169 c171 -92 393 -213 495 -269 102 -55 242
-133 313 -174 70 -40 222 -121 339 -179 196 -98 221 -108 355 -139 226 -53
245 -60 310 -114 89 -75 293 -305 430 -486 65 -86 155 -226 149 -232 -12 -12
-297 -33 -449 -33 l-178 0 -102 -40 c-55 -22 -131 -47 -167 -56 -86 -22 -107
-33 -188 -103 -71 -61 -102 -113 -116 -194 -9 -48 8 -56 60 -28 21 12 44 21
50 21 22 0 56 -49 69 -100 16 -61 42 -92 100 -120 55 -27 143 -26 231 1 82 25
153 26 254 3 84 -19 142 -15 236 16 41 14 72 32 88 51 30 36 46 36 274 10
l164 -19 131 34 c179 47 294 82 340 106 45 22 54 19 37 -13 -12 -22 -7 -169 6
-191 3 -5 19 3 36 17 61 51 88 46 193 -35 113 -86 246 -113 426 -86 59 9 142
16 185 16 l79 -1 52 -68 53 -69 37 19 c45 23 92 24 238 4 194 -26 170 -34 375
120 122 92 192 153 219 188 21 29 87 144 146 257 59 113 108 206 110 208 1 1
62 -25 136 -58 172 -79 183 -81 206 -41 10 17 24 31 31 31 31 0 506 -105 636
-140 153 -42 239 -58 500 -90 162 -21 186 -21 555 -10 669 19 761 28 899 91
l64 29 44 -31 c82 -56 190 -101 257 -106 82 -7 154 12 320 84 144 63 130 61
367 52 107 -3 268 36 507 122 161 58 715 223 1061 316 l177 47 225 1 c251 1
283 6 429 67 223 93 258 120 366 282 155 233 191 333 231 636 20 156 14 260
-25 411 -42 162 -75 249 -141 369 -276 502 -572 1074 -625 1204 -42 107 -111
212 -317 487 -286 381 -518 663 -610 742 -106 90 -685 510 -934 679 -147 100
-246 147 -735 356 -243 104 -457 174 -961 312 -424 117 -446 121 -763 130
-154 5 -469 21 -700 37 -529 34 -1068 39 -1225 10 -111 -21 -269 -82 -465
-179 -208 -104 -251 -132 -355 -234 -122 -118 -125 -119 -385 -118 l-200 1
-295 74 c-266 67 -295 77 -292 94 1 11 18 119 37 240 51 315 53 359 20 470
-36 124 -76 206 -132 272 -79 92 -268 259 -371 327 -183 120 -248 144 -412
151 -86 4 -125 1 -216 -19z"/>
</g>
</svg>
