<?xml version="1.0" standalone="no"?>
<!DOCTYPE svg PUBLIC "-//W3C//DTD SVG 20010904//EN"
 "http://www.w3.org/TR/2001/REC-SVG-20010904/DTD/svg10.dtd">
<svg version="1.0" xmlns="http://www.w3.org/2000/svg"
 width="1536.000000pt" height="960.000000pt" viewBox="0 0 1536.000000 960.000000"
 preserveAspectRatio="xMidYMid meet">
<metadata>
Created by potrace 1.16, written by Peter Selinger 2001-2019
</metadata>
<g transform="translate(0.000000,960.000000) scale(0.100000,-0.100000)"
fill="#000000" stroke="none">
<path d="M6440 9575 c-431 -34 -616 -62 -895 -135 -271 -70 -449 -136 -665
-246 -314 -160 -498 -315 -689 -579 -58 -81 -144 -181 -226 -265 -112 -114
-139 -148 -174 -217 -22 -46 -52 -90 -65 -99 -30 -19 -344 -57 -426 -51 -34 2
-84 16 -130 37 -95 43 -153 47 -341 26 -153 -18 -204 -14 -284 20 -33 13 -54
15 -115 8 -92 -10 -173 -10 -265 0 -65 7 -79 5 -196 -32 -69 -22 -177 -50
-240 -62 -137 -26 -166 -38 -291 -123 -79 -54 -117 -72 -200 -97 -134 -41
-172 -57 -200 -87 -13 -14 -48 -41 -78 -61 -59 -39 -330 -311 -452 -454 -41
-48 -90 -115 -108 -150 -18 -35 -55 -90 -82 -123 -27 -33 -66 -96 -88 -140
-140 -290 -151 -319 -191 -485 -21 -91 -39 -184 -39 -208 0 -48 19 -101 54
-146 16 -22 25 -50 28 -92 7 -70 27 -113 113 -240 73 -106 86 -144 115 -327
49 -305 64 -354 138 -445 39 -48 45 -64 62 -150 10 -53 26 -169 35 -257 18
-179 36 -264 94 -454 22 -71 47 -167 55 -213 20 -112 37 -156 106 -273 32 -55
70 -125 83 -155 71 -163 109 -264 128 -340 44 -179 107 -242 334 -335 50 -21
116 -50 147 -66 42 -21 72 -29 110 -29 l53 0 28 -50 c40 -70 51 -74 181 -65
164 12 240 9 292 -14 48 -22 139 -99 319 -271 129 -123 225 -190 273 -190 76
0 159 74 319 285 111 147 192 225 255 250 46 17 50 17 116 0 63 -17 70 -17
100 -1 18 9 44 36 59 59 63 98 98 116 165 81 17 -9 68 -22 112 -30 76 -13 84
-17 123 -59 55 -59 94 -61 173 -9 l55 35 37 -41 c20 -23 63 -92 94 -153 31
-62 72 -134 92 -160 34 -47 35 -48 55 -30 11 10 37 42 59 70 21 29 50 61 65
70 25 17 26 16 50 -13 94 -112 148 -150 230 -161 59 -7 68 -14 100 -77 50
-100 67 -106 130 -44 36 35 47 41 61 32 9 -6 52 -60 94 -119 122 -171 124
-172 181 -82 20 30 41 58 47 62 6 4 54 4 106 0 l93 -7 91 -85 c118 -111 137
-148 149 -292 6 -60 17 -125 25 -145 38 -92 175 -243 310 -345 117 -88 136
-111 136 -168 0 -60 -17 -96 -85 -178 -71 -86 -189 -262 -221 -330 -44 -92
-26 -139 67 -170 36 -12 49 -24 68 -60 30 -56 74 -85 132 -85 24 0 126 -10
227 -22 207 -24 226 -23 557 43 174 35 181 39 216 148 l22 69 71 6 c101 10
141 23 180 57 79 69 84 181 21 399 -62 210 -58 344 12 371 23 9 43 5 118 -20
50 -17 123 -34 163 -39 67 -8 75 -7 106 14 44 30 73 77 86 141 6 28 20 59 31
69 15 13 18 25 13 51 -4 19 -1 61 6 93 10 47 10 73 1 120 -12 61 -12 61 30
152 38 84 41 95 35 149 -3 36 0 89 9 136 13 68 13 84 0 138 -8 33 -21 97 -29
142 -8 45 -26 108 -40 139 -14 31 -26 69 -26 84 0 48 97 168 300 372 160 161
206 202 253 223 112 52 198 51 445 -1 96 -20 167 -26 397 -35 367 -14 514 -9
578 19 91 41 112 28 142 -88 20 -78 37 -112 68 -137 14 -11 44 -66 72 -132 26
-62 55 -115 63 -119 27 -10 439 430 560 598 167 232 273 370 355 460 85 94
263 260 279 260 15 0 170 -154 217 -215 25 -33 90 -107 144 -165 92 -99 104
-115 187 -280 129 -256 135 -278 135 -485 0 -202 -10 -255 -115 -602 -101
-337 -168 -496 -275 -658 -52 -78 -90 -118 -286 -297 -76 -69 -103 -101 -134
-160 -31 -59 -70 -106 -204 -243 -298 -304 -374 -402 -373 -476 2 -119 124
-165 417 -156 335 11 606 32 677 53 20 6 30 35 58 163 26 123 72 201 118 201
6 0 16 -24 22 -52 45 -190 73 -228 166 -228 49 0 59 4 97 38 23 22 76 62 117
89 115 77 133 118 200 464 27 139 58 257 104 396 36 109 81 248 100 310 38
122 157 352 353 682 134 226 201 317 219 299 24 -24 62 -163 75 -268 14 -126
6 -371 -17 -492 -24 -130 -114 -386 -208 -592 -106 -234 -137 -289 -233 -418
-164 -220 -216 -324 -225 -447 -3 -43 -2 -44 37 -58 155 -54 593 -58 875 -7
89 16 188 55 214 83 9 9 20 56 27 110 11 87 13 92 33 86 51 -17 167 -17 211
-1 68 26 121 86 145 163 41 132 42 168 35 888 -8 754 -9 739 51 1000 45 198
111 391 189 551 119 245 125 352 30 550 -54 111 -116 178 -298 318 -70 54
-146 119 -168 145 -101 114 -221 331 -253 457 -25 98 -20 157 44 478 32 165
64 353 70 418 6 67 21 153 36 205 98 326 141 639 131 937 -4 135 -10 179 -35
276 -35 133 -101 297 -161 395 -22 38 -41 74 -41 81 0 14 72 9 148 -12 79 -22
164 -114 269 -292 67 -114 86 -195 86 -382 0 -235 -41 -449 -127 -658 -24 -59
-53 -145 -64 -192 -11 -47 -35 -123 -52 -170 -29 -79 -32 -98 -40 -275 -5
-106 -16 -216 -24 -250 -9 -33 -16 -91 -16 -128 0 -78 29 -161 104 -301 24
-45 65 -135 91 -201 26 -66 56 -138 67 -159 29 -57 114 -143 155 -157 111 -36
257 134 284 329 26 193 28 205 53 241 15 21 26 50 26 65 0 46 36 172 94 333
88 240 88 244 76 833 -14 650 -25 819 -75 1066 -58 290 -165 494 -359 690 -50
51 -116 119 -147 152 -49 53 -74 69 -210 136 -204 100 -295 135 -534 207 -110
33 -291 96 -402 140 -223 88 -344 122 -593 169 -91 17 -201 38 -245 46 -44 9
-120 27 -170 40 -49 14 -137 32 -195 39 -58 7 -161 25 -230 38 -69 14 -215 35
-325 47 -212 23 -379 45 -640 84 -88 13 -290 38 -450 55 -682 74 -865 103
-1110 181 -49 16 -154 45 -233 65 -78 20 -238 69 -356 110 -278 96 -326 105
-631 115 -137 5 -261 11 -275 14 -14 3 -115 13 -225 21 -128 9 -254 25 -350
45 -94 18 -211 34 -315 40 -91 6 -220 17 -287 25 -151 19 -211 18 -553 -10z"/>
</g>
</svg>
