<?xml version="1.0" standalone="no"?>
<!DOCTYPE svg PUBLIC "-//W3C//DTD SVG 20010904//EN"
 "http://www.w3.org/TR/2001/REC-SVG-20010904/DTD/svg10.dtd">
<svg version="1.0" xmlns="http://www.w3.org/2000/svg"
 width="1536.000000pt" height="527.000000pt" viewBox="0 0 1536.000000 527.000000"
 preserveAspectRatio="xMidYMid meet">
<metadata>
Created by potrace 1.16, written by Peter Selinger 2001-2019
</metadata>
<g transform="translate(0.000000,527.000000) scale(0.100000,-0.100000)"
fill="#000000" stroke="none">
<path d="M14165 5252 c-75 -46 -184 -192 -315 -422 -101 -176 -149 -249 -196
-294 -92 -89 -754 -362 -1409 -582 -693 -231 -1311 -373 -1970 -451 -116 -13
-230 -17 -505 -18 -314 0 -374 3 -520 23 -228 31 -538 94 -985 202 -936 224
-923 222 -1230 240 -88 5 -824 14 -1636 20 l-1475 11 -502 -56 c-276 -30 -524
-55 -551 -55 -26 0 -147 12 -267 26 -271 31 -587 42 -774 25 -296 -27 -872
-162 -1145 -268 -203 -79 -291 -144 -352 -259 -43 -82 -63 -165 -70 -302 l-6
-116 -112 -111 c-61 -60 -119 -126 -128 -147 -33 -71 -13 -146 46 -173 17 -8
60 -37 94 -64 81 -64 159 -89 425 -136 210 -37 296 -63 506 -150 136 -56 228
-76 522 -110 411 -48 513 -79 780 -235 264 -153 556 -288 885 -407 167 -60
186 -69 191 -92 59 -277 132 -440 295 -661 176 -240 711 -689 821 -690 33 0
119 121 202 289 93 185 150 334 187 494 38 162 66 207 130 207 21 0 107 -11
191 -25 692 -111 2456 -202 3390 -175 331 10 391 15 663 61 950 158 1861 505
2675 1017 298 187 470 321 676 527 258 257 376 417 883 1202 l325 501 95 6
c421 26 699 110 975 294 145 96 362 336 381 422 10 45 -5 53 -120 61 -64 4
-115 13 -128 22 -12 8 -62 49 -112 91 -135 117 -244 176 -319 176 -17 0 -62
-11 -99 -25 l-69 -24 4 49 3 49 -127 3 c-115 3 -129 5 -150 26 -29 27 -35 27
-73 4z"/>
</g>
</svg>
