<?xml version="1.0" standalone="no"?>
<!DOCTYPE svg PUBLIC "-//W3C//DTD SVG 20010904//EN"
 "http://www.w3.org/TR/2001/REC-SVG-20010904/DTD/svg10.dtd">
<svg version="1.0" xmlns="http://www.w3.org/2000/svg"
 width="2886.000000pt" height="1687.000000pt" viewBox="0 0 2886.000000 1687.000000"
 preserveAspectRatio="xMidYMid meet">
<metadata>
Created by potrace 1.16, written by Peter Selinger 2001-2019
</metadata>
<g transform="translate(0.000000,1687.000000) scale(0.100000,-0.100000)"
fill="#000000" stroke="none">
<path d="M25631 16855 c-18 -9 -102 -63 -185 -122 -138 -98 -177 -119 -451
-246 -628 -290 -721 -329 -815 -339 -210 -22 -330 -60 -547 -174 -163 -85
-380 -225 -648 -419 -889 -643 -1349 -987 -1940 -1453 -567 -447 -724 -578
-1230 -1020 -319 -279 -758 -667 -976 -863 l-397 -355 -193 -73 c-233 -88
-419 -180 -459 -229 -36 -44 -134 -225 -150 -277 -26 -85 -173 -318 -483 -767
-310 -451 -328 -480 -497 -794 l-175 -326 -113 -112 c-123 -120 -143 -150
-162 -240 -18 -85 -9 -113 64 -193 45 -50 72 -92 95 -146 50 -120 49 -124 -90
-401 -67 -132 -141 -272 -164 -311 -28 -46 -64 -133 -103 -250 -33 -99 -103
-290 -156 -425 l-96 -245 -73 -69 c-137 -131 -424 -358 -485 -383 -23 -9 -99
-18 -221 -24 -119 -6 -219 -16 -276 -29 -234 -52 -474 -38 -725 45 -72 23
-505 145 -517 145 -3 0 -60 53 -127 119 -93 91 -130 121 -161 130 -22 6 -65
17 -96 25 -102 28 -118 45 -172 191 -212 573 -589 1641 -743 2106 -195 590
-275 793 -526 1339 -49 107 -160 350 -245 540 -183 405 -269 552 -344 587 -24
11 -170 62 -324 112 -277 90 -281 91 -435 184 -183 110 -231 140 -625 392
-165 106 -439 272 -610 370 -330 190 -1012 583 -1335 770 -839 485 -1134 653
-1195 681 -38 17 -187 85 -330 149 -473 214 -907 416 -1065 495 -167 84 -221
105 -375 143 -167 42 -235 48 -706 56 -520 10 -428 -3 -1014 143 -581 144
-535 138 -744 92 -112 -25 -117 -27 -250 -117 -88 -59 -176 -108 -251 -140
-359 -153 -1037 -432 -1170 -482 -85 -32 -243 -94 -350 -139 l-195 -82 -38
-109 -37 -109 35 -124 c53 -184 152 -483 189 -572 23 -53 188 -311 526 -821
521 -787 942 -1413 1020 -1517 49 -65 183 -214 352 -390 l100 -104 271 52 270
52 581 -12 581 -12 680 -139 680 -140 205 -101 c113 -56 278 -136 367 -179
190 -91 281 -142 383 -217 182 -133 517 -455 742 -712 127 -145 151 -185 316
-530 l75 -155 -6 -100 c-15 -234 -53 -457 -97 -568 -61 -153 -75 -318 -32
-376 25 -35 120 -91 152 -91 14 0 80 20 146 44 396 146 610 160 944 59 115
-34 116 -35 285 -163 94 -70 191 -146 217 -169 26 -23 165 -186 310 -362 223
-271 283 -351 394 -527 334 -530 771 -1258 1071 -1787 704 -1238 858 -1501
987 -1693 110 -165 103 -130 81 -407 -8 -99 -15 -228 -15 -286 0 -102 2 -109
35 -175 51 -102 112 -165 248 -255 188 -124 196 -123 269 31 28 61 55 110 58
110 12 0 28 -46 95 -271 86 -293 142 -463 171 -520 18 -37 50 -67 159 -150
271 -207 251 -197 523 -267 190 -49 338 -98 713 -233 797 -287 833 -299 897
-300 127 -2 165 -12 264 -72 105 -63 137 -69 173 -32 33 32 32 56 -10 164 -19
49 -35 100 -35 112 0 13 20 66 45 119 71 153 107 321 126 592 l11 163 50 98
c48 96 50 101 59 225 6 70 9 205 7 301 l-3 175 148 67 c81 37 180 90 220 117
76 52 411 258 707 433 96 57 193 122 216 144 50 51 67 107 58 202 l-5 68 89
42 c149 70 179 100 255 255 61 126 105 247 210 588 60 193 77 281 77 392 -1
204 -24 350 -90 564 -17 53 -30 105 -30 116 0 11 45 67 105 131 115 122 143
168 176 292 43 166 21 298 -63 370 -63 53 -101 68 -161 60 -85 -11 -110 -22
-223 -106 l-109 -79 -11 87 c-6 49 -20 118 -31 155 l-21 66 112 204 c167 304
311 504 653 911 275 328 311 367 532 572 293 272 444 385 846 637 560 351 504
322 800 415 l260 82 295 20 c162 11 367 25 454 31 106 7 167 15 181 24 12 8
36 36 52 63 30 47 31 53 37 203 7 153 6 156 -22 240 -54 160 -56 174 -33 308
26 156 33 174 132 349 l84 148 278 285 278 285 412 283 c227 156 428 292 447
301 36 19 801 316 968 377 96 35 190 64 732 227 296 90 331 98 580 137 307 48
530 86 615 105 149 34 619 88 920 105 322 18 381 34 402 107 6 23 21 129 33
235 l22 193 164 399 c152 368 170 407 231 490 37 50 203 273 368 496 244 328
698 970 735 1039 4 9 31 90 59 180 l52 164 -77 136 c-166 294 -203 335 -437
489 -166 109 -265 141 -646 213 -202 37 -703 137 -906 181 -162 34 -667 128
-825 154 -144 23 -156 27 -175 52 -39 54 -83 92 -106 92 -13 -1 -39 -7 -58
-15z"/>
</g>
</svg>
