<?xml version="1.0" standalone="no"?>
<!DOCTYPE svg PUBLIC "-//W3C//DTD SVG 20010904//EN"
 "http://www.w3.org/TR/2001/REC-SVG-20010904/DTD/svg10.dtd">
<svg version="1.0" xmlns="http://www.w3.org/2000/svg"
 width="1459.000000pt" height="1347.000000pt" viewBox="0 0 1459.000000 1347.000000"
 preserveAspectRatio="xMidYMid meet">
<metadata>
Created by potrace 1.16, written by Peter Selinger 2001-2019
</metadata>
<g transform="translate(0.000000,1347.000000) scale(0.100000,-0.100000)"
fill="#000000" stroke="none">
<path d="M4755 13459 c-184 -13 -306 -44 -500 -126 -243 -104 -487 -239 -655
-364 -115 -84 -256 -229 -325 -332 l-60 -89 -40 7 c-22 4 -78 9 -125 11 -82 4
-86 5 -110 36 -42 55 -151 157 -230 216 -41 30 -105 81 -142 113 -37 31 -102
76 -145 100 -43 23 -115 64 -159 90 -124 72 -266 132 -394 165 -106 27 -273
24 -395 -9 -254 -67 -336 -109 -479 -247 -144 -139 -227 -282 -319 -545 -76
-220 -94 -378 -107 -956 -6 -255 -15 -536 -20 -624 -6 -88 -10 -171 -10 -185
0 -21 -3 -20 -38 20 -20 24 -55 67 -77 97 -48 63 -134 129 -187 143 -41 12
-157 4 -201 -12 -15 -6 -30 -21 -33 -33 -6 -24 15 -73 40 -94 8 -7 32 -40 54
-74 40 -63 80 -172 128 -352 45 -171 94 -327 124 -395 17 -38 33 -99 39 -145
12 -97 24 -131 91 -265 68 -135 158 -269 208 -309 110 -87 237 -108 349 -56
32 14 74 39 93 54 19 15 49 35 65 44 114 60 261 312 341 585 14 52 32 158 44
277 29 271 72 512 119 667 22 73 49 166 61 206 l21 72 49 -39 c27 -22 73 -53
102 -70 110 -62 185 -181 199 -316 5 -44 20 -127 34 -185 13 -58 31 -150 40
-205 8 -55 26 -143 40 -195 14 -52 30 -144 35 -205 21 -240 117 -515 219 -628
l34 -38 -9 -147 c-4 -81 -7 -174 -6 -207 3 -96 46 -282 89 -390 28 -67 44
-129 52 -190 16 -121 32 -181 95 -349 88 -233 112 -275 276 -471 101 -121 261
-358 315 -465 26 -52 66 -122 89 -155 35 -52 131 -228 253 -465 18 -36 45
-110 59 -164 41 -156 144 -402 240 -570 155 -271 166 -288 238 -361 74 -75
236 -189 346 -245 36 -18 97 -54 135 -80 39 -26 104 -66 145 -90 203 -117 258
-153 268 -175 19 -42 41 -138 67 -293 14 -83 30 -163 35 -177 18 -48 31 -150
40 -310 5 -97 19 -211 34 -290 37 -188 63 -346 76 -460 13 -119 14 -344 1
-394 -6 -20 -17 -112 -26 -206 -45 -482 -66 -657 -105 -854 -10 -53 -39 -220
-65 -371 -25 -151 -48 -284 -50 -295 -5 -24 -55 -103 -105 -165 -20 -25 -47
-70 -59 -100 -13 -30 -39 -89 -58 -130 -50 -107 -73 -206 -73 -314 0 -111 18
-149 77 -165 21 -6 44 -11 51 -11 6 0 12 -4 12 -10 0 -15 147 -13 153 3 3 7 6
5 6 -5 1 -10 4 -18 9 -19 167 -12 553 3 560 22 5 12 110 11 114 -1 5 -15 251
-17 256 -2 2 6 15 12 28 12 31 0 88 37 108 71 9 15 31 46 50 68 60 71 74 128
74 287 0 78 5 152 12 169 11 29 73 95 89 95 11 0 111 95 111 106 0 4 6 15 14
23 8 9 25 59 37 111 26 105 30 247 14 595 -6 150 -5 184 14 292 12 67 22 135
22 150 3 82 110 561 128 573 5 3 18 50 30 105 19 90 36 158 127 495 14 52 39
138 55 190 30 91 31 105 40 355 4 143 11 269 13 280 3 12 10 104 16 205 10
169 33 382 47 438 4 17 19 26 61 38 46 14 87 16 232 11 170 -5 294 -22 451
-62 108 -27 454 -151 569 -202 36 -17 97 -40 135 -53 39 -12 87 -31 108 -42
73 -36 610 -254 654 -264 15 -4 61 -20 100 -35 79 -31 334 -98 478 -125 218
-40 670 15 1189 147 105 26 281 85 328 110 19 10 57 -22 136 -116 35 -40 39
-43 22 -15 -25 43 -25 66 -2 75 19 7 30 -4 325 -326 208 -226 293 -335 344
-440 208 -430 208 -430 191 -568 -6 -42 -11 -92 -13 -111 -8 -78 -15 -148 -19
-195 -3 -27 -8 -81 -11 -120 -4 -38 -24 -151 -45 -250 -21 -99 -43 -227 -49
-284 -6 -57 -15 -109 -20 -115 -14 -17 -69 -184 -86 -261 -8 -38 -19 -79 -24
-90 -5 -11 -16 -42 -26 -70 -26 -77 -70 -181 -140 -331 -36 -78 -55 -103 -124
-169 -45 -43 -98 -89 -119 -103 -66 -44 -202 -185 -252 -263 -56 -88 -94 -189
-85 -229 15 -67 94 -97 295 -111 80 -5 186 -9 235 -8 50 1 127 -2 173 -6 l82
-8 71 74 c95 99 182 199 204 237 22 36 77 66 160 88 87 22 183 91 185 132 0 6
5 12 10 12 6 0 10 5 10 10 0 6 19 36 41 66 l42 54 2 193 c2 197 12 300 40 422
19 84 47 169 58 173 4 2 7 12 7 22 0 10 5 22 10 25 6 3 10 15 10 26 0 10 5 19
10 19 6 0 10 7 10 15 0 8 4 23 9 33 34 68 51 105 51 113 0 5 12 34 26 66 14
32 30 68 35 81 5 12 13 32 18 45 21 52 52 159 71 247 12 52 25 99 31 105 5 5
9 18 9 30 0 11 20 61 43 110 24 50 47 103 51 118 4 15 19 46 35 67 33 45 34
45 76 -40 15 -30 41 -74 57 -98 16 -23 44 -75 63 -115 39 -81 64 -220 111
-615 30 -259 28 -460 -8 -570 -11 -34 -21 -73 -24 -85 -2 -12 -10 -47 -18 -77
-7 -30 -22 -91 -31 -135 -25 -116 -27 -119 -181 -235 -51 -38 -108 -88 -128
-112 -60 -73 -145 -217 -157 -266 -6 -26 -18 -62 -26 -80 -21 -48 -10 -94 33
-131 39 -35 30 -34 309 -34 206 -1 385 13 412 30 15 10 31 43 49 100 48 149
128 245 240 284 74 26 92 44 157 152 l42 72 1 155 c2 157 7 220 44 500 47 363
60 559 64 1010 4 421 5 440 31 585 35 190 40 263 25 312 -17 53 -132 259 -316
563 -74 121 -215 417 -232 485 -6 22 -13 81 -17 130 -3 50 -17 137 -30 195
-40 171 -45 224 -45 462 0 329 28 551 100 793 54 182 158 548 184 650 28 108
73 250 130 412 90 253 115 579 65 843 -17 88 -27 114 -126 319 -141 293 -217
414 -414 661 -304 381 -356 440 -509 572 -180 156 -405 295 -583 363 -75 28
-382 89 -517 103 -52 6 -349 11 -660 11 -397 0 -633 5 -790 16 -251 17 -453
19 -645 5 -168 -11 -481 -55 -617 -85 -182 -41 -267 -48 -488 -42 -172 5 -221
10 -305 31 -56 14 -141 30 -190 37 -50 6 -135 24 -190 41 -55 16 -167 47 -250
69 -82 22 -199 57 -260 76 -60 20 -158 46 -216 59 -59 12 -151 40 -205 62 -55
21 -124 47 -154 57 -30 10 -71 26 -90 35 -70 35 -335 120 -412 131 -63 10 -77
15 -73 28 5 18 21 186 30 326 4 50 16 160 27 245 27 206 21 402 -18 575 -112
505 -204 730 -414 1016 -213 290 -436 516 -591 599 -32 17 -132 58 -221 91
-132 49 -188 64 -293 79 -71 11 -154 24 -184 30 -59 11 -140 11 -306 -1z m566
-1837 c61 -134 119 -283 134 -338 13 -49 13 -69 -1 -172 -9 -64 -26 -169 -39
-232 -13 -63 -26 -137 -30 -165 -3 -27 -11 -78 -17 -112 l-10 -63 -52 0 c-48
0 -55 3 -91 41 -22 22 -56 50 -75 61 -19 12 -98 83 -175 158 -152 147 -221
199 -360 270 -81 42 -91 50 -103 85 -17 53 -8 75 31 75 78 0 295 86 402 160
113 78 220 199 280 319 l27 53 24 -36 c14 -20 39 -67 55 -104z m866 -7949 c-6
-239 -30 -468 -77 -733 -11 -63 -23 -150 -27 -193 -3 -43 -10 -80 -15 -83 -4
-3 -8 -22 -8 -43 0 -22 -7 -74 -15 -117 -8 -44 -28 -171 -44 -284 -32 -221
-77 -473 -89 -504 -12 -29 -56 174 -49 227 10 83 58 343 72 392 8 28 21 100
30 162 9 61 21 126 26 145 12 39 44 221 64 363 8 55 15 168 15 250 0 121 5
173 26 270 13 66 32 170 40 230 19 139 20 145 40 117 12 -18 14 -53 11 -199z"/>
</g>
</svg>
