<?xml version="1.0" standalone="no"?>
<!DOCTYPE svg PUBLIC "-//W3C//DTD SVG 20010904//EN"
 "http://www.w3.org/TR/2001/REC-SVG-20010904/DTD/svg10.dtd">
<svg version="1.0" xmlns="http://www.w3.org/2000/svg"
 width="1536.000000pt" height="511.000000pt" viewBox="0 0 1536.000000 511.000000"
 preserveAspectRatio="xMidYMid meet">
<metadata>
Created by potrace 1.16, written by Peter Selinger 2001-2019
</metadata>
<g transform="translate(0.000000,511.000000) scale(0.100000,-0.100000)"
fill="#000000" stroke="none">
<path d="M6645 5104 c-465 -14 -587 -31 -824 -118 -69 -25 -126 -46 -128 -46
-1 0 6 23 17 50 11 28 20 53 20 56 0 2 -30 -18 -67 -46 -38 -28 -72 -51 -78
-50 -5 0 -17 21 -26 47 l-15 46 -111 -106 c-115 -109 -247 -204 -383 -272 -59
-30 -115 -46 -284 -81 -283 -59 -614 -141 -693 -171 -9 -4 -13 7 -13 35 0 73
-5 76 -67 41 l-55 -32 -45 22 c-47 23 -63 20 -98 -19 -30 -33 -44 -38 -230
-86 -209 -53 -308 -84 -440 -136 -55 -22 -185 -71 -290 -110 -104 -38 -234
-89 -289 -114 -54 -25 -104 -43 -111 -40 -8 3 -22 28 -32 56 -10 30 -29 59
-43 69 -33 23 -144 71 -162 71 -30 0 -184 -61 -223 -89 -22 -15 -63 -62 -92
-105 -67 -98 -95 -185 -92 -286 l2 -74 -64 -59 c-170 -154 -295 -231 -502
-307 -157 -58 -197 -83 -336 -214 -132 -125 -269 -238 -347 -288 -53 -34 -94
-74 -170 -164 -57 -68 -129 -141 -169 -172 -123 -93 -160 -129 -185 -175 l-24
-45 19 -61 c20 -68 61 -113 157 -175 61 -39 79 -57 103 -106 22 -45 62 -87
100 -108 55 -29 114 -32 282 -15 l163 16 99 -32 c216 -70 413 -56 699 49 95
35 160 43 517 65 138 8 315 22 395 31 80 9 168 13 195 10 63 -7 203 -60 234
-89 22 -21 81 -114 81 -129 0 -11 -264 -142 -389 -193 -58 -24 -194 -71 -301
-105 -107 -35 -215 -73 -240 -86 -127 -63 -225 -208 -194 -288 5 -12 21 -16
73 -16 66 0 68 -1 104 -40 25 -29 43 -40 64 -40 15 0 120 29 233 65 113 36
246 74 295 85 233 50 541 70 760 49 219 -22 298 -18 370 15 82 37 111 68 155
162 31 66 46 87 87 117 83 60 169 95 275 111 125 19 458 40 513 33 23 -4 96
-25 161 -48 118 -41 120 -42 314 -49 155 -7 227 -15 350 -40 208 -41 397 -48
795 -27 864 46 1113 30 1361 -87 l96 -46 -20 -28 c-28 -39 -104 -107 -138
-125 -46 -23 -67 -25 -309 -37 -284 -13 -350 -23 -446 -66 -101 -45 -229 -61
-355 -44 -167 22 -177 22 -214 3 -19 -10 -43 -33 -52 -52 -9 -19 -31 -49 -48
-66 l-32 -33 29 -6 c15 -3 45 -8 67 -12 25 -4 58 -24 96 -55 32 -26 70 -51 84
-55 34 -8 153 13 240 42 38 13 71 24 73 24 2 0 3 -18 3 -39 0 -22 4 -42 9 -45
16 -11 275 15 406 39 72 14 218 34 325 45 248 27 362 50 519 106 221 80 327
149 372 240 21 44 21 53 13 173 -11 168 -10 217 6 236 7 9 61 38 119 66 78 37
120 64 166 108 99 95 163 119 390 146 72 8 157 19 190 25 86 14 153 12 216 -6
30 -9 56 -18 58 -19 2 -2 -12 -17 -31 -34 -20 -17 -52 -60 -74 -97 -42 -72
-75 -101 -126 -111 -50 -10 -69 -25 -164 -139 -48 -58 -108 -120 -134 -138
-25 -18 -76 -67 -114 -109 -52 -58 -72 -90 -86 -134 -14 -46 -15 -59 -5 -65
24 -14 154 -28 200 -21 43 5 51 11 102 75 60 76 76 87 104 70 47 -30 157 -6
314 67 132 62 170 104 330 371 48 80 109 174 135 210 26 36 78 126 115 200 87
174 116 214 179 245 41 21 64 25 133 25 45 0 115 -4 155 -10 40 -5 161 -17
268 -25 284 -23 357 -32 535 -68 158 -31 163 -31 450 -31 189 1 439 10 715 27
588 36 770 41 1020 28 463 -25 514 -33 770 -119 268 -91 327 -119 403 -194 96
-95 102 -111 99 -298 -1 -85 -7 -177 -13 -205 -17 -73 -136 -328 -167 -357
-64 -60 -326 -250 -427 -310 -164 -97 -471 -254 -544 -277 -35 -11 -210 -47
-390 -80 -373 -68 -360 -66 -587 -86 -191 -17 -221 -24 -275 -60 -42 -27 -57
-64 -41 -99 10 -23 13 -23 259 -30 288 -8 424 2 733 54 158 27 220 46 490 148
469 178 674 274 835 392 100 73 256 237 324 340 133 203 175 328 175 520 0
114 -2 133 -32 217 -61 179 -173 371 -278 477 -117 120 -250 198 -474 279
-256 93 -457 131 -805 152 -424 26 -733 30 -957 11 -244 -20 -335 -20 -613 -1
-309 21 -392 31 -567 64 -84 16 -232 41 -328 56 -206 30 -331 59 -383 88 -31
17 -47 40 -92 128 -30 59 -55 110 -55 113 0 3 16 6 35 6 19 0 35 3 35 8 0 4
-28 24 -63 44 -110 66 -106 59 -69 104 18 21 32 42 32 46 0 3 -26 16 -57 28
-110 41 -140 64 -178 140 -19 38 -35 74 -35 80 0 6 24 22 53 35 l52 23 -95 44
c-155 73 -256 134 -420 256 -177 132 -216 164 -394 322 -282 252 -327 284
-536 382 -231 110 -265 129 -368 205 -122 91 -195 130 -348 182 -146 49 -179
56 -404 81 -96 11 -267 31 -380 46 -182 24 -242 27 -540 29 -184 1 -384 0
-445 -1z"/>
</g>
</svg>
