<?xml version="1.0" standalone="no"?>
<!DOCTYPE svg PUBLIC "-//W3C//DTD SVG 20010904//EN"
 "http://www.w3.org/TR/2001/REC-SVG-20010904/DTD/svg10.dtd">
<svg version="1.0" xmlns="http://www.w3.org/2000/svg"
 width="5307.000000pt" height="3834.000000pt" viewBox="0 0 5307.000000 3834.000000"
 preserveAspectRatio="xMidYMid meet">
<metadata>
Created by potrace 1.16, written by Peter Selinger 2001-2019
</metadata>
<g transform="translate(0.000000,3834.000000) scale(0.100000,-0.100000)"
fill="#000000" stroke="none">
<path d="M3903 38265 c-58 -93 -172 -264 -294 -440 -50 -71 -107 -163 -126
-203 l-37 -73 -7 -197 c-7 -196 -7 -197 -42 -279 -79 -182 -91 -234 -90 -388
0 -97 6 -171 20 -242 l20 -102 -29 25 c-25 20 -33 22 -45 12 -15 -12 -14 -36
3 -112 l7 -29 -37 21 c-20 12 -52 31 -71 43 l-35 21 74 -144 c41 -78 89 -179
106 -223 17 -44 44 -111 60 -149 38 -87 38 -99 3 -92 -83 16 -104 18 -117 7
-26 -22 -5 -52 60 -84 l63 -31 41 -93 c66 -151 72 -172 80 -303 7 -105 13
-137 38 -200 37 -90 82 -321 87 -441 0 -3 -121 -117 -270 -253 -312 -287 -897
-870 -1035 -1032 -52 -62 -135 -176 -185 -255 -119 -190 -219 -322 -296 -389
-35 -30 -140 -119 -233 -198 -248 -208 -295 -257 -360 -371 -77 -137 -114
-216 -126 -275 -13 -68 -93 -847 -118 -1166 -8 -95 -14 -116 -59 -220 -28 -63
-92 -198 -143 -300 -84 -170 -102 -199 -227 -355 -326 -411 -353 -455 -477
-777 -61 -158 -89 -291 -102 -474 -10 -157 0 -174 171 -294 50 -35 92 -67 94
-72 2 -5 43 -60 91 -122 l88 -112 12 -109 c19 -171 42 -215 187 -357 111 -111
163 -150 292 -218 56 -30 144 -82 195 -116 105 -68 381 -274 438 -325 l38 -34
15 -130 c13 -110 27 -164 90 -355 40 -124 76 -238 80 -255 4 -19 31 -54 76
-97 105 -102 261 -172 556 -249 111 -29 131 -31 338 -36 l220 -4 140 76 c77
41 244 127 370 189 127 63 373 196 548 296 l318 182 172 43 c95 24 243 60 330
81 l158 36 87 -27 c192 -60 280 -117 368 -241 53 -74 117 -209 133 -279 6 -27
27 -210 46 -405 44 -448 39 -420 75 -420 26 0 31 5 41 43 l11 42 24 -105 c48
-210 84 -298 215 -517 67 -112 123 -203 125 -203 2 0 12 19 21 41 l16 42 34
-67 c18 -36 35 -66 38 -66 2 0 16 5 30 12 19 9 24 16 19 32 -15 47 -14 50 3
28 10 -12 45 -73 78 -135 75 -140 85 -144 143 -54 45 70 179 213 190 203 3 -4
54 -127 112 -274 108 -270 120 -291 155 -262 8 6 19 37 25 68 19 101 23 102
54 21 34 -87 51 -109 83 -109 19 0 36 18 84 94 55 86 70 101 180 185 66 50
124 91 128 91 9 0 196 -249 293 -390 110 -160 166 -262 222 -402 29 -73 64
-155 78 -183 131 -259 196 -630 213 -1220 l6 -200 -39 -217 c-21 -120 -36
-218 -33 -218 3 0 40 34 83 77 l77 76 -25 -113 c-13 -62 -22 -115 -20 -117 2
-3 33 19 68 47 66 54 155 110 175 110 7 0 33 -39 59 -87 158 -295 262 -457
466 -730 221 -294 307 -436 557 -913 57 -107 106 -199 110 -203 4 -4 20 -3 34
2 25 10 26 13 21 58 l-6 48 42 -75 c23 -41 80 -133 128 -205 282 -427 458
-788 545 -1115 72 -272 164 -737 221 -1120 50 -333 52 -344 101 -466 93 -232
257 -592 720 -1579 379 -806 421 -902 494 -1128 186 -576 275 -1218 231 -1658
-43 -426 -410 -2207 -661 -3209 -88 -351 -120 -459 -238 -800 -142 -411 -273
-951 -305 -1255 -26 -247 -147 -753 -323 -1345 -68 -230 -250 -633 -363 -802
-26 -40 -99 -127 -162 -192 l-113 -119 -70 45 c-236 153 -448 212 -765 212
-215 1 -234 -3 -505 -126 -232 -104 -374 -179 -420 -219 -18 -16 -86 -97 -151
-181 -65 -84 -151 -193 -190 -243 -167 -210 -204 -364 -207 -856 -2 -325 2
-345 96 -445 131 -141 422 -351 556 -403 92 -35 231 -58 411 -66 74 -4 163
-13 198 -21 92 -20 160 -17 275 12 l102 26 100 -17 c55 -9 127 -27 160 -40 80
-31 104 -33 520 -45 446 -13 664 -26 756 -45 99 -21 198 -19 420 10 224 29
275 30 459 10 74 -8 177 -15 228 -15 199 0 502 97 613 197 54 49 87 117 153
320 60 180 70 200 200 382 46 64 100 145 119 181 47 86 148 343 192 489 19 64
86 264 148 446 l114 330 64 48 c204 154 276 245 342 427 58 161 253 761 507
1560 458 1442 418 1328 521 1512 138 247 660 1152 671 1163 6 6 7 -36 3 -115
-3 -69 -17 -489 -30 -935 -56 -1836 -65 -2187 -65 -2455 0 -125 -6 -268 -15
-340 -17 -152 -49 -320 -67 -357 -34 -72 -228 -130 -483 -144 -341 -18 -568
-49 -650 -89 -94 -45 -447 -448 -610 -695 -227 -345 -297 -476 -349 -652 -91
-307 -69 -405 138 -620 118 -123 233 -216 330 -266 54 -28 70 -31 141 -30 44
0 163 13 265 27 268 38 436 49 566 36 257 -24 473 -1 765 81 l106 29 264 -44
c338 -58 651 -102 807 -116 127 -10 172 -6 247 26 78 33 419 144 581 189 357
100 425 150 558 413 184 366 268 604 300 859 19 142 54 285 160 645 118 405
118 402 71 604 -36 150 -44 212 -33 253 5 20 38 101 73 181 l64 145 75 510
c42 281 95 636 117 790 l42 280 7 455 c8 502 12 540 84 820 50 198 111 572
206 1280 40 298 50 404 50 515 0 410 47 1206 81 1373 6 29 50 142 98 250 106
239 120 278 171 505 104 467 122 645 135 1352 12 690 26 1038 41 1090 41 133
123 255 170 255 31 0 79 -44 189 -174 87 -103 117 -125 151 -112 14 5 16 16
11 62 l-6 55 63 -59 c100 -93 264 -212 292 -212 5 0 8 91 6 207 l-3 208 25
-43 c14 -23 37 -69 52 -102 20 -46 32 -60 48 -60 11 0 26 4 31 8 6 4 10 67 10
154 0 80 3 149 6 153 4 3 27 0 50 -7 35 -10 217 -12 914 -10 877 3 1498 -8
1546 -26 34 -13 76 -48 747 -606 476 -396 567 -468 646 -509 96 -49 169 -115
332 -301 57 -65 62 -68 85 -56 13 7 25 14 27 15 2 1 -13 56 -33 120 -20 65
-34 123 -32 128 1 5 35 -55 74 -133 68 -136 72 -141 78 -109 3 19 13 81 23
139 15 95 19 105 37 102 11 -2 176 -41 366 -86 l346 -83 465 -212 c256 -116
468 -211 472 -211 3 0 6 69 6 153 0 83 5 169 11 190 10 38 11 39 31 20 28 -24
156 -196 191 -255 15 -27 32 -48 38 -48 5 0 114 32 242 71 127 39 360 109 516
155 278 82 287 84 390 84 213 0 540 -52 723 -114 123 -42 202 -89 244 -146 43
-58 115 -197 194 -378 66 -151 96 -190 131 -171 10 5 22 21 25 35 12 45 -4
285 -25 388 -12 55 -19 101 -18 103 5 4 238 -306 334 -444 47 -68 88 -122 90
-120 2 2 28 91 59 197 53 186 58 197 115 277 33 45 64 85 68 88 5 3 14 -25 21
-63 6 -37 16 -88 21 -114 l10 -47 146 95 c80 53 149 92 153 87 22 -24 273
-350 374 -486 138 -184 171 -239 359 -602 77 -148 200 -387 275 -530 74 -143
169 -321 212 -395 42 -74 281 -497 530 -940 818 -1455 1072 -1894 1177 -2035
65 -88 258 -321 548 -660 232 -273 333 -399 434 -540 234 -329 580 -951 649
-1170 62 -193 147 -598 177 -840 18 -141 19 -213 5 -252 -23 -61 -489 -496
-1029 -961 l-175 -150 -585 -343 c-1530 -897 -1467 -862 -1559 -863 -51 0 -73
8 -202 72 -263 129 -640 267 -819 297 -78 14 -113 15 -224 5 -152 -12 -294
-34 -387 -60 -77 -22 -593 -222 -730 -283 -189 -85 -495 -319 -569 -435 -66
-105 -77 -243 -40 -489 l22 -141 -28 -134 c-59 -283 -43 -433 56 -542 127
-139 478 -294 797 -352 86 -16 100 -16 209 0 65 10 166 28 225 42 l107 26 172
-62 c358 -128 339 -124 724 -145 375 -20 387 -21 528 -55 341 -81 559 -102
1087 -104 401 -1 469 4 659 50 194 48 566 181 661 237 47 28 260 181 575 412
143 105 494 345 780 535 531 351 932 644 2060 1498 751 570 788 600 961 788
366 399 601 682 679 819 28 48 149 236 270 419 360 543 420 671 446 951 14
151 7 290 -20 377 -27 84 -74 148 -235 318 -234 246 -314 374 -476 755 -158
373 -431 1099 -469 1250 -29 115 -89 1212 -94 1710 l-2 240 62 235 c100 380
96 347 102 838 l6 434 505 -449 c838 -743 1431 -1261 1580 -1379 219 -173
1766 -1170 1999 -1289 93 -47 1027 -430 2521 -1033 922 -373 824 -338 1285
-452 424 -104 647 -171 727 -218 58 -33 685 -570 827 -707 191 -185 656 -687
745 -805 65 -86 264 -392 280 -432 14 -32 52 -237 106 -564 l21 -131 -121
-539 c-172 -764 -260 -1143 -346 -1497 -84 -339 -89 -352 -168 -382 -63 -24
-95 -12 -243 96 -132 95 -242 164 -302 189 -52 21 -122 15 -271 -23 -221 -58
-316 -92 -566 -206 -459 -208 -690 -334 -765 -418 -76 -84 -168 -289 -239
-528 -21 -71 -54 -184 -74 -249 -64 -208 -59 -306 20 -475 55 -117 104 -195
210 -336 45 -60 101 -145 124 -187 48 -90 94 -133 166 -154 66 -19 306 -33
565 -34 233 0 292 -11 511 -91 213 -78 385 -94 1063 -93 407 0 525 3 635 17
74 9 203 21 285 28 339 25 540 81 715 199 30 20 106 63 168 94 140 72 221 131
272 199 21 28 79 106 129 172 127 170 255 311 354 388 145 114 244 262 287
432 12 44 104 494 205 1000 l184 920 71 820 c103 1189 184 2027 231 2385 11
85 33 202 49 260 77 270 82 364 71 1325 -8 766 -10 804 -30 899 -42 188 -113
335 -211 434 -151 152 -604 474 -819 581 -42 21 -137 64 -211 96 -322 136
-492 232 -630 354 -261 231 -506 421 -730 566 -122 79 -248 192 -431 386 -378
399 -861 966 -941 1104 -183 317 -672 1112 -910 1480 -328 508 -461 789 -487
1030 -22 195 -69 452 -240 1306 l-119 596 13 64 c57 271 164 620 204 671 9 10
194 99 411 197 419 188 436 198 705 399 217 163 385 313 449 401 33 45 334
741 466 1074 90 230 111 296 170 543 41 171 50 227 50 300 0 142 -39 260 -143
433 -138 229 -256 365 -387 446 -91 56 -366 197 -500 256 -150 66 -255 42
-545 -126 -49 -28 -125 -66 -168 -83 -43 -17 -90 -41 -104 -52 -14 -11 -33
-20 -42 -20 -20 0 -215 121 -255 158 -38 35 -56 79 -105 242 -27 95 -95 262
-226 560 -209 475 -405 937 -484 1139 -52 131 -53 135 -66 305 -13 159 -27
237 -55 311 -6 17 -38 124 -71 239 -70 244 -106 340 -199 527 -82 166 -152
270 -235 348 -85 79 -80 76 -845 504 -464 260 -877 433 -1325 557 -143 40
-338 96 -433 126 -489 153 -2102 660 -3462 1089 -793 250 -1040 321 -1792 514
-498 128 -1040 247 -1299 285 -58 9 -303 32 -545 51 -241 19 -495 40 -564 45
-69 6 -291 24 -495 40 -663 53 -1244 100 -1540 124 -371 31 -389 32 -1525 61
-1327 34 -1322 34 -1540 61 -220 28 -1323 160 -1650 198 -1677 196 -1943 224
-2350 246 -437 23 -725 31 -1330 37 -760 7 -725 9 -2020 -107 -1028 -92 -1031
-92 -1288 -55 -557 81 -1687 328 -2242 490 -333 97 -472 129 -940 216 -370 68
-365 66 -610 213 -325 196 -464 269 -692 367 -309 132 -575 219 -980 318 -261
64 -373 96 -1313 371 -1364 400 -1477 430 -1745 465 -308 40 -442 82 -566 175
-28 21 -211 195 -406 387 -393 387 -488 475 -663 618 -268 219 -703 528 -925
657 -249 145 -920 512 -1705 933 -811 435 -862 463 -1135 615 -298 166 -615
327 -705 358 -124 42 -291 78 -529 112 -134 19 -167 28 -342 95 -106 41 -203
79 -214 85 -11 6 -183 118 -383 249 -655 429 -844 542 -1097 655 -163 72 -312
156 -335 189 -22 31 -21 328 1 435 19 93 15 137 -21 198 l-27 45 -41 -54 c-48
-63 -131 -180 -225 -316 l-65 -94 -21 28 c-12 16 -55 79 -97 141 -84 123 -93
149 -140 410 l-20 113 27 178 c15 98 28 223 28 278 1 112 -8 136 -68 194 l-35
34 -48 -78z"/>
</g>
</svg>
