<?xml version="1.0" standalone="no"?>
<!DOCTYPE svg PUBLIC "-//W3C//DTD SVG 20010904//EN"
 "http://www.w3.org/TR/2001/REC-SVG-20010904/DTD/svg10.dtd">
<svg version="1.0" xmlns="http://www.w3.org/2000/svg"
 width="1536.000000pt" height="1536.000000pt" viewBox="0 0 1536.000000 1536.000000"
 preserveAspectRatio="xMidYMid meet">
<metadata>
Created by potrace 1.16, written by Peter Selinger 2001-2019
</metadata>
<g transform="translate(0.000000,1536.000000) scale(0.100000,-0.100000)"
fill="#000000" stroke="none">
<path d="M11271 15343 c-57 -28 -139 -112 -233 -237 -138 -185 -160 -228 -213
-416 -150 -530 -307 -915 -398 -975 -58 -38 -174 49 -217 161 -14 37 -24 92
-27 145 -8 119 16 192 108 339 116 185 130 230 85 275 -34 34 -87 41 -155 20
-103 -32 -245 -203 -327 -395 -46 -109 -41 -173 52 -608 87 -404 103 -557 62
-598 -42 -42 -163 -34 -268 17 -91 45 -234 191 -320 327 -36 56 -123 186 -193
290 -140 205 -197 308 -197 357 0 17 7 55 16 84 23 80 6 107 -60 89 -45 -12
-73 -35 -101 -82 -28 -49 -55 -157 -55 -226 0 -117 57 -278 165 -468 88 -153
288 -455 339 -510 22 -24 99 -90 172 -147 191 -151 249 -228 281 -378 32 -153
1 -338 -132 -787 -101 -342 -127 -443 -154 -601 -28 -166 -34 -289 -21 -409
45 -413 208 -769 492 -1072 61 -65 61 -65 -62 -43 -135 24 -125 30 -138 -82
-6 -54 -8 -101 -4 -104 9 -8 342 -118 479 -158 57 -17 153 -37 215 -46 61 -8
114 -17 116 -19 2 -3 -18 -7 -45 -11 -99 -13 -126 -21 -137 -38 -17 -26 10
-64 74 -102 l55 -34 285 24 c157 14 304 25 327 25 30 0 103 -25 255 -86 117
-48 216 -90 220 -93 6 -6 -7 -490 -14 -496 -2 -1 -149 -17 -328 -35 -302 -30
-336 -35 -476 -76 -236 -67 -357 -88 -515 -89 l-136 0 -374 187 c-712 357
-999 439 -1382 398 -51 -5 -274 -26 -497 -45 -223 -20 -432 -40 -465 -45 -135
-22 -403 -13 -1355 42 -521 31 -577 32 -1275 33 l-730 0 -190 38 c-592 118
-768 126 -1127 51 -163 -34 -605 -143 -801 -198 l-88 -24 -104 39 c-181 68
-287 93 -400 94 -117 0 -148 -12 -287 -118 -121 -90 -367 -316 -373 -341 -12
-48 -23 -121 -20 -125 2 -1 56 4 120 13 161 22 150 24 151 -32 0 -53 20 -93
119 -238 l62 -90 -33 -36 c-105 -116 -83 -332 101 -983 61 -216 167 -634 195
-773 51 -241 46 -412 -15 -540 -90 -190 -436 -640 -877 -1141 -116 -132 -138
-162 -142 -196 -3 -22 -29 -372 -56 -778 l-51 -739 -125 -795 -125 -795 11
-97 c6 -53 10 -168 9 -255 l-1 -159 432 -114 c238 -62 436 -110 441 -107 5 3
21 26 36 52 23 39 28 59 28 112 -1 79 -17 113 -111 230 -38 47 -83 108 -101
135 l-32 50 19 775 c10 426 21 840 24 920 15 358 96 681 216 855 42 60 224
281 300 362 44 46 697 608 875 752 24 19 43 46 -182 -254 -120 -160 -191 -246
-214 -259 -114 -63 -167 -177 -139 -296 23 -95 78 -162 394 -475 166 -165 313
-318 327 -340 14 -22 46 -71 70 -110 88 -140 346 -471 752 -965 115 -140 216
-262 224 -271 11 -14 12 -45 4 -185 l-9 -169 137 -140 138 -140 12 -75 c10
-57 27 -101 73 -188 33 -62 66 -116 73 -119 18 -6 587 15 594 23 13 12 4 91
-14 129 -10 22 -58 79 -107 127 l-88 88 -15 141 c-8 78 -15 149 -15 158 0 9
-20 45 -45 79 l-45 62 -10 146 -11 146 -657 802 c-361 442 -669 810 -683 818
-39 23 -69 95 -81 196 -10 75 -9 103 5 172 24 121 57 180 167 290 52 52 243
254 424 448 181 193 332 352 336 352 4 0 76 -33 161 -74 375 -179 748 -305
1074 -363 139 -25 642 -25 900 0 248 25 598 70 860 112 121 20 271 38 334 42
108 6 113 5 107 -13 -10 -34 -152 -572 -215 -814 -53 -207 -207 -847 -262
-1093 -19 -87 -21 -90 -133 -235 -193 -250 -398 -529 -531 -722 -144 -209
-217 -306 -352 -467 l-93 -111 0 -111 0 -111 -95 -197 c-52 -109 -95 -203 -95
-209 0 -6 21 -14 48 -17 26 -3 208 -29 406 -56 197 -28 366 -51 376 -51 15 0
11 21 -37 171 -29 95 -52 173 -50 175 2 2 22 -10 45 -27 23 -17 46 -28 50 -25
5 3 12 31 16 63 20 171 122 515 210 712 114 251 274 492 556 831 244 294 230
269 388 705 131 358 182 485 258 636 63 126 80 154 199 314 45 61 125 176 178
257 111 168 181 239 251 257 68 17 108 -2 131 -63 16 -40 17 -67 12 -189 l-6
-142 45 -195 c136 -587 275 -1124 350 -1350 28 -86 62 -166 94 -220 95 -160
105 -197 160 -548 76 -486 130 -863 130 -906 0 -41 -70 -260 -115 -363 -14
-31 -24 -58 -21 -60 6 -6 840 -182 844 -178 5 5 21 317 22 420 l0 81 -46 12
c-91 25 -199 166 -253 332 -91 282 -201 923 -201 1171 0 48 7 122 15 165 35
189 37 250 10 405 -70 412 -114 791 -122 1049 l-5 195 37 139 c20 77 47 191
59 255 l22 114 177 81 177 81 252 205 c139 113 305 255 368 315 128 123 232
209 300 248 36 20 58 25 105 24 95 -1 204 52 665 325 131 78 176 98 475 209
369 136 416 152 630 210 83 23 170 52 195 66 98 54 292 137 415 178 222 75
262 80 580 80 161 0 343 -6 429 -14 l149 -14 87 -87 c105 -107 153 -134 225
-128 96 8 333 144 421 242 131 144 224 315 232 426 4 66 3 72 -41 162 -92 187
-90 185 -469 397 -1188 667 -1255 705 -1339 772 -56 44 -88 78 -91 93 -6 31 9
36 127 36 50 0 127 3 173 7 l82 6 158 140 c325 288 361 325 520 534 217 287
262 324 527 428 65 26 124 53 130 61 5 8 55 30 110 49 55 20 133 47 174 62 84
30 141 74 141 109 0 14 -22 47 -56 86 -31 35 -98 115 -149 178 l-93 115 -6
120 c-4 66 -9 136 -12 156 l-5 37 -118 -81 -118 -81 -6 -131 c-4 -71 -9 -140
-13 -153 -6 -22 -50 -52 -76 -52 -19 0 -216 120 -286 174 -48 36 -105 98 -213
229 -3 5 -46 -59 -94 -142 -108 -186 -106 -184 -133 -179 -20 3 -18 9 37 135
l59 132 -24 16 c-13 8 -26 15 -30 15 -4 0 -38 -33 -76 -74 -79 -86 -149 -136
-191 -136 -30 0 -30 0 -24 48 3 26 31 125 61 220 61 187 70 256 38 285 -22 20
-45 21 -75 6 -42 -22 -69 -54 -137 -164 -38 -61 -78 -119 -89 -129 -20 -18
-21 -18 -32 10 -36 94 -68 377 -51 447 21 82 22 98 12 137 -14 52 -51 80 -107
80 -24 0 -57 -7 -72 -14 -57 -30 -116 -118 -156 -231 -15 -42 -18 -93 -20
-330 -2 -286 -14 -405 -48 -487 -21 -50 -128 -121 -596 -397 -159 -94 -231
-131 -245 -127 -12 3 -86 43 -166 88 -188 107 -194 116 -187 253 5 127 38 219
182 510 181 366 354 635 577 897 331 388 1059 1303 1163 1463 125 191 315 505
340 562 36 81 72 200 80 265 20 164 -95 213 -208 89 -37 -41 -88 -133 -113
-204 -26 -73 -151 -227 -184 -227 -5 0 -17 11 -25 24 -23 35 -7 86 53 172 149
213 282 517 282 644 0 182 -188 498 -312 525 -40 9 -78 -19 -97 -72 -13 -36
-13 -48 2 -106 8 -36 32 -101 53 -146 l37 -81 -5 -132 c-6 -164 -19 -199 -97
-269 -76 -68 -105 -82 -158 -76 -46 5 -80 28 -93 63 -4 11 0 249 11 530 17
453 21 515 39 564 30 84 27 135 -10 172 -27 27 -36 30 -72 25 -101 -14 -160
-128 -260 -507 l-33 -125 3 -321 c3 -426 -11 -553 -62 -562 -30 -6 -138 54
-205 115 -75 67 -152 169 -347 458 -249 369 -382 609 -406 731 -6 32 -15 65
-21 72 -25 32 -72 0 -83 -56 l-7 -32 -31 36 c-37 43 -67 41 -91 -5 -7 -15
-109 -119 -225 -232 -117 -112 -220 -219 -230 -239 -9 -19 -23 -58 -30 -87
-15 -66 -28 -77 -87 -70 -94 10 -130 95 -121 287 5 105 5 105 81 276 157 353
247 596 247 665 0 33 -4 41 -26 49 -36 14 -64 12 -103 -7z m584 -1155 c19 -64
35 -123 35 -131 0 -9 -17 -19 -42 -25 -80 -21 -104 -23 -133 -12 -26 10 -27
13 -23 59 3 26 15 69 27 94 23 48 90 141 97 135 2 -3 19 -57 39 -120z m344
-646 c252 -255 397 -490 378 -610 -8 -48 -94 -222 -110 -222 -19 0 -1059 565
-1060 576 -2 13 178 151 271 207 43 26 112 62 153 78 76 31 223 78 248 78 8 1
62 -47 120 -107z m-697 -928 c299 -141 558 -263 577 -272 58 -29 129 -100 157
-158 l27 -56 -6 -216 c-11 -375 -34 -505 -111 -636 -59 -98 -383 -686 -544
-986 -186 -348 -231 -476 -218 -629 15 -172 18 -241 13 -256 -5 -13 -20 -10
-99 19 -376 136 -996 469 -1115 599 -135 147 -190 443 -149 793 13 109 16 119
260 738 157 400 294 731 377 910 130 280 131 281 197 343 37 34 72 62 79 63 7
0 256 -115 555 -256z m2720 -2919 l-28 -119 -108 -16 c-103 -15 -110 -18 -138
-51 -110 -127 -457 -492 -491 -517 -92 -66 -219 -97 -397 -97 l-125 1 -105 50
c-58 28 -136 69 -175 92 l-69 41 94 44 c52 24 210 98 350 164 237 112 270 124
460 176 113 31 271 70 352 88 l146 32 129 129 c70 71 129 123 130 116 1 -7
-10 -67 -25 -133z"/>
</g>
</svg>
