<?xml version="1.0" standalone="no"?>
<!DOCTYPE svg PUBLIC "-//W3C//DTD SVG 20010904//EN"
 "http://www.w3.org/TR/2001/REC-SVG-20010904/DTD/svg10.dtd">
<svg version="1.0" xmlns="http://www.w3.org/2000/svg"
 width="1536.000000pt" height="1183.000000pt" viewBox="0 0 1536.000000 1183.000000"
 preserveAspectRatio="xMidYMid meet">
<metadata>
Created by potrace 1.16, written by Peter Selinger 2001-2019
</metadata>
<g transform="translate(0.000000,1183.000000) scale(0.100000,-0.100000)"
fill="#000000" stroke="none">
<path d="M3179 11807 c-89 -30 -115 -49 -143 -105 -13 -26 -45 -67 -71 -92
-122 -118 -156 -198 -160 -380 -2 -69 -6 -172 -10 -228 -6 -73 -4 -120 5 -156
11 -49 10 -60 -14 -142 -40 -135 -35 -185 22 -247 26 -27 26 -27 14 -110 -7
-46 -12 -141 -12 -212 0 -76 -7 -167 -17 -222 -13 -73 -14 -98 -5 -118 21 -45
13 -72 -59 -218 -76 -150 -102 -216 -114 -285 -4 -24 -21 -64 -39 -90 -17 -26
-49 -98 -70 -161 -29 -85 -47 -122 -73 -147 -18 -18 -33 -39 -33 -46 0 -17
-59 -105 -127 -189 -29 -36 -77 -117 -108 -180 -30 -63 -64 -132 -76 -154 -13
-22 -25 -47 -29 -55 -4 -8 -23 -24 -43 -35 -23 -12 -50 -41 -70 -75 -19 -30
-57 -93 -86 -139 -29 -46 -62 -104 -73 -130 -10 -25 -30 -57 -42 -71 -13 -14
-29 -47 -35 -75 -7 -27 -41 -105 -77 -172 -35 -68 -64 -133 -64 -145 0 -13
-14 -50 -31 -83 -112 -221 -149 -338 -259 -825 -43 -189 -80 -317 -143 -495
-20 -55 -63 -192 -96 -305 -33 -113 -75 -249 -95 -302 -42 -118 -61 -260 -53
-403 9 -145 36 -231 123 -389 23 -41 29 -67 36 -165 24 -334 56 -404 303 -660
115 -118 145 -156 150 -184 14 -71 11 -558 -3 -627 -27 -130 -71 -242 -111
-285 -21 -22 -50 -63 -65 -91 -28 -51 -183 -202 -331 -319 -93 -74 -276 -198
-400 -270 -210 -122 -290 -190 -468 -399 -87 -103 -127 -163 -127 -194 0 -29
29 -92 45 -98 7 -3 43 18 81 47 78 59 140 89 251 121 67 19 103 22 258 23 179
0 180 0 263 33 76 30 96 33 210 37 70 2 199 15 287 29 88 13 189 27 225 31
114 11 372 55 475 81 59 15 167 31 265 40 91 8 199 20 240 27 74 13 225 10
456 -8 108 -9 134 -2 258 68 112 63 154 69 235 33 41 -18 96 -31 175 -41 64
-8 179 -32 258 -55 78 -22 185 -45 237 -52 53 -6 128 -21 166 -34 82 -27 201
-49 337 -64 54 -5 120 -19 148 -30 34 -14 74 -20 124 -20 40 0 91 -6 112 -14
22 -7 71 -16 109 -20 47 -5 84 -15 113 -32 23 -14 61 -32 84 -40 23 -8 76 -34
118 -59 41 -24 107 -53 145 -66 63 -20 77 -30 143 -98 40 -41 106 -125 147
-186 114 -168 153 -213 281 -325 66 -57 151 -133 189 -169 92 -86 228 -202
324 -274 42 -32 103 -84 136 -116 67 -66 83 -75 140 -86 21 -3 95 -22 163 -41
96 -26 158 -36 271 -44 80 -5 164 -15 186 -21 48 -14 122 -6 166 17 49 25 129
109 129 136 0 13 -6 44 -14 69 -8 25 -17 80 -21 121 -13 140 14 172 176 209
98 23 149 56 149 96 0 49 -23 94 -64 128 -24 20 -51 51 -60 70 -16 33 -16 37
5 85 12 27 19 56 15 65 -3 8 -26 29 -51 47 -24 17 -47 40 -51 50 -6 22 12 48
33 48 37 0 72 31 83 73 6 23 20 59 31 79 10 20 19 46 19 56 0 11 16 40 36 66
60 78 77 127 69 200 -6 57 -5 65 19 93 15 17 26 43 26 59 0 34 8 48 31 56 17
7 216 -16 424 -47 61 -9 146 -15 190 -14 44 2 139 -2 210 -9 72 -6 202 -16
290 -22 88 -6 237 -17 330 -25 94 -8 208 -15 255 -15 47 0 164 -7 260 -15 96
-9 317 -20 490 -26 173 -6 371 -13 440 -16 143 -5 195 5 212 43 22 47 115 54
183 14 17 -10 46 -23 65 -29 49 -15 89 -55 116 -117 12 -28 36 -67 51 -86 16
-18 49 -64 73 -103 l45 -69 1 -106 c1 -111 15 -232 38 -315 8 -31 10 -59 5
-75 -5 -14 -20 -56 -33 -95 -17 -46 -26 -92 -26 -133 0 -105 36 -160 120 -182
25 -7 52 -18 60 -26 34 -30 90 -44 172 -44 134 1 347 26 413 50 46 17 95 23
205 29 l145 7 120 54 c103 47 131 65 196 127 44 43 91 78 114 85 32 11 40 20
50 53 13 46 83 172 124 224 15 20 34 47 41 61 7 14 17 27 21 30 13 9 166 265
203 340 50 101 97 170 155 226 42 41 54 60 58 93 3 22 11 46 19 52 39 32 288
16 399 -26 61 -23 81 -25 216 -25 89 0 185 -6 239 -16 49 -8 115 -14 146 -12
l57 3 32 75 c85 199 72 419 -50 865 -41 151 -90 284 -160 435 -57 125 -110
282 -102 303 4 10 30 12 120 9 228 -9 257 32 201 278 -15 63 -36 134 -47 158
-27 58 -197 209 -291 258 -39 21 -103 57 -143 81 -93 56 -124 69 -393 168
-277 102 -342 128 -403 161 -26 14 -80 34 -120 45 -39 11 -133 49 -207 84 -74
35 -164 73 -200 84 -83 26 -293 67 -440 86 -63 9 -130 20 -150 25 -19 5 -94
14 -167 20 -78 6 -166 20 -215 34 -67 19 -118 25 -268 31 -102 3 -212 13 -245
21 -33 8 -168 20 -300 26 -231 12 -362 13 -917 9 -250 -2 -259 -1 -315 22 -32
13 -109 32 -172 41 -63 10 -144 28 -179 42 -35 13 -84 24 -107 24 -23 0 -61 7
-84 14 -22 8 -102 27 -177 41 -163 31 -226 54 -269 95 -18 17 -84 57 -146 89
-165 83 -373 196 -536 289 -77 45 -146 82 -151 82 -6 0 -36 20 -69 44 -43 32
-71 46 -108 51 -74 11 -105 26 -170 87 -48 43 -75 59 -133 78 -40 12 -91 37
-114 54 -90 68 -104 76 -157 87 -88 19 -108 33 -141 99 -21 41 -42 68 -69 84
-48 30 -78 67 -86 107 -4 19 -33 57 -75 98 -38 38 -75 81 -83 97 -14 28 -22
97 -35 316 -6 89 -10 110 -29 130 -41 44 -93 153 -93 194 0 57 -42 212 -93
344 -25 63 -55 148 -67 189 -12 40 -35 106 -51 146 -16 40 -29 82 -29 93 0 11
-32 68 -71 126 -38 58 -82 134 -96 168 -14 35 -36 85 -50 113 -39 78 -171 261
-209 290 -90 69 -119 123 -163 301 -20 82 -27 135 -24 165 4 31 0 56 -11 77
-9 17 -21 54 -27 82 -7 31 -23 65 -44 90 -38 46 -56 115 -74 289 -24 223 -125
452 -325 736 -92 129 -158 199 -340 359 -363 319 -555 465 -731 553 -38 20
-101 57 -140 83 -38 26 -147 87 -242 136 l-172 89 -138 -2 c-97 -1 -171 -9
-249 -24 l-111 -23 -132 59 c-88 39 -148 72 -179 100 -57 50 -80 64 -147 81
-72 20 -141 17 -216 -9z"/>
</g>
</svg>
