<?xml version="1.0" standalone="no"?>
<!DOCTYPE svg PUBLIC "-//W3C//DTD SVG 20010904//EN"
 "http://www.w3.org/TR/2001/REC-SVG-20010904/DTD/svg10.dtd">
<svg version="1.0" xmlns="http://www.w3.org/2000/svg"
 width="971.000000pt" height="1536.000000pt" viewBox="0 0 971.000000 1536.000000"
 preserveAspectRatio="xMidYMid meet">
<metadata>
Created by potrace 1.16, written by Peter Selinger 2001-2019
</metadata>
<g transform="translate(0.000000,1536.000000) scale(0.100000,-0.100000)"
fill="#000000" stroke="none">
<path d="M9283 15340 c-168 -59 -312 -191 -583 -530 -409 -512 -535 -634 -693
-670 -108 -24 -700 -64 -1139 -76 l-237 -7 -53 27 c-77 39 -234 159 -475 364
-511 435 -594 488 -769 499 -106 7 -126 1 -184 -53 -85 -80 -117 -201 -107
-404 16 -296 112 -655 321 -1200 134 -348 180 -509 197 -677 14 -146 38 -236
104 -388 129 -296 389 -976 412 -1076 24 -107 24 -439 0 -528 -9 -34 -26 -75
-36 -90 -43 -60 -93 -152 -251 -462 -274 -536 -292 -560 -495 -668 -609 -324
-1215 -787 -1450 -1106 -119 -162 -151 -202 -220 -276 -81 -87 -277 -359 -636
-884 -411 -602 -576 -830 -849 -1175 -446 -564 -652 -876 -875 -1325 -223
-451 -367 -815 -420 -1060 -43 -199 -90 -378 -160 -600 -107 -341 -146 -477
-219 -771 -79 -315 -100 -385 -181 -584 -80 -200 -185 -520 -237 -724 -36
-144 -40 -175 -42 -291 -1 -122 1 -134 26 -187 69 -147 234 -233 589 -307 337
-70 550 -88 1184 -101 603 -12 2860 -12 3320 0 422 12 512 19 740 65 166 33
405 68 555 80 215 17 380 39 515 68 139 29 164 31 350 32 218 0 286 -12 350
-60 117 -90 350 -135 700 -135 288 0 483 28 602 86 122 59 173 142 175 282 1
116 -35 179 -243 429 -185 220 -187 226 -169 434 20 221 2 251 -192 313 -131
42 -151 54 -177 104 -44 87 -141 445 -161 599 -22 162 -8 360 44 653 25 140
69 401 96 580 62 404 98 600 151 822 22 95 60 259 84 364 50 220 102 357 277
734 158 338 276 617 367 867 101 280 126 340 200 498 146 308 191 490 222 895
18 234 19 1259 1 1400 -31 241 -77 401 -182 634 -127 279 -126 274 -176 1391
l-28 620 81 300 c142 521 159 612 173 944 14 338 21 384 111 745 138 549 154
985 48 1301 -51 152 -119 248 -203 286 -51 23 -86 23 -153 -1z m-2796 -12482
c40 -44 83 -118 190 -328 140 -276 254 -569 348 -895 60 -208 81 -341 66 -410
-17 -77 -40 -93 -147 -106 -109 -14 -444 -5 -597 15 -135 19 -213 40 -303 82
-83 39 -134 90 -159 160 -37 104 -69 159 -126 215 -53 51 -59 61 -59 98 0 50
47 175 94 254 19 31 61 89 94 129 125 153 361 509 454 686 78 148 91 157 145
100z"/>
</g>
</svg>
