<?xml version="1.0" standalone="no"?>
<!DOCTYPE svg PUBLIC "-//W3C//DTD SVG 20010904//EN"
 "http://www.w3.org/TR/2001/REC-SVG-20010904/DTD/svg10.dtd">
<svg version="1.0" xmlns="http://www.w3.org/2000/svg"
 width="1536.000000pt" height="1431.000000pt" viewBox="0 0 1536.000000 1431.000000"
 preserveAspectRatio="xMidYMid meet">
<metadata>
Created by potrace 1.16, written by Peter Selinger 2001-2019
</metadata>
<g transform="translate(0.000000,1431.000000) scale(0.100000,-0.100000)"
fill="#000000" stroke="none">
<path d="M3495 14291 c-32 -19 -163 -166 -238 -266 -52 -69 -169 -190 -244
-252 -40 -33 -63 -65 -103 -143 -76 -148 -96 -211 -145 -444 -72 -341 -75
-352 -107 -400 -38 -59 -125 -128 -213 -171 -62 -30 -228 -74 -336 -90 -71
-11 -375 -250 -487 -385 -30 -36 -79 -94 -109 -130 -30 -36 -231 -245 -447
-465 -216 -220 -432 -443 -481 -495 -49 -52 -108 -110 -131 -127 -23 -18 -56
-56 -73 -85 -17 -29 -62 -91 -101 -138 -204 -243 -258 -372 -276 -666 -5 -89
-3 -122 11 -170 23 -80 75 -175 144 -259 32 -38 94 -120 139 -181 148 -202
292 -307 542 -397 102 -37 359 -152 550 -246 63 -31 187 -104 275 -162 183
-121 398 -243 499 -283 37 -15 130 -45 205 -67 158 -46 219 -82 286 -169 24
-31 163 -176 309 -322 147 -145 266 -269 266 -275 0 -6 15 -27 34 -48 41 -44
116 -187 116 -220 0 -20 -30 -37 -227 -136 -269 -135 -313 -162 -418 -259
-250 -231 -439 -480 -501 -657 -28 -80 -90 -167 -215 -300 -55 -58 -107 -120
-116 -137 -9 -17 -29 -49 -44 -71 -19 -26 -35 -68 -45 -115 -8 -41 -22 -97
-29 -124 -23 -77 -30 -305 -12 -403 20 -106 72 -216 134 -279 52 -53 170 -138
243 -174 66 -34 157 -38 213 -11 103 50 184 148 219 266 11 38 32 90 46 114
24 42 24 45 6 58 -10 7 -23 13 -30 13 -17 0 -27 54 -20 104 9 58 -5 91 -45
105 -43 15 -79 49 -79 75 0 12 10 37 21 56 38 62 197 235 306 331 58 52 124
119 148 149 37 48 60 65 167 121 67 36 148 75 178 86 30 12 69 28 85 37 18 9
55 16 90 16 34 0 87 7 118 15 67 17 166 29 434 50 105 8 220 22 255 30 35 8
108 16 163 17 l100 3 61 -40 c33 -23 83 -57 110 -77 27 -19 69 -46 94 -58 25
-12 68 -40 96 -61 49 -37 147 -79 186 -79 50 0 33 -73 -43 -191 -34 -52 -74
-123 -90 -158 -16 -35 -60 -111 -98 -170 -37 -58 -79 -124 -91 -146 -92 -158
-362 -436 -570 -588 -80 -58 -162 -120 -182 -138 -21 -17 -57 -35 -80 -40 -24
-6 -72 -21 -108 -34 -93 -34 -232 -71 -337 -89 -50 -9 -115 -24 -144 -35 -96
-33 -283 -130 -332 -172 -41 -35 -47 -46 -47 -79 0 -46 -38 -179 -86 -303 -44
-116 -44 -161 3 -193 18 -12 48 -25 67 -28 31 -6 38 -2 102 62 65 65 135 112
167 112 20 0 39 -25 32 -41 -3 -8 -24 -26 -46 -42 -76 -53 -98 -127 -55 -192
13 -20 21 -23 53 -18 48 7 122 44 148 73 29 33 135 115 172 134 42 21 73 21
73 -1 0 -10 -7 -40 -15 -67 -23 -75 -20 -103 16 -136 17 -15 49 -36 70 -46 39
-17 40 -17 65 7 15 13 77 83 139 154 215 247 303 314 678 518 80 43 169 99
200 125 31 26 136 89 233 140 97 52 265 150 373 220 108 69 214 132 236 140
52 17 280 170 369 246 38 33 111 99 164 149 52 49 128 113 168 143 40 30 76
58 79 64 20 33 96 -8 217 -117 92 -82 180 -136 264 -162 33 -11 78 -27 100
-36 21 -9 54 -19 72 -21 19 -2 84 -24 145 -48 62 -24 189 -69 282 -101 94 -31
217 -74 275 -95 175 -63 430 -149 520 -175 133 -38 290 -95 330 -120 112 -71
330 -156 540 -211 81 -21 131 -26 336 -34 132 -5 248 -12 257 -16 24 -9 21
-31 -7 -49 -32 -21 -139 -39 -351 -60 -203 -21 -580 -15 -735 10 -52 8 -152
18 -221 22 -157 8 -198 -4 -442 -120 -139 -68 -184 -94 -234 -141 -34 -32 -71
-72 -82 -89 -30 -49 -101 -390 -101 -488 l0 -36 87 -12 c72 -10 88 -10 92 1 9
30 107 112 168 140 81 38 90 32 75 -49 -24 -123 -22 -221 4 -230 5 -2 40 21
77 50 37 29 109 75 160 102 50 27 130 70 176 97 46 26 91 49 100 50 25 4 18
-56 -12 -100 -50 -74 -76 -202 -41 -202 19 0 74 55 101 100 20 35 36 37 70 10
57 -44 140 -8 227 99 102 126 168 161 303 161 38 0 96 7 128 16 33 8 105 19
160 24 111 10 180 23 384 75 77 19 206 49 288 66 235 49 453 107 518 138 169
81 375 161 417 161 10 0 18 4 18 9 0 5 33 22 73 37 39 15 164 70 277 122 113
52 223 101 245 109 22 7 87 40 145 73 58 32 141 74 185 93 143 61 368 178 465
241 52 35 149 95 214 135 66 40 158 102 204 137 79 59 122 78 122 54 0 -44
-542 -509 -745 -639 -16 -11 -34 -25 -40 -32 -5 -7 -46 -49 -90 -93 -105 -107
-232 -207 -318 -252 -38 -20 -92 -56 -121 -81 -50 -43 -76 -61 -336 -236 -166
-112 -337 -197 -410 -204 -125 -13 -156 -66 -84 -144 l24 -25 -47 -22 c-27
-12 -79 -28 -116 -37 -37 -8 -106 -30 -151 -49 -46 -19 -121 -44 -166 -56 -45
-12 -112 -32 -149 -46 -118 -46 -204 -75 -281 -94 -41 -10 -100 -26 -130 -34
-30 -9 -64 -16 -76 -16 -27 0 -40 -15 -49 -57 -9 -43 21 -73 101 -102 81 -30
104 -42 104 -57 0 -18 -40 -44 -67 -44 -12 0 -51 -11 -85 -24 -216 -83 -331
-112 -558 -141 -107 -14 -204 -27 -215 -30 -58 -13 -240 -27 -519 -40 -171 -8
-328 -20 -349 -25 -41 -12 -65 -47 -51 -73 5 -9 25 -26 43 -39 19 -13 34 -27
33 -33 -2 -18 -113 -34 -307 -45 -104 -6 -209 -15 -232 -20 -23 -6 -78 -10
-122 -10 -68 0 -84 -3 -101 -20 -31 -31 -25 -59 25 -107 25 -23 45 -47 45 -53
0 -17 -82 -49 -163 -65 -236 -45 -450 -22 -630 66 -44 22 -50 22 -74 9 -65
-37 -58 -68 67 -330 49 -103 95 -207 102 -233 11 -42 10 -50 -10 -86 -52 -92
-18 -198 102 -316 133 -133 214 -182 581 -355 55 -26 148 -74 208 -108 104
-60 134 -74 322 -152 85 -35 90 -39 93 -69 5 -45 28 -51 197 -51 101 0 170 -6
236 -19 223 -46 459 -57 594 -28 44 9 109 18 145 20 l65 2 0 -79 0 -79 75 6
c41 3 125 17 186 31 61 14 142 29 181 32 l70 7 6 -53 c4 -30 12 -57 19 -62 36
-22 118 -4 383 88 105 36 206 70 225 76 42 12 177 78 240 117 25 15 92 54 150
86 58 32 161 91 230 130 69 40 163 91 210 113 270 127 399 191 515 257 162 91
245 132 358 179 202 84 352 171 602 349 284 204 496 382 760 637 77 75 197
187 267 249 121 106 361 353 439 451 40 49 72 109 83 152 3 15 32 56 65 90 32
35 74 88 93 118 20 30 61 84 93 120 31 36 72 88 92 117 19 29 61 75 94 104 69
60 167 187 278 361 129 201 145 237 273 618 l123 365 -1 205 c0 195 -28 511
-54 625 -5 22 -14 81 -20 130 -13 120 -39 209 -116 401 -35 89 -64 169 -64
178 0 9 -9 34 -20 55 -10 21 -24 66 -29 99 -11 72 -24 97 -86 177 -26 33 -65
90 -86 128 -22 37 -43 67 -48 67 -4 0 -39 27 -77 60 -38 33 -80 63 -94 66 -32
7 -93 35 -314 145 -210 106 -244 128 -336 219 -134 135 -164 203 -181 414 -12
146 -7 283 15 396 35 179 48 496 27 625 -12 70 -12 95 3 195 13 95 15 162 10
390 -5 223 -4 296 9 385 26 180 29 262 17 410 -12 162 -49 353 -90 475 -15 47
-31 106 -34 131 -13 89 -155 347 -265 480 -25 31 -61 76 -78 100 -18 24 -48
63 -65 86 -18 23 -52 69 -76 102 -24 33 -85 111 -136 173 -51 62 -134 167
-184 232 -140 183 -256 310 -383 420 -207 181 -376 306 -549 408 -52 31 -148
99 -214 152 -67 54 -139 103 -165 112 -61 23 -203 82 -326 137 -193 86 -547
194 -726 221 -172 27 -353 36 -464 25 -55 -5 -215 -28 -355 -49 -140 -22 -318
-46 -395 -54 -82 -9 -178 -26 -230 -42 -50 -15 -133 -39 -185 -54 -125 -36
-193 -62 -260 -99 -30 -16 -98 -44 -150 -62 -168 -56 -293 -109 -370 -158 -41
-27 -85 -52 -98 -55 -13 -4 -166 -76 -340 -161 -303 -146 -531 -245 -564 -245
-9 0 -49 -14 -89 -31 -131 -56 -301 -109 -350 -109 -25 0 -68 3 -94 7 l-47 6
6 171 c3 94 9 259 12 366 l6 195 -46 185 c-25 102 -59 212 -76 246 -35 71
-175 226 -230 254 -21 11 -78 24 -128 31 -149 19 -306 -12 -399 -80 -51 -37
-354 -368 -372 -407 -19 -41 -21 -44 -67 -110 -23 -33 -53 -81 -69 -109 -15
-27 -44 -70 -65 -95 -20 -25 -43 -56 -50 -70 -7 -14 -42 -76 -78 -137 -52 -91
-69 -113 -88 -113 -12 0 -71 22 -131 49 -140 63 -260 101 -458 144 -224 50
-259 55 -445 67 -90 6 -168 14 -172 18 -4 4 -12 241 -18 527 -12 625 -14 648
-82 772 -54 98 -115 127 -183 84z m2385 -9055 c0 -2 -8 -10 -17 -17 -16 -13
-17 -12 -4 4 13 16 21 21 21 13z m-210 -219 c0 -2 -17 -19 -37 -38 l-38 -34
34 38 c33 34 41 42 41 34z m2093 -1362 c-3 -9 -8 -14 -10 -11 -3 3 -2 9 2 15
9 16 15 13 8 -4z m3290 -380 c-3 -9 -8 -14 -10 -11 -3 3 -2 9 2 15 9 16 15 13
8 -4z m-3048 -105 c-3 -5 -10 -10 -16 -10 -5 0 -9 5 -9 10 0 6 7 10 16 10 8 0
12 -4 9 -10z m-402 -1195 c-3 -9 -8 -14 -10 -11 -3 3 -2 9 2 15 9 16 15 13 8
-4z m-853 -255 c0 -5 -4 -10 -10 -10 -5 0 -10 5 -10 10 0 6 5 10 10 10 6 0 10
-4 10 -10z"/>
</g>
</svg>
