<?xml version="1.0" standalone="no"?>
<!DOCTYPE svg PUBLIC "-//W3C//DTD SVG 20010904//EN"
 "http://www.w3.org/TR/2001/REC-SVG-20010904/DTD/svg10.dtd">
<svg version="1.0" xmlns="http://www.w3.org/2000/svg"
 width="488.000000pt" height="266.000000pt" viewBox="0 0 488.000000 266.000000"
 preserveAspectRatio="xMidYMid meet">
<metadata>
Created by potrace 1.16, written by Peter Selinger 2001-2019
</metadata>
<g transform="translate(0.000000,266.000000) scale(0.100000,-0.100000)"
fill="#000000" stroke="none">
<path d="M1365 2638 c-16 -6 -81 -42 -143 -80 -63 -38 -141 -83 -174 -99 -33
-17 -79 -48 -104 -71 -72 -66 -90 -115 -213 -574 -96 -361 -157 -515 -268
-688 -99 -153 -172 -215 -287 -241 -86 -19 -129 -45 -150 -89 -26 -55 -21
-103 14 -136 30 -28 95 -50 150 -50 89 0 237 81 360 196 144 136 245 297 320
509 24 66 52 138 63 160 l19 39 23 -74 c13 -41 34 -102 49 -135 33 -77 32 -94
-4 -153 -58 -94 -59 -100 -110 -437 -5 -33 -10 -91 -10 -128 0 -53 -7 -86 -30
-144 -16 -41 -30 -90 -30 -109 0 -45 61 -179 88 -193 32 -17 84 -13 119 9 70
42 89 113 67 250 -10 63 -13 117 -8 160 l7 65 18 -71 c20 -82 187 -411 228
-451 87 -84 298 -107 368 -41 26 24 31 74 11 101 -7 10 -47 30 -88 45 -72 26
-76 30 -105 83 -16 31 -45 74 -63 96 -48 61 -62 103 -61 185 0 75 5 98 78 348
66 226 142 360 203 360 30 0 146 -36 227 -70 38 -16 131 -46 208 -66 138 -36
138 -36 363 -38 285 -1 298 -7 277 -119 -11 -63 -10 -75 37 -251 20 -75 26
-123 26 -198 0 -210 62 -387 152 -434 78 -41 297 -60 342 -31 51 34 29 109
-41 138 -27 11 -65 28 -87 37 -21 9 -51 28 -67 43 -40 37 -38 78 11 219 52
149 75 239 96 380 26 174 37 190 89 128 81 -98 569 -577 638 -626 57 -41 87
-72 112 -112 46 -75 78 -103 160 -137 39 -16 101 -48 138 -70 189 -115 465
-86 443 46 -8 52 -32 80 -91 106 -31 13 -77 46 -106 75 -29 29 -76 62 -112 79
-47 21 -82 49 -142 112 -147 153 -215 248 -300 416 -88 174 -91 190 -71 354 8
60 6 72 -16 121 -14 29 -46 82 -72 117 -26 35 -45 69 -43 75 2 6 21 14 43 18
21 5 55 15 75 24 35 15 36 15 66 -14 22 -22 43 -32 79 -37 146 -19 203 -43
232 -97 69 -129 213 -187 289 -116 21 19 24 29 19 60 l-6 37 61 7 c65 7 99 29
99 62 0 10 12 29 26 43 22 20 25 30 21 65 -2 24 -20 67 -41 100 -33 54 -36 66
-36 133 0 55 4 79 17 93 24 26 19 76 -11 107 -14 15 -38 59 -52 99 -15 39 -43
90 -62 113 -29 34 -33 44 -24 58 30 42 45 78 46 113 2 81 -65 87 -117 10 -31
-46 -63 -60 -163 -69 l-62 -6 -11 36 c-12 34 -62 77 -90 77 -6 0 -32 -19 -56
-41 -39 -36 -47 -40 -62 -28 -12 11 -40 13 -112 10 -157 -7 -212 -6 -297 9
-71 12 -93 12 -169 -2 -106 -19 -134 -13 -189 41 -86 84 -190 105 -284 57 -29
-14 -94 -41 -145 -58 -134 -46 -224 -44 -462 10 -556 126 -1023 188 -1130 150z"/>
</g>
</svg>
