<?xml version="1.0" standalone="no"?>
<!DOCTYPE svg PUBLIC "-//W3C//DTD SVG 20010904//EN"
 "http://www.w3.org/TR/2001/REC-SVG-20010904/DTD/svg10.dtd">
<svg version="1.0" xmlns="http://www.w3.org/2000/svg"
 width="1379.000000pt" height="1152.000000pt" viewBox="0 0 1379.000000 1152.000000"
 preserveAspectRatio="xMidYMid meet">
<metadata>
Created by potrace 1.16, written by Peter Selinger 2001-2019
</metadata>
<g transform="translate(0.000000,1152.000000) scale(0.100000,-0.100000)"
fill="#000000" stroke="none">
<path d="M1395 11498 c-90 -33 -158 -108 -245 -271 -47 -88 -52 -105 -60 -189
-5 -51 -7 -109 -4 -128 5 -31 2 -37 -25 -53 -17 -10 -36 -28 -42 -39 -10 -18
-8 -25 11 -40 12 -10 37 -18 55 -18 30 0 35 -4 46 -37 6 -21 20 -56 30 -78
145 -321 209 -516 209 -635 0 -86 -85 -202 -183 -249 -118 -57 -307 -67 -397
-21 -25 13 -83 36 -129 51 -46 16 -98 40 -117 54 -18 14 -36 25 -41 25 -4 1
-19 9 -31 20 -21 18 -23 25 -17 70 9 63 -9 73 -60 35 l-35 -28 -108 12 c-120
14 -142 9 -183 -35 -45 -50 -59 -77 -59 -116 0 -48 52 -187 90 -243 17 -24 30
-49 30 -55 0 -27 88 -105 155 -135 39 -18 87 -44 108 -58 21 -14 52 -29 70
-33 54 -11 144 -62 166 -93 11 -16 26 -53 31 -82 53 -260 145 -547 233 -724
l40 -80 -6 -215 c-4 -118 -12 -258 -19 -310 -21 -153 -16 -433 10 -570 12 -63
31 -169 42 -236 11 -66 36 -167 55 -225 52 -152 83 -251 114 -369 16 -58 46
-150 66 -205 20 -55 52 -143 70 -195 39 -113 117 -281 151 -326 13 -17 36 -60
50 -95 38 -93 101 -215 150 -292 24 -37 59 -98 78 -135 18 -37 77 -131 129
-209 53 -78 106 -161 117 -184 12 -22 39 -60 59 -82 21 -23 60 -75 85 -116 26
-40 66 -94 90 -120 23 -25 82 -100 130 -166 49 -66 115 -146 147 -177 32 -31
70 -81 85 -110 15 -29 39 -71 54 -93 47 -70 63 -109 61 -148 -1 -22 3 -102 9
-179 8 -104 8 -195 0 -352 -13 -242 0 -746 25 -928 8 -58 19 -204 25 -325 5
-120 14 -301 20 -403 9 -170 8 -190 -11 -262 -11 -43 -28 -98 -39 -121 -70
-157 -93 -203 -119 -240 -16 -23 -47 -74 -70 -113 -26 -47 -48 -74 -63 -78
-13 -3 -66 -6 -119 -6 -112 0 -189 -25 -273 -88 -28 -21 -72 -51 -97 -66 -52
-29 -99 -92 -99 -130 0 -52 71 -80 235 -91 50 -4 157 -15 239 -26 196 -25 241
-24 321 6 37 13 96 28 133 31 37 4 75 11 85 16 10 5 46 14 80 19 102 16 154
38 210 88 29 27 78 58 112 71 124 50 147 76 184 211 30 109 45 214 111 818 6
51 19 127 30 170 11 42 26 145 35 230 14 141 20 165 67 290 50 134 103 281
158 436 38 108 93 236 137 315 67 122 174 384 254 620 87 259 93 273 123 288
21 10 159 14 629 18 331 2 683 8 782 14 99 5 234 12 300 15 225 11 447 42 568
79 47 15 47 15 36 -6 -17 -32 -5 -188 24 -298 13 -52 35 -138 47 -190 13 -52
33 -124 45 -160 31 -88 70 -213 90 -282 17 -61 67 -143 185 -303 88 -120 164
-203 245 -268 33 -27 85 -72 115 -101 30 -29 93 -82 140 -118 99 -77 139 -117
246 -252 95 -120 151 -215 208 -356 l44 -105 7 -235 c4 -129 7 -245 7 -258 -1
-12 -21 -55 -43 -95 -23 -39 -52 -90 -64 -113 -33 -59 -170 -240 -278 -366
l-57 -67 -38 17 c-30 14 -69 17 -217 17 -188 0 -299 -13 -370 -45 -46 -20
-135 -111 -135 -138 0 -22 32 -53 77 -76 42 -21 191 -64 267 -76 33 -5 96 -23
139 -40 44 -17 116 -37 162 -45 46 -8 118 -23 161 -35 99 -26 142 -25 217 2
l60 22 49 -28 c70 -39 191 -66 300 -66 79 0 97 3 132 24 60 36 139 131 216
264 38 64 89 149 113 187 61 97 268 502 279 545 41 168 51 369 21 456 -9 27
-36 78 -60 114 -79 118 -192 285 -212 311 -22 29 -64 118 -93 199 -69 194 -75
550 -11 692 27 62 167 256 346 482 56 72 122 159 147 195 25 36 68 95 94 131
51 68 190 339 225 438 11 31 38 102 60 157 62 151 74 225 75 470 1 116 -2 226
-7 245 -4 20 20 -18 57 -90 63 -124 66 -127 223 -281 87 -86 173 -164 191
-173 19 -10 100 -58 180 -108 80 -50 183 -109 229 -131 80 -38 90 -40 228 -50
l144 -9 128 36 c70 20 151 46 178 58 93 39 310 160 385 216 157 116 363 297
479 419 136 146 171 189 229 290 23 39 62 95 88 125 45 52 152 206 249 358 28
43 73 106 100 141 28 35 71 92 96 126 77 106 267 293 374 369 161 114 238 152
370 180 63 13 131 24 151 24 43 0 74 15 74 36 0 21 -60 44 -159 61 -119 21
-177 45 -261 109 -100 76 -113 81 -290 126 -168 43 -180 44 -395 18 -144 -17
-254 -61 -512 -205 -298 -167 -431 -253 -513 -330 -19 -18 -69 -55 -111 -83
-42 -28 -98 -70 -125 -93 -26 -22 -83 -66 -127 -97 -43 -30 -137 -105 -208
-167 -120 -104 -134 -114 -206 -135 -69 -20 -88 -22 -196 -16 -76 5 -138 14
-168 25 -110 42 -301 186 -374 281 -16 22 -56 59 -87 82 -31 24 -142 120 -246
213 -200 179 -337 274 -454 314 -32 11 -82 32 -110 47 -121 63 -150 75 -239
99 -52 14 -134 42 -184 61 -67 27 -120 39 -205 49 -63 8 -145 23 -181 35 -37
11 -117 31 -178 45 -62 14 -136 35 -164 45 -83 32 -227 69 -297 75 -36 4 -81
11 -100 16 -19 6 -75 14 -123 19 -59 7 -118 22 -180 46 -51 20 -137 49 -192
64 -55 16 -133 40 -174 55 -85 29 -168 34 -177 10 -4 -9 -14 -13 -28 -10 -11
2 -95 22 -186 44 -91 22 -221 48 -289 56 -69 9 -159 27 -202 41 -42 13 -139
33 -216 44 -76 11 -167 29 -203 40 -70 22 -207 40 -308 40 -34 0 -97 9 -140
20 -56 14 -123 21 -247 24 -93 2 -191 9 -217 15 -26 6 -107 10 -180 9 -95 -1
-158 4 -218 16 -52 12 -108 17 -145 14 -84 -7 -177 6 -225 31 -22 11 -46 21
-53 21 -45 0 -191 226 -224 345 -12 42 -33 162 -33 187 0 10 21 18 65 27 36 7
80 23 98 35 30 20 32 26 35 83 4 93 -36 166 -203 368 -50 61 -108 133 -129
160 -20 28 -95 118 -165 200 -232 271 -272 334 -429 665 -41 87 -72 165 -76
195 -8 62 -49 131 -149 248 -102 121 -233 236 -332 291 -70 39 -184 78 -294
101 -42 9 -154 119 -224 221 -26 38 -63 89 -82 114 -19 25 -51 73 -71 108 -19
34 -52 88 -73 120 -46 70 -105 185 -137 271 -13 34 -34 81 -46 102 -19 34 -26
39 -57 38 -20 0 -49 -5 -66 -11z"/>
</g>
</svg>
