<?xml version="1.0" standalone="no"?>
<!DOCTYPE svg PUBLIC "-//W3C//DTD SVG 20010904//EN"
 "http://www.w3.org/TR/2001/REC-SVG-20010904/DTD/svg10.dtd">
<svg version="1.0" xmlns="http://www.w3.org/2000/svg"
 width="1281.000000pt" height="1536.000000pt" viewBox="0 0 1281.000000 1536.000000"
 preserveAspectRatio="xMidYMid meet">
<metadata>
Created by potrace 1.16, written by Peter Selinger 2001-2019
</metadata>
<g transform="translate(0.000000,1536.000000) scale(0.100000,-0.100000)"
fill="#000000" stroke="none">
<path d="M8675 15349 c-38 -5 -142 -27 -230 -48 -195 -48 -249 -59 -582 -115
-246 -42 -303 -56 -303 -75 0 -4 35 -13 78 -20 44 -7 84 -16 90 -20 7 -4 -152
-38 -353 -76 -313 -60 -365 -72 -365 -87 0 -10 14 -24 30 -33 51 -26 38 -40
-62 -65 -67 -17 -76 -32 -38 -63 36 -30 37 -37 9 -37 -74 0 -205 -54 -444
-184 -66 -36 -154 -77 -195 -91 -95 -32 -140 -59 -140 -84 0 -28 18 -36 80
-33 109 5 103 -24 -28 -124 -175 -135 -216 -191 -126 -177 58 9 40 -16 -77
-112 -139 -113 -148 -123 -129 -135 8 -6 29 -10 47 -10 17 0 34 -4 37 -8 8
-13 -86 -113 -247 -264 -152 -143 -171 -169 -135 -192 14 -8 33 -3 94 27 42
21 78 36 80 34 3 -2 -36 -66 -86 -141 -207 -311 -279 -500 -280 -723 0 -122 6
-126 72 -53 25 28 51 50 57 50 8 0 11 -45 11 -147 0 -82 4 -155 10 -163 7 -12
14 -12 43 -2 18 7 38 12 44 12 5 0 27 -35 49 -77 82 -163 225 -325 409 -463
49 -37 100 -79 113 -92 29 -32 44 -84 35 -128 -14 -79 -306 -908 -343 -978
-60 -111 -116 -177 -272 -324 -78 -73 -191 -180 -252 -237 -61 -58 -112 -110
-114 -116 -2 -7 4 -17 12 -24 12 -10 23 -7 61 14 25 15 48 25 51 22 3 -3 -22
-53 -56 -112 -34 -59 -77 -139 -96 -178 -33 -69 -34 -72 -14 -75 14 -2 40 14
76 47 31 28 60 51 65 51 20 0 -110 -317 -178 -434 -93 -159 -179 -248 -373
-386 -85 -61 -193 -180 -298 -329 -233 -330 -474 -665 -683 -946 -263 -355
-479 -662 -599 -850 -198 -310 -401 -692 -590 -1110 -57 -126 -253 -527 -435
-890 -351 -698 -412 -829 -493 -1045 -164 -439 -263 -979 -249 -1350 10 -239
51 -403 215 -849 81 -221 85 -235 71 -260 -17 -31 -31 -36 -283 -100 -374 -96
-604 -133 -836 -135 -233 -2 -296 29 -368 174 -23 46 -44 76 -55 78 -43 8
-133 -118 -174 -242 -22 -69 -26 -100 -27 -201 -1 -132 10 -185 56 -278 57
-114 155 -196 290 -241 298 -100 831 -147 1328 -117 162 10 226 28 347 99 135
79 221 89 353 41 185 -67 267 -91 359 -104 81 -13 376 -15 1906 -15 1947 0
1874 -2 1975 50 112 57 159 139 167 289 3 56 8 101 10 101 13 0 62 -32 85 -57
14 -15 49 -76 76 -135 56 -119 111 -187 182 -223 101 -50 96 -50 967 -47 897
3 856 0 967 68 55 34 66 38 122 36 55 -2 64 0 78 20 44 62 -8 281 -105 449
-85 148 -235 299 -373 377 -39 23 -114 55 -168 72 -101 32 -173 82 -203 139
-7 15 -59 162 -114 328 -113 337 -113 335 -41 385 32 22 42 37 56 89 21 75 74
134 128 144 58 11 61 20 64 219 l4 181 44 -50 44 -50 0 90 c-1 194 -29 375
-76 483 -13 29 -59 110 -102 180 -124 200 -147 251 -136 309 4 21 79 125 226
310 121 153 230 289 243 302 l23 23 16 -24 c9 -13 23 -62 32 -108 9 -51 39
-142 75 -227 41 -98 63 -167 72 -225 l13 -83 37 -3 c44 -4 62 -26 72 -92 5
-31 27 -75 70 -140 69 -104 89 -142 130 -240 40 -98 212 -687 234 -803 44
-227 50 -448 19 -678 -14 -106 -8 -119 59 -119 l45 0 -9 -33 c-4 -17 -8 -61
-7 -97 0 -55 6 -75 37 -134 40 -74 48 -142 27 -216 -21 -73 20 -94 77 -38 18
17 36 28 40 24 11 -11 20 -332 10 -386 -15 -89 5 -107 77 -71 21 11 52 23 69
27 18 3 44 12 58 20 l26 13 57 -131 c65 -151 108 -214 174 -258 95 -63 65 -61
993 -58 963 3 890 -3 999 94 33 30 68 54 76 54 8 0 32 -9 54 -20 49 -25 67
-25 80 -1 15 29 12 130 -6 192 -23 79 -100 222 -165 309 -118 156 -323 327
-420 350 -49 12 -176 9 -287 -6 -103 -15 -157 24 -297 211 -143 191 -231 358
-300 569 -69 211 -77 319 -35 456 52 170 47 316 -21 548 -340 1164 -354 1235
-353 1692 0 234 3 295 22 409 38 229 29 359 -38 567 -45 140 -77 271 -105 422
-28 152 -23 184 34 218 43 25 62 73 71 176 4 48 9 90 11 93 3 2 29 -39 58 -91
51 -90 63 -105 75 -85 8 12 -17 141 -63 331 -61 246 -61 250 -4 150 67 -118
103 -167 165 -226 51 -49 125 -104 140 -104 4 0 -10 48 -31 107 -70 196 -95
334 -121 666 -10 120 -9 142 4 162 9 13 25 26 36 30 19 6 20 14 20 151 0 121
2 144 15 144 15 0 57 -58 69 -98 10 -31 39 -45 61 -28 20 14 21 -4 -20 306 -9
63 -13 125 -10 137 3 13 19 30 35 38 24 12 30 22 30 48 0 34 -29 150 -51 204
-12 29 -11 35 4 50 15 15 22 16 59 4 71 -21 108 -25 108 -10 0 40 -58 101
-201 214 -304 239 -345 273 -377 319 -48 67 -69 120 -87 225 -34 196 -97 336
-204 455 -34 36 -61 71 -61 76 0 38 59 6 176 -96 75 -65 112 -89 121 -80 11
10 -40 116 -89 188 -28 40 -82 108 -122 152 -65 73 -69 79 -41 72 144 -36 310
-136 457 -276 92 -86 98 -90 103 -67 11 41 -15 149 -52 218 -36 70 -119 162
-188 209 -22 15 -121 73 -220 130 -240 137 -347 201 -342 206 2 2 62 -5 133
-16 153 -23 331 -26 429 -5 81 17 213 80 270 129 l40 34 -37 10 c-27 7 -64 6
-139 -5 -127 -19 -236 -8 -371 37 -189 63 -268 126 -276 222 -7 93 63 225 172
326 109 99 180 128 535 217 274 69 417 114 540 171 105 49 109 50 206 29 195
-41 374 10 562 160 198 158 354 368 521 698 l77 152 6 185 c5 134 17 249 43
418 40 260 42 289 22 356 -33 111 -91 146 -336 210 -435 112 -1046 304 -1174
367 -223 112 -291 202 -305 408 -4 58 -15 122 -23 141 -35 79 -113 152 -199
183 -38 14 -80 53 -250 233 -112 119 -208 223 -212 230 -12 21 -45 17 -58 -7
l-11 -21 -26 25 c-38 35 -58 43 -137 56 -47 8 -89 24 -127 47 -82 50 -213 110
-283 129 -96 26 -848 53 -980 34z"/>
</g>
</svg>
