<?xml version="1.0" standalone="no"?>
<!DOCTYPE svg PUBLIC "-//W3C//DTD SVG 20010904//EN"
 "http://www.w3.org/TR/2001/REC-SVG-20010904/DTD/svg10.dtd">
<svg version="1.0" xmlns="http://www.w3.org/2000/svg"
 width="1536.000000pt" height="923.000000pt" viewBox="0 0 1536.000000 923.000000"
 preserveAspectRatio="xMidYMid meet">
<metadata>
Created by potrace 1.16, written by Peter Selinger 2001-2019
</metadata>
<g transform="translate(0.000000,923.000000) scale(0.100000,-0.100000)"
fill="#000000" stroke="none">
<path d="M2338 9223 c-1 -5 -21 -17 -42 -28 -21 -11 -64 -48 -95 -83 -56 -63
-69 -84 -146 -222 -22 -40 -64 -101 -93 -136 l-53 -64 -85 0 c-83 0 -85 1
-197 59 -61 32 -137 73 -167 91 -30 18 -64 38 -75 44 -21 12 -186 131 -288
208 -34 26 -93 64 -131 84 -64 33 -75 36 -139 32 -51 -3 -73 -8 -82 -21 -19
-27 -26 -112 -16 -207 10 -95 56 -351 71 -390 5 -14 12 -54 15 -90 4 -36 13
-84 21 -108 10 -30 14 -93 14 -213 0 -166 -1 -172 -34 -272 -19 -56 -46 -142
-61 -192 -15 -49 -32 -106 -40 -125 -7 -19 -16 -55 -20 -80 -4 -25 -12 -54
-17 -64 -23 -44 -40 -151 -47 -311 -10 -194 -34 -306 -81 -370 -16 -22 -61
-96 -100 -165 -86 -150 -71 -127 -148 -240 -69 -102 -91 -132 -138 -188 -58
-70 -130 -167 -137 -184 -3 -10 -11 -18 -17 -18 -6 0 -10 -24 -10 -55 0 -30 4
-55 9 -55 5 0 13 -10 16 -22 17 -57 233 -244 346 -301 84 -42 311 -107 375
-107 96 0 243 39 432 114 104 41 218 82 253 91 35 9 81 22 102 30 91 36 214 7
298 -68 25 -23 92 -71 147 -106 106 -67 154 -111 191 -173 16 -28 29 -38 47
-38 14 0 42 -9 64 -20 29 -15 59 -20 114 -20 l74 0 36 -42 c20 -23 36 -45 36
-49 0 -5 20 -20 45 -35 38 -22 50 -24 74 -16 36 13 169 -3 231 -28 68 -27 138
-48 203 -60 33 -7 74 -18 93 -26 18 -8 50 -14 71 -14 21 0 55 -9 76 -20 20
-11 43 -20 51 -20 8 0 27 -7 43 -14 15 -8 49 -22 76 -30 26 -9 68 -23 95 -32
26 -8 106 -44 179 -80 73 -35 147 -67 165 -71 62 -11 125 -52 186 -118 110
-120 201 -279 202 -351 0 -35 -58 -83 -180 -145 -63 -32 -153 -81 -199 -109
-79 -46 -135 -71 -397 -179 -108 -45 -317 -159 -396 -217 -59 -44 -154 -147
-178 -194 -9 -19 -34 -67 -53 -105 -20 -39 -42 -95 -48 -125 -17 -73 -17 -251
-1 -435 7 -82 17 -283 22 -445 9 -295 16 -356 53 -429 9 -17 28 -84 42 -148
56 -245 138 -479 185 -527 20 -20 41 -30 73 -33 43 -5 46 -4 61 25 12 23 27
34 59 43 132 36 130 35 232 147 l97 107 -5 100 c-3 55 -12 120 -20 145 -24 74
-38 159 -46 277 -5 75 -13 120 -24 136 -43 67 -61 148 -61 287 -1 117 2 144
22 200 13 35 38 81 57 101 23 25 34 50 39 84 4 26 11 55 16 64 4 9 12 29 17
46 l8 30 225 1 c205 0 231 2 289 23 35 12 73 28 85 35 11 7 55 19 96 26 144
24 221 41 324 70 57 17 115 30 130 30 14 0 52 9 83 19 63 20 265 83 408 126
50 15 109 34 133 41 57 19 137 18 156 -1 8 -8 24 -57 35 -107 53 -247 53 -245
61 -828 5 -364 12 -565 19 -583 6 -16 11 -79 11 -141 0 -96 -4 -124 -29 -201
-32 -97 -88 -211 -183 -369 -99 -165 -96 -162 -170 -156 -88 7 -161 -4 -223
-34 -68 -34 -138 -96 -160 -143 -10 -20 -30 -54 -46 -75 -48 -67 -51 -223 -5
-290 57 -86 129 -101 283 -63 115 29 103 29 379 9 129 -9 175 4 258 73 88 74
242 281 272 365 8 24 28 56 43 73 40 42 129 227 147 305 21 89 34 107 86 115
94 14 106 22 123 78 19 63 19 86 1 156 -36 142 -46 378 -21 516 25 137 56 278
72 320 34 90 76 351 93 570 5 72 14 157 20 190 23 144 30 195 36 270 4 44 11
85 16 92 5 6 12 43 17 82 8 81 29 112 99 143 41 19 46 19 96 3 42 -13 61 -15
92 -6 21 6 78 11 125 11 73 0 89 -3 104 -20 12 -13 31 -20 54 -20 20 -1 65 -8
101 -16 36 -8 94 -17 129 -19 45 -3 74 -11 93 -25 24 -18 42 -20 162 -20 122
0 136 -2 145 -19 7 -12 27 -20 62 -25 45 -6 55 -4 84 19 30 22 43 25 113 25
78 0 81 -1 107 -33 48 -56 74 -58 95 -6 14 32 42 38 74 14 27 -21 63 -19 93 5
26 20 26 20 58 0 42 -26 60 -25 80 2 13 19 18 21 33 10 9 -7 23 -15 30 -18 13
-7 116 20 142 37 36 22 43 20 89 -25 59 -58 90 -60 104 -6 5 19 10 36 12 38 2
2 27 -9 55 -23 47 -24 56 -25 77 -14 14 7 33 25 44 40 12 17 39 34 68 44 27 9
57 25 66 35 12 14 31 20 59 20 60 0 105 16 127 44 12 15 31 26 44 26 13 0 27
5 31 11 3 6 18 9 31 6 21 -4 38 8 96 64 51 50 85 73 121 85 47 16 50 16 63 -2
7 -10 13 -35 13 -56 0 -26 6 -44 21 -56 11 -9 28 -35 38 -57 10 -22 39 -58 65
-80 26 -22 84 -74 129 -116 100 -92 218 -195 274 -240 23 -19 96 -80 163 -136
66 -57 142 -114 169 -127 48 -25 165 -57 331 -91 47 -9 112 -26 145 -36 33
-10 128 -33 210 -50 165 -33 256 -59 309 -86 19 -10 108 -88 199 -173 90 -85
223 -207 297 -270 256 -221 291 -262 385 -455 153 -313 106 -546 -212 -1060
-74 -119 -149 -200 -212 -228 -40 -17 -70 -20 -241 -23 -270 -3 -431 -37 -502
-105 -33 -31 -38 -42 -38 -81 0 -24 3 -48 7 -52 4 -4 13 -39 20 -78 16 -98 49
-143 137 -188 67 -34 72 -35 185 -35 89 0 139 6 214 24 110 27 126 25 267 -34
59 -25 72 -27 165 -23 70 3 110 10 135 23 54 28 167 125 195 167 14 21 29 38
33 38 5 0 19 21 31 46 14 27 34 50 50 57 14 6 38 19 54 30 24 17 27 24 27 78
0 59 2 62 70 154 38 51 73 95 77 97 4 1 32 31 61 65 30 35 62 63 71 63 18 0
105 -82 143 -136 13 -18 46 -59 73 -92 28 -34 66 -81 85 -106 44 -58 102 -84
152 -67 72 25 148 92 199 176 96 158 111 275 50 412 -17 39 -31 79 -31 88 0
29 -52 148 -85 195 -38 53 -85 143 -85 164 0 7 -7 27 -15 42 -8 16 -15 40 -15
54 0 14 -6 37 -14 52 -12 23 -12 34 0 74 8 26 14 59 14 74 0 15 7 34 16 41 14
11 16 28 12 100 -5 78 -10 95 -43 156 -21 37 -49 81 -62 96 -21 27 -23 37 -23
153 0 72 4 124 10 124 18 0 119 -113 125 -140 10 -44 34 -59 105 -62 63 -3 64
-4 72 -35 6 -23 15 -33 28 -33 21 0 50 -35 50 -62 0 -13 10 -21 30 -25 36 -7
70 -63 70 -115 0 -19 7 -43 15 -55 14 -20 23 -22 100 -20 l85 2 6 -35 c7 -40
62 -98 121 -128 49 -25 179 -55 204 -47 10 4 22 18 25 33 12 57 13 57 62 9 70
-69 102 -60 102 26 l0 50 53 -51 c92 -87 212 -129 247 -87 16 19 35 19 65 -1
35 -23 45 -10 45 58 0 45 -5 67 -18 82 -10 12 -26 41 -36 66 -10 25 -24 59
-31 75 -7 17 -16 56 -18 88 -4 42 -17 78 -48 135 -23 42 -49 86 -59 97 -19 23
-60 128 -60 156 0 10 -18 62 -41 116 -22 54 -52 125 -65 158 -14 33 -30 69
-36 80 -92 163 -128 231 -128 241 0 7 -18 34 -40 61 -22 26 -56 67 -75 89 -67
80 -106 136 -137 192 -16 32 -55 86 -86 122 -50 59 -172 285 -172 319 0 7 -9
29 -19 49 -36 68 -49 106 -81 232 -17 69 -36 136 -41 150 -6 14 -15 53 -20 88
-5 34 -13 70 -18 80 -9 17 -16 64 -46 317 -8 71 -31 193 -50 270 -18 77 -37
165 -40 196 -3 31 -13 65 -20 75 -8 11 -15 35 -15 54 0 19 -5 51 -10 70 -6 19
-21 94 -34 165 -28 154 -55 260 -90 348 -14 35 -26 68 -26 74 0 6 -6 24 -14
40 -8 15 -29 66 -46 113 -18 47 -55 123 -83 170 -28 47 -55 95 -62 106 -27 52
-134 187 -202 256 -130 131 -425 302 -583 337 -25 6 -76 21 -115 34 -196 68
-263 90 -410 136 -88 28 -176 54 -195 57 -19 4 -43 11 -52 16 -21 10 -158 50
-248 72 -93 22 -170 34 -290 46 -58 6 -127 14 -155 19 -27 6 -75 10 -105 10
-30 1 -89 7 -130 15 -41 8 -120 17 -175 21 -55 3 -160 18 -234 31 l-135 24
-63 -21 c-36 -11 -65 -19 -67 -18 -1 2 -6 17 -12 34 -9 28 -14 30 -104 47 -52
10 -187 22 -300 28 -113 5 -315 16 -450 24 -135 8 -326 15 -425 15 -99 1 -245
5 -325 11 -80 6 -262 15 -405 20 -163 6 -286 16 -330 25 -38 9 -104 20 -145
25 -75 10 -156 28 -325 73 -200 54 -253 61 -645 87 -187 12 -426 36 -439 45
-6 3 -41 12 -78 19 -117 23 -334 92 -433 137 -116 53 -313 122 -440 154 -173
44 -754 75 -1405 75 -376 0 -500 4 -570 15 -49 8 -118 15 -151 15 -72 0 -158
30 -281 96 -75 41 -84 49 -107 99 -13 29 -27 67 -31 83 -3 17 -13 36 -21 43
-8 6 -14 25 -14 41 0 31 -8 48 -94 203 -53 95 -169 250 -214 286 -15 11 -51
43 -80 70 l-53 49 -108 0 c-60 0 -111 -3 -113 -7z"/>
</g>
</svg>
