<?xml version="1.0" standalone="no"?>
<!DOCTYPE svg PUBLIC "-//W3C//DTD SVG 20010904//EN"
 "http://www.w3.org/TR/2001/REC-SVG-20010904/DTD/svg10.dtd">
<svg version="1.0" xmlns="http://www.w3.org/2000/svg"
 width="1536.000000pt" height="1276.000000pt" viewBox="0 0 1536.000000 1276.000000"
 preserveAspectRatio="xMidYMid meet">
<metadata>
Created by potrace 1.16, written by Peter Selinger 2001-2019
</metadata>
<g transform="translate(0.000000,1276.000000) scale(0.100000,-0.100000)"
fill="#000000" stroke="none">
<path d="M5140 12660 c0 -49 -1 -90 -2 -90 -2 0 -36 9 -76 19 -39 11 -74 16
-76 12 -2 -3 -10 -44 -16 -90 -16 -105 -8 -208 24 -331 13 -52 24 -96 22 -97
-1 -1 -32 44 -69 100 -101 156 -169 244 -257 333 -70 71 -225 194 -244 194 -3
0 1 -17 10 -37 62 -146 154 -443 154 -500 0 -9 -37 18 -84 61 l-85 77 -3 -52
-3 -52 -49 78 c-27 43 -81 116 -120 161 -79 93 -77 94 -91 -19 l-6 -47 -75 62
c-41 35 -121 98 -177 140 l-102 77 -5 -158 -5 -157 -105 147 c-58 82 -107 148
-110 149 -3 0 -4 -31 -2 -69 4 -81 -3 -89 -94 -98 -30 -3 -54 -9 -54 -14 0 -4
18 -41 40 -82 23 -41 54 -110 69 -154 29 -78 86 -312 78 -319 -2 -3 -91 38
-198 89 -107 52 -195 90 -197 86 -2 -5 6 -54 17 -110 12 -56 21 -105 21 -110
0 -4 -35 5 -77 20 -135 49 -128 51 -88 -18 18 -34 31 -61 28 -61 -6 0 -359
104 -392 116 -11 3 -12 -9 -6 -71 4 -41 3 -75 -1 -75 -4 0 -56 9 -116 21 -60
11 -112 18 -115 15 -3 -2 29 -53 71 -113 l76 -108 -35 -17 c-63 -33 -209 -77
-305 -93 -52 -8 -183 -18 -291 -22 l-196 -6 23 -60 c13 -34 24 -66 24 -72 0
-9 -44 -14 -142 -19 -79 -4 -145 -9 -147 -11 -2 -2 40 -53 93 -114 l96 -109
-170 -67 c-93 -37 -170 -70 -170 -74 0 -4 23 -38 50 -76 28 -38 50 -72 50 -75
0 -3 -134 -25 -297 -49 -164 -23 -306 -45 -317 -48 -15 -4 -6 -17 54 -78 40
-40 68 -75 64 -77 -5 -3 -53 -14 -107 -24 -53 -10 -97 -20 -97 -23 1 -3 55
-44 120 -91 111 -79 119 -86 102 -100 -10 -8 -91 -60 -180 -115 -89 -55 -161
-103 -162 -106 0 -3 33 -11 73 -18 119 -21 118 -17 15 -79 l-93 -57 110 -10
110 -10 -188 -133 c-103 -73 -187 -134 -187 -136 0 -1 150 19 333 46 182 26
337 47 343 45 6 -1 -105 -56 -247 -122 -141 -66 -256 -122 -254 -123 2 -2 80
2 173 8 93 7 175 11 182 8 7 -2 -23 -27 -66 -56 -44 -28 -72 -52 -64 -52 8 1
62 7 120 14 58 7 106 12 108 11 3 -2 -21 -11 -478 -186 -190 -72 -348 -134
-352 -138 -5 -4 44 -20 107 -35 63 -15 117 -31 119 -35 3 -4 -36 -31 -85 -61
-59 -34 -86 -56 -78 -61 7 -4 70 -22 141 -41 70 -18 128 -35 128 -38 0 -3 -46
-31 -103 -64 -56 -32 -155 -90 -220 -128 l-117 -69 60 -41 c33 -22 60 -41 60
-42 0 -1 -72 -60 -161 -132 l-161 -129 39 -12 c21 -6 48 -12 61 -12 12 -1 22
-5 22 -11 0 -5 -32 -82 -71 -172 -39 -90 -75 -172 -79 -184 l-8 -21 94 20 c53
10 97 17 100 14 3 -3 -18 -50 -45 -106 -28 -55 -51 -103 -51 -105 0 -3 25 -10
55 -17 30 -7 55 -14 55 -16 0 -2 -38 -56 -85 -120 -47 -65 -81 -119 -76 -121
15 -5 329 54 444 84 106 27 213 67 307 114 33 17 60 27 60 24 0 -4 -31 -39
-69 -79 -83 -87 -139 -162 -186 -248 -43 -79 -100 -231 -83 -221 7 4 64 40
126 80 l112 73 0 -55 0 -55 37 6 c21 4 53 11 70 15 18 5 33 7 33 5 0 -2 -9
-24 -19 -49 l-20 -45 22 8 c60 24 271 118 339 152 43 22 80 39 83 39 3 0 -27
-44 -67 -97 -69 -92 -308 -459 -308 -472 0 -3 30 -7 67 -9 38 -2 70 -5 72 -7
2 -2 -11 -38 -29 -80 -17 -43 -30 -79 -28 -80 2 -2 46 32 97 76 51 44 94 79
96 77 2 -2 -6 -54 -17 -116 -11 -62 -18 -115 -15 -118 2 -3 58 17 123 45 66
27 120 48 121 48 1 -1 -9 -57 -21 -125 -13 -67 -21 -122 -19 -122 1 0 81 29
176 65 95 36 176 65 180 65 3 0 -14 -43 -39 -96 -24 -52 -44 -97 -44 -98 0 -8
153 18 204 35 222 74 358 227 851 964 104 154 192 285 198 290 6 7 7 -16 3
-65 -4 -44 -3 -71 2 -65 5 6 110 179 232 385 292 491 296 496 600 770 192 173
227 211 372 415 110 153 184 225 285 273 69 32 88 37 173 40 79 3 105 0 152
-17 115 -44 138 -80 146 -229 l5 -105 -116 6 -117 7 0 -201 c0 -157 -3 -200
-12 -196 -7 3 -70 28 -141 56 -70 28 -131 51 -135 51 -4 0 -8 -86 -9 -191 -1
-105 -5 -195 -10 -199 -4 -4 -55 10 -112 31 -57 22 -110 39 -116 39 -10 0 -10
-14 0 -67 18 -92 59 -493 51 -493 -1 0 -41 13 -88 29 l-87 29 -5 -36 c-3 -21
-11 -105 -17 -189 -7 -84 -16 -150 -20 -147 -4 2 -33 40 -64 84 -31 44 -58 80
-59 80 -2 0 9 -46 25 -102 16 -57 28 -106 26 -110 -1 -4 -51 22 -112 57 -60
36 -113 65 -117 65 -4 0 31 -111 77 -247 47 -136 83 -249 80 -251 -2 -2 -68
32 -146 77 -78 45 -143 80 -145 78 -2 -1 15 -41 36 -87 22 -47 44 -108 50
-137 10 -48 9 -55 -15 -92 -14 -23 -31 -41 -39 -41 -7 0 -25 -9 -40 -21 -32
-25 -34 -63 -6 -169 11 -41 20 -78 20 -82 0 -4 -65 23 -145 59 -80 37 -147 64
-149 62 -2 -2 5 -49 15 -104 11 -55 18 -105 17 -111 -2 -7 -39 17 -83 52 -44
36 -93 74 -108 86 l-28 20 14 -33 c20 -46 167 -369 179 -394 6 -11 -25 14 -68
56 -121 116 -117 115 -88 12 42 -152 42 -145 3 -139 -71 13 -343 45 -347 41
-3 -2 140 -271 185 -348 3 -4 -40 15 -96 42 -55 28 -105 51 -110 51 -6 0 3
-29 19 -65 16 -36 35 -95 41 -131 10 -56 9 -67 -5 -83 -9 -10 -16 -22 -16 -27
0 -5 -8 -25 -18 -44 -27 -51 -18 -96 43 -202 l53 -93 -94 -3 -95 -3 42 -57
c92 -126 156 -231 168 -274 18 -63 -3 -103 -88 -175 -36 -31 -67 -59 -68 -62
-1 -3 45 -46 103 -96 l105 -90 -98 -18 c-54 -10 -121 -22 -150 -28 l-52 -10
229 -341 c127 -188 228 -343 227 -345 -2 -2 -63 14 -135 36 -73 21 -132 37
-132 36 0 -2 45 -75 100 -164 55 -88 100 -164 100 -169 0 -9 -29 -23 -139 -69
l-33 -14 100 -103 c136 -140 210 -260 237 -384 l7 -32 -101 0 c-56 0 -101 -3
-101 -6 0 -4 40 -53 90 -109 189 -216 277 -350 340 -517 62 -166 93 -297 88
-381 -4 -91 -22 -118 -123 -183 -41 -27 -75 -52 -75 -55 0 -3 30 -16 67 -29
77 -27 143 -81 143 -116 0 -12 -5 -26 -10 -29 -34 -21 59 -61 174 -74 106 -13
122 -28 118 -115 -2 -51 1 -66 17 -80 45 -40 463 -78 628 -57 121 16 250 51
372 101 53 22 100 40 103 40 3 0 8 -55 11 -123 7 -163 41 -283 149 -526 l24
-55 34 88 c20 54 36 82 41 74 3 -7 21 -75 39 -150 17 -76 33 -138 35 -138 2 0
41 46 86 103 45 56 85 106 89 110 4 5 15 -25 24 -65 21 -96 37 -118 82 -118
47 0 101 -52 158 -153 l43 -77 104 107 c68 72 104 102 107 93 9 -25 69 -80 88
-80 11 0 48 9 82 20 73 23 151 26 217 8 42 -11 50 -10 92 12 25 13 77 55 117
93 57 56 94 80 191 128 117 58 121 61 188 145 38 47 71 84 73 81 2 -2 0 -27
-6 -56 -40 -209 -33 -333 22 -415 48 -73 226 -173 434 -245 135 -46 216 -54
464 -46 118 4 346 8 505 9 326 2 341 4 585 81 181 57 259 71 522 90 117 8 251
20 298 25 139 16 228 13 274 -10 23 -11 79 -54 125 -95 90 -81 122 -95 211
-95 164 0 181 56 58 200 -29 34 -59 70 -66 80 -9 12 28 3 145 -36 164 -55 273
-81 382 -91 l63 -6 -7 24 c-24 78 -98 162 -170 194 -27 12 -97 35 -155 50
-143 37 -189 55 -380 145 -91 44 -200 90 -242 105 -224 74 -588 73 -963 -3
-184 -37 -306 -36 -398 2 l-68 28 47 52 c127 139 286 293 349 337 82 59 150
81 330 109 164 25 181 30 288 85 383 197 552 436 643 910 74 390 89 459 121
555 18 58 46 128 61 155 l27 50 85 -1 c47 -1 189 -18 315 -38 895 -143 1033
-155 1291 -111 282 48 613 183 939 383 72 43 179 109 239 145 150 92 318 145
381 121 24 -10 49 -67 89 -209 67 -233 85 -260 252 -390 68 -52 124 -99 124
-103 1 -4 10 -18 20 -31 l20 -23 35 26 c34 27 118 142 146 201 22 47 86 64
241 65 l127 0 82 -40 c128 -62 175 -53 210 39 44 116 88 253 94 294 13 90 -54
310 -142 462 -105 182 -259 354 -370 413 -124 65 -182 73 -513 70 l-295 -3
-94 33 c-252 88 -469 251 -548 413 -80 161 -77 303 7 352 56 34 121 31 380
-13 210 -36 272 -43 435 -47 225 -6 350 9 538 64 67 19 147 42 177 50 82 22
124 50 175 115 52 67 88 92 163 113 28 8 76 22 105 30 65 18 126 75 165 155
24 49 27 66 26 160 0 103 -2 110 -72 320 -61 185 -74 237 -92 370 -50 374 -96
519 -238 754 -145 237 -326 460 -594 728 -93 93 -173 180 -178 194 -25 65 -5
142 90 344 90 192 100 224 100 326 0 162 -63 281 -197 373 -113 77 -318 89
-450 25 -91 -44 -140 -120 -212 -329 -48 -136 -68 -169 -118 -186 -55 -18
-157 -4 -230 32 -97 47 -147 116 -209 291 -59 166 -140 266 -247 307 -125 46
-278 63 -340 37 -65 -27 -182 -182 -287 -379 -49 -93 -64 -146 -76 -272 -4
-38 -15 -99 -26 -134 -26 -86 -86 -145 -246 -241 -67 -41 -207 -136 -310 -212
-386 -283 -479 -338 -832 -488 -321 -137 -395 -160 -518 -160 -154 0 -399 37
-637 97 -55 13 -246 67 -425 118 -479 137 -614 161 -845 152 -77 -3 -178 -13
-224 -21 -47 -9 -86 -14 -89 -12 -7 8 178 224 236 276 39 35 111 78 227 137
155 79 177 93 245 162 137 138 254 340 373 641 36 91 68 176 72 189 6 18 -20
0 -99 -70 -184 -161 -185 -166 17 135 36 55 65 102 63 104 -2 2 -54 -22 -116
-53 -62 -31 -114 -55 -115 -53 -2 2 32 66 76 142 44 76 78 141 76 143 -2 2
-52 -26 -110 -61 -124 -76 -295 -164 -415 -212 -46 -19 -86 -34 -89 -34 -11 0
91 127 323 400 161 189 281 337 295 362 9 16 5 16 -43 -3 -29 -12 -87 -34
-128 -49 -41 -16 -83 -31 -93 -35 -14 -6 -6 24 39 154 31 89 54 164 51 167 -3
3 -29 -8 -59 -25 -30 -17 -59 -31 -65 -31 -6 0 -3 45 8 118 27 178 29 172 -38
113 -31 -28 -58 -50 -59 -48 -1 1 2 51 8 112 5 60 8 125 6 144 l-3 34 -75 -85
-75 -86 -5 138 -5 137 -89 -63 c-50 -35 -91 -62 -93 -60 -3 2 34 171 81 376
l15 65 -101 -103 c-55 -57 -103 -101 -105 -98 -3 3 -20 62 -38 133 l-32 128
-20 -45 c-11 -25 -26 -62 -34 -82 -7 -21 -16 -38 -19 -38 -4 0 -21 63 -39 140
-18 77 -34 140 -36 140 -3 0 -27 -9 -54 -20 -28 -11 -52 -16 -55 -12 -11 18
-28 388 -24 509 3 73 2 131 -2 128 -4 -2 -40 -54 -80 -115 -40 -61 -74 -109
-75 -108 -1 2 2 44 6 93 4 50 8 114 8 144 l1 54 -49 -81 c-53 -88 -183 -276
-229 -331 l-29 -35 -18 75 c-27 112 -65 228 -91 280 -28 55 -71 109 -88 109
-8 0 -19 -37 -30 -97 -10 -54 -27 -126 -38 -160 -19 -63 -96 -189 -141 -231
l-24 -23 -6 143 c-4 79 -7 172 -7 207 l0 65 -47 -68 c-31 -45 -49 -63 -53 -54
-4 7 -15 56 -25 108 -37 196 -106 382 -178 478 l-25 34 -19 -44 c-11 -24 -37
-85 -58 -135 -22 -51 -42 -93 -45 -93 -3 0 -27 66 -54 148 -27 81 -53 157 -57
170 l-9 23 -29 -20 c-16 -12 -33 -21 -38 -21 -4 0 -48 65 -98 145 -53 86 -92
140 -95 133 -4 -7 -17 -50 -30 -96 l-23 -83 -66 100 c-36 55 -68 101 -71 101
-3 0 -21 -74 -39 -165 -19 -91 -37 -165 -41 -165 -3 0 -60 68 -125 152 l-119
152 -9 -44 c-4 -25 -13 -69 -18 -98 l-11 -53 -154 205 c-85 114 -156 206 -159
206 -3 0 -5 -40 -5 -90z"/>
</g>
</svg>
