<?xml version="1.0" standalone="no"?>
<!DOCTYPE svg PUBLIC "-//W3C//DTD SVG 20010904//EN"
 "http://www.w3.org/TR/2001/REC-SVG-20010904/DTD/svg10.dtd">
<svg version="1.0" xmlns="http://www.w3.org/2000/svg"
 width="1536.000000pt" height="1158.000000pt" viewBox="0 0 1536.000000 1158.000000"
 preserveAspectRatio="xMidYMid meet">
<metadata>
Created by potrace 1.16, written by Peter Selinger 2001-2019
</metadata>
<g transform="translate(0.000000,1158.000000) scale(0.100000,-0.100000)"
fill="#000000" stroke="none">
<path d="M3065 11562 c-70 -24 -231 -122 -290 -175 -30 -27 -75 -87 -114 -150
-35 -58 -71 -113 -80 -121 -16 -15 -28 -13 -137 20 -119 36 -119 36 -409 47
-402 15 -682 -7 -892 -72 l-62 -19 -33 25 c-55 41 -308 189 -388 227 -91 43
-154 56 -278 56 l-95 0 -103 -57 -104 -58 -30 -76 c-62 -159 -64 -224 -15
-412 47 -183 65 -293 65 -399 0 -84 3 -96 61 -250 89 -234 92 -240 169 -330
39 -46 79 -101 90 -123 10 -22 52 -155 94 -295 41 -140 135 -437 209 -660 123
-371 141 -416 207 -535 104 -187 164 -310 190 -390 87 -268 200 -483 508 -963
98 -153 110 -176 101 -198 -13 -36 -11 -44 7 -37 13 5 15 -1 9 -41 -4 -25 -4
-46 0 -46 3 0 27 12 51 26 25 15 47 24 49 22 8 -8 217 -412 242 -466 13 -30
110 -216 217 -415 106 -199 198 -376 205 -393 7 -18 23 -83 36 -145 22 -111
23 -113 36 -84 l14 30 5 -49 5 -48 28 23 c17 12 32 18 35 12 4 -5 33 -41 64
-79 45 -55 88 -134 192 -348 128 -261 138 -286 180 -449 45 -171 45 -175 66
-492 44 -700 60 -933 65 -996 5 -70 -9 -238 -50 -579 -23 -190 -27 -207 -50
-227 -13 -12 -81 -40 -150 -62 -69 -23 -174 -61 -233 -86 -59 -24 -127 -49
-150 -55 -49 -13 -129 -79 -138 -116 -4 -15 1 -29 15 -43 12 -12 21 -30 21
-40 0 -17 -6 -19 -60 -14 -71 7 -140 -15 -265 -84 -108 -60 -141 -94 -164
-168 -36 -116 -36 -118 4 -213 41 -96 56 -114 131 -148 l50 -24 610 -2 c492
-3 616 0 647 11 30 10 56 35 119 115 81 103 151 165 336 294 50 35 120 90 156
123 54 50 69 59 90 53 22 -5 26 -3 26 16 0 17 5 21 19 17 22 -5 41 32 111 218
45 122 79 165 183 237 49 33 58 44 53 61 -21 71 -19 83 13 97 23 9 30 17 26
29 -33 84 -31 96 70 466 8 28 32 80 55 117 22 37 40 71 40 76 0 5 -10 16 -22
25 -22 14 -23 20 -23 158 0 136 2 151 38 279 21 74 45 159 53 187 11 41 31 71
84 130 38 43 70 81 70 85 0 4 -12 3 -26 -3 -15 -5 -29 -8 -31 -5 -3 2 10 24
27 48 30 41 31 43 11 46 -26 4 -26 5 -2 75 11 30 33 149 50 264 41 279 66 358
135 431 54 58 91 71 229 78 123 7 124 7 248 -31 68 -21 130 -40 137 -42 7 -3
17 7 23 24 l10 30 91 -18 c107 -22 235 -90 284 -150 l31 -38 6 45 c2 25 7 47
9 49 12 13 163 -43 302 -111 143 -70 162 -82 219 -144 34 -37 83 -104 109
-149 44 -78 46 -86 52 -184 6 -86 3 -115 -14 -182 -33 -124 -38 -350 -11 -480
25 -121 152 -503 188 -565 70 -119 164 -230 309 -360 82 -74 205 -190 274
-258 69 -69 159 -152 200 -185 41 -34 104 -86 140 -117 87 -76 389 -315 470
-372 97 -69 123 -99 111 -129 -15 -41 -34 -49 -152 -63 -328 -40 -622 -45
-749 -12 -80 20 -111 24 -257 36 l-132 10 -100 -50 c-55 -27 -140 -66 -188
-86 -48 -20 -104 -44 -124 -54 -50 -26 -139 -109 -139 -130 0 -20 57 -75 88
-84 10 -4 33 -24 50 -45 19 -23 56 -51 89 -67 67 -32 125 -35 423 -20 166 8
182 7 316 -18 188 -35 295 -35 395 0 l74 25 450 -7 c479 -7 986 6 1240 32 77
8 195 14 263 14 68 0 132 4 142 10 14 8 20 26 25 87 10 130 0 123 171 123
l146 0 141 59 c78 32 185 75 239 95 53 20 102 44 109 52 7 9 64 50 126 91 112
75 114 75 134 57 35 -31 89 -111 125 -182 29 -59 33 -63 34 -37 0 26 5 21 39
-43 22 -41 41 -76 44 -78 2 -2 2 19 0 48 l-4 53 18 -25 c72 -100 115 -148 150
-167 48 -27 190 -72 373 -118 130 -32 150 -34 530 -54 217 -12 428 -24 469
-27 88 -8 95 -2 -116 -95 -274 -121 -333 -154 -436 -240 -54 -45 -96 -84 -93
-86 2 -2 40 5 84 16 104 27 108 26 42 -9 -36 -19 -48 -29 -35 -30 11 -1 -8
-12 -43 -24 -35 -13 -65 -26 -68 -28 -6 -7 251 -29 410 -35 l139 -6 -59 -22
-59 -22 35 -6 c19 -4 188 -9 375 -13 375 -7 621 4 770 36 189 40 497 100 665
130 264 46 399 79 465 112 80 39 81 40 127 131 34 69 42 96 54 196 25 217 16
331 -41 465 l-33 81 39 40 c21 23 39 44 39 48 0 3 -27 -5 -61 -20 l-61 -26
-51 17 c-64 22 -252 114 -412 201 -146 79 -177 89 -369 115 -185 26 -579 89
-584 94 -2 3 27 7 65 11 123 13 108 21 -63 33 -407 29 -588 79 -1000 278
l-151 73 -59 77 c-35 46 -94 107 -144 147 -122 98 -413 370 -480 448 -50 58
-66 87 -119 224 -34 87 -60 159 -58 161 2 2 21 -21 42 -51 20 -30 40 -55 42
-55 3 0 2 32 -2 70 -6 60 -16 87 -63 172 l-55 101 -19 216 c-60 711 -88 951
-124 1096 -36 142 -134 432 -187 552 -131 299 -694 1222 -886 1454 -104 127
-395 443 -584 636 -189 192 -212 212 -357 308 -426 282 -551 338 -1170 524
-228 69 -193 65 -1120 136 -180 14 -499 30 -715 36 -428 11 -390 7 -1074 114
-195 30 -438 67 -540 80 -325 44 -316 42 -245 78 53 27 51 29 -26 40 -20 3
-16 5 18 12 23 4 41 9 39 11 -2 2 -38 13 -80 23 -87 23 -190 68 -320 143 -108
61 -267 209 -385 358 -42 52 -121 143 -177 201 -138 144 -171 190 -259 361
-104 201 -103 226 8 423 56 100 56 100 31 103 -24 3 -24 4 -10 32 8 16 12 35
9 43 -3 8 7 53 22 98 24 76 27 101 31 269 6 266 -10 635 -30 682 -28 67 -104
137 -192 179 -44 21 -101 43 -125 48 -69 16 -179 13 -235 -7z"/>
</g>
</svg>
