<?xml version="1.0" standalone="no"?>
<!DOCTYPE svg PUBLIC "-//W3C//DTD SVG 20010904//EN"
 "http://www.w3.org/TR/2001/REC-SVG-20010904/DTD/svg10.dtd">
<svg version="1.0" xmlns="http://www.w3.org/2000/svg"
 width="1332.000000pt" height="1536.000000pt" viewBox="0 0 1332.000000 1536.000000"
 preserveAspectRatio="xMidYMid meet">
<metadata>
Created by potrace 1.16, written by Peter Selinger 2001-2019
</metadata>
<g transform="translate(0.000000,1536.000000) scale(0.100000,-0.100000)"
fill="#000000" stroke="none">
<path d="M3205 15335 c-112 -46 -131 -87 -175 -398 -17 -120 -44 -260 -62
-322 -50 -176 -44 -302 38 -715 45 -230 86 -383 126 -473 30 -67 33 -80 36
-206 4 -149 -2 -183 -50 -264 -49 -84 -52 -96 -23 -107 15 -6 23 -15 19 -24
-3 -8 -1 -17 5 -21 20 -12 12 -26 -51 -91 -45 -47 -59 -67 -50 -73 11 -6 9
-21 -7 -69 -24 -71 -29 -145 -12 -166 9 -11 10 -20 2 -35 -6 -11 -11 -34 -11
-51 0 -19 -11 -46 -27 -67 -26 -34 -27 -37 -9 -47 83 -50 79 -65 -21 -81 l-66
-11 52 -33 c87 -56 129 -131 80 -144 -13 -4 -19 -12 -18 -24 5 -27 -9 -43 -38
-43 l-27 0 29 -30 c26 -27 28 -33 19 -67 l-9 -38 -55 1 c-39 0 -59 -5 -72 -18
-10 -10 -30 -18 -45 -19 -16 0 -36 -4 -46 -8 -15 -6 -12 -10 19 -25 30 -14 35
-20 23 -28 -11 -7 -11 -11 -1 -15 27 -11 8 -41 -90 -142 -78 -79 -99 -106 -85
-109 29 -6 15 -87 -37 -210 -21 -50 -24 -67 -15 -78 6 -8 9 -23 6 -34 -7 -26
1 -25 30 2 13 12 25 19 28 16 3 -2 -15 -49 -40 -104 -24 -54 -45 -104 -45
-110 0 -5 13 -23 30 -39 17 -16 30 -34 30 -41 0 -7 10 -14 23 -16 28 -4 27
-14 -19 -173 -43 -147 -58 -285 -52 -470 4 -116 9 -147 26 -181 11 -22 33 -99
47 -170 35 -174 62 -267 97 -343 23 -50 34 -95 49 -213 31 -245 69 -379 133
-468 21 -28 43 -80 60 -138 15 -51 89 -267 165 -480 76 -213 150 -437 165
-497 14 -61 48 -242 76 -403 27 -161 59 -334 71 -384 20 -83 21 -108 14 -264
-6 -156 -5 -178 14 -245 54 -195 131 -844 166 -1414 10 -151 32 -288 76 -466
54 -219 69 -315 69 -428 0 -115 -10 -140 -106 -280 -107 -154 -147 -196 -242
-252 -405 -239 -1806 -953 -2197 -1119 -311 -132 -721 -372 -952 -557 -183
-146 -273 -254 -273 -329 0 -109 159 -173 450 -181 179 -5 296 9 460 56 126
37 246 51 440 51 236 1 321 13 459 64 172 64 215 74 416 91 243 21 381 40 435
60 96 36 253 77 440 116 438 90 816 185 1050 264 74 25 189 57 255 71 149 31
206 57 402 185 128 84 164 103 202 107 66 6 1327 -236 1631 -313 74 -19 299
-90 500 -158 201 -69 490 -162 642 -208 152 -45 275 -86 273 -89 -6 -10 -180
-113 -255 -150 -142 -71 -237 -101 -369 -115 -69 -7 -166 -20 -216 -29 -176
-31 -506 -55 -1300 -96 -622 -32 -923 -40 -1700 -47 -777 -6 -1335 6 -1505 32
-52 8 -180 28 -285 44 -313 49 -366 54 -431 42 -156 -29 -179 -101 -56 -180
114 -73 307 -133 547 -171 197 -31 199 -39 10 -59 -155 -17 -442 -31 -645 -31
-237 -1 -419 -14 -456 -33 -38 -19 -68 -53 -60 -66 20 -31 194 -47 661 -61
187 -5 381 -10 430 -11 135 -1 94 -6 -145 -19 -561 -29 -868 -95 -807 -173 28
-37 78 -40 647 -44 305 -3 548 -8 540 -13 -8 -4 -85 -13 -170 -19 -448 -33
-444 -33 -487 -73 -30 -28 -29 -41 7 -92 45 -66 81 -79 203 -72 197 12 967 18
967 8 0 -12 -51 -18 -333 -37 -338 -24 -480 -39 -484 -50 -6 -19 36 -54 80
-67 55 -17 513 -17 762 1 1345 91 1651 139 3433 532 946 208 1146 247 1412
268 69 6 371 15 672 21 559 10 745 20 856 45 65 15 146 52 197 90 138 104 316
137 730 139 l250 1 285 -67 c459 -107 473 -108 693 -31 260 90 384 149 632
303 338 210 557 362 627 436 57 60 272 356 298 409 12 26 25 74 27 109 7 78
-11 216 -33 258 -9 18 -58 75 -108 128 -67 70 -101 116 -129 172 -55 112 -144
170 -261 172 -62 1 -64 0 -86 -60 -7 -20 -34 -48 -75 -77 -41 -30 -72 -61 -85
-87 -11 -22 -27 -40 -35 -40 -22 0 -83 58 -110 104 -13 22 -33 75 -45 116 -12
41 -38 103 -57 137 -40 73 -41 68 23 285 99 340 126 613 105 1073 -29 631
-108 875 -391 1200 -140 162 -401 384 -569 485 -194 117 -334 212 -546 371
-318 239 -418 304 -840 546 -371 213 -638 375 -845 511 -159 105 -192 132
-363 298 -103 101 -220 208 -260 238 -81 61 -234 214 -325 324 -33 40 -79 111
-101 156 -63 130 -80 276 -31 276 10 0 21 4 24 9 8 13 -18 105 -64 225 -42
111 -48 144 -28 164 9 9 8 24 -1 64 -22 90 -10 137 37 154 1 0 -8 25 -20 53
-17 43 -19 57 -10 72 11 17 3 29 -71 102 -124 122 -223 286 -320 532 -48 121
-53 145 -34 145 29 0 26 16 -10 66 -19 27 -46 72 -58 99 -25 54 -64 95 -165
171 -97 73 -133 114 -201 232 -89 154 -190 299 -259 374 -66 73 -102 91 -260
132 -112 30 -136 51 -211 187 -87 157 -103 221 -144 557 -32 263 -64 450 -127
732 -27 124 -62 304 -79 400 -35 209 -52 269 -83 307 -12 15 -26 40 -30 55 -3
16 -18 34 -34 42 -38 20 -62 49 -73 88 -4 18 -20 68 -35 111 -22 66 -31 81
-54 88 -26 10 -27 13 -27 72 1 34 -7 82 -16 107 -9 25 -21 64 -27 88 -6 24
-22 53 -36 65 -23 19 -25 27 -19 69 7 46 5 51 -36 100 -77 95 -112 128 -137
128 -18 0 -23 5 -20 22 2 18 -4 24 -39 32 -23 6 -53 22 -66 34 -22 21 -41 25
-131 32 -110 9 -139 19 -168 56 -11 13 -50 33 -98 49 -45 15 -94 38 -111 52
-27 23 -35 25 -82 17 -129 -20 -245 9 -456 113 l-114 57 -211 6 -211 7 -185
96 c-277 143 -333 158 -445 112z"/>
</g>
</svg>
