<?xml version="1.0" standalone="no"?>
<!DOCTYPE svg PUBLIC "-//W3C//DTD SVG 20010904//EN"
 "http://www.w3.org/TR/2001/REC-SVG-20010904/DTD/svg10.dtd">
<svg version="1.0" xmlns="http://www.w3.org/2000/svg"
 width="1536.000000pt" height="1411.000000pt" viewBox="0 0 1536.000000 1411.000000"
 preserveAspectRatio="xMidYMid meet">
<metadata>
Created by potrace 1.16, written by Peter Selinger 2001-2019
</metadata>
<g transform="translate(0.000000,1411.000000) scale(0.100000,-0.100000)"
fill="#000000" stroke="none">
<path d="M9493 14090 c-19 -17 -23 -32 -23 -77 0 -67 25 -121 143 -303 173
-269 226 -366 347 -640 55 -125 56 -130 28 -130 -34 0 -125 -56 -177 -109 -53
-53 -106 -156 -126 -245 -24 -104 -104 -528 -110 -586 -8 -71 -14 -92 -25 -85
-14 9 -135 234 -161 300 -21 52 -30 63 -72 86 -27 14 -54 32 -62 40 -29 29
-112 356 -184 729 -49 252 -77 351 -122 426 -35 58 -81 96 -105 87 -16 -6 -46
-98 -108 -330 -86 -322 -100 -404 -100 -618 0 -223 29 -788 45 -860 24 -112
55 -183 160 -357 60 -101 112 -194 116 -208 17 -65 -38 -333 -145 -711 -38
-134 -84 -309 -102 -389 -17 -80 -40 -163 -50 -185 -22 -50 -199 -246 -316
-351 -113 -101 -212 -177 -449 -346 -274 -196 -430 -286 -725 -419 l-105 -47
-145 73 c-204 102 -337 158 -470 198 -162 49 -898 216 -1100 249 -49 8 -183
12 -385 12 -418 0 -553 -15 -1350 -149 -242 -41 -503 -81 -580 -90 -359 -40
-450 -80 -734 -320 -109 -92 -177 -128 -349 -186 -151 -51 -257 -101 -572
-266 -74 -39 -214 -104 -310 -143 -721 -296 -902 -406 -1022 -620 -48 -85 -48
-85 -48 -180 0 -121 19 -208 69 -320 75 -172 195 -322 345 -434 72 -54 428
-264 545 -322 47 -23 169 -75 271 -115 l185 -72 105 -107 c114 -117 166 -152
369 -248 220 -103 438 -178 806 -277 55 -15 174 -57 265 -95 91 -37 207 -83
259 -101 92 -32 95 -34 252 -177 88 -79 159 -147 159 -150 1 -9 146 -167 425
-462 239 -253 312 -314 590 -496 261 -170 454 -283 650 -379 221 -109 316
-145 571 -219 102 -30 188 -57 191 -60 4 -3 -8 -52 -25 -108 -17 -57 -63 -215
-101 -353 -129 -463 -181 -611 -292 -835 -131 -262 -256 -458 -493 -775 -90
-120 -174 -215 -336 -380 -119 -121 -250 -265 -292 -320 -42 -55 -113 -143
-158 -195 -45 -52 -93 -118 -107 -147 -21 -45 -23 -57 -13 -92 11 -43 55 -87
96 -97 45 -11 112 5 262 62 323 124 473 193 640 292 233 138 305 176 562 295
323 148 507 257 629 372 94 88 179 213 495 729 128 209 222 320 488 582 277
272 348 330 541 447 l145 87 169 0 c216 0 387 13 583 46 416 69 703 154 1120
334 637 274 829 365 1062 505 79 47 149 84 155 83 7 -2 156 -208 331 -458 294
-421 444 -623 706 -950 131 -163 595 -727 704 -855 114 -134 456 -474 562
-559 205 -164 509 -341 720 -419 160 -60 234 -70 454 -64 253 7 355 33 401
104 l17 26 122 -7 c102 -6 124 -5 141 9 20 15 20 16 -4 33 -14 9 -81 41 -150
70 -69 29 -136 63 -149 75 -12 13 -33 54 -46 93 -42 122 -42 114 -4 114 18 0
96 -9 172 -21 118 -17 141 -18 153 -6 21 21 -4 37 -172 111 -239 105 -240 106
-314 232 -35 60 -73 124 -83 142 -11 17 -17 32 -15 32 3 0 54 -11 113 -25 132
-32 169 -30 169 5 0 31 -50 66 -269 187 l-159 88 -52 80 c-68 104 -152 261
-144 270 4 3 33 -1 65 -9 81 -20 221 -39 239 -32 8 3 15 14 15 25 0 25 -37 50
-240 166 -210 119 -206 116 -246 203 -59 129 -61 122 45 115 79 -5 91 -4 97
11 10 25 -13 45 -172 153 l-144 98 -45 86 c-86 167 -177 262 -300 320 -33 15
-118 40 -190 54 -71 15 -145 33 -164 41 -39 16 -169 140 -246 234 -30 36 -123
180 -208 320 -85 140 -196 320 -246 400 -51 80 -110 181 -131 225 -69 142
-120 387 -120 578 l0 96 94 138 c181 266 305 504 443 848 111 275 167 467 214
730 27 153 37 542 20 820 -46 747 -191 1674 -347 2214 -73 252 -156 446 -272
636 -51 85 -415 603 -589 840 -45 61 -119 170 -165 242 -159 253 -236 352
-471 609 -66 71 -132 147 -147 170 -19 27 -48 108 -90 250 -116 399 -176 482
-527 732 -178 127 -232 162 -485 320 -59 37 -192 125 -297 195 -208 141 -247
157 -288 117z"/>
</g>
</svg>
