<?xml version="1.0" standalone="no"?>
<!DOCTYPE svg PUBLIC "-//W3C//DTD SVG 20010904//EN"
 "http://www.w3.org/TR/2001/REC-SVG-20010904/DTD/svg10.dtd">
<svg version="1.0" xmlns="http://www.w3.org/2000/svg"
 width="1536.000000pt" height="521.000000pt" viewBox="0 0 1536.000000 521.000000"
 preserveAspectRatio="xMidYMid meet">
<metadata>
Created by potrace 1.16, written by Peter Selinger 2001-2019
</metadata>
<g transform="translate(0.000000,521.000000) scale(0.100000,-0.100000)"
fill="#000000" stroke="none">
<path d="M8085 5191 c-104 -48 -157 -153 -195 -389 -19 -115 -81 -232 -166
-312 -79 -74 -177 -142 -279 -192 -110 -56 -434 -172 -615 -222 -91 -25 -412
-114 -715 -199 l-550 -155 -636 -250 -635 -250 -490 -245 c-520 -261 -774
-406 -1117 -636 -301 -202 -489 -346 -727 -556 -69 -60 -161 -141 -205 -179
-44 -39 -89 -78 -100 -88 -16 -14 -108 -28 -465 -73 -245 -30 -467 -63 -495
-71 -102 -33 -424 -168 -536 -225 -197 -101 -203 -131 -29 -150 78 -8 223 -43
560 -134 250 -68 479 -126 508 -129 31 -4 72 -18 95 -33 52 -31 182 -157 247
-238 75 -93 82 -118 90 -297 3 -87 9 -161 13 -164 23 -24 216 106 323 217 143
149 310 446 393 700 l11 35 233 12 c127 7 432 23 677 37 l445 24 485 80 c488
80 609 96 995 128 276 22 824 22 1175 0 277 -18 285 -19 535 -43 94 -9 565
-40 1048 -68 l879 -51 296 17 c163 9 509 28 767 42 259 15 494 31 524 36 30 6
64 10 75 10 14 0 -74 -95 -290 -312 -284 -286 -424 -441 -424 -467 0 -19 36
-30 131 -42 111 -14 341 -6 414 14 47 13 155 62 506 230 130 62 215 94 226 83
3 -2 12 -19 21 -38 24 -47 55 -60 127 -52 107 12 495 156 675 251 200 106 382
237 505 363 33 34 90 88 127 121 l66 60 631 59 c347 33 662 65 699 71 37 6
119 27 182 46 63 18 232 56 375 84 342 65 363 71 506 124 220 81 332 167 365
281 13 47 16 81 11 174 -17 301 -125 484 -425 718 -141 110 -708 501 -902 621
-533 332 -1105 573 -1660 700 -370 84 -960 173 -1435 216 -332 30 -962 105
-1095 130 -543 102 -718 166 -1272 461 -86 46 -190 95 -231 109 -93 31 -193
33 -252 6z"/>
</g>
</svg>
