<?xml version="1.0" standalone="no"?>
<!DOCTYPE svg PUBLIC "-//W3C//DTD SVG 20010904//EN"
 "http://www.w3.org/TR/2001/REC-SVG-20010904/DTD/svg10.dtd">
<svg version="1.0" xmlns="http://www.w3.org/2000/svg"
 width="1536.000000pt" height="557.000000pt" viewBox="0 0 1536.000000 557.000000"
 preserveAspectRatio="xMidYMid meet">
<metadata>
Created by potrace 1.16, written by Peter Selinger 2001-2019
</metadata>
<g transform="translate(0.000000,557.000000) scale(0.100000,-0.100000)"
fill="#000000" stroke="none">
<path d="M5178 5555 c-63 -35 -74 -125 -33 -244 14 -40 23 -76 20 -82 -17 -26
-128 -59 -685 -198 -691 -174 -768 -196 -847 -247 -83 -53 -149 -80 -264 -109
-63 -15 -129 -40 -175 -65 -43 -25 -102 -47 -145 -56 -45 -9 -94 -28 -128 -49
-31 -19 -94 -48 -141 -64 -47 -16 -150 -60 -230 -99 -80 -38 -201 -86 -270
-107 -139 -42 -165 -53 -230 -100 -25 -17 -90 -56 -145 -85 -91 -49 -114 -68
-247 -203 l-147 -149 -93 35 c-199 74 -329 97 -553 97 -189 0 -295 -16 -465
-70 -139 -43 -182 -61 -212 -88 -25 -21 -11 -34 76 -76 84 -41 163 -108 223
-189 38 -52 43 -66 43 -111 0 -29 7 -73 16 -99 15 -44 15 -48 -15 -134 -27
-80 -33 -116 -51 -347 -22 -277 -28 -316 -60 -392 -56 -130 -159 -250 -349
-406 -35 -29 -66 -58 -68 -65 -13 -37 152 -22 301 28 109 36 281 123 445 225
94 59 152 104 239 188 217 210 445 480 603 713 95 140 120 167 178 183 58 17
432 40 771 46 442 10 1308 -11 1570 -37 734 -72 1492 -221 2100 -413 80 -25
208 -66 286 -90 193 -61 355 -97 654 -145 431 -69 866 -106 1726 -146 417 -20
760 -38 762 -40 2 -1 -8 -25 -21 -52 -14 -26 -44 -109 -67 -183 -108 -350
-126 -399 -210 -565 -106 -212 -212 -378 -409 -643 -251 -338 -349 -503 -381
-641 -27 -116 8 -212 92 -254 47 -23 213 -34 286 -18 197 42 450 264 732 641
105 141 266 308 322 333 20 9 54 17 75 17 21 0 44 5 51 12 8 8 12 61 12 174
l0 162 141 264 c78 144 234 417 346 605 159 269 210 346 234 358 17 9 103 25
192 36 1031 127 2173 392 3387 785 26 9 182 25 370 40 415 31 449 41 529 147
l41 54 -36 114 c-46 145 -63 178 -116 224 -65 55 -263 147 -448 209 -300 99
-511 151 -1315 325 -367 79 -447 93 -635 111 -276 26 -364 46 -590 129 -302
112 -453 157 -813 246 -317 77 -378 88 -822 154 l-480 71 -410 15 c-257 9
-677 15 -1125 15 -1146 0 -2028 16 -2255 40 -105 11 -217 26 -250 34 -33 8
-207 65 -387 126 -266 91 -342 112 -400 116 -54 3 -80 1 -100 -11z"/>
</g>
</svg>
