<?xml version="1.0" standalone="no"?>
<!DOCTYPE svg PUBLIC "-//W3C//DTD SVG 20010904//EN"
 "http://www.w3.org/TR/2001/REC-SVG-20010904/DTD/svg10.dtd">
<svg version="1.0" xmlns="http://www.w3.org/2000/svg"
 width="1536.000000pt" height="1231.000000pt" viewBox="0 0 1536.000000 1231.000000"
 preserveAspectRatio="xMidYMid meet">
<metadata>
Created by potrace 1.16, written by Peter Selinger 2001-2019
</metadata>
<g transform="translate(0.000000,1231.000000) scale(0.100000,-0.100000)"
fill="#000000" stroke="none">
<path d="M14415 12280 c-191 -40 -287 -71 -440 -142 -199 -93 -250 -108 -400
-118 -151 -10 -331 -40 -464 -76 -274 -74 -466 -177 -681 -364 -183 -159 -290
-222 -543 -319 -230 -88 -401 -179 -615 -328 -94 -65 -132 -109 -132 -150 0
-24 182 -238 266 -312 32 -28 111 -74 224 -128 96 -47 247 -120 335 -163 275
-133 415 -242 510 -394 140 -226 174 -520 85 -747 -50 -127 -224 -352 -421
-544 -205 -201 -351 -309 -522 -390 -144 -68 -262 -80 -384 -39 -66 23 -406
206 -813 439 -810 465 -1214 634 -1682 706 -172 27 -550 32 -708 11 -851 -117
-1771 -550 -2549 -1200 -349 -292 -640 -583 -1102 -1103 -174 -196 -329 -365
-344 -377 -43 -34 -81 -39 -370 -51 -641 -28 -1011 -74 -1409 -176 -938 -240
-1572 -718 -1936 -1460 -150 -306 -237 -599 -285 -965 -67 -512 -36 -1196 81
-1795 139 -716 444 -1388 833 -1839 102 -118 244 -256 264 -256 24 0 57 46
165 227 373 626 677 1297 792 1753 68 265 91 488 125 1210 14 293 37 624 51
750 44 385 157 725 317 959 113 165 322 337 486 400 113 43 184 54 323 49 211
-7 218 -16 230 -275 20 -475 109 -1244 179 -1543 67 -291 187 -517 367 -694
296 -291 463 -349 992 -349 399 1 561 38 615 144 21 40 18 85 -9 152 -39 94
-82 157 -198 288 -114 129 -187 230 -214 295 -20 49 -13 54 98 78 295 62 516
154 848 354 269 162 494 322 830 592 330 266 384 295 530 288 67 -4 97 -10
141 -32 112 -55 189 -152 724 -901 180 -253 339 -472 353 -487 14 -15 44 -34
66 -42 107 -39 642 -54 788 -23 159 33 208 74 208 174 0 94 -21 125 -155 226
-171 129 -195 167 -195 319 0 109 16 198 56 308 49 138 92 210 124 210 29 0
175 -165 307 -345 168 -231 641 -1017 712 -1183 69 -164 98 -318 110 -582 6
-134 14 -207 24 -230 42 -100 180 -163 426 -196 214 -28 572 -11 759 37 218
55 303 160 219 271 -41 54 -106 89 -216 118 -166 43 -251 102 -306 211 -43 85
-93 350 -115 618 -13 162 -13 727 0 822 20 143 43 200 87 217 15 6 84 13 153
16 283 12 562 120 855 330 54 39 82 53 89 46 6 -6 22 -60 37 -120 41 -167 250
-638 447 -1007 194 -364 283 -567 343 -784 49 -176 83 -231 172 -272 142 -67
505 -97 809 -66 121 12 263 48 316 81 128 79 45 209 -213 334 -241 116 -330
210 -382 399 -26 97 -81 856 -89 1250 -10 407 14 641 86 855 15 47 128 308
250 580 122 272 251 565 287 650 222 532 268 805 323 1885 18 339 24 1174 11
1460 -49 1089 -148 1571 -391 1900 -33 44 -94 152 -138 240 -84 173 -173 320
-202 335 -26 14 -48 12 -205 -20z"/>
</g>
</svg>
