<?xml version="1.0" standalone="no"?>
<!DOCTYPE svg PUBLIC "-//W3C//DTD SVG 20010904//EN"
 "http://www.w3.org/TR/2001/REC-SVG-20010904/DTD/svg10.dtd">
<svg version="1.0" xmlns="http://www.w3.org/2000/svg"
 width="1536.000000pt" height="1165.000000pt" viewBox="0 0 1536.000000 1165.000000"
 preserveAspectRatio="xMidYMid meet">
<metadata>
Created by potrace 1.16, written by Peter Selinger 2001-2019
</metadata>
<g transform="translate(0.000000,1165.000000) scale(0.100000,-0.100000)"
fill="#000000" stroke="none">
<path d="M5057 11643 c-4 -3 -7 -20 -7 -37 0 -17 -8 -43 -18 -57 -24 -35 -129
-166 -173 -215 -22 -25 -43 -63 -52 -95 -24 -81 -97 -149 -202 -187 -44 -16
-119 -48 -168 -72 -75 -37 -93 -42 -134 -37 -79 9 -114 81 -86 177 9 30 18 96
21 146 3 86 2 92 -23 122 -15 18 -32 32 -39 32 -15 0 -51 -71 -61 -120 -11
-55 -75 -220 -100 -260 -13 -19 -36 -47 -51 -61 -101 -91 -139 -79 -192 60
-26 67 -52 210 -52 285 0 9 -9 20 -21 26 -17 10 -25 6 -59 -31 -51 -56 -60
-97 -53 -255 7 -159 -4 -212 -57 -283 -21 -28 -46 -74 -55 -103 -9 -29 -24
-66 -33 -83 -26 -47 -31 -121 -16 -224 25 -171 14 -293 -36 -390 -28 -55 -58
-60 -135 -22 -72 36 -86 37 -108 13 -34 -38 -49 -93 -42 -157 7 -60 55 -199
93 -267 27 -48 36 -134 24 -231 -11 -88 -38 -137 -98 -183 -32 -25 -46 -29
-129 -32 -84 -4 -103 -1 -192 28 -95 32 -193 76 -277 125 -56 33 -176 184
-221 278 -21 42 -53 95 -73 117 -29 35 -40 41 -64 38 -23 -4 -34 2 -54 25 -35
42 -60 94 -72 152 -6 28 -15 63 -21 77 -11 28 -65 63 -81 53 -16 -10 -47 -84
-65 -155 -21 -82 -13 -209 21 -328 30 -102 30 -128 3 -142 -32 -18 -62 -5
-120 52 -120 116 -191 152 -226 117 -13 -13 -6 -77 12 -99 7 -8 41 -73 75
-144 53 -108 74 -140 130 -195 174 -173 356 -247 655 -266 149 -9 335 -40 390
-64 27 -12 72 -37 101 -56 74 -50 143 -160 117 -186 -6 -6 -75 -32 -154 -59
-79 -26 -158 -54 -176 -61 -25 -10 -42 -10 -88 1 -47 11 -68 11 -118 1 -75
-15 -112 -37 -194 -113 -34 -32 -71 -58 -81 -58 -11 0 -46 -14 -78 -31 -84
-45 -202 -75 -489 -123 -213 -36 -293 -39 -448 -20 -173 21 -345 15 -442 -16
-38 -12 -130 -52 -203 -88 -142 -71 -164 -89 -279 -234 -28 -36 -73 -81 -101
-99 -56 -38 -139 -134 -166 -192 -14 -32 -17 -52 -11 -108 4 -38 11 -72 16
-75 12 -7 11 -74 -2 -112 -28 -80 66 -204 273 -362 97 -74 180 -107 223 -90
17 6 73 14 125 17 l95 5 45 -36 c37 -30 53 -36 92 -36 46 0 48 1 91 63 24 34
61 91 82 127 21 36 39 66 40 68 1 1 64 -3 141 -8 76 -6 220 -15 319 -20 150
-7 194 -13 265 -35 104 -32 124 -52 181 -184 34 -80 52 -105 100 -151 42 -39
74 -83 112 -155 62 -115 164 -275 175 -275 4 0 15 14 24 31 20 35 26 33 111
-32 29 -21 57 -39 63 -39 40 0 63 101 48 207 -10 68 22 68 108 1 41 -32 52
-25 42 28 -4 23 -2 45 7 60 13 25 101 74 133 74 24 0 89 28 98 43 4 7 8 40 8
73 0 47 4 63 16 68 24 9 25 9 77 -46 l48 -53 20 27 c22 29 108 94 142 107 12
5 33 4 47 -1 14 -5 48 -15 75 -23 330 -87 649 -223 819 -349 48 -35 102 -68
120 -72 55 -12 110 -58 143 -121 17 -32 60 -152 97 -268 89 -281 94 -292 131
-334 30 -34 106 -155 157 -247 81 -147 275 -395 405 -514 32 -30 85 -69 117
-86 l58 -31 -118 -91 c-126 -96 -188 -160 -326 -337 -90 -115 -264 -291 -433
-437 -119 -104 -241 -198 -255 -198 -5 0 -28 -17 -51 -37 -50 -45 -108 -157
-161 -313 l-40 -115 8 -160 c4 -88 7 -197 6 -242 -2 -85 -32 -281 -57 -368 -7
-27 -18 -70 -23 -95 -37 -177 -88 -335 -147 -460 -102 -214 -122 -367 -70
-530 15 -47 36 -103 47 -124 34 -67 50 -137 57 -246 6 -102 7 -108 47 -170 24
-38 74 -151 120 -272 68 -179 82 -208 100 -208 49 0 441 720 452 829 12 123
-55 196 -204 222 -38 7 -75 17 -81 22 -16 12 -16 39 0 60 11 15 20 15 79 5 53
-8 71 -8 83 2 16 14 21 65 6 74 -5 4 -12 41 -16 84 -4 42 -18 132 -31 200 -31
157 -30 241 1 394 14 68 33 159 41 203 34 178 45 218 77 288 40 86 106 192
202 325 39 53 82 116 97 139 31 47 132 131 231 192 107 65 532 289 650 343
124 56 218 112 397 237 69 48 161 111 206 139 81 52 232 127 240 119 2 -2 10
-46 18 -98 17 -112 43 -220 95 -389 22 -69 42 -144 45 -168 3 -23 18 -77 32
-120 29 -87 116 -423 135 -522 9 -41 14 -156 14 -315 1 -278 12 -342 75 -442
45 -71 85 -184 114 -323 40 -192 46 -232 56 -413 11 -186 7 -219 -50 -382 -18
-55 -30 -108 -30 -141 0 -46 -5 -59 -44 -111 -62 -81 -84 -103 -105 -103 -29
0 -105 -74 -126 -122 -11 -24 -59 -84 -110 -138 -113 -118 -182 -216 -168
-239 9 -14 61 -16 449 -19 308 -2 451 1 479 9 122 34 172 145 127 282 -16 48
-17 60 -6 86 8 18 20 31 31 31 10 0 46 -25 80 -55 33 -30 70 -55 82 -55 25 0
41 28 41 70 0 17 7 47 15 67 29 68 13 163 -83 510 -90 321 -117 454 -152 752
-23 190 -21 231 16 330 29 77 32 212 9 361 -41 267 -57 505 -45 700 12 203 55
613 75 715 7 39 16 120 20 180 6 100 28 278 41 330 5 21 13 22 262 33 141 6
354 14 472 17 159 5 239 12 308 26 113 25 360 108 442 149 57 29 197 80 219
80 7 0 11 -36 11 -103 0 -118 19 -201 80 -343 54 -127 85 -236 125 -434 63
-307 125 -482 246 -685 23 -38 80 -144 128 -235 84 -162 86 -166 84 -230 -1
-36 -6 -171 -11 -300 -9 -224 -11 -239 -39 -315 -38 -102 -207 -364 -401 -624
-173 -231 -239 -303 -341 -375 -87 -60 -151 -131 -179 -197 -26 -61 -121 -155
-169 -168 -35 -10 -100 -47 -145 -84 -10 -7 -26 -34 -36 -58 -12 -27 -48 -71
-92 -114 -115 -111 -271 -297 -268 -320 3 -19 13 -20 138 -26 74 -4 304 -7
510 -8 l375 -1 37 30 c50 41 98 117 98 154 0 17 -9 42 -20 56 -21 27 -27 94
-9 105 25 16 60 -7 95 -63 35 -56 59 -82 76 -82 13 0 39 66 33 82 -3 7 10 38
29 68 62 98 74 125 101 221 32 118 128 313 206 421 33 46 115 160 182 253 157
221 193 262 465 533 126 125 235 243 244 262 18 39 41 62 105 104 55 37 95 99
101 156 5 52 -31 156 -78 225 -59 86 -181 351 -233 507 -69 202 -127 476 -127
594 0 75 37 184 113 337 48 94 58 106 127 160 41 32 92 70 113 83 45 29 29 38
188 -102 198 -173 344 -271 571 -385 134 -67 170 -92 307 -213 166 -148 270
-229 413 -323 193 -126 260 -157 605 -273 114 -39 180 -82 310 -202 140 -130
211 -218 268 -333 104 -214 278 -897 296 -1170 6 -77 17 -169 25 -205 20 -84
79 -205 110 -225 13 -8 35 -33 48 -54 14 -21 69 -74 122 -117 102 -82 151
-129 244 -231 71 -78 108 -97 185 -96 45 1 66 -4 87 -19 16 -11 61 -30 101
-43 39 -13 105 -36 145 -50 40 -14 102 -29 138 -32 l64 -6 0 36 c0 20 -17 72
-39 119 -21 46 -53 124 -71 173 -39 109 -184 473 -211 533 -35 77 -140 103
-229 57 -57 -30 -117 -12 -108 32 4 21 54 48 116 63 57 14 58 44 1 90 -27 22
-50 54 -69 95 -16 35 -48 88 -72 117 -39 48 -53 79 -117 279 -135 412 -177
585 -191 789 -10 125 -49 354 -95 550 -14 58 -32 156 -39 218 -9 70 -22 125
-33 145 -30 50 -88 77 -194 88 -79 8 -110 17 -218 65 -359 161 -687 345 -710
398 -2 5 -25 32 -51 60 -26 28 -100 112 -165 186 -65 74 -138 156 -163 181
-24 26 -49 56 -56 67 -50 86 -57 106 -66 196 -5 51 -15 107 -21 122 -27 72
-38 156 -29 239 8 73 23 120 118 357 150 371 145 352 146 600 1 114 5 210 8
214 4 3 24 -7 45 -23 80 -61 213 -134 277 -151 44 -13 83 2 110 40 27 38 21
133 -13 204 -16 33 -32 72 -36 85 -22 70 -270 648 -290 674 -59 78 -124 125
-195 140 -19 4 -55 18 -80 30 -25 13 -73 30 -107 39 -94 24 -160 61 -243 138
-205 193 -441 327 -765 438 -77 26 -225 82 -330 125 -260 106 -434 166 -611
211 -144 37 -155 38 -324 39 -165 0 -372 -13 -590 -37 -151 -16 -800 -22 -953
-9 -561 50 -661 78 -1007 275 -489 280 -832 381 -1225 362 -166 -8 -279 -26
-457 -75 -355 -98 -480 -131 -573 -151 -55 -12 -152 -32 -215 -46 -104 -22
-244 -38 -570 -64 -154 -12 -560 -25 -560 -17 0 4 40 45 89 92 77 75 92 95
114 153 39 107 62 219 47 237 -16 19 -82 19 -224 0 -92 -12 -122 -20 -194 -57
-54 -27 -100 -59 -126 -87 -102 -111 -170 -181 -176 -181 -3 0 -20 28 -38 63
-33 63 -40 113 -22 148 20 36 156 117 453 268 330 168 383 199 542 312 160
114 302 249 391 368 113 154 147 223 189 391 71 284 105 369 202 507 29 42 64
76 110 106 89 59 122 96 130 140 7 48 -9 54 -92 33 -35 -9 -79 -16 -97 -16
-42 0 -78 25 -78 53 0 56 33 146 78 211 135 196 143 218 122 311 -13 56 -34
85 -63 85 -21 0 -46 -26 -47 -48 -1 -42 -136 -205 -195 -234 -22 -12 -61 -38
-86 -59 -26 -22 -50 -39 -54 -39 -4 0 -5 20 -3 44 5 41 39 109 94 185 42 60
23 179 -35 218 -35 24 -53 28 -64 16z"/>
</g>
</svg>
