<?xml version="1.0" standalone="no"?>
<!DOCTYPE svg PUBLIC "-//W3C//DTD SVG 20010904//EN"
 "http://www.w3.org/TR/2001/REC-SVG-20010904/DTD/svg10.dtd">
<svg version="1.0" xmlns="http://www.w3.org/2000/svg"
 width="1536.000000pt" height="846.000000pt" viewBox="0 0 1536.000000 846.000000"
 preserveAspectRatio="xMidYMid meet">
<metadata>
Created by potrace 1.16, written by Peter Selinger 2001-2019
</metadata>
<g transform="translate(0.000000,846.000000) scale(0.100000,-0.100000)"
fill="#000000" stroke="none">
<path d="M8580 8449 c-371 -31 -776 -166 -1095 -364 -408 -252 -734 -547 -992
-895 -382 -517 -862 -1378 -1079 -1937 -185 -480 -297 -1015 -399 -1922 -19
-172 -40 -334 -46 -360 -19 -78 -73 -180 -165 -311 -156 -221 -227 -333 -308
-480 -209 -383 -241 -435 -296 -490 -108 -107 -328 -191 -1035 -395 -326 -94
-466 -126 -1065 -245 -673 -134 -761 -150 -1130 -200 -510 -69 -865 -138 -920
-178 -74 -55 -64 -106 30 -169 138 -93 652 -335 845 -398 398 -130 938 -137
1580 -20 394 72 506 132 886 482 337 310 504 417 779 496 236 68 422 92 866
112 192 8 399 20 459 26 347 34 674 124 878 240 108 63 746 377 917 452 312
137 520 183 623 136 15 -7 50 -42 77 -78 63 -85 126 -146 225 -216 84 -60 253
-149 344 -181 l53 -19 -6 -65 c-23 -231 -16 -304 31 -360 50 -60 71 -65 253
-64 197 1 337 14 650 59 269 39 394 50 710 65 268 12 486 26 750 45 107 8 278
19 380 25 286 16 318 25 244 70 -26 15 -34 24 -26 32 6 6 105 13 257 17 204 6
248 10 262 23 14 15 13 17 -9 32 -48 31 -174 49 -601 86 -169 15 -185 21 -130
57 27 18 21 18 -211 23 -213 4 -238 7 -247 23 -13 23 -71 22 -174 -2 -162 -39
-236 -44 -535 -38 -327 7 -486 21 -548 47 -119 53 -130 295 -27 634 44 144
103 289 208 511 74 158 140 335 177 484 l11 43 117 -4 c115 -3 118 -4 197 -46
44 -23 112 -66 150 -97 39 -30 103 -74 144 -97 234 -136 390 -233 394 -247 3
-9 23 -82 46 -163 22 -81 56 -182 75 -225 19 -44 69 -173 112 -288 84 -230
160 -400 191 -428 28 -24 177 -44 468 -62 132 -8 255 -19 272 -24 35 -10 35
-10 45 54 3 14 10 19 26 17 12 -2 38 6 56 17 18 12 43 21 54 21 36 0 14 30
-42 56 -28 13 -94 33 -146 44 -52 11 -128 28 -168 36 -136 30 -253 106 -304
200 -71 132 -148 498 -148 701 l0 58 67 40 c43 25 152 69 298 118 407 138 444
144 626 103 64 -14 172 -35 240 -46 72 -11 164 -34 219 -53 129 -47 182 -53
273 -31 73 17 75 17 147 -5 91 -28 189 -77 297 -147 44 -30 89 -54 98 -54 18
0 18 -1 -2 86 -7 32 23 38 68 12 36 -20 41 -21 56 -6 28 29 20 120 -18 194
-37 73 -31 95 12 44 l29 -34 0 34 c-2 110 -127 287 -250 354 -52 28 -54 29
-154 20 -252 -22 -350 -12 -571 61 -251 83 -353 170 -401 341 -23 85 -16 107
49 137 86 41 281 105 479 158 409 107 1010 308 1321 441 l79 33 61 120 c57
110 65 120 97 128 276 66 351 143 471 482 43 122 83 208 144 304 45 70 59 142
52 262 l-5 96 -133 130 c-189 184 -241 226 -439 354 -258 166 -283 180 -449
263 -193 97 -278 131 -379 150 -102 19 -337 43 -561 56 l-173 10 -95 89 c-108
103 -149 126 -253 141 -129 19 -166 -4 -202 -129 -23 -77 -29 -76 -216 21
-183 95 -247 118 -397 142 -427 71 -413 66 -735 261 -74 45 -173 103 -220 130
-47 26 -193 117 -326 201 -274 174 -383 231 -575 302 -297 110 -871 281 -1071
318 -100 19 -400 26 -548 13z"/>
</g>
</svg>
