<?xml version="1.0" standalone="no"?>
<!DOCTYPE svg PUBLIC "-//W3C//DTD SVG 20010904//EN"
 "http://www.w3.org/TR/2001/REC-SVG-20010904/DTD/svg10.dtd">
<svg version="1.0" xmlns="http://www.w3.org/2000/svg"
 width="1536.000000pt" height="754.000000pt" viewBox="0 0 1536.000000 754.000000"
 preserveAspectRatio="xMidYMid meet">
<metadata>
Created by potrace 1.16, written by Peter Selinger 2001-2019
</metadata>
<g transform="translate(0.000000,754.000000) scale(0.100000,-0.100000)"
fill="#000000" stroke="none">
<path d="M7163 7525 c-63 -45 -57 -197 22 -518 72 -291 121 -634 145 -997 13
-205 14 -740 1 -1000 -13 -266 -37 -345 -128 -432 -63 -60 -192 -142 -288
-182 -49 -20 -353 -118 -675 -216 -819 -250 -1129 -356 -1536 -526 -871 -363
-1700 -853 -2341 -1385 -213 -176 -480 -446 -593 -599 -51 -69 -96 -129 -101
-134 -4 -4 -63 6 -131 24 -117 31 -134 33 -341 38 -311 6 -532 -20 -647 -76
-44 -21 -56 -33 -58 -53 -4 -32 19 -50 120 -98 83 -39 130 -91 152 -169 19
-70 31 -199 22 -237 -4 -15 -33 -55 -65 -89 -95 -100 -143 -165 -239 -322
-119 -194 -175 -261 -329 -389 -144 -120 -164 -142 -142 -156 39 -25 229 1
349 48 250 98 648 322 975 548 77 54 169 114 205 133 l64 36 216 7 c118 4 249
12 290 18 168 25 431 73 632 116 190 41 956 238 1163 300 366 110 848 204
1305 255 438 50 984 76 1350 67 412 -11 1715 -110 1753 -134 4 -2 375 -22 825
-43 780 -37 1229 -66 1244 -79 4 -3 -15 -76 -43 -161 -99 -306 -136 -507 -126
-675 8 -144 52 -227 148 -280 52 -29 59 -30 174 -29 111 0 128 3 228 37 123
41 424 184 536 254 161 100 368 286 545 488 122 140 241 304 365 506 l113 185
783 242 c431 134 899 274 1041 313 389 106 590 177 806 285 187 93 211 116
320 304 70 120 92 180 84 221 -15 75 -131 270 -266 449 -282 372 -568 566
-1070 728 -171 55 -243 74 -475 126 -246 55 -249 56 -1005 160 -1408 195
-1402 194 -1730 216 -173 11 -544 36 -825 55 l-510 35 -146 39 c-277 74 -438
166 -563 325 -63 79 -163 268 -231 436 -403 990 -878 1766 -1199 1959 -68 40
-139 51 -173 26z"/>
</g>
</svg>
