<?xml version="1.0" standalone="no"?>
<!DOCTYPE svg PUBLIC "-//W3C//DTD SVG 20010904//EN"
 "http://www.w3.org/TR/2001/REC-SVG-20010904/DTD/svg10.dtd">
<svg version="1.0" xmlns="http://www.w3.org/2000/svg"
 width="1536.000000pt" height="773.000000pt" viewBox="0 0 1536.000000 773.000000"
 preserveAspectRatio="xMidYMid meet">
<metadata>
Created by potrace 1.16, written by Peter Selinger 2001-2019
</metadata>
<g transform="translate(0.000000,773.000000) scale(0.100000,-0.100000)"
fill="#000000" stroke="none">
<path d="M6045 7724 c-873 -69 -1614 -417 -2309 -1084 -163 -156 -271 -290
-511 -630 -397 -563 -442 -601 -738 -636 -380 -43 -646 -114 -932 -248 -331
-155 -622 -426 -904 -840 -319 -470 -465 -770 -560 -1151 -62 -248 -97 -558
-89 -780 6 -147 18 -178 153 -385 48 -74 112 -179 142 -234 200 -366 443 -591
778 -720 110 -42 194 -58 259 -50 85 12 87 17 84 222 -3 191 5 248 48 334 49
98 117 155 574 488 162 117 328 240 367 273 l73 58 0 -368 c0 -498 15 -644 75
-763 43 -86 130 -144 357 -240 l148 -63 47 15 c27 8 123 32 216 54 l167 39 10
35 c57 205 -19 390 -223 543 -93 70 -133 115 -168 192 -40 84 -52 162 -44 270
13 186 71 488 106 557 30 58 91 83 168 68 27 -5 174 -60 327 -123 514 -210
853 -334 1034 -377 115 -27 304 -33 390 -11 76 19 169 62 259 120 79 51 340
185 347 178 2 -2 -11 -39 -28 -83 -30 -74 -33 -87 -33 -199 0 -168 17 -196
175 -297 108 -70 565 -481 830 -747 321 -322 390 -377 565 -450 129 -54 213
-62 520 -52 229 8 280 12 335 30 112 35 202 109 252 206 42 80 32 244 -16 285
-19 15 -239 77 -376 106 -63 13 -184 29 -268 35 -310 21 -352 42 -645 322
-353 337 -384 369 -391 404 -25 114 95 223 286 261 74 14 80 14 135 -5 32 -11
143 -60 247 -108 521 -241 912 -299 1771 -265 244 9 330 10 363 1 104 -29 158
-124 252 -447 104 -357 146 -454 264 -608 35 -47 92 -139 126 -204 34 -66 75
-136 93 -157 34 -42 189 -160 285 -219 135 -82 263 -98 389 -50 37 14 93 30
123 34 78 10 194 37 232 54 48 20 86 65 106 126 13 41 25 60 52 77 80 51 77
43 44 103 -16 30 -52 77 -79 106 -94 95 -207 133 -400 134 -119 0 -190 14
-256 51 -59 34 -75 60 -103 174 -28 111 -81 464 -71 473 6 6 269 -77 440 -139
449 -165 771 -426 939 -761 30 -59 71 -160 91 -225 21 -65 47 -130 57 -145 29
-42 99 -86 205 -129 53 -21 117 -52 142 -68 161 -103 295 -116 441 -43 80 40
83 57 33 179 -23 54 -59 160 -82 236 -59 199 -63 206 -312 554 -183 255 -410
551 -494 641 -85 92 -188 172 -380 297 -257 167 -315 224 -315 305 0 50 66
110 160 145 222 83 413 212 645 435 268 258 748 681 806 710 70 36 124 23 224
-55 158 -123 316 -162 466 -115 88 28 160 81 253 186 43 49 105 110 137 136
115 92 272 149 464 169 373 37 482 63 666 155 87 43 221 138 272 192 l28 29
-99 264 c-131 347 -158 432 -243 764 -71 275 -73 282 -73 410 -1 110 3 141 22
200 55 168 37 311 -68 523 -71 142 -102 181 -172 216 -59 29 -105 32 -163 10
-141 -55 -147 -57 -210 -45 -42 7 -135 47 -305 131 -299 147 -381 172 -565
172 -150 1 -262 -25 -492 -111 -89 -34 -200 -70 -245 -81 -100 -24 -231 -26
-312 -5 -68 18 -77 14 -153 -57 -58 -54 -166 -109 -258 -132 -53 -14 -623 -98
-955 -142 -105 -14 -256 -18 -944 -21 -735 -4 -826 -3 -893 12 -84 19 -94 25
-419 263 -441 324 -775 533 -1119 703 -421 207 -767 328 -1097 385 -90 15
-442 27 -553 18z"/>
</g>
</svg>
