<?xml version="1.0" standalone="no"?>
<!DOCTYPE svg PUBLIC "-//W3C//DTD SVG 20010904//EN"
 "http://www.w3.org/TR/2001/REC-SVG-20010904/DTD/svg10.dtd">
<svg version="1.0" xmlns="http://www.w3.org/2000/svg"
 width="1536.000000pt" height="999.000000pt" viewBox="0 0 1536.000000 999.000000"
 preserveAspectRatio="xMidYMid meet">
<metadata>
Created by potrace 1.16, written by Peter Selinger 2001-2019
</metadata>
<g transform="translate(0.000000,999.000000) scale(0.100000,-0.100000)"
fill="#000000" stroke="none">
<path d="M10550 9955 c-140 -19 -375 -51 -521 -70 -345 -45 -504 -76 -664
-130 -71 -24 -259 -80 -418 -124 -597 -167 -875 -275 -1482 -576 -214 -106
-464 -230 -555 -274 -91 -45 -219 -110 -285 -146 -66 -35 -142 -69 -170 -75
-27 -6 -133 -35 -235 -65 -102 -29 -225 -63 -275 -75 -49 -11 -142 -36 -205
-55 -63 -19 -176 -46 -250 -60 -126 -25 -146 -26 -310 -20 -148 5 -210 13
-405 50 -126 25 -268 54 -315 65 -47 11 -169 26 -271 34 -156 13 -205 21 -305
50 -99 29 -172 41 -429 71 -170 20 -350 43 -400 51 -142 25 -352 10 -725 -52
-176 -29 -266 -50 -500 -120 -204 -61 -329 -92 -440 -109 -169 -28 -388 -83
-453 -116 -108 -53 -168 -102 -208 -172 -49 -83 -56 -88 -387 -253 l-253 -127
-45 -66 c-51 -76 -57 -127 -25 -208 10 -26 26 -82 34 -123 18 -85 72 -240 117
-336 39 -80 78 -120 166 -169 38 -21 94 -53 124 -71 68 -40 130 -65 491 -194
179 -64 303 -114 337 -136 52 -34 62 -32 40 9 -11 21 -10 21 8 7 10 -8 30 -23
43 -35 l24 -20 -5 28 c-3 15 -1 27 4 27 12 0 161 -150 248 -250 l65 -74 5 43
5 42 38 -50 c20 -28 44 -75 51 -104 13 -49 15 -50 24 -27 5 14 15 50 22 80 20
89 23 90 69 21 42 -62 61 -75 61 -43 1 11 7 6 18 -15 9 -17 76 -87 147 -154
72 -67 149 -140 172 -162 l43 -41 25 24 24 23 21 -24 c11 -13 48 -78 82 -144
l63 -120 5 50 5 49 75 -84 c41 -46 91 -99 110 -118 67 -64 361 -252 511 -327
147 -74 152 -78 251 -181 56 -57 106 -103 112 -101 6 2 49 -15 96 -38 50 -25
112 -47 150 -53 116 -20 370 -33 615 -33 132 1 294 -4 360 -10 120 -11 120
-11 230 -71 204 -112 514 -306 604 -378 71 -58 179 -189 242 -294 59 -99 59
-100 65 -66 l7 33 19 -48 c10 -26 15 -51 11 -56 -16 -15 -242 -72 -353 -89
-63 -10 -200 -34 -305 -53 -104 -20 -226 -38 -270 -42 -44 -4 -135 -22 -202
-41 -81 -22 -145 -34 -186 -34 -51 0 -76 -6 -125 -31 -34 -17 -62 -34 -62 -38
0 -4 20 -17 45 -29 27 -13 54 -36 68 -59 l24 -38 -29 -18 c-34 -21 -29 -37 13
-37 24 0 48 -16 110 -72 92 -84 138 -102 233 -93 80 7 166 -4 166 -21 0 -10
16 -14 59 -14 52 0 61 -3 75 -25 44 -67 151 -82 280 -40 109 35 148 40 241 25
l83 -13 189 48 c171 43 206 49 387 61 178 11 205 15 250 38 51 25 240 56 341
56 36 0 51 7 88 38 34 30 59 42 107 51 62 12 62 12 130 -23 37 -20 70 -36 73
-36 2 0 7 27 11 60 4 33 10 60 14 60 4 0 16 -7 26 -15 25 -19 37 -19 30 0 -13
34 12 74 109 173 81 82 103 99 108 85 5 -14 10 -10 31 22 33 51 116 130 305
288 197 165 204 169 336 213 62 20 116 40 120 44 5 4 -4 11 -20 15 l-28 9 35
5 35 6 -38 24 c-21 13 -36 25 -34 27 2 2 47 -12 101 -31 53 -19 101 -35 105
-35 5 0 -7 29 -26 64 l-34 65 58 -2 c53 -2 58 0 61 21 2 13 25 39 53 62 41 32
87 51 262 109 116 38 255 80 307 92 123 28 270 83 337 126 39 25 68 35 115 40
35 3 71 10 81 15 19 10 22 49 6 81 -22 42 41 -23 80 -83 l36 -55 3 92 3 92 42
31 42 31 23 -28 c12 -15 39 -53 59 -83 33 -51 164 -179 192 -188 9 -3 10 6 6
32 -4 20 -3 36 2 36 13 0 84 -77 133 -144 40 -55 44 -58 56 -41 13 18 14 18
14 -3 0 -40 32 -117 70 -167 21 -27 99 -144 175 -258 135 -206 136 -209 167
-325 35 -136 36 -138 51 -118 10 13 23 -14 70 -147 31 -90 57 -169 57 -175 0
-7 -30 -57 -66 -111 l-66 -100 -64 -6 c-82 -9 -148 -1 -282 36 -128 35 -343
60 -350 41 -2 -8 -31 -12 -88 -12 l-84 0 6 -27 c4 -16 11 -36 16 -45 5 -11 5
-26 -2 -39 -15 -27 21 -188 52 -233 55 -81 121 -132 185 -142 21 -3 89 1 151
10 l112 15 47 -24 c27 -15 63 -25 87 -25 110 -1 169 -18 312 -91 l141 -73 53
28 c59 31 65 31 250 21 109 -6 137 -4 213 14 49 11 101 21 115 21 40 0 202
-31 202 -39 0 -3 -60 -70 -133 -148 -131 -141 -134 -144 -407 -329 -343 -233
-413 -273 -950 -542 -318 -159 -516 -251 -735 -341 -291 -119 -304 -123 -431
-141 -73 -11 -179 -34 -240 -54 -158 -50 -218 -67 -519 -146 -252 -66 -289
-73 -560 -106 -359 -43 -486 -61 -548 -79 -27 -8 -119 -26 -205 -40 -86 -14
-224 -37 -307 -51 -82 -14 -222 -29 -310 -34 -94 -5 -217 -19 -299 -34 -77
-15 -216 -38 -310 -52 -103 -15 -225 -40 -307 -64 -142 -41 -271 -92 -276
-107 -5 -14 67 -33 126 -33 28 0 171 12 318 26 260 26 276 26 520 15 267 -13
369 -21 523 -46 52 -8 167 -22 255 -30 88 -7 304 -34 480 -59 406 -57 379 -54
650 -71 192 -13 305 -14 685 -5 250 6 554 15 675 20 121 6 416 19 655 30 458
21 623 32 1150 81 493 45 470 40 855 165 911 295 903 292 1318 547 200 123
366 233 425 281 117 96 234 212 289 286 23 30 150 250 283 488 306 547 328
602 435 1097 62 288 90 629 82 1010 -5 252 -7 272 -62 635 -73 484 -113 634
-249 943 l-95 212 -126 485 c-111 426 -135 508 -202 675 -132 330 -170 411
-312 669 -76 138 -161 293 -189 344 -29 52 -99 160 -157 242 -90 126 -125 166
-241 271 -135 123 -177 172 -361 424 -94 130 -110 157 -88 149 8 -4 15 -2 15
4 0 15 -172 118 -370 222 -96 50 -259 147 -363 216 -203 134 -239 154 -440
243 -117 52 -151 62 -287 86 -85 14 -201 39 -257 55 -56 16 -171 43 -255 60
-130 27 -181 32 -333 35 -163 4 -204 1 -435 -30z"/>
</g>
</svg>
