<?xml version="1.0" standalone="no"?>
<!DOCTYPE svg PUBLIC "-//W3C//DTD SVG 20010904//EN"
 "http://www.w3.org/TR/2001/REC-SVG-20010904/DTD/svg10.dtd">
<svg version="1.0" xmlns="http://www.w3.org/2000/svg"
 width="1493.000000pt" height="1536.000000pt" viewBox="0 0 1493.000000 1536.000000"
 preserveAspectRatio="xMidYMid meet">
<metadata>
Created by potrace 1.16, written by Peter Selinger 2001-2019
</metadata>
<g transform="translate(0.000000,1536.000000) scale(0.100000,-0.100000)"
fill="#000000" stroke="none">
<path d="M12602 15345 c-34 -24 -57 -77 -96 -221 -45 -169 -63 -214 -146 -364
-107 -194 -204 -416 -245 -558 -9 -31 -31 -93 -50 -137 -18 -44 -45 -134 -60
-200 -34 -149 -71 -247 -111 -293 l-31 -36 -47 28 c-43 25 -142 119 -237 223
-19 22 -109 90 -200 153 -308 212 -359 262 -414 405 -64 164 -84 256 -96 425
-28 428 -30 441 -82 469 -60 32 -111 -7 -141 -112 -26 -92 -28 -148 -11 -347
10 -107 18 -274 19 -370 l1 -175 -60 3 c-70 4 -333 46 -420 68 -33 8 -107 31
-165 50 -115 38 -256 59 -354 52 -51 -3 -76 -11 -132 -43 -60 -35 -70 -45 -78
-78 -15 -58 1 -88 54 -108 25 -9 131 -38 235 -63 313 -75 852 -222 980 -267
209 -73 395 -172 530 -283 176 -144 296 -269 406 -423 135 -190 184 -305 209
-493 15 -113 28 -166 56 -221 13 -25 28 -77 35 -115 6 -38 22 -87 35 -109 12
-22 34 -89 49 -150 38 -164 117 -405 200 -609 86 -215 117 -310 140 -431 23
-127 60 -269 90 -349 51 -135 105 -346 105 -409 0 -69 -32 -199 -61 -245 -24
-40 -58 -42 -155 -8 -38 13 -105 34 -149 45 -44 11 -134 46 -200 77 -260 122
-520 216 -709 255 -86 17 -156 51 -156 76 0 6 11 58 25 116 21 87 27 145 35
343 7 174 15 265 30 334 27 125 28 175 3 208 -15 20 -29 27 -53 27 -72 0 -103
-92 -191 -560 -24 -129 -100 -339 -126 -349 -36 -14 -174 70 -348 213 -295
241 -434 379 -623 619 -62 78 -125 202 -148 287 -8 33 -18 123 -21 201 -5 124
-3 149 15 210 11 38 25 104 31 146 11 82 62 242 147 460 29 75 62 180 74 235
11 54 36 166 55 248 64 280 66 333 11 384 -23 21 -26 22 -54 7 -37 -19 -65
-56 -90 -122 -11 -27 -29 -65 -40 -84 -12 -19 -46 -110 -76 -202 -75 -224
-100 -285 -198 -478 -174 -343 -212 -461 -229 -700 -11 -157 -25 -215 -54
-226 -10 -4 -37 8 -70 31 -70 48 -282 266 -337 348 -109 160 -174 392 -213
756 -14 130 -25 261 -25 291 0 73 22 154 71 263 62 138 61 209 -4 231 -44 16
-107 -23 -176 -109 -61 -76 -64 -82 -106 -222 -30 -98 -31 -119 -6 -388 6 -55
13 -183 17 -285 l6 -185 -29 -28 c-56 -53 -89 -48 -296 38 -102 42 -350 198
-450 282 -142 119 -188 152 -221 159 -46 8 -229 -40 -296 -78 -47 -26 -50 -31
-50 -68 0 -87 40 -136 149 -181 127 -53 269 -127 417 -219 133 -83 432 -250
536 -299 99 -47 202 -128 473 -375 83 -75 186 -162 230 -193 278 -199 438
-318 496 -369 197 -176 475 -429 554 -504 50 -47 130 -115 179 -150 197 -144
336 -250 430 -328 55 -45 105 -82 112 -82 6 0 42 -27 78 -60 63 -57 69 -60
117 -60 69 0 192 -27 264 -57 33 -14 126 -49 206 -78 192 -68 269 -114 269
-160 0 -27 -27 -51 -120 -105 -99 -58 -166 -122 -199 -190 -29 -60 -31 -61
-261 -169 -58 -27 -149 -78 -203 -114 -111 -75 -170 -99 -277 -117 -111 -18
-194 -38 -297 -71 -91 -28 -111 -31 -445 -59 -64 -5 -134 -16 -155 -25 -107
-45 -217 -36 -440 36 -86 27 -187 54 -226 59 -95 12 -174 53 -288 150 -61 52
-108 84 -134 91 -52 14 -124 51 -163 84 -18 15 -65 36 -114 49 -46 13 -151 48
-233 78 -103 39 -183 61 -255 73 -58 9 -161 28 -230 42 -224 48 -475 35 -845
-42 -93 -20 -217 -45 -275 -57 -58 -11 -139 -33 -180 -48 -97 -36 -338 -89
-465 -101 -55 -6 -179 -13 -275 -15 -113 -3 -189 -10 -215 -19 -22 -8 -67 -19
-100 -24 -70 -12 -503 -38 -790 -47 -146 -4 -234 -13 -325 -30 -205 -38 -607
-101 -730 -114 -63 -6 -151 -15 -195 -20 -44 -5 -246 -12 -450 -16 l-370 -7
-130 -44 c-185 -63 -473 -197 -590 -274 -55 -36 -129 -83 -165 -104 -141 -84
-379 -245 -460 -312 -47 -38 -157 -123 -245 -188 -88 -66 -179 -139 -201 -162
-23 -23 -77 -66 -120 -94 -140 -92 -231 -201 -343 -407 -47 -87 -62 -125 -67
-170 -3 -31 -20 -101 -37 -154 l-31 -97 23 -25 c56 -60 119 -48 178 34 56 76
94 120 103 120 13 0 39 -78 50 -153 18 -116 106 -361 206 -571 117 -247 164
-326 281 -474 172 -218 201 -257 224 -302 12 -25 28 -52 34 -60 7 -8 18 -40
25 -70 7 -30 37 -131 68 -225 49 -153 55 -184 65 -306 l10 -136 -50 -84 c-28
-46 -67 -115 -86 -154 -19 -38 -77 -119 -127 -180 -126 -151 -143 -169 -249
-260 -126 -108 -217 -213 -232 -267 -6 -25 -9 -74 -6 -115 5 -63 18 -102 105
-305 55 -128 109 -262 120 -298 11 -36 41 -123 67 -195 25 -71 69 -210 96
-308 28 -98 64 -211 81 -250 16 -40 36 -90 43 -112 44 -131 59 -162 104 -210
38 -43 57 -77 103 -196 67 -172 98 -273 133 -434 15 -66 42 -167 61 -225 46
-144 61 -223 73 -380 6 -74 17 -173 26 -220 8 -47 15 -106 15 -132 0 -46 1
-47 38 -57 20 -6 54 -13 74 -16 37 -6 39 -8 108 -148 74 -151 103 -191 155
-213 35 -14 539 -39 571 -28 90 32 72 123 -81 405 -136 253 -179 320 -256 405
-39 43 -82 95 -94 114 -34 54 -112 259 -200 525 -18 55 -42 124 -54 152 -11
29 -34 107 -51 173 -44 173 -77 273 -121 365 -39 80 -77 225 -150 563 l-33
153 23 109 c12 60 31 164 41 230 17 109 24 129 64 198 60 102 74 122 91 122
18 0 136 -111 490 -460 160 -157 316 -307 347 -333 31 -26 82 -83 112 -126 53
-77 110 -131 135 -131 15 0 283 -268 366 -366 33 -39 84 -104 113 -145 29 -41
68 -93 86 -116 20 -25 55 -96 86 -175 65 -167 85 -201 174 -298 116 -127 226
-349 226 -459 0 -66 48 -120 167 -189 149 -86 261 -113 298 -72 18 20 18 27 1
201 -17 180 -64 464 -91 549 -8 25 -30 115 -50 200 -53 231 -100 365 -146 416
-24 26 -95 139 -115 182 -32 72 -172 190 -267 226 -73 27 -156 87 -238 173
-118 121 -257 286 -280 330 -13 25 -78 104 -144 175 -202 217 -264 290 -322
377 -70 102 -77 149 -43 280 24 96 38 127 70 156 12 11 30 36 40 56 24 47 212
226 298 283 37 24 92 70 122 101 30 31 113 97 183 147 71 50 167 122 213 160
47 38 96 73 110 78 43 17 106 11 179 -16 39 -14 120 -41 180 -59 145 -44 173
-53 220 -78 22 -11 62 -32 90 -46 49 -26 53 -26 275 -26 237 0 362 12 610 60
69 13 211 34 315 45 105 12 258 34 340 50 224 42 415 67 772 100 371 34 399
36 406 16 25 -64 13 -350 -24 -580 -20 -121 -20 -133 -5 -210 32 -166 35 -265
30 -913 -4 -549 -8 -679 -25 -853 -30 -303 -82 -634 -144 -915 -13 -60 -29
-177 -35 -260 -6 -82 -15 -190 -20 -240 -5 -54 -4 -97 1 -107 10 -19 44 -24
54 -8 13 21 45 8 79 -32 20 -23 36 -45 36 -50 0 -5 19 -48 41 -96 23 -48 48
-109 55 -135 19 -72 39 -96 107 -127 51 -23 88 -31 202 -42 77 -7 167 -13 199
-12 51 0 62 4 82 28 32 37 30 71 -10 175 -47 121 -76 176 -131 246 -52 66
-121 199 -131 253 -4 19 -2 65 5 102 8 50 8 151 0 382 -9 265 -8 335 5 458 8
80 18 202 21 272 10 205 30 371 70 557 37 178 51 215 112 307 28 42 36 65 42
130 5 44 18 106 29 139 28 83 42 192 49 385 5 138 9 172 26 205 31 61 67 273
67 394 l0 104 39 42 c26 28 42 57 46 82 35 201 46 227 99 231 56 5 151 -45
207 -107 79 -88 142 -181 161 -238 10 -31 33 -83 52 -117 19 -34 46 -90 61
-126 15 -36 76 -166 136 -289 60 -124 114 -241 119 -261 5 -19 31 -60 58 -90
160 -180 342 -464 447 -695 49 -110 79 -163 112 -198 24 -26 53 -68 64 -93 11
-24 33 -59 48 -77 44 -49 75 -118 134 -292 99 -289 134 -388 202 -570 37 -99
108 -299 157 -445 83 -245 89 -267 79 -302 -14 -44 0 -119 29 -155 10 -13 21
-37 25 -53 6 -29 50 -80 68 -80 6 0 23 11 37 25 l26 25 25 -25 c13 -15 44 -63
69 -108 52 -93 72 -105 173 -106 77 -1 272 61 288 91 16 30 5 127 -20 176 -12
24 -68 97 -124 163 -167 197 -204 246 -223 295 -14 36 -15 50 -6 64 9 14 8 19
-3 24 -19 7 -58 86 -140 280 -106 252 -125 307 -135 382 -5 39 -17 91 -26 115
-9 24 -28 85 -43 134 -15 50 -38 109 -49 132 -12 23 -22 55 -22 71 0 47 -30
145 -50 168 -16 16 -20 35 -20 85 0 74 -27 182 -71 277 -23 51 -32 90 -39 162
-10 111 -25 150 -120 302 -47 75 -73 128 -85 175 -9 37 -25 93 -35 123 -10 30
-23 83 -29 117 -16 84 -77 260 -105 304 -27 41 -43 89 -91 288 -20 79 -57 205
-82 280 -52 152 -60 237 -29 320 20 54 119 188 146 196 11 4 20 12 20 18 0 7
28 46 62 87 80 98 106 157 119 267 11 103 31 170 68 233 14 25 31 54 37 65 20
37 92 83 172 109 68 23 81 31 95 60 8 19 31 45 49 59 35 26 159 72 220 82 20
3 58 20 85 38 55 38 260 139 378 187 181 73 217 92 380 201 94 63 195 127 225
142 30 15 107 73 170 129 63 55 153 127 200 159 47 32 116 86 155 120 38 34
94 73 125 86 155 68 181 85 247 165 36 43 74 85 86 93 11 8 45 42 74 75 48 55
51 63 41 86 -9 20 -9 28 5 41 14 14 49 16 264 17 271 1 458 -12 628 -44 61
-11 162 -23 225 -26 112 -6 118 -8 251 -65 74 -32 162 -65 194 -74 110 -28
237 -15 315 34 14 8 52 37 85 64 33 27 82 59 110 72 33 14 63 38 86 66 18 24
42 51 52 59 20 17 47 114 47 172 0 29 -8 47 -34 75 -18 21 -41 56 -50 78 -24
56 -67 98 -177 171 -117 78 -240 189 -559 506 -183 181 -255 260 -284 308
-165 282 -231 359 -377 439 -75 41 -116 116 -84 151 30 33 78 40 349 55 361
20 470 42 648 131 90 45 127 80 176 164 l41 70 -23 15 c-22 15 -85 31 -161 41
-29 4 -74 -5 -165 -32 -209 -62 -224 -65 -258 -59 -37 7 -47 23 -38 60 4 16
16 27 34 31 15 3 77 21 137 39 61 19 173 50 249 70 123 32 222 65 337 112 20
8 63 41 96 72 32 31 84 76 114 98 78 58 170 162 209 235 18 35 50 86 71 114
66 86 71 108 63 256 -6 115 -9 130 -28 143 -45 32 -100 5 -136 -65 -11 -21
-66 -96 -122 -167 -57 -71 -125 -163 -152 -205 -30 -48 -59 -80 -75 -87 -61
-23 -317 -71 -456 -85 -305 -31 -832 -48 -885 -28 -36 14 -51 35 -108 152 -54
110 -76 187 -87 307 -10 102 2 121 169 271 143 130 181 166 487 478 181 185
358 391 433 504 78 118 213 382 239 470 53 173 90 418 73 483 -9 36 -54 87
-77 87 -29 0 -69 -30 -81 -59 -5 -14 -32 -100 -58 -191 -64 -219 -89 -284
-154 -393 -119 -202 -241 -344 -531 -617 -315 -297 -427 -390 -538 -447 -96
-48 -159 -4 -250 175 -94 184 -125 289 -152 507 -9 71 -38 233 -66 358 -103
472 -106 527 -59 993 31 304 45 384 78 451 11 21 22 61 26 88 10 72 30 128
112 322 129 305 196 551 198 735 1 83 -2 100 -20 125 -25 33 -69 41 -102 18z"/>
</g>
</svg>
