<?xml version="1.0" standalone="no"?>
<!DOCTYPE svg PUBLIC "-//W3C//DTD SVG 20010904//EN"
 "http://www.w3.org/TR/2001/REC-SVG-20010904/DTD/svg10.dtd">
<svg version="1.0" xmlns="http://www.w3.org/2000/svg"
 width="1266.000000pt" height="1536.000000pt" viewBox="0 0 1266.000000 1536.000000"
 preserveAspectRatio="xMidYMid meet">
<metadata>
Created by potrace 1.16, written by Peter Selinger 2001-2019
</metadata>
<g transform="translate(0.000000,1536.000000) scale(0.100000,-0.100000)"
fill="#000000" stroke="none">
<path d="M9951 15323 c-65 -182 -175 -473 -178 -469 -2 2 4 45 13 95 12 68 14
95 6 103 -14 14 -10 18 -61 -62 l-42 -64 7 82 c4 52 3 82 -3 82 -9 0 -142
-151 -178 -203 -15 -21 -15 -21 -59 22 -24 24 -49 42 -54 40 -6 -2 -53 -44
-106 -92 -86 -79 -113 -114 -273 -353 l-178 -266 -5 206 c-3 113 -8 208 -12
211 -3 3 -30 -38 -59 -92 l-54 -98 -7 105 c-13 166 -19 211 -29 208 -6 -2 -37
-64 -70 -138 -33 -74 -61 -136 -63 -137 -2 -2 -15 15 -28 38 l-25 42 -31 -45
c-24 -35 -265 -522 -357 -723 l-18 -40 -17 100 c-29 169 -36 178 -76 86 l-26
-59 -29 16 c-29 17 -31 16 -52 -10 -12 -15 -30 -38 -40 -52 -11 -15 -28 -26
-41 -26 -13 0 -28 -6 -34 -12 -5 -7 -14 -61 -20 -119 -6 -58 -18 -132 -27
-164 -19 -74 -19 -127 0 -288 12 -103 21 -139 45 -187 l30 -59 -30 -76 c-39
-99 -59 -129 -75 -115 -7 6 -37 62 -66 125 -29 63 -57 115 -61 115 -4 0 -8
-10 -9 -22 l0 -23 -11 23 c-14 27 -24 28 -38 2 -6 -11 -17 -20 -25 -20 -30 0
-83 62 -124 147 -48 99 -85 153 -106 153 -14 0 -20 -21 -31 -115 l-7 -60 -15
35 c-26 62 -25 12 1 -73 14 -45 65 -228 112 -407 47 -179 99 -374 115 -434 16
-61 28 -111 26 -113 -2 -2 -45 48 -96 112 -50 63 -93 115 -94 115 -1 0 1 -35
5 -77 4 -43 5 -79 4 -81 -1 -2 -12 13 -23 32 -22 37 -244 317 -248 313 -7 -7
-34 -236 -34 -289 0 -60 3 -67 81 -196 91 -151 121 -222 143 -339 19 -100 67
-291 100 -398 14 -43 24 -80 23 -81 -1 -1 -47 38 -102 88 -92 83 -106 101
-167 212 -37 66 -69 126 -71 131 -2 6 -8 7 -12 2 -5 -4 57 -173 138 -375 132
-330 158 -384 248 -537 117 -197 130 -221 99 -185 l-22 25 7 -83 c6 -93 11
-91 -68 -34 -26 19 -51 31 -55 28 -3 -4 84 -188 195 -409 180 -360 219 -430
377 -675 97 -150 213 -319 259 -375 45 -56 95 -123 109 -148 35 -60 157 -174
333 -311 77 -60 143 -119 147 -131 4 -12 17 -62 29 -112 11 -49 44 -144 72
-210 55 -129 67 -209 36 -240 -27 -27 -185 -29 -419 -5 -191 20 -246 22 -490
16 -244 -6 -320 -12 -680 -57 -843 -104 -1273 -200 -1580 -354 -125 -63 -193
-89 -355 -137 l-200 -60 -270 -162 -271 -162 -387 -318 c-213 -174 -447 -361
-520 -414 -119 -87 -482 -327 -513 -339 -7 -2 -26 16 -44 42 -17 25 -35 43
-39 41 -4 -3 -6 -29 -3 -59 l4 -54 -46 -33 -46 -33 0 -63 0 -63 -333 -288
-334 -288 -100 -150 c-56 -82 -129 -194 -162 -248 -34 -54 -87 -133 -119 -175
-77 -101 -92 -129 -142 -245 -26 -60 -51 -144 -65 -215 -43 -213 -85 -373
-106 -403 -11 -16 -39 -42 -63 -58 -56 -39 -119 -104 -161 -168 -42 -63 -71
-87 -183 -156 -166 -103 -195 -116 -283 -132 -161 -28 -281 -64 -325 -98 -114
-90 -134 -113 -175 -209 -22 -51 -42 -109 -45 -128 -3 -19 -17 -102 -30 -185
-14 -82 -29 -210 -34 -283 -8 -124 -11 -138 -39 -181 -60 -93 -74 -204 -75
-616 l-1 -260 -58 -230 c-32 -126 -85 -318 -118 -425 -33 -107 -59 -203 -59
-213 0 -20 31 -84 67 -139 35 -52 98 -81 176 -80 97 0 234 19 292 41 68 26
204 49 325 57 143 9 185 34 470 279 244 210 372 330 403 378 13 19 26 27 48
27 51 0 86 27 157 123 38 52 88 109 109 127 37 31 45 33 99 31 57 -2 62 0 140
53 111 74 149 92 254 120 63 17 98 22 118 16 100 -29 118 -66 114 -235 -3
-101 2 -151 28 -299 17 -97 28 -185 25 -194 -6 -19 -73 -46 -291 -116 -99 -33
-148 -53 -165 -72 -36 -39 -114 -74 -165 -74 -79 0 -171 -38 -235 -97 -49 -46
-60 -63 -78 -122 -24 -80 -26 -110 -8 -135 12 -17 16 -15 46 19 23 26 32 32
30 19 -5 -26 8 -44 32 -44 13 0 34 22 64 69 45 70 86 111 111 111 7 0 21 -16
30 -35 9 -20 25 -40 34 -45 11 -6 21 -27 25 -52 13 -77 66 -104 102 -52 10 15
28 37 40 50 21 23 23 23 63 9 66 -23 157 -28 258 -12 l93 14 14 -34 c13 -30
18 -34 47 -31 28 2 35 8 43 36 7 24 13 31 25 26 52 -21 100 -16 174 19 63 30
86 36 142 36 84 0 111 17 141 92 16 40 39 70 90 117 87 81 115 96 165 88 34
-6 40 -4 45 14 3 11 9 20 13 20 4 0 11 26 15 57 10 83 39 136 109 200 74 67
168 114 300 148 125 32 156 32 194 0 39 -32 51 -32 63 5 6 16 14 30 19 30 4 0
46 -18 94 -41 48 -22 99 -41 114 -42 25 -2 27 1 30 41 3 37 7 44 40 61 20 10
61 21 90 23 49 5 56 2 105 -34 40 -30 67 -64 119 -150 77 -128 85 -138 97
-119 6 9 18 1 47 -34 l39 -46 5 30 5 29 195 -146 c162 -123 213 -155 305 -196
61 -27 131 -56 157 -65 35 -12 46 -20 42 -32 -5 -19 31 -29 103 -29 28 0 42
-4 38 -11 -4 -5 -4 -21 -1 -35 9 -34 49 -32 106 6 54 36 71 37 96 8 10 -11 39
-34 63 -50 49 -31 83 -34 174 -17 53 9 60 8 88 -12 34 -24 83 -27 150 -9 21 6
118 15 216 20 198 11 287 27 359 63 117 59 302 227 621 563 171 181 339 352
372 379 34 28 77 74 96 103 20 29 47 58 60 64 15 7 25 20 25 33 0 37 24 56
111 89 83 31 84 31 93 74 l10 42 52 0 c29 0 55 4 59 9 3 5 -8 19 -25 31 -16
12 -30 27 -30 35 0 19 89 96 141 122 40 20 52 21 134 13 50 -4 131 -20 181
-35 l90 -27 77 42 c42 23 81 39 86 36 5 -3 15 -29 21 -57 l13 -51 20 36 21 37
12 -72 c12 -69 31 -108 41 -82 2 6 24 42 48 80 42 65 44 67 53 43 29 -75 74
-186 79 -193 3 -5 14 6 24 23 l20 32 42 -35 c42 -34 42 -34 82 -20 31 11 70
13 175 8 155 -8 199 -17 257 -58 44 -31 103 -98 103 -117 0 -6 -11 -30 -24
-53 -38 -66 -87 -197 -81 -217 3 -10 2 -21 -2 -23 -5 -3 -60 -17 -123 -31 -63
-14 -189 -48 -279 -75 -142 -43 -169 -55 -200 -85 -19 -19 -32 -38 -29 -41 3
-4 30 1 59 9 29 9 55 14 58 11 3 -3 -17 -25 -43 -48 -42 -36 -49 -48 -53 -89
-4 -29 -2 -48 4 -48 21 0 79 29 122 61 29 20 61 34 89 37 l43 5 -3 -59 -3 -59
62 -9 c59 -9 62 -11 68 -42 7 -37 49 -94 71 -94 9 0 16 18 20 50 5 37 12 54
28 62 15 8 99 11 276 10 l255 -2 27 39 c16 24 47 50 75 65 92 46 161 113 203
195 57 115 116 411 134 676 l14 200 -29 121 c-36 154 -88 248 -213 388 -87 96
-204 237 -220 263 -4 8 4 23 21 39 l28 26 -23 15 c-20 14 -21 17 -6 27 14 11
13 15 -15 39 -18 15 -51 31 -74 37 -128 33 -189 75 -207 141 -13 48 -4 68 80
168 43 50 58 76 50 81 -9 5 -6 18 9 48 25 49 26 56 5 48 -11 -4 -14 -1 -10 12
32 109 36 142 25 219 -6 43 -12 132 -12 198 l-2 120 39 75 c101 196 139 319
186 610 19 119 28 148 73 240 42 86 65 119 125 179 42 43 71 80 68 88 -3 7
-19 16 -36 19 -16 4 -30 10 -30 13 0 4 37 24 83 44 76 34 88 44 135 107 l52
69 -84 50 c-82 50 -83 51 -99 108 -9 32 -23 97 -30 146 -14 84 -13 90 8 152
36 103 82 176 203 320 117 140 163 181 371 331 114 81 148 115 392 379 147
160 266 291 265 292 -1 2 -50 -8 -114 -22 -19 -5 -12 9 43 82 48 63 62 89 51
91 -9 2 39 50 122 121 157 135 219 197 208 208 -4 4 -113 -8 -242 -26 -129
-18 -237 -31 -240 -29 -2 3 49 48 114 101 64 52 146 125 182 162 l65 66 -95
-6 c-52 -4 -101 -8 -107 -10 -26 -8 -11 5 85 75 53 40 98 76 100 81 5 13 -13
12 -170 -16 -216 -38 -609 -60 -647 -36 -20 13 -4 35 88 126 87 86 88 92 11
95 -78 3 -77 5 11 130 44 63 116 167 159 230 44 63 115 160 158 215 44 55 79
101 78 103 -2 1 -29 -7 -61 -18 -32 -11 -60 -18 -63 -16 -2 3 12 31 31 63 20
32 34 59 32 61 -2 2 -17 -4 -34 -13 -36 -18 -36 -17 -16 33 18 41 58 219 53
231 -2 4 -106 -41 -233 -100 -126 -59 -234 -108 -239 -108 -5 -1 8 14 30 33
21 19 36 37 32 42 -4 4 -56 -12 -115 -34 -59 -23 -108 -40 -110 -39 -1 2 77
74 173 159 175 155 177 157 248 173 102 24 106 25 106 36 0 5 -23 9 -51 9 -45
0 -50 2 -39 15 20 25 4 29 -27 8 -20 -14 -53 -22 -113 -27 -138 -10 -298 -42
-403 -79 l-97 -35 117 126 c65 70 145 146 178 170 92 65 85 78 -20 42 -116
-40 -117 -32 -13 88 51 59 98 114 105 123 15 19 29 99 17 99 -5 0 -22 -23 -39
-51 -46 -77 -140 -162 -207 -187 -93 -35 -108 -37 -108 -16 2 71 64 171 245
394 190 233 267 340 255 355 -17 20 66 104 149 149 39 22 71 43 71 48 0 11
-59 10 -200 -2 -101 -9 -132 -17 -250 -62 -170 -64 -357 -145 -390 -168 -38
-26 -160 -92 -160 -87 0 3 70 67 155 142 85 76 152 141 149 146 -2 4 -53 -27
-112 -71 -59 -43 -109 -74 -111 -69 -2 6 0 35 4 64 5 45 24 84 106 221 54 91
99 168 99 171 0 3 -7 2 -16 -1 -9 -3 5 23 30 58 72 101 62 102 -59 5 -49 -38
-138 -105 -199 -148 -61 -43 -158 -116 -216 -163 -58 -47 -119 -93 -134 -104
-29 -18 -29 -18 -18 1 5 11 83 91 171 178 89 87 161 160 161 163 0 11 -22 0
-86 -41 -38 -24 -72 -45 -76 -45 -19 0 29 92 95 183 88 122 179 274 169 281
-5 3 -46 -24 -92 -60 -52 -40 -134 -89 -218 -129 -74 -36 -136 -65 -138 -65
-2 0 4 24 13 53 12 41 30 68 84 123 38 40 69 74 69 77 0 3 -19 1 -41 -4 -23
-6 -43 -8 -45 -7 -1 2 18 30 42 63 25 33 73 112 106 175 44 82 80 134 126 183
36 37 62 70 59 74 -16 15 -181 -96 -338 -226 l-101 -84 73 144 c41 79 76 148
78 153 2 5 -13 0 -33 -12 -20 -12 -40 -22 -42 -22 -3 0 13 24 36 52 47 59 38
76 -16 29 -19 -17 -39 -31 -44 -31 -12 0 36 133 96 265 25 55 48 106 51 113 7
16 -15 15 -66 -3 -47 -16 -47 -16 11 59 23 29 35 53 30 58 -22 22 -198 -60
-269 -125 -41 -37 -24 -7 38 66 l60 72 -34 13 -35 14 45 84 45 84 -61 0 c-34
0 -61 2 -61 4 0 2 16 30 35 62 20 33 51 108 70 167 57 181 138 304 353 538
158 172 186 207 227 288 25 51 44 95 42 98 -3 2 -54 -21 -115 -51 -120 -60
-122 -60 -122 12 l0 37 -82 -82 c-68 -68 -96 -88 -155 -112 -40 -16 -73 -28
-73 -25 0 3 7 37 16 75 9 39 14 72 12 75 -3 2 -23 -12 -46 -32 -23 -19 -42
-32 -42 -27 0 4 25 78 55 163 31 84 54 158 53 162 -2 4 -51 -23 -110 -60 -110
-68 -227 -162 -329 -263 l-57 -57 25 82 c14 44 27 84 30 89 6 10 -3 9 -44 -8
-20 -8 -38 -13 -41 -10 -3 2 1 32 7 66 12 61 16 66 210 288 109 124 208 235
220 245 28 25 27 36 -4 36 -14 0 -25 2 -25 5 0 3 16 44 36 91 19 47 33 88 31
90 -2 2 -51 -18 -108 -46 -74 -35 -116 -50 -146 -50 l-42 0 31 50 c17 28 28
53 24 57 -3 4 -24 -4 -47 -16 -22 -13 -43 -20 -46 -17 -3 3 6 21 21 40 26 34
33 56 19 56 -5 0 -64 -27 -133 -60 -134 -63 -180 -79 -180 -61 0 6 20 42 45
81 36 56 45 79 45 114 0 49 -14 96 -29 96 -5 0 -40 -19 -76 -41 -36 -23 -67
-40 -69 -38 -2 2 -14 24 -26 49 -21 42 -22 53 -17 170 6 110 15 158 76 400 38
151 67 277 65 280 -9 9 -24 -17 -189 -334 -88 -169 -161 -303 -163 -298 -1 4
31 169 73 366 41 197 75 362 75 367 0 22 -17 5 -29 -28z m1723 -6307 c-121
-90 -358 -218 -373 -203 -33 33 18 98 118 151 59 31 318 125 345 126 5 0 -35
-33 -90 -74z m-4797 -7205 c0 -1 15 -25 32 -55 17 -30 46 -67 65 -81 l36 -27
-22 -18 -22 -18 79 -78 c102 -101 137 -164 146 -262 l6 -73 -78 -132 c-159
-271 -158 -269 -245 -317 -120 -66 -211 -126 -298 -198 -71 -58 -167 -111
-203 -112 -16 0 -16 3 -1 36 11 23 10 28 -11 45 -29 24 -53 24 -124 -1 -88
-31 -97 -29 -97 25 0 25 4 45 8 45 5 0 27 16 50 36 34 29 42 42 42 69 0 39 -8
65 -21 65 -5 0 -32 -18 -59 -39 -67 -53 -86 -58 -115 -31 -27 25 -74 125 -82
173 -8 50 61 257 115 344 42 68 50 75 156 138 182 109 263 172 277 214 13 41
24 51 57 51 29 0 28 12 -9 77 -28 48 -30 57 -19 83 15 37 39 57 70 62 18 2
255 -16 267 -21z"/>
</g>
</svg>
