<?xml version="1.0" standalone="no"?>
<!DOCTYPE svg PUBLIC "-//W3C//DTD SVG 20010904//EN"
 "http://www.w3.org/TR/2001/REC-SVG-20010904/DTD/svg10.dtd">
<svg version="1.0" xmlns="http://www.w3.org/2000/svg"
 width="1536.000000pt" height="591.000000pt" viewBox="0 0 1536.000000 591.000000"
 preserveAspectRatio="xMidYMid meet">
<metadata>
Created by potrace 1.16, written by Peter Selinger 2001-2019
</metadata>
<g transform="translate(0.000000,591.000000) scale(0.100000,-0.100000)"
fill="#000000" stroke="none">
<path d="M6959 5901 c-90 -8 -109 -25 -109 -101 0 -72 40 -154 140 -290 170
-231 269 -418 291 -549 44 -258 -137 -492 -511 -662 -107 -49 -243 -91 -932
-288 -443 -127 -857 -243 -920 -257 -779 -175 -1432 -404 -2033 -713 -401
-206 -724 -420 -1087 -717 l-137 -112 -178 49 c-98 26 -248 61 -333 76 -140
25 -178 27 -395 28 -229 0 -245 -1 -349 -28 -209 -53 -222 -89 -69 -187 41
-26 81 -56 88 -67 7 -10 25 -65 38 -120 25 -100 49 -161 84 -216 l18 -29 -51
-46 c-62 -57 -68 -67 -134 -217 -74 -167 -155 -305 -277 -474 -97 -135 -103
-146 -86 -159 20 -15 83 -10 193 14 36 8 255 78 486 155 355 118 447 153 585
220 l164 80 120 -40 c153 -51 213 -60 525 -75 l255 -12 350 32 350 33 870 197
870 197 190 7 c105 5 368 13 585 20 l395 11 350 -35 c304 -31 476 -56 1320
-195 l970 -159 835 -46 c459 -26 845 -49 858 -51 21 -5 22 -7 8 -40 -38 -90
-176 -269 -302 -390 -120 -117 -133 -160 -57 -192 47 -19 180 -13 295 15 42
11 81 16 87 13 14 -9 3 -44 -43 -143 -20 -42 -54 -129 -77 -193 -46 -131 -46
-179 -2 -223 22 -22 31 -24 76 -19 77 8 143 39 461 217 314 174 383 220 534
353 122 108 201 195 371 410 73 92 145 174 160 182 34 17 170 55 321 89 63 14
590 134 1170 266 580 133 1210 277 1400 320 379 86 423 100 524 162 98 61 126
99 139 191 14 95 4 130 -65 234 -51 75 -332 372 -520 549 -224 210 -599 478
-958 684 -148 86 -677 348 -830 413 -298 125 -799 283 -1150 362 -207 46 -515
98 -747 125 -98 11 -189 22 -203 25 -28 5 -422 39 -640 55 -235 17 -768 79
-860 101 -232 54 -377 118 -635 277 -136 84 -403 294 -534 420 -79 76 -315
230 -451 294 -316 151 -522 194 -801 169z"/>
</g>
</svg>
