<?xml version="1.0" standalone="no"?>
<!DOCTYPE svg PUBLIC "-//W3C//DTD SVG 20010904//EN"
 "http://www.w3.org/TR/2001/REC-SVG-20010904/DTD/svg10.dtd">
<svg version="1.0" xmlns="http://www.w3.org/2000/svg"
 width="1536.000000pt" height="1220.000000pt" viewBox="0 0 1536.000000 1220.000000"
 preserveAspectRatio="xMidYMid meet">
<metadata>
Created by potrace 1.16, written by Peter Selinger 2001-2019
</metadata>
<g transform="translate(0.000000,1220.000000) scale(0.100000,-0.100000)"
fill="#000000" stroke="none">
<path d="M2475 12138 c-3 -35 -19 -135 -35 -223 -16 -88 -32 -185 -35 -215 -6
-48 6 -162 20 -202 4 -12 -90 -67 -99 -57 -2 2 2 36 10 74 34 174 28 370 -16
489 -28 75 -99 181 -111 169 -7 -7 3 -31 30 -73 60 -93 82 -172 88 -315 7
-169 -15 -300 -62 -371 -52 -78 -62 -76 -70 9 -24 255 -58 414 -111 518 -22
45 -47 69 -59 57 -3 -3 8 -29 24 -59 57 -106 87 -236 112 -482 11 -117 11
-118 -12 -143 -12 -13 -27 -23 -31 -22 -5 2 -31 70 -58 151 -60 178 -98 252
-168 329 -70 75 -192 138 -192 99 0 -5 29 -23 64 -40 122 -60 206 -191 282
-437 l37 -121 -21 -21 -21 -21 -61 106 c-79 135 -191 259 -159 176 5 -15 39
-66 73 -113 81 -109 96 -139 96 -193 0 -39 -5 -49 -35 -76 -43 -37 -51 -38
-59 -8 -11 44 -102 172 -162 227 -63 58 -164 114 -226 125 -57 11 -47 -11 15
-30 144 -47 261 -154 341 -313 28 -55 28 -58 -16 -99 -20 -19 -108 -54 -118
-48 -4 3 -10 23 -13 45 -7 56 -58 160 -100 207 -45 50 -121 91 -182 100 -38 5
-47 3 -43 -8 2 -7 23 -17 45 -22 133 -26 233 -151 259 -323 10 -68 -15 -54
-41 22 -23 66 -32 84 -46 84 -16 0 -9 -36 11 -55 21 -19 27 -45 10 -45 -13 0
-50 37 -50 51 0 5 -4 7 -10 4 -6 -4 -2 -21 10 -45 23 -44 27 -100 7 -100 -6 0
-34 -12 -61 -26 -26 -14 -50 -23 -53 -21 -2 3 1 40 7 81 10 70 9 105 -7 161
-5 18 -6 18 -15 -5 -5 -13 -13 -68 -18 -122 -5 -54 -16 -111 -25 -128 -30 -58
-93 -67 -109 -15 -4 17 -13 41 -19 55 -10 22 -12 18 -18 -39 -5 -50 -11 -69
-29 -83 -46 -38 -55 -23 -60 102 -4 87 -7 108 -14 86 -5 -15 -6 -63 -2 -106 7
-87 -4 -109 -29 -60 -21 41 -39 28 -31 -21 5 -30 3 -40 -11 -47 -29 -15 -40
-4 -82 82 -22 45 -61 106 -87 135 -55 61 -130 109 -146 93 -7 -7 0 -16 23 -28
62 -31 99 -66 142 -133 58 -87 82 -148 66 -167 -19 -23 -46 -16 -59 16 l-13
31 -17 -28 c-27 -44 -53 -62 -101 -71 -74 -13 -84 -8 -108 58 -21 58 -67 110
-97 110 -27 0 -14 -33 32 -82 37 -40 45 -54 42 -81 -3 -31 -4 -32 -46 -29 -23
2 -49 -1 -57 -8 -15 -13 -24 -1 -44 62 -13 40 -25 53 -40 43 -6 -3 -3 -23 6
-49 26 -69 22 -72 -124 -80 -146 -7 -248 -26 -307 -57 -37 -19 -41 -20 -52 -4
-11 14 -14 10 -20 -30 -10 -67 2 -168 25 -212 59 -116 197 -153 438 -119 62 8
245 45 406 81 162 36 341 72 398 81 133 20 333 15 402 -10 37 -13 52 -15 62
-6 10 9 45 10 122 5 104 -7 109 -9 158 -45 27 -21 86 -59 130 -85 44 -26 101
-62 128 -81 26 -19 52 -34 57 -34 6 0 77 -22 158 -49 247 -81 382 -160 562
-327 408 -381 640 -747 990 -1569 40 -93 100 -219 134 -280 l61 -109 0 -91 c0
-107 -29 -199 -98 -307 -45 -71 -137 -181 -198 -235 l-36 -33 -119 11 c-156
15 -439 6 -519 -16 -175 -48 -312 -189 -318 -327 -2 -42 -1 -43 41 -57 38 -12
58 -11 150 3 146 22 212 21 273 -5 53 -23 70 -20 51 11 -16 25 -15 50 1 50 6
0 46 -11 87 -24 198 -63 422 -71 610 -22 52 14 181 57 287 95 246 91 345 119
441 127 99 8 135 -2 252 -72 150 -89 197 -106 325 -112 l110 -5 40 -43 c47
-49 43 -47 217 -118 162 -65 210 -89 348 -171 58 -34 177 -102 265 -150 88
-48 181 -102 206 -120 74 -52 83 -56 118 -44 17 6 31 15 31 20 0 5 4 9 10 9
10 0 144 -85 445 -282 518 -338 851 -498 1225 -588 356 -85 468 -121 575 -186
33 -19 75 -39 95 -43 25 -6 -4 -10 -110 -15 -668 -34 -992 -111 -1243 -297
-31 -23 -57 -46 -57 -50 0 -15 113 -31 169 -24 49 6 183 41 235 61 37 14 -3
-34 -172 -209 -92 -95 -178 -187 -191 -206 l-24 -33 24 7 c53 16 200 90 348
175 178 102 231 127 231 108 0 -20 -42 -106 -90 -183 -48 -78 -100 -183 -100
-203 0 -20 82 27 215 122 65 48 142 98 170 111 58 28 155 55 201 55 l31 0 6
-109 c3 -60 10 -119 16 -130 11 -19 13 -19 62 -5 28 9 88 32 133 52 60 27 95
36 136 36 50 1 55 -1 58 -21 2 -13 -6 -36 -17 -52 l-20 -28 57 -12 c94 -20
259 -25 372 -12 58 7 206 32 330 56 283 56 396 69 530 60 160 -10 255 6 372
61 88 42 99 46 129 35 51 -18 61 -14 129 45 98 84 325 187 650 294 l177 58
114 -10 c63 -5 184 -8 269 -5 135 4 166 8 239 32 81 26 85 26 98 9 7 -10 13
-23 13 -30 0 -7 5 -25 10 -39 9 -23 13 -25 25 -15 14 11 14 15 0 36 -19 29
-19 64 -1 64 29 0 47 -14 66 -49 23 -46 47 -68 61 -54 6 6 -3 25 -26 54 -52
65 -48 73 35 67 94 -7 163 -42 234 -119 86 -92 138 -217 216 -514 41 -155 88
-301 111 -346 10 -20 36 -90 58 -155 22 -65 76 -200 121 -299 197 -436 220
-574 171 -990 -32 -279 -50 -379 -82 -479 -100 -305 -279 -516 -675 -796
l-142 -100 -65 0 c-44 0 -96 -10 -163 -31 -74 -23 -112 -29 -151 -26 -42 3
-50 1 -42 -9 6 -7 26 -18 45 -24 19 -6 34 -15 34 -19 0 -12 -99 -40 -185 -52
-96 -14 -353 -6 -505 16 -138 19 -150 18 -62 -5 79 -21 140 -56 124 -72 -5 -5
-39 -14 -74 -20 -82 -14 -197 6 -295 51 -69 33 -83 36 -83 22 0 -5 21 -18 48
-29 l47 -20 -30 -12 c-36 -14 -101 -9 -141 12 -16 8 -68 36 -117 62 -75 39
-96 46 -145 46 l-57 -1 50 -18 c28 -10 79 -33 115 -50 36 -17 71 -31 78 -31 7
0 10 -4 7 -10 -8 -14 -104 -13 -146 2 -19 6 -61 28 -95 49 -81 51 -118 66
-189 74 -53 6 -58 5 -45 -8 8 -8 40 -22 70 -32 72 -23 120 -45 120 -56 0 -14
-93 -11 -137 5 -22 8 -93 39 -159 69 -129 60 -198 80 -189 55 8 -20 38 -35
103 -50 55 -14 66 -25 39 -42 -11 -7 -29 -3 -65 17 -63 34 -75 34 -39 1 39
-36 24 -46 -62 -42 l-73 3 -16 50 c-13 38 -22 50 -37 50 -11 0 -20 -7 -21 -15
-3 -53 -2 -53 -41 -21 -57 45 -120 69 -229 86 -55 9 -139 23 -187 31 -88 16
-105 15 -93 -5 10 -15 64 -28 216 -50 74 -11 151 -26 170 -32 66 -23 142 -80
126 -96 -19 -19 -385 74 -630 161 -71 26 -131 44 -133 42 -2 -2 17 -12 44 -21
91 -32 103 -38 108 -45 7 -12 -115 11 -242 46 -99 27 -263 88 -430 161 -8 3
-13 -2 -13 -11 0 -11 21 -27 56 -43 67 -31 60 -47 -20 -47 -48 0 -64 6 -138
51 -81 50 -116 59 -83 23 9 -10 30 -24 46 -30 41 -17 36 -30 -8 -23 -111 15
-270 82 -381 159 -62 43 -63 44 -41 13 28 -39 107 -90 184 -118 l60 -21 -70 5
c-82 7 -156 38 -266 113 -82 54 -158 96 -165 89 -7 -7 84 -72 141 -101 61 -31
50 -32 -98 -6 -212 37 -352 95 -438 180 -60 60 -76 48 -19 -14 38 -41 40 -45
21 -51 -46 -14 -78 7 -158 108 -51 63 -73 80 -73 57 0 -6 20 -33 45 -59 25
-26 45 -51 45 -55 0 -11 -94 -6 -132 8 -20 7 -68 36 -106 65 -74 55 -147 87
-158 70 -7 -11 23 -38 43 -39 6 0 15 -5 19 -12 10 -16 -63 -3 -160 29 -61 20
-75 28 -62 35 20 11 20 22 -1 54 l-16 25 -22 -27 c-21 -26 -22 -27 -49 -9 -14
10 -29 15 -32 13 -10 -11 9 -37 39 -52 25 -12 28 -16 15 -21 -27 -11 -55 12
-90 72 -18 31 -45 65 -60 76 -24 18 -31 19 -54 8 -23 -10 -26 -10 -20 4 7 19
-18 29 -91 39 -48 6 -52 5 -46 -11 13 -36 37 -65 80 -98 33 -25 39 -34 27 -39
-47 -18 -94 0 -186 71 -73 56 -139 85 -181 80 l-32 -4 33 -13 c35 -16 42 -30
14 -30 -22 0 -85 44 -122 85 -34 37 -72 55 -116 55 -32 0 -35 -2 -23 -16 7 -9
40 -28 73 -44 60 -28 60 -28 26 -29 -19 0 -77 8 -129 19 -105 22 -198 25 -251
7 -24 -8 -45 -27 -68 -61 -84 -126 -8 -284 264 -547 674 -652 2289 -1078 4394
-1159 457 -17 538 -15 776 25 512 84 954 194 1400 346 521 178 845 353 1509
817 305 213 322 229 346 326 10 39 25 62 75 112 62 61 63 62 57 31 -9 -48 -60
-185 -83 -225 -12 -19 -19 -36 -17 -39 12 -12 95 108 159 230 76 142 131 227
148 227 6 0 8 -11 4 -25 -3 -14 -2 -25 2 -25 22 1 36 21 58 86 37 110 102 224
128 224 6 0 7 -14 3 -33 l-7 -32 21 27 c39 49 70 132 116 307 64 246 120 360
120 243 0 -27 3 -38 10 -31 19 20 10 141 -18 227 -29 90 -34 158 -14 186 16
21 43 12 54 -17 12 -38 22 44 22 194 1 75 4 151 8 169 l6 33 19 -24 20 -24 -5
55 c-3 35 -29 115 -71 222 -94 236 -117 342 -70 324 9 -4 -4 30 -36 88 -53 99
-90 194 -90 230 1 17 10 11 49 -32 27 -30 52 -49 55 -43 13 21 -24 78 -94 146
-66 65 -100 110 -100 134 0 18 38 -1 76 -40 44 -45 54 -48 54 -15 0 26 -24 53
-115 130 -71 61 -112 146 -69 146 38 0 94 -44 119 -94 26 -52 35 -39 11 17
-16 40 -63 81 -165 147 l-79 50 -4 55 c-7 83 -38 121 -175 211 -138 90 -195
135 -219 172 l-17 27 29 -20 c58 -39 118 -65 148 -65 30 1 30 1 11 17 -35 27
-160 82 -297 129 -201 70 -273 107 -344 178 -68 68 -98 132 -110 235 -10 90
22 77 66 -26 22 -51 45 -81 55 -71 3 3 -3 25 -13 49 -20 46 -28 60 -161 278
-68 112 -79 136 -67 143 23 13 53 -7 117 -76 31 -34 60 -58 64 -54 11 10 -28
86 -88 173 -52 74 -54 80 -36 87 23 9 17 25 -28 85 -56 76 -81 177 -47 190 8
3 25 -4 40 -17 25 -25 32 -14 13 23 -7 12 -40 61 -75 108 -69 93 -109 171
-120 234 l-7 40 28 -25 c14 -14 46 -53 71 -86 54 -76 108 -124 112 -101 5 24
-20 64 -98 157 -94 111 -122 167 -128 253 l-5 68 29 -6 c16 -4 55 -19 87 -34
32 -15 56 -24 54 -18 -1 5 -38 39 -82 76 -43 36 -81 73 -83 81 -3 9 6 5 22 -9
47 -43 40 -13 -10 45 -141 163 -171 214 -165 282 2 21 18 13 80 -38 66 -55 74
-59 63 -32 -12 30 -35 55 -91 102 -78 64 -104 139 -45 127 31 -6 30 -2 -10 33
-33 29 -53 70 -35 70 5 0 29 -16 55 -35 87 -66 82 -42 -14 65 -58 64 -100 135
-88 147 3 3 22 2 42 -2 50 -9 138 -99 184 -188 22 -42 38 -63 44 -57 6 6 2 20
-11 38 -27 37 -16 57 26 49 17 -4 31 -5 31 -3 0 3 -74 73 -165 156 -155 142
-275 269 -275 291 0 5 15 9 34 9 36 0 76 -27 139 -95 27 -30 37 -36 37 -22 0
35 -22 58 -123 126 -56 38 -110 78 -121 89 -25 29 -24 72 3 93 21 17 21 18
-41 51 -80 42 -168 129 -241 239 -31 47 -57 89 -57 93 0 3 10 6 23 7 14 0 3 7
-29 20 -52 20 -104 59 -104 79 0 25 62 8 124 -34 36 -24 66 -39 66 -32 0 25
-57 65 -160 114 -106 51 -148 82 -135 101 3 6 20 11 37 11 30 0 29 1 -18 26
-27 14 -64 40 -83 57 -32 31 -78 113 -68 124 3 2 40 -14 82 -36 42 -23 86 -41
97 -41 12 0 -1 11 -33 28 -30 16 -92 56 -138 91 -47 34 -97 69 -113 77 -15 8
-28 18 -28 23 0 18 14 19 42 5 17 -9 32 -13 35 -10 12 11 -20 35 -75 57 -101
40 -115 48 -102 65 10 11 28 13 80 8 48 -5 69 -3 75 6 13 21 -9 30 -116 52
-57 11 -116 27 -131 34 -49 25 -32 57 35 69 47 9 41 14 -53 45 -57 19 -85 35
-120 69 -30 30 -40 45 -30 47 8 2 49 8 90 15 l75 13 -45 7 c-105 18 -192 44
-302 87 -65 25 -118 50 -118 54 0 19 91 38 254 53 54 6 66 9 52 17 -12 7 -61
6 -149 -2 -73 -7 -148 -10 -167 -9 l-35 4 30 17 30 17 -75 1 c-86 0 -119 13
-79 29 13 5 36 12 52 15 15 4 27 11 27 17 0 7 -10 9 -27 5 -65 -15 -113 -18
-113 -7 0 6 12 13 28 17 54 12 58 14 42 24 -8 6 -45 9 -82 8 -78 -2 -109 13
-83 42 22 25 19 30 -20 30 -39 0 -46 17 -17 43 21 19 91 36 150 37 24 0 42 5
42 11 0 8 -34 9 -118 4 -132 -8 -192 3 -216 37 -18 26 -6 48 28 49 20 0 -76
32 -198 65 -33 8 -93 16 -133 16 -64 1 -73 3 -73 19 0 10 11 26 25 35 22 14
43 16 138 10 104 -6 111 -5 92 10 -17 13 -40 15 -158 9 -131 -7 -139 -6 -135
11 2 12 26 28 67 45 36 14 67 31 69 37 5 16 -13 15 -49 -4 -31 -16 -59 -13
-59 6 0 5 11 10 25 10 13 0 43 8 66 17 38 15 40 17 21 24 -14 6 -47 0 -97 -16
-147 -48 -138 -27 23 55 64 32 108 59 96 59 -11 1 -67 -22 -123 -49 -109 -53
-181 -75 -218 -65 -34 8 -28 22 18 45 53 28 46 46 -17 42 l-49 -4 25 27 c28
30 61 49 134 76 l51 19 -50 -4 c-32 -3 -85 -21 -149 -52 -101 -49 -180 -65
-242 -50 -21 6 -24 9 -14 21 7 8 31 20 54 25 22 6 50 15 61 21 16 8 15 8 -10
4 -111 -19 -412 -16 -389 4 17 15 230 71 269 71 40 1 40 1 15 15 -39 22 -106
18 -219 -15 -103 -30 -201 -39 -201 -20 0 18 59 47 121 60 32 7 59 17 59 21 0
16 -45 10 -120 -16 -76 -26 -150 -33 -150 -14 0 5 23 35 52 65 28 30 48 57 45
60 -3 4 -28 -2 -54 -11 -36 -14 -89 -19 -215 -23 -184 -4 -202 2 -121 41 25
12 48 27 50 33 2 6 -19 0 -47 -14 -55 -27 -182 -41 -305 -33 l-60 3 100 39
c115 45 187 68 253 79 l47 8 -56 1 c-62 1 -112 -12 -278 -74 -137 -51 -211
-66 -211 -41 0 18 29 36 59 36 11 0 32 5 48 11 22 8 24 12 13 19 -18 12 -54 6
-185 -28 -168 -44 -355 -33 -265 15 43 23 97 70 89 77 -3 3 -42 -12 -87 -34
-78 -37 -170 -70 -199 -70 -7 0 -13 6 -13 14 0 15 27 39 82 70 31 19 31 20 10
24 -13 2 -52 -13 -95 -36 -39 -22 -89 -44 -110 -47 -38 -7 -38 -7 -31 20 l7
27 -45 -26 c-25 -14 -57 -26 -73 -26 -27 0 -27 1 -11 18 9 11 42 31 74 47 62
30 126 74 119 82 -7 6 -81 -32 -135 -69 -64 -44 -161 -86 -217 -94 -41 -5 -48
-4 -37 7 24 26 11 28 -39 8 -29 -11 -54 -18 -56 -15 -2 2 12 17 33 33 73 57
87 70 83 81 -3 8 -21 1 -53 -20 -131 -89 -149 -98 -196 -97 l-45 0 39 32 c22
18 51 42 65 54 l26 22 -35 -9 c-19 -5 -62 -23 -95 -39 -105 -52 -137 -50 -74
3 18 16 25 26 16 26 -8 0 -35 -16 -59 -36 -56 -47 -80 -58 -113 -50 -36 9 -29
36 14 51 19 6 37 17 39 23 2 8 -9 7 -40 -3 -24 -7 -72 -23 -108 -35 -76 -24
-133 -24 -138 2 -2 12 9 25 32 39 53 31 44 40 -12 12 -26 -13 -71 -26 -99 -30
-44 -5 -53 -3 -64 15 -10 17 -17 18 -41 10 -15 -6 -47 -8 -71 -6 -53 6 -207
50 -207 60 0 4 18 19 40 33 22 14 40 29 40 33 0 4 -36 3 -80 -2 -102 -12 -175
0 -175 29 0 16 8 21 38 23 20 2 37 8 37 14 0 6 -15 8 -40 4 -22 -3 -58 -9 -79
-12 -37 -6 -39 -4 -34 15 5 20 2 21 -77 21 -83 0 -83 0 -65 20 10 11 36 25 57
32 21 6 38 15 38 20 0 16 -38 8 -103 -22 -37 -16 -78 -30 -92 -30 -37 0 -31
28 9 45 32 13 53 32 45 39 -2 2 -49 -1 -103 -6 -55 -4 -101 -6 -104 -4 -2 3
15 16 37 30 52 33 54 53 2 27 -21 -11 -60 -21 -87 -23 -75 -4 -144 1 -144 10
0 5 19 19 43 32 50 27 77 49 77 63 0 6 -8 3 -17 -6 -59 -52 -168 -80 -240 -61
-41 11 -28 43 27 67 27 11 52 27 54 34 9 21 -11 15 -89 -28 -60 -32 -81 -39
-105 -34 -17 4 -30 13 -30 21 0 14 28 29 145 80 28 12 35 18 23 21 -10 3 -60
-15 -110 -38 -105 -48 -204 -66 -192 -34 4 9 27 26 52 36 70 30 42 33 -48 5
-81 -26 -147 -32 -185 -17 -17 7 -13 12 33 35 28 14 52 33 52 41 0 13 -6 12
-38 -4 -53 -27 -117 -43 -147 -35 -38 9 -30 23 25 47 28 11 50 25 50 29 0 15
-31 8 -70 -17 -22 -14 -47 -25 -56 -25 -29 0 -8 24 50 59 31 18 55 36 52 38
-2 3 -41 -14 -87 -36 -68 -34 -92 -41 -141 -41 -72 0 -69 9 19 54 37 18 62 36
56 39 -5 4 -46 -13 -91 -36 -44 -23 -84 -38 -88 -34 -4 4 12 27 36 52 24 25
40 48 36 52 -4 4 -27 -14 -50 -40 -24 -26 -49 -47 -55 -47 -19 0 -12 26 19 65
17 21 30 45 30 53 0 23 -18 3 -56 -61 l-30 -52 -117 -3 c-74 -2 -117 1 -117 7
0 14 37 36 85 51 56 17 70 34 23 27 -39 -6 -104 -34 -150 -63 -38 -25 -47 -10
-15 24 36 37 34 44 -8 26 -36 -15 -92 -18 -120 -7 -15 5 -15 8 6 24 13 10 21
21 17 24 -8 8 -39 -8 -95 -51 -46 -35 -93 -45 -93 -20 0 18 27 46 44 46 7 0
21 10 32 22 19 21 19 21 -1 14 -55 -20 -279 -76 -284 -71 -9 10 24 36 61 47
26 8 35 15 28 22 -7 7 -21 4 -45 -7 -43 -20 -55 -21 -55 -4 0 8 -20 -5 -44
-28 -24 -24 -65 -49 -92 -59 -73 -25 -83 -21 -44 19 18 19 31 37 29 40 -3 2
-42 -18 -87 -45 -73 -44 -155 -80 -182 -80 -18 0 -10 47 12 76 26 34 17 28
-71 -50 -64 -55 -119 -86 -156 -86 -22 0 -25 3 -20 20 11 33 -12 23 -75 -35
-66 -61 -85 -68 -78 -30 3 14 2 25 -3 25 -4 0 -25 -11 -45 -25 -39 -26 -64
-32 -64 -14 0 5 15 47 34 92 78 191 50 199 -44 12 -44 -87 -75 -136 -98 -153
-18 -14 -35 -23 -37 -20 -3 3 10 39 29 80 28 63 86 226 86 244 0 3 -5 2 -10
-1 -14 -9 -59 -101 -99 -202 -31 -79 -101 -176 -115 -162 -4 4 11 77 32 163
22 85 36 154 32 151 -4 -2 -24 -48 -44 -102 -60 -155 -103 -237 -147 -282 -23
-22 -45 -41 -50 -41 -15 0 -10 32 11 79 22 47 24 69 12 89 -6 8 -18 -11 -36
-56 -29 -75 -81 -144 -127 -167 -56 -30 -53 -11 11 60 27 30 52 66 56 80 15
61 -8 38 -131 -133 -25 -34 -60 -71 -78 -82 l-32 -20 -7 23 c-17 58 -7 219 22
371 33 171 42 286 24 293 -8 3 -14 -18 -19 -59z m12703 -9403 c7 -14 12 -45
12 -68 l0 -42 -25 37 c-27 40 -34 98 -12 98 8 0 19 -11 25 -25z m-5793 -1709
l40 -13 -25 -12 c-20 -9 -39 -8 -99 7 -41 11 -68 22 -60 25 25 10 103 6 144
-7z m2855 -196 c-8 -5 -49 -10 -90 -10 -46 0 -81 -5 -88 -12 -7 -7 -12 -8 -12
-4 0 24 40 35 120 36 58 0 80 -3 70 -10z"/>
<path d="M7961 1386 c64 -59 117 -96 138 -96 25 1 25 1 6 12 -11 6 -41 28 -66
50 -26 21 -55 38 -65 38 -9 0 -15 -2 -13 -4z"/>
<path d="M11618 893 c6 -2 18 -2 25 0 6 3 1 5 -13 5 -14 0 -19 -2 -12 -5z"/>
</g>
</svg>
