<?xml version="1.0" standalone="no"?>
<!DOCTYPE svg PUBLIC "-//W3C//DTD SVG 20010904//EN"
 "http://www.w3.org/TR/2001/REC-SVG-20010904/DTD/svg10.dtd">
<svg version="1.0" xmlns="http://www.w3.org/2000/svg"
 width="1536.000000pt" height="994.000000pt" viewBox="0 0 1536.000000 994.000000"
 preserveAspectRatio="xMidYMid meet">
<metadata>
Created by potrace 1.16, written by Peter Selinger 2001-2019
</metadata>
<g transform="translate(0.000000,994.000000) scale(0.100000,-0.100000)"
fill="#000000" stroke="none">
<path d="M13285 9914 c-102 -36 -231 -64 -305 -64 -47 0 -89 -9 -150 -31 -47
-17 -152 -55 -235 -83 -82 -29 -177 -66 -210 -83 -33 -17 -99 -44 -147 -61
-110 -39 -168 -69 -243 -124 -74 -56 -128 -108 -152 -148 -12 -21 -41 -42 -83
-63 -36 -17 -93 -50 -126 -73 -66 -45 -208 -103 -314 -130 -80 -20 -91 -25
-160 -79 -30 -23 -93 -64 -140 -90 -96 -54 -110 -64 -270 -191 -63 -50 -155
-117 -204 -148 -49 -32 -114 -84 -145 -116 -34 -36 -86 -76 -131 -101 -167
-92 -238 -128 -304 -150 -88 -30 -142 -78 -205 -182 -53 -87 -153 -192 -236
-248 -27 -18 -95 -67 -150 -109 -164 -124 -304 -167 -810 -250 -137 -22 -304
-54 -370 -71 -188 -49 -228 -56 -430 -79 -282 -31 -320 -37 -558 -91 -252 -57
-360 -71 -777 -99 -429 -28 -596 -51 -740 -102 l-115 -40 -331 -18 c-374 -21
-475 -32 -589 -65 -44 -13 -136 -37 -205 -54 -98 -24 -153 -45 -255 -97 -71
-37 -187 -88 -257 -115 -159 -60 -163 -62 -218 -114 -25 -24 -96 -75 -159
-115 -62 -39 -215 -138 -340 -219 -127 -84 -289 -180 -371 -221 -169 -85 -189
-98 -375 -245 -255 -202 -389 -328 -454 -423 -33 -48 -103 -136 -156 -197
-123 -139 -175 -213 -219 -306 -31 -64 -70 -188 -91 -282 -8 -37 -33 -46 -56
-19 -9 12 -27 52 -38 89 -12 38 -43 106 -69 153 -43 77 -53 88 -105 116 -32
17 -77 49 -100 71 -23 23 -76 64 -117 92 -57 38 -86 66 -120 118 -46 69 -138
153 -167 153 -13 0 -15 -9 -10 -52 3 -29 8 -61 12 -70 11 -28 -16 -22 -64 12
-38 28 -78 84 -210 290 -40 62 -14 -6 42 -110 28 -52 59 -111 69 -130 10 -19
18 -45 18 -57 0 -20 -3 -22 -19 -13 -11 5 -31 10 -45 10 l-26 0 36 -56 36 -55
-28 3 c-48 5 -224 237 -224 295 0 12 -4 25 -10 28 -6 4 -10 -15 -10 -49 0 -47
8 -71 55 -163 30 -59 53 -108 52 -110 -2 -1 -19 9 -38 23 -19 14 -52 35 -74
46 l-40 20 31 -33 c34 -36 61 -85 75 -131 4 -15 7 -28 6 -28 -1 0 -38 13 -81
30 -44 16 -81 28 -83 26 -2 -2 27 -31 66 -65 62 -55 111 -124 98 -138 -3 -2
-45 22 -94 55 -48 32 -108 69 -133 81 l-45 23 30 -26 c17 -14 33 -25 37 -26 4
0 19 -24 34 -52 14 -29 42 -70 62 -90 l36 -38 -32 0 c-17 0 -55 9 -84 20 -70
27 -82 25 -33 -5 48 -30 40 -31 -45 -5 -93 28 -97 24 -10 -10 41 -16 83 -40
92 -52 40 -53 14 -50 -78 7 -39 25 -78 45 -85 45 -12 0 205 -142 294 -192 64
-37 41 -45 -47 -17 -39 12 -41 12 -25 -8 13 -15 8 -16 -58 -10 -40 4 -106 9
-145 12 -68 4 -65 3 45 -18 64 -12 117 -25 117 -28 0 -13 -107 -59 -137 -60
-27 0 -27 -1 -5 -9 14 -6 32 -6 49 1 16 6 43 8 61 4 28 -5 31 -9 22 -21 -7 -8
-31 -15 -54 -15 -41 -1 -41 -1 12 -10 50 -9 102 -33 102 -49 0 -4 -12 -5 -27
-3 l-28 5 31 -21 c17 -12 62 -28 100 -36 l69 -14 -130 4 c-87 3 -125 2 -115
-5 8 -5 29 -10 45 -11 l30 -1 -30 -8 c-16 -4 -50 -8 -75 -9 -35 -1 -41 -3 -31
-14 9 -9 54 -11 170 -9 172 3 252 -10 146 -22 -33 -4 -104 -18 -157 -32 -53
-13 -109 -24 -125 -25 -25 0 -26 -1 -8 -9 11 -5 64 -19 118 -31 106 -24 113
-39 18 -39 -85 0 -52 -12 74 -26 112 -13 155 -25 155 -44 0 -9 -15 -13 -122
-31 -38 -6 -68 -13 -68 -16 0 -9 159 8 198 21 43 14 92 10 92 -8 0 -25 -26
-36 -84 -37 l-61 -1 100 -25 c55 -13 103 -27 108 -32 7 -7 -142 -44 -273 -69
-28 -6 22 -7 136 -4 222 6 246 -1 156 -47 -34 -17 -71 -31 -82 -31 -11 0 -20
-5 -20 -11 0 -12 59 -8 120 6 22 6 20 2 -15 -29 -48 -43 -130 -86 -164 -86
-19 0 -22 -3 -13 -12 9 -9 31 -9 94 0 46 6 114 14 152 17 41 4 101 18 145 35
41 16 76 28 78 26 10 -10 -76 -60 -130 -76 -34 -10 -113 -46 -175 -81 -105
-60 -110 -64 -80 -67 18 -2 65 1 103 8 49 8 90 8 138 1 37 -5 85 -7 105 -5
l37 5 -25 -21 c-33 -30 -111 -68 -190 -95 l-65 -22 122 -7 c67 -3 140 -4 162
0 38 6 41 5 58 -27 10 -18 46 -63 79 -99 69 -75 86 -103 103 -175 7 -27 32
-81 55 -120 23 -38 53 -96 65 -128 26 -65 47 -83 141 -122 79 -33 95 -47 126
-107 15 -30 44 -62 77 -87 76 -58 295 -169 395 -201 48 -16 125 -45 172 -67
l85 -38 130 2 c114 1 138 4 198 27 37 14 85 26 107 26 39 0 180 -46 180 -59 0
-18 -63 -62 -141 -99 -113 -52 -187 -103 -323 -223 l-112 -98 -3 -53 c-9 -170
-4 -232 19 -271 21 -35 22 -43 12 -89 -17 -69 -15 -75 10 -42 26 34 38 44 57
44 9 0 11 -6 6 -18 -21 -52 -20 -55 13 -38 53 27 66 22 58 -24 -3 -22 -4 -40
-2 -40 2 0 14 16 26 36 26 41 34 40 21 -2 -5 -16 -12 -55 -15 -87 -6 -77 10
-71 41 14 20 54 22 58 18 24 l-6 -40 23 38 c30 51 41 47 18 -8 -10 -24 -22
-61 -25 -82 -3 -21 -8 -49 -11 -63 -4 -19 -2 -22 6 -10 5 8 10 26 10 39 0 23
65 99 76 88 3 -3 -4 -24 -16 -48 -27 -51 -29 -97 -8 -128 16 -22 16 -22 44 26
l29 48 3 -57 c3 -60 14 -72 32 -38 20 37 25 21 23 -67 -3 -82 -2 -86 11 -58 8
17 20 45 27 63 8 22 17 32 28 30 17 -4 18 -21 6 -82 -9 -44 9 -44 25 0 10 25
36 42 47 30 4 -3 -1 -22 -10 -41 -20 -42 -15 -43 25 -10 17 14 36 24 42 22 20
-6 36 -51 36 -99 0 -48 66 -326 81 -342 5 -6 18 -4 33 3 25 14 110 114 144
171 l20 31 51 -59 c30 -35 78 -74 118 -98 37 -21 95 -60 129 -86 147 -112 205
-136 363 -153 36 -3 87 -15 115 -26 28 -10 53 -19 55 -19 2 0 1 20 -2 45 l-6
44 47 -20 c57 -25 293 -79 342 -79 19 0 51 -4 69 -10 19 -5 37 -7 40 -5 9 10
-31 80 -101 177 -167 234 -228 274 -448 297 -152 17 -182 31 -278 130 -45 47
-99 110 -118 139 -65 97 -244 509 -244 562 0 34 36 57 101 64 44 4 89 18 144
45 44 22 112 47 151 57 70 17 71 17 113 -4 55 -29 162 -45 276 -40 l92 3 58
47 c49 41 64 48 102 48 24 0 61 9 82 20 21 10 71 26 109 35 61 14 79 24 133
71 73 66 85 71 169 74 117 5 125 3 194 -50 83 -64 107 -73 156 -60 31 8 50 6
116 -16 112 -37 257 -44 345 -16 58 18 87 19 299 17 218 -2 243 -4 345 -30 84
-21 142 -28 245 -32 74 -2 151 -9 170 -14 45 -14 354 -31 590 -34 137 -1 203
-6 255 -19 52 -13 141 -20 355 -26 157 -5 310 -14 340 -19 30 -5 93 -28 140
-50 47 -22 121 -50 165 -62 78 -21 81 -21 152 -4 40 9 76 14 82 11 5 -3 62
-10 127 -16 140 -12 199 -23 314 -57 119 -35 544 -195 670 -253 58 -26 126
-55 151 -64 96 -35 156 -91 134 -126 -4 -6 -30 -22 -58 -34 -29 -13 -68 -38
-87 -55 l-35 -30 80 39 c44 21 91 42 104 46 l24 6 -22 -31 c-12 -17 -75 -69
-140 -116 -103 -73 -170 -140 -156 -154 3 -2 42 32 88 76 57 55 105 91 149
112 36 17 71 31 77 31 14 0 -11 -62 -43 -104 -38 -51 -41 -60 -22 -53 13 5 11
-3 -10 -41 -15 -26 -39 -60 -53 -76 l-26 -28 35 18 c19 10 43 19 52 20 9 1 33
11 53 23 51 30 56 26 12 -10 -20 -17 -42 -40 -48 -51 -13 -24 -18 -26 94 45
43 27 80 48 82 45 8 -7 -37 -93 -63 -122 l-27 -30 28 18 c38 24 42 16 12 -24
-14 -18 -23 -36 -20 -38 7 -7 54 27 107 76 54 50 66 46 16 -5 -44 -45 -26 -55
20 -11 34 33 72 58 87 58 4 0 -12 -23 -35 -50 -24 -28 -41 -52 -39 -54 2 -2
35 14 73 35 38 22 70 38 72 36 2 -1 -17 -34 -41 -72 -24 -38 -42 -71 -40 -73
2 -2 26 9 55 23 29 14 54 24 57 22 2 -3 -5 -20 -16 -38 -31 -50 -26 -54 20
-17 39 32 41 32 55 13 19 -25 18 -50 -3 -82 l-17 -26 24 13 c14 7 38 24 54 39
25 22 28 23 21 6 -30 -78 -1 -74 45 6 19 34 46 69 61 80 l27 19 31 -29 c17
-16 51 -34 75 -40 29 -7 64 -28 98 -57 71 -64 118 -84 199 -84 55 0 77 5 123
30 31 16 72 32 91 36 20 3 37 10 40 14 3 5 -6 25 -20 46 -14 21 -24 42 -22 48
2 5 59 28 128 51 68 23 140 51 159 63 19 11 80 30 135 42 67 15 124 35 173 62
51 28 80 38 97 34 13 -3 31 -3 39 0 13 5 11 12 -13 43 l-29 36 169 2 c187 2
187 2 295 79 33 24 81 52 107 63 26 11 47 23 47 26 0 3 -24 17 -54 31 -83 39
-79 49 27 69 51 10 96 21 101 25 19 18 -45 38 -155 49 -151 15 -209 14 -278
-3 -31 -8 -84 -17 -118 -20 -73 -8 -124 -25 -294 -99 -150 -66 -225 -87 -310
-87 -96 0 -371 36 -415 55 -65 27 -161 104 -506 406 -71 61 -78 84 -44 133 57
85 59 176 5 282 -31 61 -31 61 -14 98 10 21 48 62 90 96 73 60 105 110 105
164 0 14 37 80 86 152 47 70 96 148 109 174 20 40 34 52 92 80 63 32 77 35
198 41 72 4 180 15 240 25 80 13 165 18 310 19 191 0 202 -1 244 -24 100 -53
201 -174 272 -326 22 -46 55 -102 74 -125 19 -23 44 -62 55 -88 23 -51 47 -82
64 -82 7 0 11 40 11 119 0 66 3 123 7 127 4 4 30 -14 57 -39 28 -26 66 -54 86
-64 34 -16 38 -16 110 5 41 12 82 22 91 22 9 0 38 -19 64 -42 26 -24 66 -55
89 -71 23 -15 46 -40 52 -55 5 -15 12 -33 14 -41 4 -11 8 -11 21 0 11 9 15 30
13 83 -1 39 2 94 6 122 l8 52 141 71 c173 88 196 91 309 36 67 -33 82 -36 122
-30 26 3 76 22 113 41 54 29 74 34 105 30 44 -7 46 2 12 42 -36 43 -124 99
-218 139 -45 20 -86 39 -90 43 -5 4 12 19 37 34 38 22 56 26 123 26 62 0 85 4
113 21 62 38 149 111 155 130 13 40 56 79 86 79 26 0 28 2 20 19 -12 22 -60
41 -103 41 -16 0 -51 9 -78 21 -42 18 -54 19 -82 10 -26 -9 -35 -9 -46 3 -13
12 -11 16 14 29 40 21 78 63 65 71 -19 12 -304 9 -356 -4 -27 -7 -93 -32 -145
-55 -52 -24 -138 -55 -190 -70 -52 -15 -122 -39 -154 -52 -68 -28 -76 -28
-236 14 -78 21 -155 51 -238 93 -114 57 -125 65 -143 103 -22 51 -24 101 -5
200 8 41 18 135 21 208 4 74 16 177 27 229 12 57 23 165 28 270 9 169 10 179
49 290 23 63 41 128 41 144 0 45 50 82 246 183 145 75 194 105 258 163 49 43
114 88 165 115 106 55 184 129 251 238 64 105 175 235 207 243 33 9 56 -3 141
-75 40 -33 78 -61 85 -61 21 1 -102 109 -155 136 l-50 26 28 30 c54 56 56 56
129 -33 37 -44 69 -78 72 -75 3 2 -25 42 -61 87 -36 45 -66 89 -66 97 0 25 41
82 58 82 9 0 32 -9 50 -20 18 -11 35 -20 39 -20 14 0 -30 39 -57 50 l-29 12
26 42 c14 22 27 42 28 43 5 7 183 -60 231 -88 30 -17 58 -28 61 -25 8 8 9 6
-59 45 -32 18 -95 45 -140 60 l-83 28 31 30 c29 30 32 30 101 26 42 -3 78 -1
89 5 15 9 0 11 -69 12 l-88 0 25 42 c14 24 30 44 35 46 19 6 115 -43 188 -95
41 -29 76 -53 79 -53 29 0 -125 119 -187 143 -19 8 -43 17 -54 21 -40 14 12
27 160 40 107 9 149 16 161 28 14 14 12 14 -33 3 -27 -7 -102 -16 -167 -20
l-118 -8 17 34 c42 82 83 106 196 114 94 7 167 21 218 42 55 23 27 27 -41 5
-35 -12 -94 -24 -133 -27 -38 -3 -81 -8 -95 -11 -23 -5 -24 -5 -8 13 22 24
105 201 110 232 5 38 33 49 70 28 33 -19 48 -16 29 7 -6 7 -32 17 -56 21 -45
6 -45 7 -45 46 0 38 2 41 46 60 53 24 52 37 -1 19 -37 -12 -65 -8 -65 9 0 5
38 22 85 37 47 16 85 32 85 36 0 14 -26 9 -85 -18 -122 -53 -138 -11 -38 99
82 90 120 152 178 288 25 57 60 133 79 169 19 36 39 92 46 125 6 33 24 107 40
165 35 128 44 189 36 235 -9 45 -29 45 -72 0 -32 -34 -35 -35 -111 -37 -43 0
-62 -3 -43 -5 19 -2 50 -6 68 -9 l32 -5 -35 -33 c-33 -31 -71 -104 -129 -247
-16 -39 -47 -89 -76 -121 -27 -30 -57 -74 -66 -98 -15 -37 -25 -46 -80 -71
-35 -16 -73 -29 -84 -29 -23 0 -40 34 -40 78 0 26 2 27 40 24 24 -3 40 0 40 6
0 6 -19 12 -42 14 -39 3 -43 6 -46 31 -3 26 -2 27 50 27 29 0 60 5 68 11 11 7
-1 8 -41 3 -46 -5 -59 -3 -74 13 -18 17 -17 18 61 26 43 4 102 8 129 9 l50 1
-41 12 c-70 22 -87 34 -73 51 11 13 9 14 -14 3 -52 -23 -130 15 -151 75 -6 17
-2 18 46 12 29 -4 64 -10 78 -13 18 -4 22 -2 15 6 -6 6 -39 15 -73 19 -60 8
-110 32 -68 32 14 0 12 6 -13 29 -17 16 -31 34 -31 40 0 8 48 11 152 11 83 0
148 3 145 6 -4 4 -44 7 -89 6 l-83 -1 75 14 c41 7 91 18 110 24 l35 11 -40 -6
c-73 -10 -257 -16 -291 -9 -36 6 -47 24 -16 26 11 1 8 4 -8 8 -14 4 -27 15
-28 25 -4 17 0 18 34 12 22 -4 136 -9 254 -11 l215 -3 -145 19 c-147 18 -262
39 -335 61 l-40 11 55 17 55 18 -57 -6 c-57 -5 -58 -5 -58 22 0 41 33 51 116
33 l69 -14 -35 -17 -35 -17 35 8 c19 4 64 8 100 7 39 0 55 2 40 6 -14 4 -24
11 -23 17 1 6 -32 12 -83 15 -102 5 -133 24 -53 32 30 3 102 8 161 11 58 3
130 13 160 22 59 18 42 31 -19 13 -21 -6 -110 -17 -198 -25 -88 -8 -177 -17
-197 -21 -33 -6 -38 -4 -38 13 0 19 9 20 143 26 150 6 259 23 236 37 -7 5 -16
7 -20 5 -17 -11 -251 -32 -302 -28 -54 5 -58 7 -53 27 3 11 6 24 6 29 0 4 26
8 58 8 l57 1 -48 8 c-61 11 -77 24 -77 66 0 32 2 34 33 33 l32 -1 -30 -8 c-22
-6 -14 -8 35 -7 36 1 81 -2 100 -7 34 -8 34 -7 15 9 -19 15 -11 16 134 11 98
-3 150 -1 144 5 -5 5 -105 11 -226 12 -159 2 -220 6 -229 15 -10 10 -2 13 42
12 171 -1 474 9 530 19 36 6 91 11 123 11 31 0 57 4 57 8 0 5 -51 16 -112 26
-105 16 -272 68 -284 88 -3 4 6 12 20 18 14 5 26 14 26 20 0 6 -18 1 -41 -10
-38 -20 -44 -20 -92 -7 -57 16 -179 31 -137 17 21 -7 17 -8 -21 -9 -66 -1
-109 9 -109 26 0 10 7 12 23 8 l22 -7 -22 17 c-17 12 -23 26 -23 56 0 21 4 39
8 39 5 0 35 -5 67 -11 38 -7 60 -7 64 -1 6 10 192 -6 506 -43 159 -18 193 -19
178 -4 -7 7 -49 15 -95 19 -139 13 -508 50 -595 59 -85 9 -150 36 -122 51 32
17 214 30 274 20 93 -15 99 -10 10 10 l-80 18 83 1 c54 1 81 5 77 11 -8 12
-179 5 -240 -10 -87 -21 -165 -4 -165 36 0 13 8 14 40 9 26 -4 40 -3 40 4 0 6
-15 11 -32 11 -44 0 -60 12 -56 41 2 17 9 23 23 21 11 -1 85 -7 165 -12 80 -6
204 -17 275 -25 72 -8 164 -15 205 -15 103 0 241 17 254 31 8 9 7 10 -6 6 -46
-16 -289 -18 -421 -3 -77 9 -189 16 -250 17 -62 0 -141 6 -177 14 l-65 13 95
3 c88 2 91 3 35 8 l-60 6 90 24 c50 13 128 29 175 36 77 12 80 13 34 14 -28 1
-75 -4 -104 -9 -29 -6 -55 -8 -57 -6 -2 2 17 16 42 30 38 23 58 46 40 46 -14
0 -83 -40 -95 -55 -24 -29 -61 -36 -142 -29 -82 7 -100 21 -50 41 l27 11 -29
1 c-55 2 -15 16 62 22 l77 6 -82 1 c-102 2 -108 17 -22 51 54 21 66 22 101 11
39 -11 42 -10 72 18 17 16 39 32 49 35 35 13 197 37 372 57 249 28 327 39 334
46 12 14 -192 -7 -408 -41 -123 -19 -230 -35 -236 -35 -8 0 -11 8 -8 21 4 15
0 27 -12 35 -10 8 -17 15 -14 17 2 2 58 15 124 28 66 13 108 25 94 27 -14 2
-71 -6 -126 -17 -107 -22 -170 -27 -143 -12 8 5 78 23 155 41 77 17 142 34
144 36 12 11 -58 0 -189 -30 l-145 -33 -40 23 c-22 13 -41 27 -42 31 -2 4 43
25 100 47 56 21 134 54 174 72 40 19 80 34 88 34 19 0 59 -20 137 -67 31 -19
65 -33 75 -31 11 3 -21 24 -91 59 l-109 56 69 38 c47 27 63 40 51 43 -10 2
-46 -15 -79 -37 -34 -23 -67 -41 -75 -41 -8 0 -64 9 -126 20 -62 10 -130 21
-152 22 l-40 3 90 43 c216 103 525 202 683 218 65 7 80 19 36 30 -49 12 -261
-25 -441 -77 -129 -37 -350 -118 -449 -164 -68 -31 -164 -49 -139 -26 18 16
389 158 460 176 85 22 111 40 43 31 -26 -4 -159 -51 -296 -105 -244 -97 -249
-99 -327 -97 -111 2 -111 16 2 93 95 65 270 156 508 264 82 38 151 73 153 78
4 11 -38 -7 -346 -153 -204 -96 -319 -158 -380 -204 -18 -14 -34 -23 -36 -21
-2 2 -9 22 -15 43 -9 36 -8 44 20 93 17 29 27 53 22 53 -5 0 -17 -15 -27 -34
-10 -19 -25 -37 -32 -40 -19 -7 -73 59 -189 235 -138 208 -206 269 -342 304
-84 22 -157 19 -238 -11z m1898 -471 c-7 -2 -19 -2 -25 0 -7 3 -2 5 12 5 14 0
19 -2 13 -5z m-46 -9 c-3 -3 -12 -4 -19 -1 -8 3 -5 6 6 6 11 1 17 -2 13 -5z
m-112 -29 c-22 -7 -91 -29 -153 -49 -62 -19 -172 -65 -245 -101 -110 -54 -141
-65 -182 -65 l-50 0 24 19 c40 30 581 210 631 210 8 0 -3 -7 -25 -14z m-795
-210 c0 -5 -68 -35 -81 -35 -5 0 -13 9 -19 20 -10 19 -8 20 45 20 30 0 55 -2
55 -5z m92 -23 c-2 -10 3 -10 17 -2 24 12 91 13 110 1 30 -19 -99 -91 -165
-91 -32 0 -36 3 -31 21 4 16 3 18 -8 9 -17 -14 -47 -6 -69 19 -16 17 -13 19
46 39 67 23 105 24 100 4z m336 -16 c37 -8 89 -18 117 -21 l50 -7 -30 -16
c-17 -8 -74 -32 -127 -53 -53 -21 -115 -47 -137 -58 -22 -12 -49 -21 -59 -21
-22 0 -162 68 -162 78 1 4 26 19 58 35 31 15 72 38 91 52 40 30 96 33 199 11z
m-267 -387 c33 -12 59 -25 59 -30 0 -13 -87 -41 -109 -34 -22 7 -37 45 -27 70
7 19 8 19 77 -6z m84 -224 c-40 -19 -80 -18 -95 0 -11 13 -4 15 56 14 67 -1
68 -1 39 -14z m-22 -212 c-7 -2 -19 -2 -25 0 -7 3 -2 5 12 5 14 0 19 -2 13 -5z
m76 -89 c9 -8 -55 -2 -74 6 -13 6 -5 7 25 3 25 -3 47 -7 49 -9z m81 -159 c40
6 90 -5 90 -20 0 -19 -55 -25 -135 -15 -134 18 -145 20 -145 33 0 10 18 11 78
5 42 -4 93 -6 112 -3z m14 -55 c29 -10 -88 -40 -157 -40 -60 0 -61 1 -51 38 7
23 8 23 98 16 50 -4 100 -10 110 -14z m206 0 c35 -15 40 -19 21 -19 -51 -2 -9
-13 78 -21 50 -5 96 -12 103 -16 25 -16 -142 -34 -322 -34 -102 -1 -210 -2
-240 -3 -49 -2 -55 0 -55 18 0 18 9 21 80 26 44 3 100 14 124 23 24 9 69 17
100 17 31 1 47 3 36 6 -11 3 -24 9 -29 14 -18 16 58 8 104 -11z m-285 -545
c44 -8 103 -19 130 -24 l50 -9 -50 -1 c-27 0 -93 6 -145 14 -52 8 -98 15 -102
15 -5 0 -8 7 -8 16 0 12 6 15 23 10 12 -3 58 -13 102 -21z m4 -121 c2 -2 -17
-4 -42 -4 -26 0 -47 4 -47 9 0 8 79 3 89 -5z m41 -256 c0 -5 -13 -8 -30 -8
-25 0 -30 4 -30 25 0 24 0 24 30 7 16 -9 30 -20 30 -24z m100 -28 c0 -6 -26
-10 -59 -10 -33 0 -66 -3 -75 -6 -11 -4 -16 -1 -16 10 0 13 13 16 75 16 43 0
75 -4 75 -10z"/>
<path d="M14788 8013 c6 -2 18 -2 25 0 6 3 1 5 -13 5 -14 0 -19 -2 -12 -5z"/>
<path d="M14668 7833 c7 -3 16 -2 19 1 4 3 -2 6 -13 5 -11 0 -14 -3 -6 -6z"/>
<path d="M14708 7823 c6 -2 18 -2 25 0 6 3 1 5 -13 5 -14 0 -19 -2 -12 -5z"/>
<path d="M14508 7423 c12 -2 30 -2 40 0 9 3 -1 5 -23 4 -22 0 -30 -2 -17 -4z"/>
<path d="M14865 7284 c-22 -8 -74 -21 -115 -29 -47 -8 -63 -14 -41 -14 42 -1
209 37 217 50 7 13 -14 10 -61 -7z"/>
<path d="M71 4574 c21 -22 139 -91 139 -81 0 2 -26 20 -59 40 -32 20 -64 43
-71 52 -7 8 -17 15 -23 15 -6 0 0 -12 14 -26z"/>
</g>
</svg>
