<?xml version="1.0" standalone="no"?>
<!DOCTYPE svg PUBLIC "-//W3C//DTD SVG 20010904//EN"
 "http://www.w3.org/TR/2001/REC-SVG-20010904/DTD/svg10.dtd">
<svg version="1.0" xmlns="http://www.w3.org/2000/svg"
 width="1701.000000pt" height="582.000000pt" viewBox="0 0 1701.000000 582.000000"
 preserveAspectRatio="xMidYMid meet">
<metadata>
Created by potrace 1.16, written by Peter Selinger 2001-2019
</metadata>
<g transform="translate(0.000000,582.000000) scale(0.100000,-0.100000)"
fill="#000000" stroke="none">
<path d="M8930 5799 c-25 -4 -108 -13 -185 -19 -147 -11 -359 -51 -535 -100
-58 -16 -151 -39 -208 -50 -56 -11 -150 -36 -210 -54 -243 -77 -314 -97 -428
-120 -228 -47 -350 -76 -479 -115 -248 -75 -779 -183 -1120 -226 -71 -10 -175
-28 -231 -41 -55 -13 -136 -29 -180 -35 -43 -6 -128 -21 -189 -34 -60 -13
-137 -26 -170 -30 -33 -4 -113 -18 -177 -31 -77 -16 -150 -24 -215 -24 -100 0
-230 -14 -456 -51 -88 -15 -149 -19 -195 -15 -37 3 -137 10 -222 15 -85 6
-175 15 -200 21 -29 8 -85 10 -158 6 -95 -5 -122 -3 -170 13 -63 20 -324 153
-409 207 -29 19 -117 65 -196 103 -78 38 -186 96 -241 129 -54 34 -112 64
-128 67 -16 4 -50 30 -80 61 -68 72 -142 108 -207 102 -57 -6 -258 -103 -306
-148 l-30 -29 -80 12 c-46 7 -189 12 -335 12 -244 0 -260 -1 -375 -28 -66 -16
-141 -36 -166 -46 l-46 -18 -28 56 c-55 108 -204 211 -340 234 -81 14 -114 4
-137 -43 -32 -65 -67 -195 -73 -275 -8 -95 10 -375 30 -461 8 -34 19 -124 24
-200 11 -142 40 -325 61 -379 20 -50 37 -179 28 -211 -4 -16 -15 -71 -24 -122
-18 -102 -15 -123 30 -294 23 -87 24 -108 17 -186 -4 -49 -15 -102 -23 -118
-9 -16 -25 -47 -37 -69 -44 -82 -21 -134 84 -186 35 -17 67 -40 70 -50 6 -19
111 -85 183 -116 40 -18 105 -29 218 -39 58 -5 95 -1 190 20 185 42 201 47
259 82 51 30 64 33 197 44 175 14 196 10 348 -70 406 -212 780 -392 870 -416
52 -15 120 -39 150 -55 88 -46 319 -145 395 -169 39 -13 93 -34 120 -48 28
-14 111 -47 185 -72 l135 -46 7 -90 c16 -199 23 -251 40 -276 15 -23 16 -39 8
-128 -9 -110 -7 -125 18 -135 23 -9 42 21 42 67 0 21 4 38 9 38 14 0 3 -63
-26 -153 -22 -69 -23 -80 -10 -95 32 -37 29 -80 -9 -153 -25 -47 -34 -74 -29
-86 5 -10 7 -23 7 -29 -3 -18 57 -3 63 16 3 10 12 24 21 31 12 10 13 9 7 -7
-14 -39 -101 -127 -193 -196 -52 -39 -115 -90 -140 -114 -25 -23 -78 -61 -118
-84 -40 -22 -94 -57 -120 -77 -26 -20 -83 -59 -127 -88 -89 -58 -159 -126
-202 -196 -15 -26 -42 -67 -60 -91 -17 -24 -35 -61 -38 -81 -7 -34 -4 -41 30
-73 44 -41 96 -69 147 -78 21 -4 63 -18 94 -33 l57 -26 166 42 c91 23 182 41
201 41 104 0 375 101 430 160 31 33 131 74 217 88 112 19 134 34 341 239 68
68 127 123 130 123 12 0 34 41 63 115 25 64 30 70 60 75 25 4 39 16 65 55 18
28 45 65 60 83 34 42 70 133 79 199 8 62 25 81 25 28 0 -39 9 -46 62 -49 31
-1 32 0 44 59 7 33 23 125 34 205 12 80 27 169 34 199 l12 53 41 -53 c69 -92
77 -108 113 -238 28 -99 39 -127 54 -129 22 -5 36 13 36 46 0 41 17 14 23 -36
3 -27 18 -87 34 -133 23 -70 32 -85 51 -87 13 -2 29 1 36 7 11 9 16 1 26 -36
22 -78 19 -122 -11 -145 -29 -22 -250 -104 -419 -155 -63 -19 -135 -47 -160
-63 -49 -31 -130 -113 -130 -131 0 -24 22 -48 53 -58 19 -7 48 -31 72 -61 41
-51 75 -70 130 -70 18 0 85 -14 149 -30 171 -44 265 -48 398 -16 62 15 151 28
215 32 130 7 206 20 254 45 20 10 66 25 103 33 36 9 83 24 104 35 51 27 121
101 186 199 61 92 73 133 85 282 l7 95 12 -56 c7 -31 19 -65 27 -75 12 -17 15
-17 29 -4 14 14 14 27 -8 132 -13 64 -30 126 -36 138 -12 23 -44 239 -36 247
2 2 9 -11 16 -31 13 -41 32 -59 54 -50 23 9 21 71 -5 140 -15 40 -18 59 -10
67 6 6 8 32 4 68 -4 41 -2 63 7 74 20 24 5 100 -56 281 -30 90 -54 181 -54
204 0 47 -10 45 180 41 101 -3 152 2 265 23 77 15 167 35 200 46 155 49 476
76 880 73 498 -4 608 -22 934 -159 177 -74 202 -87 281 -140 41 -28 97 -63
123 -79 78 -45 269 -234 305 -302 43 -81 84 -208 76 -237 -6 -25 -70 -63 -146
-86 -21 -6 -59 -29 -85 -51 l-48 -39 -206 0 c-252 0 -350 -16 -479 -79 -134
-66 -230 -175 -230 -261 0 -67 55 -141 129 -173 58 -25 122 -41 203 -52 28 -4
60 -16 75 -29 41 -34 82 -53 133 -61 65 -9 110 -25 153 -52 20 -13 59 -26 85
-29 67 -9 211 -50 322 -92 93 -35 98 -35 222 -33 110 2 136 6 190 28 100 40
147 66 243 135 50 36 122 82 160 103 39 21 95 58 125 81 30 24 91 70 135 103
186 138 381 304 399 339 16 30 20 64 24 175 l5 137 48 -45 c78 -73 198 -146
234 -143 22 2 31 9 33 26 3 18 -4 26 -32 37 -20 9 -36 18 -36 21 0 17 73 -9
145 -50 127 -74 205 -85 205 -30 0 21 -10 30 -67 57 -62 29 -65 32 -39 35 20
2 58 -11 120 -42 130 -66 216 -72 216 -17 0 13 10 17 43 17 23 0 112 5 197 12
183 15 208 10 234 -41 23 -49 17 -86 -35 -183 -21 -41 -39 -86 -39 -100 0 -29
25 -42 51 -25 22 13 22 11 9 -24 -23 -60 -63 -94 -162 -136 -69 -30 -109 -54
-137 -83 -22 -23 -75 -77 -118 -121 -99 -103 -148 -193 -141 -260 7 -58 30
-92 76 -111 46 -20 68 -32 127 -68 45 -28 48 -29 101 -16 44 11 70 11 133 1
69 -10 97 -9 221 9 136 20 224 46 325 98 57 29 274 114 376 146 95 30 130 57
175 133 27 47 53 136 54 188 0 22 3 26 12 17 18 -18 46 -14 53 6 3 11 -4 48
-15 83 -15 44 -24 110 -30 209 -12 204 -12 206 2 192 20 -20 58 -15 58 8 0 34
-46 163 -88 246 -32 61 -72 194 -72 234 0 3 11 -8 23 -24 26 -32 57 -31 57 1
0 55 -105 274 -164 344 -15 17 -36 50 -48 73 -11 22 -55 75 -97 116 -64 64
-89 81 -156 108 -44 18 -100 46 -125 63 -62 42 -78 47 -189 64 -205 32 -245
42 -337 89 -143 71 -234 154 -309 281 -25 42 -69 254 -63 303 3 25 4 25 31
-15 36 -52 318 -318 377 -355 25 -16 80 -40 123 -53 54 -17 94 -38 125 -65 26
-21 63 -46 83 -54 32 -13 38 -13 58 0 20 15 25 13 71 -16 28 -18 57 -30 66
-26 18 7 136 -25 185 -49 19 -10 101 -60 182 -112 120 -78 152 -94 173 -89 27
7 67 -12 176 -86 64 -43 100 -48 122 -17 11 16 20 19 38 14 41 -12 145 -72
220 -128 138 -101 177 -116 198 -78 14 27 14 27 -30 75 l-40 44 26 6 c20 5 39
0 76 -23 52 -33 84 -39 90 -19 5 14 54 1 201 -52 84 -30 90 -31 114 -15 18 12
23 23 19 38 -3 13 21 -5 67 -50 67 -65 190 -153 215 -153 6 0 17 9 25 21 14
20 16 19 92 -25 78 -47 103 -54 121 -36 6 6 22 1 46 -15 38 -26 63 -31 72 -16
3 5 43 -9 87 -32 62 -30 86 -38 98 -30 12 8 24 3 54 -23 43 -39 76 -44 84 -13
6 22 4 21 82 2 16 -4 27 -1 33 11 8 15 17 11 63 -33 30 -28 59 -51 64 -51 18
0 12 24 -14 60 -37 50 -11 50 37 0 51 -53 76 -63 107 -43 22 14 25 13 65 -25
59 -58 105 -83 128 -71 25 13 23 28 -9 62 l-28 30 28 -18 c17 -11 37 -15 55
-12 17 4 54 -4 100 -20 66 -24 75 -25 89 -11 14 14 20 14 69 -3 68 -24 81 -24
96 1 7 11 21 20 31 20 10 0 20 6 23 14 4 11 13 9 44 -8 33 -18 43 -19 60 -8
11 6 28 12 39 12 24 0 45 25 38 45 -8 19 9 28 49 27 22 -1 38 5 47 18 7 10 22
18 32 17 16 -2 21 5 23 38 4 49 19 70 38 54 19 -16 44 -4 44 21 0 11 -7 37
-16 58 -9 20 -16 50 -15 65 3 50 -57 121 -155 184 -18 11 -18 12 2 12 12 1 25
9 29 18 6 17 -31 57 -152 161 -34 29 -36 33 -20 43 9 5 17 21 17 34 0 27 -46
63 -147 114 -35 17 -63 36 -63 41 0 6 -16 18 -34 27 -24 11 -36 24 -38 41 -2
19 -14 28 -53 43 -27 10 -60 19 -72 19 -41 0 -104 32 -114 57 -5 15 -20 26
-39 29 -16 4 -30 13 -30 20 0 7 -28 33 -63 56 -43 29 -62 48 -59 60 5 24 -66
58 -122 58 -66 0 -75 6 -69 45 5 31 2 35 -33 53 -72 37 -324 111 -411 122 -96
12 -118 20 -56 20 81 0 124 30 103 71 -8 14 -21 19 -53 19 -23 0 -88 9 -145
20 -120 23 -253 26 -309 6 -30 -10 -59 -12 -122 -6 -141 15 -183 26 -179 48 4
22 -33 39 -117 52 -125 21 -147 28 -140 51 8 26 -9 46 -45 54 -16 3 -31 12
-33 19 -3 7 -30 16 -64 19 -32 3 -87 18 -123 33 -40 16 -92 29 -135 32 -38 2
-82 11 -97 18 l-27 14 25 25 c23 24 24 28 12 47 -18 26 -109 59 -157 56 -79
-4 -121 2 -121 17 0 9 -11 20 -24 25 -18 7 -23 14 -19 30 7 27 -26 63 -94 102
-33 19 -53 37 -53 48 0 24 -18 37 -82 59 -82 28 -128 54 -141 80 -9 18 -41 34
-136 67 -68 23 -127 46 -130 51 -6 9 -55 39 -177 112 -40 23 -74 50 -77 60 -2
10 -41 39 -87 65 -197 114 -367 231 -494 339 -75 64 -103 81 -158 98 -53 16
-81 33 -135 81 -113 101 -313 245 -405 293 -114 59 -195 90 -321 119 -56 14
-124 34 -152 46 -27 12 -123 37 -212 55 -88 19 -199 45 -245 59 -101 32 -511
104 -663 117 -60 5 -148 14 -195 19 -101 12 -556 11 -620 -1z"/>
</g>
</svg>
