<?xml version="1.0" standalone="no"?>
<!DOCTYPE svg PUBLIC "-//W3C//DTD SVG 20010904//EN"
 "http://www.w3.org/TR/2001/REC-SVG-20010904/DTD/svg10.dtd">
<svg version="1.0" xmlns="http://www.w3.org/2000/svg"
 width="1536.000000pt" height="980.000000pt" viewBox="0 0 1536.000000 980.000000"
 preserveAspectRatio="xMidYMid meet">
<metadata>
Created by potrace 1.16, written by Peter Selinger 2001-2019
</metadata>
<g transform="translate(0.000000,980.000000) scale(0.100000,-0.100000)"
fill="#000000" stroke="none">
<path d="M9535 9789 c-60 -5 -234 -25 -385 -44 -151 -19 -324 -39 -385 -45
-60 -6 -188 -24 -283 -40 -150 -26 -199 -30 -360 -30 -383 0 -721 -75 -1132
-250 -176 -75 -393 -150 -532 -184 -160 -39 -303 -54 -558 -60 -271 -7 -439
-23 -734 -71 -252 -41 -289 -51 -386 -110 -41 -25 -93 -51 -115 -57 -49 -14
-225 -13 -320 1 -226 34 -809 -21 -1190 -114 -100 -24 -233 -53 -294 -65 -128
-24 -132 -25 -261 -97 -110 -61 -220 -93 -408 -117 -209 -27 -369 -18 -454 25
-31 16 -45 35 -88 123 -60 123 -81 141 -160 140 -172 -2 -330 -214 -330 -442
0 -100 42 -236 83 -271 13 -10 10 -22 -25 -84 -100 -176 -212 -315 -357 -442
-117 -101 -224 -213 -246 -256 -43 -81 -48 -113 -54 -314 -7 -198 -7 -201 -40
-278 -53 -125 -193 -325 -330 -470 -156 -166 -186 -223 -186 -348 0 -81 2 -91
43 -172 81 -163 271 -327 382 -327 19 0 40 -4 47 -8 24 -16 53 -101 63 -190
12 -109 20 -133 55 -160 37 -29 93 -35 218 -22 122 12 182 32 332 108 185 94
240 100 385 44 103 -41 169 -46 330 -27 74 8 180 20 236 25 56 6 157 25 225
44 68 18 140 37 159 42 19 5 141 9 270 9 129 0 330 4 446 9 l210 9 13 -30 c7
-16 35 -52 62 -79 79 -78 93 -151 64 -334 -20 -121 -57 -229 -150 -434 -41
-90 -88 -204 -104 -253 -40 -118 -104 -483 -136 -768 -29 -262 -45 -359 -80
-480 -48 -164 -86 -232 -240 -425 -110 -138 -180 -242 -310 -460 -54 -91 -144
-235 -199 -320 -55 -85 -158 -252 -229 -370 -155 -259 -240 -380 -344 -490
-167 -177 -296 -248 -563 -310 -307 -71 -476 -132 -554 -201 -71 -62 -78 -118
-24 -183 106 -129 338 -159 846 -112 260 25 315 27 680 24 360 -2 402 -1 456
15 124 38 230 107 426 277 162 141 221 186 335 253 126 74 187 118 375 267 74
59 250 183 390 275 319 210 494 340 628 469 197 189 265 292 433 656 60 129
144 295 188 370 43 74 102 180 132 235 58 109 139 205 173 205 13 0 28 -11 38
-28 34 -58 151 -161 312 -276 96 -69 194 -148 230 -187 115 -121 193 -284 201
-419 2 -36 9 -89 15 -119 18 -93 110 -239 233 -370 93 -99 152 -187 203 -302
111 -252 123 -410 38 -490 -24 -22 -36 -24 -167 -30 -137 -6 -145 -8 -237 -47
-81 -34 -116 -43 -222 -56 -173 -20 -228 -49 -228 -122 0 -77 287 -260 481
-308 101 -25 252 -36 354 -26 111 10 152 21 247 64 153 69 154 70 468 70 277
1 287 2 345 25 114 46 222 180 261 322 27 101 37 377 24 723 -6 177 -15 458
-20 626 -8 308 -12 340 -59 522 -11 43 -25 143 -31 223 -13 173 -32 243 -96
345 -66 106 -94 169 -94 212 0 36 0 37 48 43 67 8 248 41 378 70 244 52 402
56 711 16 211 -28 808 -62 1043 -60 117 1 133 -1 250 -36 113 -34 139 -38 270
-42 85 -3 190 0 255 8 156 17 198 15 261 -16 66 -32 117 -96 170 -209 48 -104
60 -171 78 -431 37 -537 52 -1281 27 -1425 -37 -219 -91 -341 -201 -451 -106
-108 -166 -134 -356 -159 -164 -22 -225 -44 -255 -94 -40 -66 -18 -131 62
-182 86 -54 334 -114 472 -114 26 0 93 -9 149 -20 123 -24 168 -25 168 -6 0
10 25 17 83 25 45 7 213 34 372 61 160 27 358 54 440 60 318 23 398 47 508
149 106 99 175 224 187 340 4 42 16 114 25 161 18 94 16 201 -10 415 -19 155
-19 304 0 383 8 35 42 132 74 215 33 84 65 180 72 214 11 54 17 64 40 72 40
14 60 5 100 -48 27 -35 58 -59 120 -91 46 -24 156 -86 244 -138 191 -114 267
-150 400 -191 122 -37 181 -73 223 -136 51 -77 67 -137 67 -250 l0 -100 -58
-114 c-67 -134 -71 -161 -24 -178 17 -6 52 -19 77 -29 34 -13 73 -18 160 -18
132 0 186 15 263 72 l49 35 128 2 c205 4 217 16 297 305 25 94 23 344 -5 555
-12 88 -26 234 -32 325 -18 278 -46 413 -111 542 -47 93 -100 138 -248 212
-150 75 -184 103 -245 194 -78 118 -130 260 -167 455 -42 225 -34 728 17 974
8 39 39 139 69 222 66 182 78 231 106 437 18 128 22 211 22 424 1 395 -15 491
-143 855 -23 66 -59 200 -80 297 -71 327 -122 455 -234 593 -36 44 -117 148
-179 230 -63 83 -192 232 -286 332 -94 100 -221 241 -283 313 -121 145 -178
194 -306 267 -46 26 -234 147 -416 268 -182 122 -381 248 -442 282 -61 34
-156 98 -213 142 -129 101 -174 122 -379 176 -185 48 -202 54 -284 95 -31 16
-90 39 -130 52 -68 21 -86 23 -263 18 -287 -6 -834 -6 -1165 2 -165 4 -343 3
-405 -3z"/>
</g>
</svg>
