<?xml version="1.0" standalone="no"?>
<!DOCTYPE svg PUBLIC "-//W3C//DTD SVG 20010904//EN"
 "http://www.w3.org/TR/2001/REC-SVG-20010904/DTD/svg10.dtd">
<svg version="1.0" xmlns="http://www.w3.org/2000/svg"
 width="1088.000000pt" height="1536.000000pt" viewBox="0 0 1088.000000 1536.000000"
 preserveAspectRatio="xMidYMid meet">
<metadata>
Created by potrace 1.16, written by Peter Selinger 2001-2019
</metadata>
<g transform="translate(0.000000,1536.000000) scale(0.100000,-0.100000)"
fill="#000000" stroke="none">
<path d="M5200 15342 c-123 -41 -215 -104 -330 -224 l-65 -67 -160 -57 c-328
-115 -392 -170 -620 -533 -53 -85 -109 -180 -125 -210 -114 -227 -210 -733
-300 -1580 -33 -313 -38 -329 -107 -368 -58 -32 -97 -36 -198 -22 -73 10 -108
10 -165 0 -104 -17 -216 -63 -261 -107 -37 -36 -42 -38 -100 -36 -78 2 -136
-13 -324 -84 -83 -31 -213 -77 -290 -102 -318 -103 -742 -369 -950 -595 -113
-123 -247 -312 -674 -952 -427 -640 -521 -793 -528 -859 -11 -90 41 -242 177
-521 75 -154 96 -188 146 -239 80 -81 187 -165 325 -256 92 -61 128 -79 177
-89 107 -21 261 -30 500 -31 218 0 233 -1 228 -17 -15 -50 -230 -962 -247
-1048 -26 -133 -35 -403 -20 -560 60 -596 344 -1217 750 -1638 79 -82 200
-183 309 -257 178 -121 283 -271 336 -482 71 -278 59 -564 -43 -1078 -27 -135
-52 -264 -55 -288 -19 -135 -257 -744 -439 -1124 -74 -156 -148 -253 -276
-365 -112 -98 -174 -140 -311 -209 -85 -43 -128 -72 -176 -119 -57 -56 -64
-67 -64 -101 0 -86 79 -193 172 -234 87 -38 126 -37 220 6 46 21 112 55 148
76 35 20 67 35 69 32 8 -8 -81 -94 -237 -226 -85 -71 -162 -144 -173 -162 -15
-24 -19 -44 -17 -86 4 -59 28 -107 113 -229 25 -35 49 -77 53 -95 16 -59 82
-89 245 -108 143 -16 257 0 402 56 154 61 185 77 256 141 34 31 114 88 176
127 234 146 260 192 312 543 12 80 58 225 138 435 115 299 197 447 539 960
186 280 202 299 307 360 l37 22 0 -41 c0 -23 -9 -70 -21 -104 -26 -76 -22
-140 14 -247 38 -112 119 -295 166 -375 38 -65 41 -75 41 -146 0 -91 12 -85
-185 -95 -137 -6 -217 -24 -306 -70 -64 -32 -119 -81 -135 -121 -18 -43 -18
-44 11 -37 20 5 28 0 44 -27 11 -18 23 -52 27 -76 3 -23 14 -49 24 -58 9 -8
55 -24 101 -33 76 -17 81 -19 50 -25 -21 -4 -51 -24 -80 -53 -27 -27 -64 -52
-91 -61 -64 -22 -117 -61 -193 -143 -85 -91 -229 -305 -225 -333 2 -16 16 -24
68 -37 36 -9 81 -26 100 -38 45 -28 111 -29 211 -2 41 11 86 20 101 20 40 0
86 -44 100 -97 13 -55 14 -56 249 -118 96 -26 244 -66 330 -91 300 -84 644
-147 1194 -218 655 -85 1446 -135 1673 -107 275 34 340 157 185 349 -20 24
-33 45 -30 48 2 3 25 -13 50 -35 41 -35 55 -40 114 -47 141 -15 558 9 1088 61
509 51 1274 140 1323 154 46 14 136 65 202 116 73 57 218 205 275 280 76 101
82 176 25 324 l-30 78 -55 12 c-30 7 -64 20 -77 30 -25 21 -21 33 26 98 87
119 267 924 351 1566 61 477 80 745 80 1187 0 472 -14 625 -101 1105 -183
1013 -353 1422 -903 2165 -196 266 -651 823 -939 1151 -722 821 -1613 1201
-2522 1074 -190 -27 -317 -60 -500 -130 -205 -79 -498 -83 -717 -9 -116 38
-188 43 -282 20 -31 -8 -69 -15 -86 -16 -70 -4 -69 -6 -100 88 -53 164 -52
189 25 426 99 308 123 431 123 641 0 167 -15 271 -68 481 -40 158 -86 275
-176 456 -38 76 -69 150 -69 166 0 91 305 485 664 856 95 98 124 157 217 436
85 255 143 469 170 625 11 66 58 314 105 550 95 482 134 703 134 756 0 137
-97 218 -309 259 -154 30 -274 34 -341 12z"/>
</g>
</svg>
