<?xml version="1.0" standalone="no"?>
<!DOCTYPE svg PUBLIC "-//W3C//DTD SVG 20010904//EN"
 "http://www.w3.org/TR/2001/REC-SVG-20010904/DTD/svg10.dtd">
<svg version="1.0" xmlns="http://www.w3.org/2000/svg"
 width="1536.000000pt" height="1409.000000pt" viewBox="0 0 1536.000000 1409.000000"
 preserveAspectRatio="xMidYMid meet">
<metadata>
Created by potrace 1.16, written by Peter Selinger 2001-2019
</metadata>
<g transform="translate(0.000000,1409.000000) scale(0.100000,-0.100000)"
fill="#000000" stroke="none">
<path d="M449 14044 c-79 -147 -82 -308 -15 -721 39 -238 53 -373 40 -396 -8
-13 -19 -8 -69 30 -33 25 -100 65 -150 90 l-89 43 -53 -52 c-71 -70 -108 -167
-108 -283 0 -121 28 -178 172 -343 142 -163 190 -241 236 -387 51 -163 66
-307 88 -862 14 -356 11 -421 -36 -664 -56 -291 -67 -366 -67 -494 0 -253 62
-410 344 -877 82 -136 166 -284 188 -330 73 -157 113 -355 150 -738 50 -523
83 -727 147 -920 87 -260 225 -437 418 -535 70 -36 74 -40 103 -104 58 -125
82 -254 112 -586 34 -377 59 -501 135 -660 60 -126 119 -213 289 -424 186
-232 233 -299 294 -419 89 -175 112 -271 148 -617 29 -283 37 -318 120 -540
35 -94 72 -205 83 -247 33 -129 44 -306 38 -597 -8 -333 -39 -586 -94 -752
-15 -45 -21 -54 -40 -51 -28 4 -85 -76 -194 -273 -130 -237 -169 -301 -236
-385 -82 -104 -158 -163 -258 -200 -178 -66 -215 -98 -215 -182 0 -100 47
-188 123 -232 90 -53 136 -58 617 -65 l445 -8 160 -42 c253 -67 349 -60 453
33 81 74 142 204 185 396 17 80 21 131 22 320 1 192 5 238 23 311 28 114 80
273 164 504 109 299 141 438 208 910 51 359 98 575 240 1095 33 124 69 281 79
350 22 151 43 199 107 240 72 45 129 55 319 53 119 -1 250 -11 435 -33 322
-38 537 -47 1430 -56 576 -6 677 -5 840 10 549 51 985 168 1726 464 l51 21 23
-47 c20 -40 25 -69 31 -199 12 -243 45 -315 236 -515 59 -62 162 -176 228
-253 65 -77 171 -201 235 -275 250 -293 369 -401 751 -687 305 -227 408 -312
521 -432 205 -215 304 -436 329 -735 10 -116 10 -131 -5 -141 -12 -9 -16 -29
-16 -73 0 -71 -21 -182 -83 -442 -24 -102 -50 -230 -56 -285 -15 -122 -39
-175 -99 -220 -52 -41 -79 -49 -222 -69 -145 -21 -179 -33 -221 -75 -65 -64
-74 -151 -24 -217 98 -128 513 -201 930 -164 77 7 219 13 315 15 97 2 258 13
360 25 197 23 410 30 525 17 l70 -8 102 188 c106 197 200 399 251 543 16 47
53 144 82 215 108 267 149 408 152 515 1 49 5 60 18 60 14 0 18 15 24 92 11
162 7 448 -9 548 -40 256 -98 344 -432 643 -179 161 -248 236 -333 363 -277
414 -442 960 -402 1331 6 59 19 137 28 173 18 72 101 250 137 293 l23 27 63
-25 c185 -72 264 -171 416 -515 100 -226 145 -301 272 -451 210 -249 268 -337
310 -464 24 -73 27 -99 33 -300 6 -217 6 -221 38 -300 35 -89 362 -645 461
-785 35 -50 94 -121 130 -158 65 -67 164 -142 187 -142 7 0 13 39 17 109 l5
109 65 93 c164 238 263 521 314 895 24 179 24 656 -1 874 -27 248 -54 420
-101 655 -78 392 -142 533 -473 1035 -232 351 -246 376 -512 900 -334 656
-432 823 -654 1120 -179 239 -294 370 -521 595 -123 121 -279 288 -347 370
-218 262 -320 342 -536 419 -396 141 -1065 195 -1448 117 -88 -18 -93 -18
-145 -1 -151 51 -345 50 -904 -6 -579 -58 -748 -57 -1330 6 -442 49 -598 60
-837 60 -293 0 -498 -25 -666 -83 l-64 -21 -81 21 c-45 11 -160 51 -255 87
-203 78 -281 96 -577 131 -505 58 -586 89 -965 365 -58 42 -166 119 -240 170
-293 202 -438 330 -480 421 -37 83 -21 162 52 245 17 19 100 89 183 154 247
193 319 291 319 435 1 226 -98 301 -764 585 -157 67 -321 142 -366 167 -120
66 -309 229 -607 521 -331 324 -425 391 -681 487 -88 32 -360 107 -425 117
-19 2 -28 17 -51 79 -119 329 -400 625 -755 799 -194 95 -345 137 -530 147
l-100 6 -26 -49z m12405 -11614 c15 -28 74 -121 133 -208 59 -86 126 -197 149
-247 73 -155 90 -298 49 -431 -8 -27 -15 -63 -15 -80 0 -18 -6 -34 -13 -37 -8
-3 -24 -34 -37 -69 -12 -34 -63 -157 -112 -273 -106 -247 -163 -412 -179 -516
l-12 -74 -68 -2 -68 -1 -7 46 c-10 64 1 196 32 407 20 133 27 222 28 340 1
136 3 162 17 172 44 33 54 228 35 638 -6 133 -5 212 3 262 11 69 26 123 35
123 2 0 16 -23 30 -50z"/>
</g>
</svg>
