<?xml version="1.0" standalone="no"?>
<!DOCTYPE svg PUBLIC "-//W3C//DTD SVG 20010904//EN"
 "http://www.w3.org/TR/2001/REC-SVG-20010904/DTD/svg10.dtd">
<svg version="1.0" xmlns="http://www.w3.org/2000/svg"
 width="1536.000000pt" height="404.000000pt" viewBox="0 0 1536.000000 404.000000"
 preserveAspectRatio="xMidYMid meet">
<metadata>
Created by potrace 1.16, written by Peter Selinger 2001-2019
</metadata>
<g transform="translate(0.000000,404.000000) scale(0.100000,-0.100000)"
fill="#000000" stroke="none">
<path d="M5305 4027 c-93 -25 -186 -83 -375 -239 -143 -117 -288 -195 -1555
-840 l-990 -504 -499 -304 -498 -303 -227 22 c-566 56 -787 65 -935 36 -76
-14 -180 -61 -211 -95 -37 -41 -4 -60 310 -170 223 -78 346 -134 533 -242 128
-73 179 -96 240 -104 l48 -6 17 -196 c11 -131 21 -198 29 -204 20 -13 89 -1
248 44 87 24 175 56 221 80 148 78 278 212 357 366 l47 93 35 -5 c202 -30 410
-40 815 -41 467 0 546 6 770 55 272 61 564 84 1050 83 485 -1 867 -17 1070
-43 88 -11 644 -117 1235 -235 1163 -232 1463 -282 2084 -345 159 -16 291 -32
294 -34 2 -3 -16 -38 -40 -78 -25 -41 -71 -141 -102 -223 -104 -273 -137 -349
-192 -448 -30 -54 -52 -102 -49 -106 2 -5 30 -16 61 -26 185 -58 501 59 997
368 77 47 132 76 138 70 8 -8 3 -60 -16 -166 l-5 -28 68 6 c197 17 326 57 449
137 140 91 230 191 347 385 38 62 74 117 81 123 7 6 438 35 1061 71 l1049 60
495 -5 c272 -3 518 -9 545 -14 234 -45 415 -52 555 -22 96 21 268 117 347 193
33 32 45 52 53 93 6 29 22 68 35 86 53 73 60 91 60 168 0 91 -14 119 -144 277
-103 126 -138 154 -343 274 -474 278 -1353 671 -1949 870 -225 76 -237 78
-474 89 -280 12 -485 46 -760 125 -66 19 -190 48 -275 65 -171 34 -1324 227
-1545 259 -575 84 -1958 274 -2112 291 -313 33 -1369 128 -1678 150 -296 21
-380 33 -495 70 -81 26 -208 34 -275 17z"/>
</g>
</svg>
