<?xml version="1.0" standalone="no"?>
<!DOCTYPE svg PUBLIC "-//W3C//DTD SVG 20010904//EN"
 "http://www.w3.org/TR/2001/REC-SVG-20010904/DTD/svg10.dtd">
<svg version="1.0" xmlns="http://www.w3.org/2000/svg"
 width="1536.000000pt" height="1304.000000pt" viewBox="0 0 1536.000000 1304.000000"
 preserveAspectRatio="xMidYMid meet">
<metadata>
Created by potrace 1.16, written by Peter Selinger 2001-2019
</metadata>
<g transform="translate(0.000000,1304.000000) scale(0.100000,-0.100000)"
fill="#000000" stroke="none">
<path d="M4685 13025 c-33 -7 -89 -24 -125 -37 l-65 -25 -125 19 c-137 21
-290 20 -585 -1 -194 -14 -727 -92 -862 -126 -156 -39 -435 -186 -539 -282
-38 -35 -82 -59 -199 -108 -746 -312 -1403 -730 -1652 -1051 -135 -174 -137
-178 -141 -260 -5 -82 7 -124 43 -152 27 -21 42 -62 24 -62 -9 0 -7 -4 3 -12
22 -18 49 -116 34 -122 -6 -2 -3 -5 7 -5 9 -1 17 -6 17 -12 0 -5 14 -38 31
-72 28 -56 29 -63 14 -72 -101 -60 -216 -146 -293 -219 -83 -79 -174 -184
-197 -226 -12 -23 5 -4 62 70 65 83 199 212 283 271 95 67 160 103 169 93 19
-22 101 -146 101 -152 0 -5 -22 -25 -49 -45 -105 -81 -264 -263 -332 -382 -34
-60 -18 -40 50 62 71 106 184 230 278 304 l65 52 25 -34 c14 -19 75 -82 134
-141 l109 -107 -41 -33 c-40 -32 -136 -151 -159 -198 -17 -34 -2 -16 42 50 21
30 66 83 101 118 l63 63 64 -51 c36 -28 71 -55 80 -60 13 -8 13 -12 -4 -42
l-18 -33 24 28 23 28 45 -34 c176 -133 406 -243 590 -281 82 -16 85 -27 31
-134 -73 -146 -263 -450 -292 -467 -5 -3 -50 24 -100 60 -117 83 -170 100
-294 91 -118 -8 -223 -27 -490 -87 -121 -28 -257 -54 -303 -59 -182 -19 -279
-108 -318 -289 -22 -107 -18 -144 41 -336 30 -98 55 -188 55 -200 0 -43 28
-126 56 -167 40 -57 129 -120 216 -154 403 -152 597 -239 708 -314 69 -48 202
-184 265 -274 26 -37 80 -123 118 -190 93 -162 154 -256 167 -256 7 0 9 8 5
20 -3 11 -4 20 -2 20 3 0 46 -70 97 -155 51 -86 97 -158 101 -161 10 -6 -21
78 -46 126 -33 63 -11 38 66 -75 86 -129 114 -163 125 -152 4 4 2 24 -4 44 -6
20 -10 38 -8 40 1 2 37 -43 79 -99 95 -128 159 -193 182 -184 14 5 16 15 10
59 l-7 52 27 -25 c15 -14 41 -43 57 -65 36 -50 130 -129 186 -156 58 -29 77
-15 67 50 l-7 45 44 -40 c57 -53 133 -104 153 -104 14 0 15 7 9 45 -9 65 11
60 100 -25 68 -65 79 -72 133 -80 32 -6 73 -10 91 -10 31 0 32 2 32 39 l0 39
43 -13 c23 -7 68 -29 100 -48 67 -41 130 -57 222 -57 l65 0 0 -30 c0 -46 -35
-127 -93 -215 l-53 -80 50 -35 c72 -50 107 -112 114 -198 4 -65 3 -70 -22 -90
-15 -11 -51 -28 -79 -38 -29 -9 -54 -18 -55 -20 -2 -1 8 -20 22 -41 14 -20 26
-51 26 -68 0 -51 -50 -117 -129 -170 -72 -47 -72 -47 -49 -63 48 -31 108 -97
118 -128 18 -54 -23 -112 -100 -144 l-30 -13 50 -48 c54 -52 80 -100 80 -147
0 -34 -46 -101 -82 -121 l-26 -13 49 -47 c41 -39 49 -53 49 -83 0 -41 -36 -99
-87 -142 l-34 -28 33 -20 c40 -25 48 -36 48 -68 0 -29 -51 -82 -112 -119 -21
-13 -38 -24 -38 -27 0 -2 16 -10 35 -18 53 -22 85 -59 85 -98 0 -37 -39 -101
-71 -119 -21 -11 -20 -12 14 -47 40 -43 57 -72 57 -102 0 -35 -28 -79 -71
-110 -40 -29 -40 -29 -17 -41 81 -41 99 -100 49 -159 l-29 -35 24 -22 c45 -41
22 -119 -55 -187 -28 -25 -27 -30 13 -44 55 -20 57 -48 7 -95 l-42 -39 3 -66
c3 -65 4 -67 32 -72 49 -8 55 -33 24 -92 l-28 -51 39 -42 c45 -49 61 -106 61
-223 0 -92 22 -234 49 -323 11 -35 17 -66 13 -70 -4 -3 -45 -14 -92 -23 -134
-28 -306 -81 -426 -131 -234 -98 -382 -210 -491 -370 -73 -109 -97 -164 -103
-245 -5 -59 -13 -86 -38 -128 -39 -64 -43 -141 -13 -209 24 -52 62 -73 138
-74 81 -1 96 -8 135 -59 44 -59 100 -88 185 -99 115 -14 146 -5 283 82 l29 18
39 -36 c29 -25 56 -39 95 -47 69 -15 117 -2 183 48 42 32 49 34 74 24 16 -7
36 -20 46 -31 44 -48 164 -44 278 9 50 23 79 48 151 128 174 192 266 277 342
317 125 65 139 68 224 45 41 -10 79 -21 85 -23 6 -2 -32 -48 -86 -102 -159
-161 -229 -308 -238 -498 -5 -110 6 -167 40 -210 30 -38 93 -65 154 -65 48 0
52 -2 64 -30 15 -36 71 -87 105 -96 47 -12 164 0 182 19 17 17 19 15 49 -20
l32 -38 98 0 c73 0 108 5 132 17 18 9 67 22 110 28 116 17 218 45 383 105 257
93 443 199 569 323 36 35 81 75 100 88 50 33 220 87 410 129 189 42 147 43
625 -5 392 -40 619 -54 641 -42 15 9 14 11 -12 26 -17 10 -21 15 -9 12 57 -15
351 -66 373 -66 26 1 26 1 7 12 -11 7 -58 27 -105 45 -47 18 -80 32 -75 33 6
0 66 -9 135 -20 162 -26 164 -26 149 1 -10 20 -9 21 22 15 19 -3 75 -9 125
-12 105 -8 116 -1 85 52 -12 19 -21 37 -21 39 0 2 19 -5 43 -15 78 -36 139
-19 173 47 10 21 20 40 21 42 1 2 14 -6 29 -18 74 -58 232 12 251 112 7 36 15
45 48 61 22 11 68 21 101 24 l62 4 4 68 c3 54 9 76 32 108 l28 41 97 -5 c107
-6 144 5 149 44 2 13 -4 34 -13 48 -15 24 -14 27 30 99 26 41 52 72 58 70 22
-8 901 -213 1152 -269 295 -65 429 -89 463 -83 14 3 57 -6 95 -19 39 -13 80
-24 91 -24 20 0 20 0 0 16 -22 18 -32 20 131 -29 66 -19 129 -31 183 -33 81
-4 89 -6 260 -88 249 -118 280 -127 382 -116 8 0 67 -17 130 -39 116 -41 175
-51 182 -29 3 7 39 -3 109 -30 232 -90 376 -121 373 -79 -1 9 -1 17 1 17 2 0
31 -13 66 -29 35 -17 77 -33 93 -37 26 -6 27 -5 17 14 -10 19 2 16 122 -24
122 -42 369 -114 389 -114 21 0 4 19 -39 43 -63 35 -46 34 127 -8 196 -47 306
-63 322 -46 11 10 6 19 -24 47 -21 19 -37 34 -35 34 1 0 34 -7 72 -15 86 -18
172 -19 205 -2 21 11 25 20 25 55 0 47 0 47 35 27 31 -18 72 -19 88 -3 7 7 12
31 12 55 l0 42 41 -14 c54 -19 104 -19 124 1 8 9 23 42 32 75 l16 58 58 -6
c45 -4 64 -2 83 11 30 19 50 82 41 130 -6 32 -6 33 19 29 39 -8 64 21 78 88
l12 58 40 3 41 3 -1 45 c0 25 -4 57 -8 72 -7 23 -5 27 16 30 33 4 35 49 4 137
-14 39 -23 71 -20 71 3 0 19 -7 35 -16 68 -35 44 20 -73 164 -44 53 -104 130
-134 169 -72 96 -159 160 -329 244 -365 180 -803 298 -1404 378 -146 20 -196
31 -138 31 51 0 36 18 -21 24 -57 7 -589 25 -732 26 -70 1 -74 2 -55 16 18 15
13 16 -65 10 -47 -3 -166 -8 -265 -10 -151 -5 -173 -3 -135 7 44 11 44 11 13
15 -26 3 -226 -15 -378 -34 -38 -4 -37 -4 15 15 l55 20 -55 -5 c-30 -3 -137
-19 -238 -35 -216 -34 -192 -32 -192 -14 0 24 -67 29 -221 16 -232 -19 -447
-63 -672 -140 -48 -16 -84 -25 -81 -18 4 7 16 24 26 39 22 32 19 34 -25 12
-28 -15 -25 -9 25 43 131 138 211 305 242 503 l12 75 17 -69 c24 -98 57 -143
71 -98 13 39 25 173 26 277 l1 110 18 -61 c19 -67 50 -127 66 -127 23 0 49 85
95 314 28 133 52 244 54 246 2 2 7 -13 11 -34 12 -68 55 -190 70 -203 13 -10
17 -7 30 23 17 41 35 212 36 347 l0 95 19 -87 c32 -153 50 -187 70 -134 11 29
29 216 38 391 l7 130 47 -85 c46 -82 47 -83 55 -55 4 17 8 113 7 214 l-1 183
24 -83 c13 -46 31 -95 40 -108 14 -22 16 -22 25 -7 11 19 27 263 28 426 l1
105 23 -66 c26 -74 33 -89 46 -89 22 0 28 154 15 385 l-6 110 24 -38 c19 -29
27 -35 33 -25 5 7 8 96 7 197 l-1 184 22 -28 c13 -17 28 -25 34 -21 39 24 -26
619 -84 771 -5 13 -2 13 30 0 126 -53 107 25 -63 255 l-26 35 45 -36 c82 -65
111 -82 121 -72 13 13 -26 84 -119 215 -42 60 -84 119 -92 131 -8 12 28 -15
80 -60 98 -86 138 -107 105 -55 -39 59 -201 290 -242 345 -24 31 -40 57 -34
57 6 0 40 -11 77 -25 36 -14 71 -25 77 -25 6 0 -9 21 -34 48 -25 26 -74 81
-110 122 l-64 75 73 -63 c87 -74 132 -100 132 -78 0 23 -110 181 -219 314 -55
67 -98 122 -95 122 3 0 24 -13 47 -28 121 -82 102 -18 -56 189 -50 67 -101
133 -112 148 -19 25 -18 24 20 -5 49 -38 136 -94 147 -94 37 0 -81 163 -331
454 -9 10 20 -9 64 -42 72 -56 105 -73 105 -56 0 20 -181 244 -350 435 l-65
73 87 -48 c135 -73 138 -57 12 63 -60 57 -156 142 -214 189 -141 115 -144 117
-95 97 123 -52 158 -66 166 -63 14 5 -106 80 -356 223 -126 72 -239 137 -250
143 -17 10 -13 11 23 6 23 -4 42 -4 42 -1 0 11 -104 69 -355 199 -143 74 -390
213 -550 308 -285 170 -656 382 -867 494 -112 60 -136 81 -232 209 -201 267
-729 566 -1143 647 -35 7 -63 17 -63 21 0 5 35 9 78 9 l77 1 -32 28 c-18 15
-72 51 -120 79 -49 29 -86 52 -83 52 3 0 27 -7 54 -15 55 -17 106 -20 106 -6
0 17 -82 81 -190 148 -58 36 -107 67 -109 70 -3 2 28 0 67 -3 49 -5 72 -3 72
4 0 19 -71 70 -179 129 l-106 58 50 5 50 5 -80 47 c-44 26 -78 48 -75 48 3 0
27 -7 54 -15 65 -20 73 -19 50 6 -16 17 -71 54 -197 129 l-29 17 54 -5 c49 -5
52 -4 39 12 -8 10 -53 38 -100 62 -48 25 -77 42 -66 39 10 -3 40 -8 65 -11
l45 -5 -24 18 c-13 10 -71 44 -129 75 -100 54 -104 57 -71 60 32 3 29 6 -66
55 -93 48 -97 51 -56 46 75 -10 46 17 -100 91 -73 37 -136 70 -139 73 -3 3 9
3 25 0 17 -3 37 -2 43 2 19 12 -3 26 -99 66 -60 24 -76 34 -56 35 65 1 7 50
-153 130 -47 23 -123 66 -170 96 -82 52 -86 55 -108 116 -73 203 -256 294
-487 243z"/>
<path d="M393 10923 c9 -2 23 -2 30 0 6 3 -1 5 -18 5 -16 0 -22 -2 -12 -5z"/>
<path d="M348 10913 c7 -3 16 -2 19 1 4 3 -2 6 -13 5 -11 0 -14 -3 -6 -6z"/>
<path d="M264 10885 c-53 -27 -138 -96 -154 -125 -5 -10 15 6 45 35 30 30 83
67 117 84 35 17 58 31 52 31 -5 0 -32 -11 -60 -25z"/>
<path d="M428 10779 c-21 -11 -38 -22 -38 -24 0 -5 79 32 89 41 12 11 -18 1
-51 -17z"/>
<path d="M305 10704 c-74 -50 -224 -194 -244 -235 -7 -13 2 -6 20 16 54 67
170 173 236 216 55 36 71 49 60 49 -1 0 -34 -21 -72 -46z"/>
<path d="M758 10243 c-126 -116 -230 -237 -308 -355 -45 -70 -26 -46 64 76 33
45 119 141 192 214 73 72 131 132 129 132 -1 0 -36 -30 -77 -67z"/>
<path d="M265 9980 c-9 -16 -13 -30 -11 -30 3 0 12 14 21 30 9 17 13 30 11 30
-3 0 -12 -13 -21 -30z"/>
<path d="M1070 9954 c-25 -57 -53 -154 -47 -160 2 -3 10 16 16 42 7 26 23 73
36 105 28 69 23 80 -5 13z"/>
<path d="M745 9919 c-4 -6 -5 -12 -2 -15 2 -3 7 2 10 11 7 17 1 20 -8 4z"/>
<path d="M711 9841 c-29 -69 -26 -78 5 -12 13 30 23 56 20 58 -2 2 -13 -19
-25 -46z"/>
</g>
</svg>
