<?xml version="1.0" standalone="no"?>
<!DOCTYPE svg PUBLIC "-//W3C//DTD SVG 20010904//EN"
 "http://www.w3.org/TR/2001/REC-SVG-20010904/DTD/svg10.dtd">
<svg version="1.0" xmlns="http://www.w3.org/2000/svg"
 width="211.000000pt" height="173.000000pt" viewBox="0 0 211.000000 173.000000"
 preserveAspectRatio="xMidYMid meet">
<metadata>
Created by potrace 1.16, written by Peter Selinger 2001-2019
</metadata>
<g transform="translate(0.000000,173.000000) scale(0.100000,-0.100000)"
fill="#000000" stroke="none">
<path d="M443 1710 c-40 -24 -59 -60 -67 -130 -7 -55 -8 -55 -68 -90 -131 -75
-239 -211 -284 -357 -28 -88 -27 -113 6 -113 11 0 20 -7 20 -15 0 -9 12 -27
26 -42 25 -25 25 -25 152 -18 111 6 135 4 192 -13 36 -11 91 -26 123 -32 l59
-12 -50 -23 c-60 -28 -69 -40 -41 -55 18 -10 19 -14 6 -28 -8 -9 -17 -25 -20
-34 -5 -15 0 -18 34 -18 39 0 41 -2 35 -24 -9 -38 12 -41 48 -7 22 21 48 34
86 41 29 6 61 17 70 25 24 22 35 19 66 -17 l27 -33 -49 -6 c-82 -11 -152 -48
-113 -61 9 -3 9 -9 0 -25 -25 -47 21 -80 84 -60 29 9 38 8 45 -3 6 -10 14 -11
37 -2 15 7 59 16 97 21 73 11 100 27 138 89 15 24 44 44 111 77 92 44 92 44
172 37 l80 -7 -63 -18 c-76 -21 -108 -41 -128 -78 -21 -42 -18 -50 19 -35 17
8 43 17 57 21 22 6 21 4 -10 -24 l-35 -30 28 -1 c54 0 222 21 277 36 30 8 94
19 141 23 101 11 122 21 145 74 20 43 40 57 80 57 l27 0 -5 -77 c-5 -90 -33
-161 -81 -211 -76 -80 -94 -82 -662 -91 -533 -9 -562 -12 -654 -69 -93 -57
-116 -171 -50 -247 37 -41 83 -60 219 -85 125 -24 120 -24 120 -5 0 26 -40 52
-114 73 -134 39 -174 111 -103 185 67 72 211 87 623 64 327 -17 440 -13 554
23 121 37 201 124 235 255 26 102 17 343 -21 535 -45 227 -213 388 -507 484
-148 48 -231 61 -397 60 -140 0 -163 -3 -235 -27 -45 -15 -114 -48 -154 -73
l-73 -47 -52 13 -52 12 0 50 c1 44 -3 53 -32 79 -38 34 -74 37 -119 9z"/>
</g>
</svg>
