<?xml version="1.0" standalone="no"?>
<!DOCTYPE svg PUBLIC "-//W3C//DTD SVG 20010904//EN"
 "http://www.w3.org/TR/2001/REC-SVG-20010904/DTD/svg10.dtd">
<svg version="1.0" xmlns="http://www.w3.org/2000/svg"
 width="1536.000000pt" height="1251.000000pt" viewBox="0 0 1536.000000 1251.000000"
 preserveAspectRatio="xMidYMid meet">
<metadata>
Created by potrace 1.16, written by Peter Selinger 2001-2019
</metadata>
<g transform="translate(0.000000,1251.000000) scale(0.100000,-0.100000)"
fill="#000000" stroke="none">
<path d="M12295 12474 c-402 -45 -614 -97 -1007 -250 -188 -73 -310 -114 -415
-139 -171 -41 -188 -41 -414 21 -90 24 -147 34 -199 34 -72 0 -76 -1 -154 -52
-45 -28 -102 -72 -128 -97 l-48 -45 0 -217 0 -218 -32 -3 c-31 -3 -37 -10
-108 -148 -99 -191 -139 -256 -228 -370 -74 -94 -75 -95 -206 -164 -72 -38
-169 -82 -215 -97 -78 -27 -96 -29 -234 -29 -149 0 -150 0 -132 -20 18 -20 17
-20 -137 -20 -126 0 -178 5 -274 24 -66 14 -198 34 -294 46 -96 12 -207 30
-246 41 -51 14 -103 19 -195 19 -77 0 -145 6 -179 15 -71 19 -70 19 -67 -7 2
-18 -6 -24 -47 -36 -46 -13 -58 -12 -145 7 -53 12 -141 28 -195 37 -55 8 -103
17 -106 19 -3 2 -30 13 -58 24 l-52 21 15 -30 15 -29 -37 -10 c-52 -15 -142
-13 -244 3 -146 24 -288 29 -520 17 -237 -12 -342 -24 -664 -72 -529 -79 -977
-209 -1365 -397 -325 -157 -518 -287 -770 -518 -77 -71 -164 -127 -240 -155
l-65 -24 42 -3 c24 -2 43 -5 43 -7 0 -19 -29 -59 -59 -79 -42 -29 -142 -66
-180 -66 -25 -1 -25 -1 -7 -15 10 -8 23 -16 27 -17 5 -2 11 -17 15 -34 6 -30
4 -32 -98 -89 -152 -86 -207 -128 -250 -193 l-38 -57 26 -3 c24 -3 26 -7 20
-35 -9 -45 -38 -71 -116 -102 -62 -25 -70 -31 -70 -54 0 -19 -17 -43 -61 -86
-33 -33 -74 -79 -90 -102 l-30 -43 25 0 c22 0 24 -3 17 -22 -5 -13 -47 -62
-93 -110 -76 -80 -88 -88 -121 -88 l-37 0 0 -55 c0 -54 -1 -55 -29 -55 -24 0
-34 -8 -57 -47 -15 -27 -58 -82 -96 -123 l-69 -75 31 -3 31 -3 -85 -81 c-47
-44 -86 -84 -86 -89 0 -5 15 -9 34 -9 27 0 36 -5 42 -22 6 -20 -12 -41 -129
-153 l-136 -130 -3 -55 c-3 -53 -5 -56 -40 -73 -21 -10 -38 -23 -38 -28 0 -5
13 -23 30 -41 l30 -33 -118 -115 c-112 -110 -252 -262 -252 -274 0 -3 9 -6 20
-6 20 0 20 -1 -2 -31 -12 -16 -43 -43 -68 -58 -37 -23 -58 -48 -104 -127 -33
-55 -74 -118 -92 -141 -19 -23 -34 -44 -34 -47 0 -3 11 -6 25 -6 14 0 25 -2
25 -4 0 -23 -40 -82 -89 -131 -51 -49 -61 -65 -61 -93 l0 -34 26 17 c23 15 21
9 -16 -47 -64 -98 -114 -204 -150 -313 -18 -55 -55 -143 -83 -195 -38 -72 -50
-104 -48 -132 1 -23 -7 -56 -22 -85 -32 -64 -47 -107 -106 -308 -99 -336 -151
-637 -151 -873 0 -86 5 -186 10 -222 5 -36 16 -137 25 -225 27 -263 50 -334
233 -715 107 -223 209 -341 599 -692 224 -202 523 -360 868 -462 463 -135 662
-181 1125 -260 300 -52 446 -66 691 -66 235 0 426 -17 1027 -90 438 -54 1017
-124 1287 -156 121 -14 320 -43 442 -65 213 -37 970 -211 1063 -244 25 -9 175
-57 333 -106 159 -50 341 -111 405 -136 65 -24 191 -72 282 -105 91 -33 203
-78 250 -100 114 -53 655 -284 816 -348 71 -29 188 -77 259 -107 237 -101 366
-139 660 -193 305 -55 501 -80 637 -80 179 0 520 73 753 160 269 101 345 140
345 178 0 23 -2 24 -46 17 -25 -3 -93 -21 -152 -40 -243 -76 -498 -114 -812
-122 -189 -4 -236 -3 -295 12 -38 9 -180 40 -315 69 -233 51 -253 57 -415 129
-93 42 -236 112 -317 156 -210 114 -662 340 -803 401 -66 29 -286 124 -490
212 -203 88 -460 201 -570 251 -412 186 -1078 387 -1680 507 -143 28 -325 67
-405 85 -119 28 -209 39 -490 64 -361 31 -445 37 -1010 71 -720 43 -1512 170
-1997 320 -200 61 -267 88 -470 184 -450 214 -467 223 -586 331 -162 148 -367
439 -397 566 -7 30 -35 137 -63 239 l-49 185 -2 265 -1 265 32 100 c18 55 88
230 156 389 l124 289 108 141 c110 142 168 199 450 438 85 72 115 90 204 126
56 23 108 42 114 42 6 0 42 -20 81 -44 53 -33 124 -100 276 -257 113 -117 261
-262 330 -322 118 -102 129 -116 198 -230 40 -67 102 -178 139 -246 57 -107
71 -127 110 -150 24 -14 119 -75 210 -134 143 -93 185 -115 292 -153 117 -42
135 -45 256 -51 129 -6 277 8 477 42 70 13 89 12 195 -6 102 -17 130 -27 210
-70 85 -45 97 -49 160 -49 37 1 97 7 133 15 36 8 88 14 117 15 50 0 54 2 85
44 18 25 38 44 43 43 12 -2 115 62 115 72 0 4 -13 28 -30 54 -29 46 -29 47 -7
47 12 0 48 -6 80 -14 31 -7 57 -11 57 -8 0 4 -18 32 -40 63 -22 32 -40 59 -40
62 0 2 20 2 45 -1 25 -2 45 -2 45 1 0 4 -12 31 -27 61 -24 50 -32 57 -97 88
-63 29 -84 34 -186 39 -105 5 -124 10 -218 48 -88 35 -131 46 -275 66 -95 14
-240 31 -323 39 l-152 14 -268 182 c-148 100 -273 186 -278 191 -5 4 18 2 50
-6 154 -36 637 -85 832 -85 108 0 124 3 210 34 l94 34 81 -24 c73 -23 109 -26
337 -34 140 -4 329 -14 420 -21 117 -8 201 -9 290 -2 180 14 535 -16 670 -56
52 -16 132 -32 177 -35 75 -6 81 -5 76 12 -4 15 6 19 74 29 43 7 120 22 171
34 l94 22 -44 39 c-38 33 -40 38 -18 34 14 -3 59 -8 100 -11 l74 -7 -74 79
c-129 137 -313 217 -650 284 -122 24 -170 29 -302 29 -86 0 -167 4 -180 9 -13
6 -77 31 -143 57 -66 26 -133 56 -148 67 l-29 19 44 30 c24 16 87 54 140 84
l97 56 78 -16 c43 -9 159 -27 257 -41 168 -23 205 -25 610 -25 375 0 470 3
726 25 208 18 336 34 435 55 324 68 774 150 828 150 17 0 17 -2 -2 -27 -12
-14 -20 -28 -18 -29 2 -2 57 14 122 36 138 46 145 47 138 20 -6 -22 -13 -24
114 27 7 3 26 -3 43 -14 30 -17 32 -17 63 1 18 10 63 32 101 47 l69 29 34 -26
c49 -37 89 -96 140 -203 24 -51 56 -111 70 -132 l26 -39 33 25 33 25 21 -58
c20 -53 26 -61 73 -84 29 -14 72 -42 95 -62 24 -20 46 -36 49 -36 2 0 16 14
30 30 13 17 28 30 32 30 4 0 16 -27 26 -60 16 -52 25 -65 76 -105 32 -25 91
-64 131 -86 40 -23 94 -57 119 -75 53 -39 56 -40 80 -18 16 14 19 12 46 -21
15 -20 72 -68 125 -106 53 -39 119 -96 147 -127 85 -98 202 -193 271 -219 54
-20 80 -23 196 -23 92 0 165 -6 236 -20 73 -14 144 -20 243 -20 126 0 148 -2
215 -26 l75 -27 38 23 c25 15 37 29 37 45 0 17 7 24 31 29 61 12 165 6 237
-14 95 -26 128 -25 173 6 20 14 64 32 97 39 50 12 68 12 111 1 l51 -13 0 60 0
59 35 -4 c19 -2 35 -3 35 -1 0 9 -97 160 -110 170 -82 66 -82 66 -238 73 -132
6 -153 10 -207 35 -56 26 -73 28 -240 36 -99 4 -276 19 -393 33 l-213 25 -84
67 c-76 60 -97 85 -196 231 -107 158 -113 170 -181 356 -50 138 -87 219 -129
287 -55 90 -59 101 -70 190 -18 152 -17 155 103 273 57 56 148 150 201 209
l97 106 35 -11 c40 -12 113 -93 151 -169 28 -56 32 -140 9 -233 -24 -100 -24
-100 44 -66 l58 30 9 -90 c9 -80 8 -94 -8 -120 -29 -48 -23 -101 18 -158 41
-58 40 -81 -8 -196 -16 -38 -28 -79 -26 -92 3 -21 6 -20 88 27 46 27 85 48 86
47 1 -1 -2 -26 -7 -55 -15 -82 -11 -86 44 -44 34 26 59 57 83 103 44 88 108
274 129 378 16 80 16 86 -4 185 -12 57 -48 183 -81 282 -33 98 -71 224 -84
280 -18 73 -38 123 -74 185 l-49 85 13 104 c8 57 20 110 27 119 101 118 171
212 211 280 44 77 48 90 58 184 13 135 14 138 42 102 l24 -30 12 45 c6 25 14
54 17 65 3 11 23 45 44 75 20 30 43 75 50 100 7 25 30 69 52 98 21 30 47 80
56 112 29 102 298 539 447 726 44 55 107 138 139 185 44 63 79 100 143 149 90
68 185 184 344 415 61 88 112 144 256 282 l179 172 230 134 c348 203 385 231
574 423 108 111 199 193 263 239 141 100 222 191 269 298 33 76 37 95 37 167
0 75 -3 85 -32 128 -17 26 -32 48 -32 48 -1 1 -176 29 -391 62 -345 54 -424
63 -680 77 -213 12 -362 27 -563 56 -220 31 -345 43 -638 59 -200 11 -379 19
-397 19 -17 -1 -167 -17 -332 -35z"/>
</g>
</svg>
