<?xml version="1.0" standalone="no"?>
<!DOCTYPE svg PUBLIC "-//W3C//DTD SVG 20010904//EN"
 "http://www.w3.org/TR/2001/REC-SVG-20010904/DTD/svg10.dtd">
<svg version="1.0" xmlns="http://www.w3.org/2000/svg"
 width="575.000000pt" height="531.000000pt" viewBox="0 0 575.000000 531.000000"
 preserveAspectRatio="xMidYMid meet">
<metadata>
Created by potrace 1.16, written by Peter Selinger 2001-2019
</metadata>
<g transform="translate(0.000000,531.000000) scale(0.100000,-0.100000)"
fill="#000000" stroke="none">
<path d="M4280 5283 c0 -5 49 -109 109 -233 60 -124 116 -241 124 -261 l15
-37 -36 10 c-333 93 -412 114 -762 204 -36 10 -69 23 -73 31 -6 10 -51 13
-206 13 l-198 0 -210 -75 c-116 -41 -219 -75 -229 -75 -10 0 -108 -53 -218
-119 -142 -84 -214 -121 -245 -125 -25 -4 -65 -17 -90 -30 -25 -13 -71 -28
-101 -34 -49 -9 -58 -8 -82 9 -15 10 -42 19 -59 19 -18 0 -53 12 -78 27 -25
15 -66 30 -91 35 -25 4 -108 19 -185 33 -133 25 -151 26 -355 20 l-215 -7
-200 -90 c-178 -80 -252 -117 -415 -206 -25 -13 -63 -37 -85 -53 -54 -40 -177
-199 -217 -279 -17 -36 -35 -66 -40 -68 -4 -2 -8 -10 -8 -17 0 -16 -94 -228
-115 -258 -12 -17 -15 -56 -15 -205 l0 -184 39 -71 c21 -40 51 -94 67 -122 37
-64 54 -112 54 -156 0 -19 8 -46 17 -59 22 -31 63 -118 63 -134 0 -6 20 -32
45 -56 38 -37 45 -50 45 -82 0 -21 4 -38 9 -38 12 0 101 -127 101 -143 0 -7
11 -30 25 -52 14 -22 25 -56 25 -76 0 -26 13 -55 52 -110 l51 -74 19 -145 c10
-80 19 -167 19 -195 0 -38 8 -62 32 -99 25 -40 30 -57 28 -98 -2 -40 3 -57 28
-97 24 -37 31 -59 31 -98 0 -28 7 -70 15 -93 13 -38 13 -48 0 -93 -8 -28 -15
-60 -15 -71 0 -12 47 -105 105 -208 58 -103 105 -198 105 -212 0 -13 20 -82
45 -152 25 -69 45 -135 45 -146 0 -11 20 -49 45 -84 45 -62 45 -63 45 -144 0
-77 2 -85 31 -121 35 -45 45 -47 94 -18 l36 22 31 -29 c16 -16 34 -40 39 -53
9 -23 10 -23 112 -16 56 5 188 11 292 14 189 6 190 6 193 29 3 16 -20 59 -69
133 -66 100 -75 110 -113 120 -76 20 -195 155 -217 245 -6 27 -20 63 -30 79
-9 17 -31 80 -48 140 -27 95 -31 126 -31 233 0 67 4 122 9 122 4 0 14 21 21
46 9 31 33 70 72 114 49 58 58 74 58 107 0 25 13 66 34 109 18 38 43 104 55
147 12 43 32 95 46 116 l24 39 84 7 c68 6 90 4 115 -9 26 -14 74 -16 314 -16
156 0 307 -3 336 -7 l53 -6 -7 -69 c-4 -42 -3 -73 3 -77 10 -6 147 -441 158
-504 10 -53 56 -96 110 -104 33 -4 45 -10 49 -27 2 -11 8 -111 12 -221 6 -191
6 -202 -14 -247 -24 -50 -39 -170 -28 -213 6 -25 10 -27 46 -22 37 5 42 2 90
-48 27 -30 50 -61 50 -71 0 -9 19 -34 43 -55 40 -37 67 -49 67 -30 0 5 9 11
20 14 14 4 25 -2 36 -18 14 -21 25 -24 126 -30 72 -5 113 -4 117 3 3 6 73 20
156 32 82 12 157 26 167 31 9 5 42 9 72 9 31 0 56 3 56 7 0 5 -12 43 -26 86
-22 65 -39 94 -107 175 -45 53 -84 99 -88 102 -3 3 -19 46 -35 95 -26 85 -28
99 -25 240 3 141 4 151 26 175 19 21 24 41 30 113 l7 88 63 47 c60 45 63 49
67 97 2 28 12 66 20 85 9 19 21 55 27 80 9 38 134 348 143 354 2 2 17 12 35
24 17 13 57 27 87 34 33 6 56 16 56 23 0 13 32 42 79 75 11 8 21 22 21 32 0 9
5 20 10 23 6 3 10 21 10 39 0 24 11 45 38 77 57 66 109 160 133 242 11 39 25
77 29 82 4 6 10 41 12 79 3 52 9 72 23 82 16 12 21 12 36 -2 10 -9 19 -26 21
-38 2 -12 11 -22 24 -24 19 -3 22 3 28 67 l7 71 158 0 c129 0 161 3 171 15 7
8 28 15 46 15 27 0 56 16 138 78 84 63 106 85 121 121 15 37 16 49 6 75 -10
27 -9 33 9 48 17 14 20 28 20 97 0 52 -5 90 -14 104 -94 150 -160 276 -163
311 -6 67 35 418 52 446 4 6 -8 29 -26 51 -41 52 -37 60 70 120 44 25 120 79
167 120 64 56 96 76 130 84 35 8 52 19 75 49 53 72 32 90 -57 51 -42 -19 -106
-32 -229 -49 -93 -13 -171 -23 -172 -22 -1 0 9 73 23 161 38 251 64 438 64
457 0 24 -17 23 -25 -2 -4 -11 -17 -32 -29 -48 -13 -15 -39 -65 -59 -112 -19
-47 -73 -162 -120 -256 l-86 -171 -62 -7 c-34 -3 -70 -6 -80 -6 -17 0 -142
171 -329 450 -46 69 -97 142 -115 162 -17 20 -38 50 -46 65 -7 15 -16 30 -19
33 -3 3 -22 26 -43 53 -35 43 -57 58 -57 40z m-872 -4226 c21 -22 21 -27 11
-137 -5 -63 -14 -134 -19 -158 -6 -23 -10 -51 -10 -62 0 -42 -26 -17 -48 44
-24 71 -26 97 -13 159 5 23 15 69 21 102 18 86 22 90 58 52z"/>
</g>
</svg>
