<?xml version="1.0" standalone="no"?>
<!DOCTYPE svg PUBLIC "-//W3C//DTD SVG 20010904//EN"
 "http://www.w3.org/TR/2001/REC-SVG-20010904/DTD/svg10.dtd">
<svg version="1.0" xmlns="http://www.w3.org/2000/svg"
 width="1536.000000pt" height="1022.000000pt" viewBox="0 0 1536.000000 1022.000000"
 preserveAspectRatio="xMidYMid meet">
<metadata>
Created by potrace 1.16, written by Peter Selinger 2001-2019
</metadata>
<g transform="translate(0.000000,1022.000000) scale(0.100000,-0.100000)"
fill="#000000" stroke="none">
<path d="M6397 10210 c-324 -16 -541 -51 -715 -116 -246 -92 -641 -285 -806
-394 -57 -37 -141 -90 -186 -116 -208 -120 -454 -363 -707 -701 -224 -299
-393 -644 -653 -1334 -175 -465 -296 -843 -390 -1218 -28 -112 -68 -265 -89
-340 -59 -206 -66 -285 -66 -691 1 -195 3 -461 5 -590 l5 -235 -62 -167 c-96
-256 -107 -302 -106 -443 1 -212 66 -423 201 -651 112 -190 60 -320 -233 -587
-408 -372 -1062 -764 -1625 -974 -571 -212 -837 -349 -928 -476 -73 -102 -51
-179 93 -322 158 -158 433 -319 690 -404 230 -76 591 -148 1125 -226 173 -25
385 -59 470 -75 443 -84 1342 -177 1364 -141 17 27 -130 69 -549 155 -300 61
-397 83 -822 180 -493 114 -515 119 -843 186 -557 114 -660 146 -660 201 0 43
116 110 279 161 52 16 153 56 226 88 72 32 210 90 306 130 360 148 486 219
709 404 74 62 180 149 235 193 228 184 616 615 747 830 37 59 56 82 66 78 9
-3 92 -8 186 -12 366 -13 574 52 838 264 56 44 74 53 107 53 57 0 168 -60 351
-191 256 -183 452 -291 694 -383 66 -25 122 -49 125 -53 3 -4 4 -111 1 -238
-7 -304 -1 -365 37 -413 75 -94 210 -147 416 -163 72 -5 216 -23 318 -40 238
-37 443 -46 1284 -54 662 -6 1039 -18 1135 -35 163 -29 525 -58 572 -47 14 4
28 16 31 26 3 14 23 25 63 37 63 19 273 24 583 15 l144 -5 22 26 c34 40 58 48
138 48 159 0 225 28 213 92 -9 48 -66 140 -96 155 -15 8 -67 13 -135 13 -134
1 -189 11 -220 40 -33 31 -147 39 -570 40 -390 0 -858 15 -980 30 -138 17
-431 29 -1025 41 l-575 11 -69 47 c-110 74 -219 206 -186 226 5 3 120 -10 257
-30 327 -45 523 -69 843 -100 146 -14 324 -33 395 -42 288 -34 1036 -28 1500
13 545 47 641 80 935 314 119 95 221 163 295 196 53 25 62 26 108 15 63 -14
203 -80 243 -114 37 -31 83 -123 119 -239 22 -70 26 -102 23 -157 -3 -63 -7
-72 -41 -110 -60 -66 -44 -126 46 -173 36 -19 59 -22 168 -23 120 -1 128 -2
186 -33 33 -17 89 -36 124 -41 182 -29 687 -42 711 -18 23 23 46 27 228 37
236 13 330 33 330 71 0 30 -30 38 -228 63 -100 13 -186 27 -190 30 -3 4 1 21
11 37 22 39 22 55 0 64 -10 4 -124 11 -253 14 -224 7 -238 8 -290 33 -77 36
-172 108 -219 168 -47 59 -129 202 -197 344 -61 126 -69 187 -29 234 31 38 93
72 128 72 43 0 90 -41 125 -110 42 -84 59 -178 67 -375 4 -91 13 -174 20 -191
14 -33 98 -103 150 -125 20 -9 116 -15 290 -18 l260 -6 60 -35 60 -35 150 0
c131 0 155 2 180 19 24 16 58 20 220 26 243 10 290 27 264 97 -14 37 -49 51
-270 108 -118 31 -252 72 -299 91 -47 20 -158 62 -247 94 -182 65 -243 101
-288 175 -30 48 -30 51 -33 209 -6 249 30 724 64 861 8 33 28 89 45 124 40 88
199 322 224 331 11 4 137 10 280 14 357 9 532 23 608 46 78 24 199 96 346 206
63 47 145 101 182 120 76 38 103 69 94 107 -4 13 -33 58 -65 98 -102 128 -103
144 -13 154 138 16 273 81 468 229 185 139 232 204 296 406 46 147 46 210 -3
310 -20 42 -72 125 -114 185 -86 122 -190 276 -273 405 -30 47 -102 143 -159
214 -150 185 -232 326 -232 400 0 13 -13 47 -28 77 -29 55 -175 290 -241 388
-58 86 -211 260 -324 367 -57 54 -167 171 -244 259 -283 325 -371 373 -793
430 -63 9 -178 32 -254 51 -76 19 -184 41 -240 49 -135 19 -419 19 -530 0 -83
-15 -110 -23 -244 -80 l-63 -26 -54 31 c-83 48 -311 212 -505 365 -297 233
-521 372 -720 445 -47 17 -166 69 -265 114 -99 46 -265 118 -370 159 -238 94
-350 146 -499 232 -224 128 -435 218 -728 311 -210 66 -356 95 -593 120 -175
18 -1167 28 -1448 14z"/>
</g>
</svg>
