<?xml version="1.0" standalone="no"?>
<!DOCTYPE svg PUBLIC "-//W3C//DTD SVG 20010904//EN"
 "http://www.w3.org/TR/2001/REC-SVG-20010904/DTD/svg10.dtd">
<svg version="1.0" xmlns="http://www.w3.org/2000/svg"
 width="1536.000000pt" height="782.000000pt" viewBox="0 0 1536.000000 782.000000"
 preserveAspectRatio="xMidYMid meet">
<metadata>
Created by potrace 1.16, written by Peter Selinger 2001-2019
</metadata>
<g transform="translate(0.000000,782.000000) scale(0.100000,-0.100000)"
fill="#000000" stroke="none">
<path d="M7954 7776 c-39 -24 -90 -54 -112 -65 -51 -26 -317 -81 -390 -81 -40
0 -77 -9 -136 -34 -112 -47 -120 -49 -161 -31 -54 22 -75 19 -188 -24 -177
-69 -208 -65 -74 9 89 49 129 79 106 80 -28 0 -89 -25 -284 -118 -105 -49
-202 -92 -217 -96 -52 -12 -42 16 34 88 41 39 83 83 93 98 16 26 16 28 0 34
-24 10 -55 -8 -133 -75 -39 -34 -73 -61 -77 -61 -21 0 32 114 76 165 18 20 29
38 26 42 -3 3 -59 -34 -124 -82 -64 -48 -138 -98 -165 -111 -49 -25 -88 -31
-88 -14 0 5 30 44 66 87 125 149 119 174 -16 62 -171 -142 -461 -299 -553
-299 -34 0 -46 -6 -81 -42 -53 -56 -122 -111 -164 -132 -57 -29 -54 -16 24 92
44 61 -34 25 -130 -59 -37 -33 -70 -58 -73 -56 -2 3 2 16 8 31 10 21 10 31 -1
52 -12 21 -12 35 0 87 28 133 31 212 7 204 -14 -4 -23 -22 -36 -73 -25 -94
-204 -325 -297 -383 -34 -22 -102 -70 -151 -109 -133 -104 -158 -116 -84 -39
36 37 63 69 60 71 -2 3 -30 -6 -62 -18 -31 -13 -57 -19 -57 -14 0 6 87 97 192
204 106 107 194 198 196 204 17 50 -202 -115 -413 -310 -118 -109 -161 -138
-178 -121 -17 17 11 68 94 171 89 112 134 178 127 186 -3 3 -86 -79 -184 -181
-98 -102 -180 -182 -181 -178 -2 4 3 37 10 72 22 105 4 144 -32 74 -21 -42
-136 -157 -220 -222 -95 -74 -80 -43 79 159 167 212 300 390 300 402 0 27
-241 -234 -376 -407 -37 -47 -69 -83 -71 -81 -3 2 0 21 6 42 6 21 9 39 7 41
-2 2 -15 -10 -29 -27 -14 -16 -31 -30 -37 -30 -21 0 1 44 79 160 98 145 126
199 112 213 -15 15 -145 -118 -275 -280 -129 -161 -132 -161 -37 -4 72 118 66
155 -14 91 -21 -16 -39 -30 -40 -30 -1 0 0 23 3 51 5 49 4 51 -19 47 -16 -2
-36 -21 -61 -58 -20 -30 -40 -56 -46 -58 -20 -6 -26 39 -27 215 0 122 -4 186
-11 193 -19 19 -23 1 -40 -162 -20 -193 -51 -318 -108 -433 -50 -101 -105
-174 -106 -140 0 22 73 415 96 510 37 161 0 129 -51 -43 -51 -175 -134 -335
-331 -632 -89 -136 -139 -198 -148 -189 -3 3 1 26 9 50 9 24 16 66 16 94 1 57
21 102 103 223 97 144 191 368 184 435 -4 30 -6 28 -37 -38 -18 -38 -52 -110
-76 -160 -51 -109 -436 -647 -452 -632 -2 3 14 45 36 93 48 109 108 297 156
489 54 214 45 218 -54 27 -46 -90 -85 -161 -87 -159 -2 2 3 38 11 81 34 179 6
220 -50 75 -40 -101 -197 -351 -211 -336 -2 2 21 57 52 122 63 132 75 183 50
204 -10 8 -16 29 -16 52 0 21 -4 40 -9 44 -16 9 -49 -43 -71 -113 -24 -75 -69
-160 -143 -272 -64 -97 -179 -252 -183 -248 -2 2 8 40 20 84 31 104 56 252 56
325 0 99 -32 83 -43 -21 -9 -72 -63 -230 -93 -266 l-23 -29 -1 35 c0 19 10 79
22 133 15 70 18 101 11 108 -17 17 -36 -29 -78 -191 -43 -170 -75 -257 -115
-320 -16 -25 -57 -103 -91 -175 -63 -130 -63 -130 -67 -88 -2 26 7 70 23 119
14 42 33 129 41 192 8 63 29 167 46 231 42 157 45 191 19 215 -12 11 -21 31
-21 45 0 14 -5 33 -10 41 -19 30 -39 -13 -60 -130 -21 -115 -53 -238 -72 -274
-19 -36 -24 3 -11 82 20 108 2 312 -27 312 -20 0 -32 -48 -56 -213 -33 -235
-83 -417 -113 -417 -11 0 -10 13 15 203 17 129 17 263 0 372 -12 76 -13 78
-19 40 -4 -22 -16 -123 -27 -225 -12 -102 -23 -189 -25 -195 -2 -5 -4 42 -4
105 -1 115 -14 236 -26 249 -4 3 -13 -2 -20 -12 -15 -20 -29 -119 -46 -312
-13 -153 -39 -300 -66 -369 l-20 -49 -6 144 c-4 79 -7 178 -7 219 0 47 -4 70
-9 65 -14 -14 -29 -165 -36 -360 -3 -93 -10 -203 -16 -243 -10 -73 -33 -142
-46 -142 -4 0 -19 11 -33 25 l-27 26 4 -98 5 -98 -56 -112 c-73 -149 -85 -192
-96 -361 -10 -149 -17 -192 -30 -192 -4 0 -11 25 -15 55 -11 91 -42 86 -52 -9
-4 -41 -11 -60 -24 -67 -14 -7 -19 -21 -19 -52 0 -96 -47 -204 -115 -266 -31
-28 -36 -38 -31 -61 3 -20 -1 -36 -15 -54 -12 -15 -19 -33 -16 -40 12 -32
-183 -327 -343 -521 -165 -199 -223 -333 -224 -520 -1 -141 10 -172 89 -249
79 -78 130 -145 145 -193 28 -85 63 -100 279 -118 138 -12 170 -18 191 -35 69
-55 67 -55 216 -58 142 -4 220 4 324 33 30 8 114 18 185 21 210 8 229 11 264
45 17 16 38 29 46 29 9 0 20 12 26 28 15 38 49 72 73 72 33 0 98 -42 124 -80
22 -32 24 -42 19 -120 -6 -85 -68 -349 -105 -447 -32 -84 -91 -162 -227 -299
-141 -142 -248 -230 -395 -328 -212 -141 -247 -150 -529 -141 -238 8 -291 1
-399 -51 -104 -51 -224 -190 -206 -238 6 -15 9 -15 30 -1 13 8 43 15 66 15 30
0 59 10 93 30 80 48 105 39 105 -36 0 -92 52 -184 104 -184 26 0 52 -27 89
-91 74 -130 289 -253 576 -329 80 -21 189 -55 241 -74 157 -56 231 -59 290
-10 20 18 44 27 75 29 32 2 64 14 103 39 31 20 116 65 189 101 158 77 213 123
213 179 l0 38 53 -56 c38 -41 60 -56 80 -56 34 0 43 19 50 104 5 74 28 116 47
86 5 -8 10 -28 10 -45 0 -55 12 -105 25 -105 17 0 22 14 30 86 11 90 37 124
51 67 4 -16 9 -31 11 -35 9 -18 34 9 62 67 31 65 57 90 85 79 11 -4 14 -13 10
-31 l-7 -25 39 20 c22 11 53 34 69 52 56 60 115 75 115 31 0 -31 17 -34 54
-12 33 21 116 107 149 155 15 22 20 24 37 14 17 -11 24 -8 54 21 44 42 79 121
106 239 25 105 41 122 28 30 -15 -105 5 -138 43 -73 14 23 32 38 52 43 45 12
66 54 74 148 l7 79 11 -55 c15 -70 31 -100 55 -100 28 0 33 -15 31 -87 l-2
-64 60 -57 c37 -35 62 -69 66 -87 6 -29 15 -53 72 -189 59 -140 30 -356 -48
-356 -64 0 -411 -160 -451 -209 -29 -34 -58 -116 -58 -163 0 -44 28 -48 60
-10 15 18 30 32 33 32 4 0 7 -19 7 -42 0 -66 9 -90 33 -86 16 2 26 17 39 63
22 71 43 98 58 75 6 -8 13 -26 16 -40 21 -93 53 -125 75 -76 15 33 23 33 95
-4 95 -49 147 -53 659 -54 l470 -1 29 23 c25 19 41 22 118 22 112 0 128 8 128
61 0 32 6 46 25 61 45 35 33 95 -40 197 -27 38 -33 55 -32 91 1 38 -7 60 -52
137 -46 79 -52 97 -46 125 4 18 8 51 10 73 2 36 5 40 28 37 25 -2 25 -1 24 61
-2 55 2 68 26 100 45 60 54 94 62 237 4 74 12 141 17 148 16 19 52 14 89 -13
70 -51 95 -66 119 -70 84 -17 128 -32 245 -82 172 -74 202 -81 385 -93 85 -6
179 -15 209 -20 88 -16 94 -15 86 19 -3 16 -2 31 2 34 5 3 44 1 86 -5 60 -9
81 -8 90 1 16 16 -16 41 -52 41 -72 1 -63 46 16 86 79 40 115 77 111 111 -3
25 0 28 24 26 15 -1 55 -14 89 -29 40 -18 65 -25 74 -18 67 49 59 49 117 9 51
-36 78 -33 44 4 -23 25 -20 32 11 25 19 -5 30 -2 39 11 12 16 16 15 67 -14 65
-37 75 -38 79 -8 2 15 11 23 29 25 46 5 52 -16 60 -201 11 -261 33 -309 222
-504 l121 -124 -30 -25 c-64 -55 -103 -65 -292 -74 -98 -5 -190 -13 -207 -18
-51 -16 -250 -119 -285 -148 -43 -36 -70 -97 -70 -157 0 -48 13 -87 29 -87 5
0 18 15 29 34 27 45 89 68 109 40 8 -10 13 -44 13 -82 0 -84 17 -137 53 -168
47 -39 77 -29 77 27 0 23 18 20 80 -11 53 -27 104 -38 223 -49 59 -6 149 -22
200 -36 191 -52 271 -59 702 -61 220 -1 411 -2 425 -3 14 0 63 -23 110 -51 47
-27 93 -50 103 -50 11 0 24 13 33 35 13 31 18 35 53 35 23 0 48 -8 64 -20 28
-22 53 -26 59 -9 6 17 153 30 259 23 101 -7 229 2 229 16 0 4 -25 22 -56 40
-48 27 -55 34 -49 53 4 12 9 35 12 51 6 28 6 28 56 22 27 -4 63 -10 78 -13 26
-5 29 -3 29 21 0 21 5 26 24 26 65 0 23 41 -81 79 -75 28 -133 63 -216 133
-34 28 -92 71 -128 94 -153 99 -231 251 -136 262 52 6 43 30 -41 98 -34 28
-92 105 -92 123 0 6 21 2 50 -9 60 -24 120 -27 120 -6 0 8 -22 37 -50 66 -27
29 -50 58 -50 66 0 19 6 18 39 -7 33 -24 106 -24 106 1 0 8 -49 48 -110 87
-184 122 -191 148 -20 68 54 -25 114 -50 135 -56 65 -20 116 7 76 40 -7 6 -40
18 -72 27 -100 26 -198 92 -206 139 -3 18 3 20 70 20 59 0 75 3 83 17 6 10 17
18 26 18 9 0 35 18 58 39 32 30 55 41 90 47 79 11 169 -1 218 -29 54 -32 167
-151 214 -225 43 -68 82 -112 100 -112 17 0 17 1 -12 70 -30 71 -31 80 -7 80
38 0 121 -52 182 -114 102 -105 184 -131 215 -70 10 19 12 20 33 6 12 -8 43
-16 67 -17 83 -3 215 -117 215 -186 0 -28 -48 -79 -75 -79 -21 0 -161 -155
-185 -205 -45 -92 -48 -311 -6 -353 13 -14 19 -11 54 24 l40 40 5 -44 c3 -24
12 -51 21 -60 14 -14 17 -14 34 1 24 22 27 21 62 -4 25 -19 45 -22 187 -27
174 -5 370 9 450 33 28 8 73 31 100 50 26 19 74 52 107 72 100 65 168 126 283
255 61 68 165 173 232 233 66 59 128 119 137 132 14 23 14 26 -1 43 -9 10 -15
24 -14 32 4 32 -2 38 -38 38 l-37 0 31 30 c17 17 41 55 53 85 22 53 23 55 61
55 67 0 105 59 54 82 -50 23 -18 48 71 56 57 4 67 8 75 28 6 18 16 24 38 24
15 0 34 7 41 15 10 11 4 22 -30 55 -80 79 -30 74 212 -19 105 -40 155 -51 143
-31 -4 6 -31 29 -62 51 -30 22 -52 43 -49 47 3 3 66 -25 138 -61 258 -128 568
-222 568 -172 0 8 -5 15 -11 15 -5 0 -7 5 -4 10 10 17 87 11 134 -10 56 -26
87 -25 136 3 32 19 40 28 38 50 -1 20 3 27 17 27 28 0 142 -37 216 -70 66 -30
104 -38 104 -21 0 5 -21 35 -46 67 -54 70 -42 81 33 35 48 -30 83 -39 273 -76
215 -41 205 -40 262 -22 29 9 64 26 78 36 24 19 24 20 6 40 -19 21 -19 21 5
22 113 3 203 17 215 34 12 16 23 17 87 12 64 -6 77 -4 91 12 22 24 20 57 -5
82 -13 13 -17 25 -12 30 6 6 88 19 184 29 96 11 195 26 219 33 54 15 63 40 23
61 l-28 14 52 7 c29 4 61 13 70 20 17 13 17 15 -5 38 -12 13 -58 44 -102 68
-44 24 -76 46 -72 50 4 3 30 12 57 18 65 15 105 31 105 42 0 17 -56 22 -161
13 -60 -5 -105 -6 -101 -2 4 3 41 20 83 38 93 38 139 73 122 91 -9 9 -45 8
-165 -5 -385 -44 -609 -27 -690 51 -31 30 -35 43 -13 43 9 0 15 9 15 24 0 23
3 24 36 19 35 -6 36 -5 24 16 -6 13 -25 30 -42 39 -46 25 -84 59 -75 68 4 4
29 -3 56 -16 46 -21 71 -21 71 0 0 28 -181 105 -372 160 -76 22 -165 51 -198
65 -32 14 -90 29 -127 35 -46 6 -72 15 -83 29 -29 36 -151 84 -300 117 -41 9
-79 20 -83 24 -5 4 34 10 85 14 105 8 227 31 241 45 24 24 -103 46 -348 61
-94 6 -217 17 -275 25 -106 15 -237 48 -252 63 -5 5 5 26 22 47 16 21 30 43
30 50 0 15 -122 50 -352 101 -92 21 -167 39 -165 40 1 1 101 -2 222 -7 121 -5
243 -5 270 0 48 7 49 8 24 19 -14 6 -86 18 -160 26 -177 22 -279 40 -424 79
l-120 32 135 6 c151 7 190 15 190 36 0 38 -121 51 -645 73 -304 13 -333 18
-267 50 46 22 195 23 497 1 489 -35 472 -34 480 -21 4 6 -1 21 -12 32 -36 42
-93 57 -293 78 -206 21 -252 30 -257 46 -2 6 14 16 35 22 22 7 59 30 83 52 37
33 41 39 23 40 -12 0 -66 -16 -119 -35 -54 -20 -105 -35 -113 -33 -9 2 13 28
57 66 101 90 96 124 -9 57 -67 -42 -85 -43 -105 -5 -39 75 -185 119 -505 150
-151 15 -190 25 -190 50 0 23 0 23 -105 20 -45 -1 -100 3 -123 9 -48 13 -177
70 -171 75 2 2 54 0 114 -5 61 -5 121 -7 135 -3 l25 6 -24 19 c-13 10 -37 19
-54 19 -45 0 -115 38 -132 71 -14 26 -14 29 6 40 12 6 37 8 58 5 36 -6 36 -6
10 8 -14 9 -57 20 -94 26 -77 12 -110 27 -145 65 l-25 27 68 -4 c37 -2 67 -1
67 2 0 3 -13 16 -30 28 -16 13 -30 28 -30 34 0 19 130 3 210 -27 118 -43 208
-65 241 -58 38 7 32 13 -66 53 -167 68 -231 108 -207 132 7 7 57 -1 174 -31
275 -69 422 -87 448 -56 13 16 4 19 -82 29 -53 6 -275 79 -291 95 -17 17 11
14 99 -13 99 -29 165 -39 184 -27 16 11 15 11 -115 58 -106 39 -228 97 -245
118 -14 17 -13 18 25 11 22 -4 101 -30 175 -58 175 -64 305 -98 405 -105 74
-6 79 -5 66 10 -7 10 -19 17 -25 17 -41 0 -216 106 -216 131 0 4 18 10 41 14
50 9 50 35 1 51 l-33 10 60 17 c63 18 78 37 42 56 -10 6 -69 24 -131 41 -62
17 -124 37 -139 44 l-26 14 28 11 c16 6 72 11 125 11 111 0 229 15 249 31 18
16 16 53 -4 72 -37 32 -107 40 -314 34 -274 -7 -274 7 1 59 237 45 437 101
460 130 18 21 -26 18 -150 -11 -58 -14 -118 -25 -135 -24 -29 0 -29 0 14 23
24 13 40 25 35 28 -5 3 -108 9 -229 12 -286 9 -435 23 -455 41 -9 8 -33 15
-53 15 -70 0 -37 19 81 45 324 74 460 113 554 161 96 49 60 59 -65 19 -125
-40 -270 -55 -252 -25 2 4 77 47 166 96 151 83 239 147 239 172 0 22 -33 42
-68 42 -20 0 -89 -18 -152 -40 -128 -44 -145 -47 -186 -25 -20 11 -43 14 -76
9 -38 -5 -48 -2 -56 12 -9 16 -17 17 -73 8 l-62 -11 29 25 c91 77 100 87 79
90 -11 1 -54 -11 -95 -29 -96 -40 -197 -50 -221 -23 -10 11 -19 28 -21 39 -3
16 -12 20 -48 21 -60 2 -147 29 -450 139 -140 51 -280 100 -310 110 -76 25
-55 30 200 44 417 23 492 40 409 90 -43 26 -102 32 -426 40 -383 10 -394 22
-63 71 151 22 276 46 291 56 25 15 -2 22 -108 28 -391 23 -812 61 -863 78
l-35 12 30 7 c17 4 50 8 75 9 l45 2 -55 14 c-30 7 -140 18 -245 24 -240 13
-343 24 -475 53 l-105 22 190 5 c190 6 242 14 195 32 -34 13 -244 28 -392 28
-141 0 -407 17 -471 30 -31 6 -6 8 98 10 77 0 178 5 224 9 78 8 87 11 113 40
32 36 35 56 11 70 -17 10 -17 10 0 11 25 0 80 30 72 38 -4 4 -106 7 -228 7
-191 0 -228 3 -267 18 -24 10 -78 22 -120 26 l-75 7 69 22 c40 13 119 27 185
32 64 5 169 14 234 20 179 14 196 33 40 44 -186 12 -217 76 -80 163 123 78
137 88 137 97 0 14 -50 -3 -189 -66 -170 -77 -187 -81 -217 -62 -21 14 -31 14
-112 -5 -49 -12 -93 -21 -96 -21 -20 0 14 24 97 70 109 61 217 132 217 142 0
18 -35 4 -225 -92 -186 -93 -278 -130 -261 -102 3 6 63 46 132 89 169 105 276
193 236 193 -4 0 -39 -20 -78 -44z m21 -556 c4 -6 -9 -10 -32 -10 -28 0 -34 3
-23 10 20 13 47 13 55 0z m-2842 -214 c-4 -8 -30 -34 -58 -57 -49 -42 -44 -33
24 44 26 28 48 37 34 13z m-1539 -87 c-15 -22 -29 -37 -31 -35 -3 2 8 30 24
63 23 47 28 54 31 35 2 -14 -8 -40 -24 -63z m765 -56 c-41 -53 -125 -142 -204
-215 l-89 -83 54 79 c66 95 132 170 184 208 46 33 77 39 55 11z m-703 -260
c-45 -94 -86 -166 -92 -160 -3 2 5 26 16 53 27 64 102 195 108 189 3 -2 -12
-39 -32 -82z m-1020 -8 c-19 -44 -158 -284 -203 -350 -79 -114 5 58 134 278
62 104 98 142 69 72z m-449 -182 c-8 -15 -27 -39 -42 -53 l-28 -25 18 35 c19
37 56 83 62 76 3 -2 -2 -17 -10 -33z m559 -242 c-28 -55 -53 -79 -41 -40 9 30
34 80 48 98 22 27 18 -8 -7 -58z m-923 -103 c-8 -29 -20 -62 -26 -73 -21 -39
-19 9 3 68 27 72 44 75 23 5z m537 -13 c0 -17 -31 -75 -39 -75 -6 0 -8 6 -6
13 19 54 26 67 35 67 5 0 10 -2 10 -5z m8970 -94 c0 -11 -155 -91 -176 -91
-32 0 -9 19 64 52 65 30 89 41 110 47 1 1 2 -3 2 -8z m-310 -521 c0 -6 -28
-10 -65 -10 -37 0 -65 4 -65 10 0 6 28 10 65 10 37 0 65 -4 65 -10z m-476
-723 c27 -11 45 -22 39 -24 -14 -5 -124 34 -137 48 -15 16 34 4 98 -24z m47
-286 c30 -10 75 -29 99 -42 l45 -24 -33 -3 c-59 -6 -192 49 -192 80 0 13 22
10 81 -11z m1079 -581 c0 -10 -52 -40 -70 -40 -21 0 -9 17 23 33 38 19 47 20
47 7z m1630 -1010 c-8 -5 -31 -10 -50 -10 -19 0 -42 5 -50 10 -11 7 4 10 50
10 46 0 61 -3 50 -10z m-2032 -759 c70 -32 163 -72 208 -90 95 -38 206 -100
212 -120 12 -37 -238 17 -432 93 -106 42 -151 74 -166 121 -24 74 13 73 178
-4z m-7555 -223 c8 -58 -6 -148 -23 -148 -11 0 -14 148 -4 174 11 28 21 17 27
-26z m8120 30 c2 -7 2 -19 -1 -26 -3 -10 -9 -9 -23 4 -11 9 -19 21 -19 26 0
13 38 9 43 -4z m1181 -304 c24 -9 20 -33 -4 -27 -27 7 -48 33 -27 33 8 0 22
-3 31 -6z"/>
<path d="M10775 4540 c3 -5 15 -10 26 -10 10 0 19 5 19 10 0 6 -12 10 -26 10
-14 0 -23 -4 -19 -10z"/>
</g>
</svg>
