<?xml version="1.0" standalone="no"?>
<!DOCTYPE svg PUBLIC "-//W3C//DTD SVG 20010904//EN"
 "http://www.w3.org/TR/2001/REC-SVG-20010904/DTD/svg10.dtd">
<svg version="1.0" xmlns="http://www.w3.org/2000/svg"
 width="1536.000000pt" height="811.000000pt" viewBox="0 0 1536.000000 811.000000"
 preserveAspectRatio="xMidYMid meet">
<metadata>
Created by potrace 1.16, written by Peter Selinger 2001-2019
</metadata>
<g transform="translate(0.000000,811.000000) scale(0.100000,-0.100000)"
fill="#000000" stroke="none">
<path d="M1092 8093 c-5 -10 -19 -46 -32 -81 -20 -56 -22 -75 -17 -165 7 -120
59 -343 137 -577 33 -100 58 -200 70 -281 11 -70 34 -183 50 -253 l30 -127
-61 -89 c-34 -50 -96 -127 -138 -172 -94 -103 -126 -169 -181 -378 -22 -85
-56 -216 -76 -290 -41 -161 -70 -213 -174 -319 -90 -92 -154 -144 -455 -370
l-230 -173 -9 -54 c-11 -70 2 -101 70 -167 29 -28 55 -61 58 -73 8 -32 289
-248 390 -300 43 -23 54 -24 90 -15 22 5 142 21 266 36 462 53 557 66 693 96
120 27 154 31 236 27 120 -6 176 -27 499 -188 435 -215 821 -434 992 -561 52
-39 187 -132 300 -206 112 -75 238 -161 280 -193 97 -73 185 -169 200 -216 48
-145 -85 -970 -191 -1190 -33 -69 -68 -197 -139 -514 -59 -263 -72 -307 -112
-378 -68 -121 -296 -395 -370 -445 -45 -30 -75 -33 -141 -15 -39 10 -53 9
-115 -11 -39 -13 -124 -49 -189 -80 -219 -107 -344 -193 -357 -247 -9 -35 18
-79 61 -100 50 -25 225 -30 551 -15 372 18 563 44 631 88 58 38 230 255 404
513 103 153 131 219 178 419 36 151 166 492 268 706 32 66 93 178 136 249 99
165 155 296 299 692 142 390 176 462 229 488 79 38 317 33 764 -18 183 -21
209 -26 224 -45 31 -38 34 -123 10 -296 -32 -239 -74 -1061 -61 -1191 22 -210
89 -341 207 -403 21 -11 58 -43 82 -71 50 -60 290 -222 642 -433 l225 -136 12
-88 c10 -71 16 -91 34 -105 13 -10 87 -50 165 -89 157 -80 214 -93 299 -69 65
18 154 79 236 161 39 39 127 107 197 153 69 46 185 121 256 168 143 94 192
135 412 344 150 142 289 252 488 386 145 98 148 103 142 273 -6 135 -27 243
-67 333 -31 68 -50 179 -50 288 0 108 -9 101 111 80 82 -15 154 -43 196 -76
68 -53 293 -90 552 -90 190 0 249 -11 476 -91 268 -93 320 -141 369 -334 36
-146 66 -493 66 -780 0 -155 -7 -171 -102 -240 -92 -65 -115 -90 -147 -154
-47 -93 -63 -162 -59 -256 3 -92 20 -127 74 -155 57 -29 304 -12 511 36 45 10
111 52 118 75 4 12 4 49 0 83 -8 75 1 100 61 173 94 116 89 87 88 518 0 371
-10 629 -40 1065 -16 242 -21 256 -95 305 -24 17 -56 38 -69 48 l-25 17 34 -6
c102 -19 598 -265 792 -392 74 -49 242 -164 372 -256 305 -214 470 -322 599
-390 296 -157 820 -288 1297 -326 285 -22 310 -14 461 138 144 144 265 340
277 447 17 143 -194 532 -453 836 -41 47 -96 104 -123 127 -27 23 -188 121
-357 218 -474 271 -789 469 -974 613 -335 259 -1176 1109 -2050 2071 -126 139
-187 212 -240 288 -102 147 -419 327 -1040 590 -567 239 -944 331 -1485 362
-223 13 -1219 13 -1405 0 -448 -31 -883 -83 -1460 -175 -118 -19 -271 -40
-340 -47 -161 -16 -669 -16 -825 0 -163 17 -446 16 -570 -3 -55 -8 -147 -26
-204 -40 -87 -21 -110 -23 -145 -14 -52 13 -183 87 -192 108 -4 9 -8 95 -9
191 -2 194 -27 431 -52 500 -38 105 -108 174 -189 186 -91 13 -260 -39 -382
-120 -109 -71 -221 -200 -307 -354 l-40 -72 -55 0 c-85 0 -280 19 -299 30 -12
6 -20 26 -24 61 -9 73 -43 124 -150 225 -110 104 -251 207 -357 261 -97 49
-184 131 -331 314 -149 185 -185 215 -207 172z m7062 -4535 c31 -121 122 -387
170 -496 59 -133 100 -201 187 -304 39 -46 83 -110 100 -143 37 -77 69 -203
69 -275 0 -38 11 -90 35 -160 66 -196 98 -345 99 -455 1 -91 -1 -103 -23 -133
-51 -66 -396 -364 -601 -517 -145 -108 -191 -128 -285 -123 -71 3 -76 5 -117
44 -110 104 -198 152 -304 163 -89 10 -183 53 -316 141 -168 113 -291 223
-304 274 -9 36 13 135 72 326 30 96 61 216 70 265 8 50 44 225 79 390 87 407
115 563 122 672 l6 92 121 41 c67 22 272 92 456 155 184 62 337 114 340 114 3
1 14 -32 24 -71z"/>
</g>
</svg>
