<?xml version="1.0" standalone="no"?>
<!DOCTYPE svg PUBLIC "-//W3C//DTD SVG 20010904//EN"
 "http://www.w3.org/TR/2001/REC-SVG-20010904/DTD/svg10.dtd">
<svg version="1.0" xmlns="http://www.w3.org/2000/svg"
 width="1536.000000pt" height="972.000000pt" viewBox="0 0 1536.000000 972.000000"
 preserveAspectRatio="xMidYMid meet">
<metadata>
Created by potrace 1.16, written by Peter Selinger 2001-2019
</metadata>
<g transform="translate(0.000000,972.000000) scale(0.100000,-0.100000)"
fill="#000000" stroke="none">
<path d="M9458 9705 c-3 -16 -34 -31 -130 -61 -32 -10 -53 -25 -69 -49 -13
-19 -34 -40 -46 -46 -14 -8 -20 -16 -14 -23 12 -15 1 -126 -12 -126 -5 0 -3
-8 7 -19 9 -10 14 -25 10 -35 -3 -9 -2 -22 4 -29 5 -6 12 -25 16 -41 9 -37 51
-98 111 -160 26 -26 43 -51 38 -55 -36 -32 -153 -34 -200 -5 -19 12 -23 12
-23 1 0 -7 -19 -18 -42 -24 -35 -9 -46 -9 -59 3 -11 10 -18 11 -27 2 -6 -6
-45 -11 -86 -12 -70 -1 -76 0 -76 19 -1 20 -1 20 -18 -1 -21 -25 -76 -40 -162
-43 -36 -1 -105 -9 -154 -16 -48 -8 -113 -12 -142 -9 -34 4 -54 3 -54 -4 0 -6
-30 -13 -67 -17 -38 -4 -90 -13 -118 -21 -83 -24 -322 -64 -339 -58 -9 4 -25
-1 -35 -10 -11 -10 -45 -19 -87 -23 -38 -3 -71 -9 -74 -13 -3 -4 -20 -10 -37
-13 -27 -5 -33 -3 -33 10 0 14 -4 13 -23 -5 -15 -14 -42 -24 -80 -28 -32 -4
-60 -11 -63 -16 -3 -5 -11 -5 -18 1 -9 7 -24 3 -51 -16 -44 -30 -112 -47 -118
-29 -3 7 -14 2 -28 -11 -32 -29 -94 -53 -136 -53 -20 0 -32 -4 -28 -10 3 -5
-3 -10 -14 -10 -11 0 -22 -4 -25 -9 -3 -4 -16 -6 -30 -4 -13 3 -27 0 -30 -6
-4 -6 -14 -11 -22 -11 -8 0 -23 -9 -34 -20 -11 -11 -32 -20 -47 -20 -16 0 -44
-10 -63 -22 -19 -12 -37 -23 -40 -24 -3 -1 -15 -5 -27 -9 -13 -4 -23 -11 -23
-16 0 -5 -4 -9 -10 -9 -5 0 -51 -20 -101 -45 -50 -25 -98 -45 -105 -45 -8 0
-37 -16 -65 -35 -56 -38 -173 -97 -186 -93 -18 5 -60 -16 -83 -42 -14 -15 -42
-37 -62 -49 -33 -20 -37 -20 -46 -5 -8 14 -12 11 -31 -20 -13 -21 -31 -36 -42
-36 -10 0 -19 -5 -19 -10 0 -6 -14 -19 -32 -30 -24 -14 -36 -16 -51 -9 -16 9
-18 8 -15 -8 4 -17 -47 -63 -70 -63 -5 0 -15 -7 -22 -15 -7 -8 -20 -15 -29
-15 -9 0 -27 -12 -41 -27 -14 -14 -50 -43 -80 -62 -30 -20 -75 -51 -99 -69
-25 -18 -51 -30 -58 -28 -22 9 -41 -4 -36 -23 3 -13 -10 -28 -49 -53 -29 -20
-63 -38 -74 -42 -12 -4 -24 -16 -27 -27 -3 -11 -19 -25 -36 -32 -16 -6 -32
-19 -34 -28 -3 -10 -24 -30 -48 -46 -23 -15 -79 -66 -124 -113 -72 -74 -85
-83 -99 -71 -14 12 -16 10 -16 -10 0 -15 -8 -28 -22 -34 -12 -6 -26 -24 -30
-42 -7 -29 -99 -123 -120 -123 -5 0 -8 -9 -8 -20 0 -11 -8 -24 -17 -27 -23 -9
-42 -34 -36 -49 6 -16 -57 -104 -75 -104 -9 0 -11 -7 -7 -20 3 -11 3 -20 -2
-20 -9 0 -16 -11 -55 -93 -17 -36 -33 -57 -44 -57 -12 0 -15 -6 -10 -24 7 -30
-27 -114 -55 -134 -14 -9 -17 -17 -10 -21 11 -7 -42 -160 -59 -171 -5 -3 -14
-28 -20 -55 -6 -28 -23 -84 -36 -125 -14 -41 -30 -94 -35 -118 -5 -24 -15 -58
-23 -75 -8 -18 -18 -51 -21 -74 l-7 -43 -30 16 -31 16 24 -38 c24 -39 27 -77
8 -100 -6 -7 -8 -18 -4 -24 3 -5 -1 -13 -10 -16 -14 -6 -14 -9 -2 -23 17 -18
35 -351 20 -373 -13 -20 -11 -88 3 -88 6 0 12 -10 12 -23 0 -54 41 -262 57
-288 4 -5 1 -17 -7 -26 -10 -12 -10 -17 -1 -20 7 -2 10 -10 7 -18 -3 -7 -1
-16 5 -20 6 -3 11 -25 11 -47 0 -46 34 -171 57 -206 8 -13 17 -48 20 -78 3
-30 9 -54 13 -54 11 0 33 -77 26 -89 -4 -6 2 -23 13 -37 12 -15 21 -35 21 -44
0 -10 7 -33 15 -53 8 -19 19 -57 25 -84 6 -26 23 -72 38 -102 19 -40 23 -56
13 -59 -9 -3 -6 -11 10 -28 12 -13 23 -32 24 -42 0 -9 5 -23 9 -31 5 -8 0 -24
-14 -43 l-21 -29 35 7 36 6 0 -46 c0 -31 4 -45 12 -44 7 2 12 -3 13 -10 0 -7
5 -16 11 -20 6 -4 14 -28 18 -54 5 -30 12 -48 21 -48 7 0 16 -7 19 -16 9 -22
8 -24 -10 -24 -8 0 -12 -4 -9 -10 3 -5 0 -10 -7 -11 -7 -1 -2 -4 12 -8 19 -5
26 -15 28 -38 2 -17 10 -37 18 -43 20 -18 17 -39 -8 -61 l-23 -18 36 -1 c38 0
80 -32 59 -45 -7 -4 -4 -16 10 -35 11 -15 20 -32 20 -38 0 -5 7 -15 15 -22 8
-7 15 -23 15 -36 0 -13 9 -28 20 -34 11 -6 22 -26 26 -46 4 -23 10 -32 16 -26
16 16 48 1 54 -24 3 -13 11 -24 18 -24 6 0 26 -24 43 -54 l30 -53 -84 -117
c-46 -64 -88 -116 -93 -116 -6 0 -10 -8 -10 -18 0 -18 -29 -52 -44 -52 -4 0
-24 -18 -44 -41 -20 -22 -60 -52 -89 -66 -29 -13 -53 -29 -53 -34 0 -5 -12
-15 -27 -21 -16 -7 -39 -20 -52 -30 -30 -23 -51 -23 -51 0 -1 12 -5 9 -16 -10
-8 -16 -21 -28 -29 -28 -8 0 -15 -4 -15 -9 0 -5 -15 -14 -32 -21 -18 -7 -51
-21 -73 -31 -120 -54 -529 -180 -940 -289 -438 -116 -797 -231 -1032 -330
-297 -125 -803 -446 -1213 -769 -178 -140 -275 -223 -545 -465 -115 -104 -278
-247 -362 -318 -160 -136 -193 -169 -193 -199 0 -25 42 -35 83 -18 131 54 397
248 734 536 324 278 520 404 1003 644 297 148 501 239 648 288 167 56 223 68
882 196 671 130 1277 305 1665 481 104 48 141 61 148 51 7 -9 10 -9 14 1 10
25 34 41 105 67 40 15 88 34 107 42 69 31 231 81 231 72 0 -6 7 -6 19 1 27 14
41 13 41 -5 0 -14 3 -14 30 0 16 8 37 15 46 15 14 0 15 2 3 18 -12 15 -11 15
8 -1 21 -18 21 -18 28 2 3 12 10 19 15 16 5 -3 18 8 30 25 12 16 28 30 35 30
8 0 93 23 189 50 109 31 195 50 228 50 37 0 60 6 78 20 34 26 48 25 56 -5 5
-19 11 -24 24 -20 12 4 22 -1 29 -12 9 -16 12 -13 26 20 8 21 22 37 31 37 14
0 14 -3 4 -15 -18 -22 -8 -27 26 -14 16 6 49 13 72 14 l44 4 -7 -37 -7 -37 29
26 c26 24 30 25 58 13 17 -7 38 -11 47 -8 9 3 21 -3 26 -12 6 -11 16 -15 27
-10 14 5 89 -13 260 -63 17 -5 57 -12 89 -16 33 -4 71 -12 85 -17 14 -6 54
-11 87 -12 34 -1 68 -7 77 -14 9 -8 18 -9 21 -4 8 13 316 16 316 3 0 -6 18 -7
43 -4 106 13 85 31 246 -209 80 -119 180 -254 221 -299 41 -46 74 -87 72 -91
-1 -4 7 -8 17 -8 11 0 32 -10 48 -23 34 -28 127 -67 159 -67 41 0 71 -18 85
-52 l14 -33 5 29 5 30 36 -32 c20 -18 43 -32 51 -32 8 0 37 -17 64 -37 96 -72
229 -181 249 -203 25 -28 302 -254 408 -333 42 -32 77 -61 77 -66 0 -13 84
-23 111 -13 13 5 29 11 34 12 6 1 27 18 48 37 21 18 49 38 63 43 14 6 23 14
20 19 -4 5 7 21 24 34 16 14 30 28 30 32 0 3 12 18 28 33 25 26 33 48 32 99 0
15 11 28 33 40 l32 18 -37 3 c-21 2 -38 7 -38 12 0 5 -20 23 -45 41 -32 23
-45 39 -45 57 0 20 -2 22 -15 12 -18 -15 -31 -7 -51 31 -13 26 -17 29 -31 17
-14 -11 -16 -11 -11 4 5 11 0 18 -13 21 -10 3 -19 12 -19 21 0 14 -3 14 -20 4
-15 -10 -23 -10 -28 -2 -4 7 -25 21 -47 32 -76 39 -101 52 -200 107 -55 31
-121 66 -147 78 -31 14 -49 30 -53 45 -4 18 -9 21 -19 13 -15 -13 -78 3 -96
24 -7 8 -18 15 -24 15 -14 0 -168 104 -229 153 -91 74 -227 216 -227 236 0 13
-6 21 -17 21 -10 0 -28 11 -40 24 -29 30 -73 118 -73 145 0 44 69 201 88 201
8 0 12 6 9 14 -7 19 33 136 45 133 6 -1 18 26 28 60 10 34 61 149 113 256 l94
194 194 27 c107 14 250 31 319 36 260 21 344 31 369 45 14 8 80 24 146 35 66
12 140 28 165 36 26 9 62 13 87 10 33 -4 41 -2 37 9 -4 9 1 14 13 14 22 0 146
34 153 42 3 3 14 8 25 11 11 3 28 9 38 13 12 5 17 2 17 -10 0 -12 7 -9 31 14
18 18 41 31 55 31 14 0 45 12 70 26 28 16 54 24 69 21 17 -3 25 0 25 9 0 16
31 34 60 34 12 0 30 10 39 21 9 12 29 23 44 24 16 2 42 14 60 28 38 29 151 87
169 87 7 0 42 22 78 50 36 27 74 49 85 50 11 0 35 16 54 35 19 20 44 35 56 35
17 0 22 5 19 18 -5 20 31 66 45 57 6 -3 19 0 29 6 27 17 56 4 49 -21 -6 -24 1
-25 24 -4 15 13 24 14 53 4 19 -6 36 -16 38 -22 2 -6 15 -13 29 -14 48 -6 89
-16 94 -25 3 -4 -17 -48 -44 -98 -190 -341 -346 -702 -427 -985 -39 -136 -39
-136 -21 -136 7 0 23 42 40 105 31 121 98 309 164 463 92 216 317 652 336 652
6 0 2 -10 -9 -21 -19 -21 -19 -22 1 -15 20 6 125 19 155 19 8 0 44 -1 80 -2
36 -2 74 0 85 2 11 3 30 6 43 6 13 1 37 15 54 32 17 17 41 35 54 39 20 8 23 5
30 -23 l7 -31 16 34 c14 31 21 35 64 38 45 3 47 2 47 -22 0 -30 16 -35 24 -8
7 21 21 28 116 61 60 21 80 26 120 30 12 1 13 3 1 10 -11 7 -11 13 3 32 30 43
13 84 -47 116 -16 8 -15 12 12 42 49 54 57 84 34 128 -19 35 -70 75 -85 66 -4
-2 -35 3 -67 13 -61 17 -90 38 -219 159 l-64 61 86 134 c97 153 104 158 222
159 55 1 75 -3 85 -15 12 -15 14 -14 19 7 5 22 13 25 79 32 52 6 76 5 81 -3 4
-6 10 -89 14 -183 3 -95 13 -329 21 -522 23 -539 35 -984 35 -1246 0 -148 4
-240 10 -244 6 -3 10 -28 10 -56 0 -37 4 -49 15 -49 11 0 15 12 15 48 0 27 2
51 5 54 3 3 7 286 9 629 4 665 14 899 62 1404 18 198 20 205 43 205 10 0 23
-10 30 -22 11 -22 11 -22 8 5 -3 15 1 28 7 28 25 3 51 -4 58 -14 5 -8 9 -6 14
6 10 27 21 11 29 -40 29 -203 186 -1043 252 -1348 49 -232 132 -587 138 -593
2 -2 8 -1 14 2 6 4 6 18 0 39 -15 54 -106 453 -138 607 -100 482 -255 1344
-242 1348 4 1 25 11 45 21 l36 19 14 -52 c8 -28 56 -202 106 -386 190 -692
347 -1182 522 -1620 71 -179 81 -199 92 -182 3 6 -10 48 -30 94 -106 248 -291
787 -419 1218 -82 280 -255 910 -255 932 0 10 15 21 38 29 20 6 41 18 45 25 4
8 17 14 28 14 13 0 23 8 26 21 3 11 20 26 37 34 19 8 24 14 14 14 -10 1 -18 5
-18 10 0 25 45 -8 90 -65 28 -35 78 -94 111 -131 151 -166 362 -459 866 -1202
246 -363 258 -379 269 -368 7 6 -90 153 -412 625 -69 100 -123 182 -120 182 3
0 203 -250 262 -329 6 -8 16 -11 22 -7 8 4 -29 58 -100 149 -62 78 -255 324
-428 547 -174 223 -361 463 -417 535 -84 106 -99 131 -85 136 9 3 57 9 105 13
56 4 103 13 128 26 l41 19 152 -117 c303 -237 468 -353 588 -413 63 -32 68
-33 68 -20 0 5 -37 31 -82 56 -126 72 -281 181 -502 353 -111 85 -202 156
-203 157 -2 1 6 11 17 23 11 12 20 26 20 33 0 6 7 9 15 5 12 -4 15 3 15 35 0
24 4 38 10 34 6 -3 10 3 10 14 0 14 6 21 20 21 21 0 21 0 1 21 -16 17 -20 35
-19 94 l0 73 31 -4 c18 -2 118 -13 222 -24 105 -12 378 -43 609 -71 230 -27
421 -47 424 -44 3 3 1 9 -4 14 -9 8 -465 65 -1004 124 l-285 32 -3 43 -3 43
93 -5 c51 -4 242 -11 423 -16 182 -6 416 -15 520 -20 238 -12 265 -12 265 -1
0 5 -24 12 -52 15 -58 7 -663 32 -1024 42 l-231 7 -11 56 c-5 31 -13 63 -16
71 -5 12 16 24 91 52 619 231 1109 409 1295 468 68 22 86 34 69 44 -16 10
-1136 -390 -1451 -518 -14 -6 -29 27 -66 144 -4 11 54 38 243 114 326 130 651
257 958 372 137 52 251 97 253 99 2 2 1 8 -2 13 -6 10 -35 -1 -516 -185 -207
-79 -723 -283 -937 -370 -11 -4 -43 55 -43 79 0 13 311 162 485 233 282 115
651 237 925 305 114 28 115 29 103 41 -12 12 -140 -20 -433 -108 -337 -101
-681 -235 -954 -372 -126 -63 -137 -67 -151 -51 -8 9 -15 21 -15 26 0 5 -29
60 -65 122 l-64 113 32 28 c107 94 703 596 1022 861 206 172 372 316 369 321
-3 5 -11 6 -17 2 -30 -18 -715 -590 -1160 -967 -137 -116 -252 -212 -257 -214
-5 -2 -41 45 -82 103 -40 59 -77 112 -82 119 -9 13 82 144 578 836 132 184
323 449 424 589 115 159 180 257 174 263 -10 10 -330 -429 -898 -1229 -164
-232 -302 -421 -305 -420 -4 1 -43 47 -88 102 -53 65 -79 105 -75 115 58 141
155 481 198 700 60 305 117 848 89 857 -7 3 -13 -29 -17 -84 -31 -411 -81
-737 -158 -1033 -36 -140 -126 -417 -137 -425 -5 -2 -20 10 -34 28 -33 44
-400 405 -512 504 -160 141 -563 452 -649 501 -23 12 -48 31 -58 42 -9 11 -22
20 -28 20 -20 0 -70 34 -70 48 0 7 -6 12 -13 10 -16 -4 -87 38 -87 52 0 5 -10
10 -23 10 -12 0 -39 11 -59 25 -20 14 -40 25 -44 25 -4 0 -15 6 -23 14 -18 15
-413 216 -473 240 -21 8 -38 19 -38 24 0 5 -31 14 -70 21 -38 7 -72 17 -76 22
-3 5 -15 9 -27 9 -21 0 -67 39 -67 56 0 5 -15 15 -32 23 -18 8 -44 24 -58 36
-14 12 -31 24 -37 26 -19 6 -362 320 -385 352 -11 15 -24 27 -30 27 -17 0 -69
41 -63 50 4 7 -59 54 -75 55 -17 3 -140 91 -140 101 0 13 -58 34 -91 34 -9 0
-19 3 -23 8 -4 4 -11 7 -14 8 -21 3 -42 18 -42 31 0 11 -5 13 -17 7 -27 -11
-93 -13 -93 -2 0 5 -8 7 -19 3 -10 -3 -30 -1 -45 4 -14 6 -26 7 -26 3 0 -4
-30 -8 -67 -9 -38 0 -84 -1 -103 -1 -19 -1 -39 3 -46 9 -9 7 -13 5 -16 -6z
m3542 -4532 c0 -5 -9 -96 -19 -203 -11 -107 -25 -269 -31 -360 -7 -91 -14
-167 -16 -169 -2 -2 -4 160 -4 362 l0 366 23 4 c38 7 47 7 47 0z m-97 -170 c4
-87 6 -480 5 -873 -1 -393 -3 -683 -5 -645 -1 39 -7 230 -13 425 -6 195 -20
551 -30 790 -11 239 -20 441 -20 448 0 7 12 12 28 12 l29 0 6 -157z m-545 59
c-70 -115 -134 -212 -140 -212 -16 0 -127 112 -122 124 3 7 -4 17 -15 22 -17
8 -18 11 -6 28 18 24 124 50 142 34 10 -8 18 -6 33 7 19 17 20 17 20 1 0 -16
1 -16 17 -1 11 11 26 15 44 11 18 -3 29 0 33 9 3 8 8 15 11 15 3 0 -4 -17 -17
-38z"/>
<path d="M13912 5555 c3 -19 218 -173 403 -290 127 -80 553 -298 566 -289 19
11 6 21 -78 59 -246 109 -514 267 -783 460 -113 81 -113 81 -108 60z"/>
</g>
</svg>
