<?xml version="1.0" standalone="no"?>
<!DOCTYPE svg PUBLIC "-//W3C//DTD SVG 20010904//EN"
 "http://www.w3.org/TR/2001/REC-SVG-20010904/DTD/svg10.dtd">
<svg version="1.0" xmlns="http://www.w3.org/2000/svg"
 width="1223.000000pt" height="1623.000000pt" viewBox="0 0 1223.000000 1623.000000"
 preserveAspectRatio="xMidYMid meet">
<metadata>
Created by potrace 1.16, written by Peter Selinger 2001-2019
</metadata>
<g transform="translate(0.000000,1623.000000) scale(0.100000,-0.100000)"
fill="#000000" stroke="none">
<path d="M3183 16212 c-10 -6 -21 -93 -39 -302 -9 -110 -67 -391 -119 -579
-43 -155 -136 -416 -154 -434 -11 -11 -270 127 -346 185 -106 82 -170 164
-235 305 -40 87 -111 173 -141 173 -16 0 -19 -8 -19 -44 0 -64 25 -186 51
-245 12 -29 20 -54 17 -56 -9 -9 -143 133 -188 200 -84 124 -90 141 -106 284
-7 65 -39 121 -61 108 -22 -14 -43 -102 -43 -178 0 -169 48 -309 157 -454 85
-113 304 -316 453 -419 36 -25 74 -52 85 -60 11 -7 72 -46 135 -86 190 -121
315 -250 404 -419 59 -113 81 -176 107 -315 l21 -111 -43 -38 c-24 -21 -58
-48 -75 -60 -17 -12 -69 -52 -115 -90 -46 -37 -120 -86 -164 -108 -44 -23 -91
-52 -105 -64 -30 -26 -97 -65 -112 -65 -25 0 -294 -121 -345 -156 -18 -12 -66
-29 -107 -38 -247 -55 -457 -143 -683 -285 -50 -32 -156 -86 -235 -120 -163
-72 -669 -328 -798 -403 -206 -122 -302 -204 -343 -298 -21 -48 -26 -146 -8
-191 16 -44 66 -88 115 -101 34 -9 46 -17 46 -31 0 -11 9 -34 20 -52 40 -64
116 -77 455 -80 295 -3 336 -9 495 -67 107 -39 304 -125 410 -178 132 -66 345
-142 454 -161 51 -8 66 -15 66 -28 0 -39 59 -244 166 -576 92 -287 231 -795
323 -1185 44 -184 114 -381 175 -495 108 -201 166 -299 215 -368 31 -43 70
-98 86 -121 66 -93 138 -176 219 -253 l86 -81 0 -55 c0 -30 6 -88 14 -128 8
-41 22 -119 32 -174 54 -318 121 -530 219 -697 75 -128 213 -252 338 -304 71
-30 94 -47 172 -122 178 -174 270 -238 387 -265 27 -7 46 -16 44 -22 -89 -203
-112 -260 -165 -405 -80 -220 -136 -434 -181 -683 -31 -171 -20 -271 65 -618
21 -82 38 -188 45 -265 6 -71 13 -138 15 -149 3 -11 9 -83 15 -160 6 -77 16
-160 21 -185 6 -25 14 -94 19 -155 4 -60 15 -164 24 -230 30 -214 36 -268 46
-420 33 -510 35 -524 101 -800 27 -115 58 -261 69 -324 23 -137 43 -205 74
-250 l23 -35 -24 -115 c-21 -100 -24 -136 -20 -261 3 -104 8 -156 20 -182 14
-34 37 -52 37 -30 0 5 16 26 35 48 66 75 167 248 222 384 9 23 11 21 26 -35 9
-33 36 -118 60 -190 53 -161 62 -166 126 -69 24 37 47 80 51 95 5 16 19 43 33
61 13 18 30 55 36 82 7 27 19 62 27 77 33 66 28 321 -9 367 -5 7 -17 49 -27
95 -10 45 -21 95 -25 110 -6 23 -4 29 13 34 40 10 26 117 -21 157 -28 23 -97
124 -118 172 -28 60 -49 135 -94 329 -19 83 -39 166 -45 185 -13 48 -57 370
-70 510 -6 63 -13 122 -15 130 -3 8 -18 114 -34 235 -73 536 -94 956 -55 1070
11 34 86 189 104 215 10 14 47 70 83 125 36 55 92 129 125 165 91 100 277 331
382 474 84 114 95 126 101 105 4 -13 7 -148 8 -300 1 -258 -16 -599 -39 -779
-5 -41 -17 -174 -25 -295 -9 -121 -20 -267 -25 -325 -14 -190 13 -441 80 -738
18 -78 8 -499 -19 -792 -5 -58 -17 -190 -25 -295 -9 -104 -21 -235 -26 -290
-26 -246 -29 -299 -30 -440 0 -159 -25 -349 -54 -417 -9 -21 -16 -44 -16 -53
0 -30 -71 -158 -120 -217 -28 -33 -73 -81 -101 -106 -95 -86 -87 -112 48 -156
74 -25 95 -27 220 -26 76 1 163 -3 193 -9 129 -22 192 20 225 152 10 43 24 76
30 74 5 -2 24 -22 40 -44 41 -55 78 -77 106 -63 15 9 19 18 15 33 -12 40 -18
1053 -7 1145 5 48 13 218 16 377 4 160 11 333 16 385 6 52 14 147 19 210 4 63
13 144 19 180 7 36 25 162 42 280 17 118 39 269 49 335 17 112 85 400 143 610
33 119 89 356 128 535 17 80 62 267 101 415 38 149 94 380 124 515 29 135 56
255 59 267 3 13 18 29 33 37 41 21 252 63 381 76 62 6 152 18 200 26 47 9 113
20 146 25 67 10 442 10 638 0 l128 -6 33 -77 c18 -42 53 -107 78 -145 57 -87
154 -273 201 -385 20 -48 53 -114 75 -145 21 -32 53 -85 71 -118 19 -33 57
-94 86 -135 68 -97 127 -197 205 -345 34 -66 80 -149 101 -185 21 -36 61 -118
89 -183 177 -410 217 -659 171 -1077 -32 -284 -84 -502 -213 -885 -108 -321
-318 -774 -507 -1092 -22 -38 -92 -176 -155 -307 -64 -131 -122 -249 -131
-262 -8 -13 -15 -27 -15 -32 0 -5 -10 -17 -21 -28 -44 -39 -188 -244 -189
-269 0 -6 -11 -27 -25 -47 -14 -21 -50 -95 -80 -165 -57 -136 -84 -172 -170
-233 -57 -41 -88 -86 -67 -99 20 -12 221 -31 417 -38 145 -5 181 -3 223 10 66
22 134 84 182 168 59 100 137 164 195 161 35 -3 38 4 80 138 66 209 106 314
205 525 23 50 68 153 100 230 32 77 68 159 79 182 12 23 21 47 21 52 0 12 94
240 145 351 19 41 47 109 64 150 67 175 426 921 506 1055 141 236 286 530 365
740 49 132 80 267 80 354 0 104 -43 258 -109 389 -16 31 -40 91 -54 132 -14
41 -49 136 -77 210 -29 74 -71 189 -95 255 -23 66 -58 165 -78 220 -56 156
-97 317 -112 443 -8 64 -13 117 -11 119 6 6 87 -97 122 -157 20 -35 51 -79 69
-99 55 -62 222 -294 287 -399 98 -155 194 -295 218 -317 12 -11 35 -46 51 -77
16 -31 42 -72 58 -90 15 -18 36 -49 46 -68 10 -19 37 -62 60 -95 23 -33 62
-96 87 -140 43 -74 65 -123 161 -355 19 -47 47 -134 61 -195 15 -60 33 -137
41 -170 56 -227 81 -436 106 -890 10 -187 5 -551 -11 -760 -6 -66 -14 -237
-20 -380 -10 -250 -43 -582 -75 -740 -8 -38 -24 -122 -35 -185 -12 -63 -35
-153 -52 -200 -30 -86 -72 -253 -103 -410 -9 -47 -24 -95 -32 -108 -26 -41
-11 -54 64 -52 38 1 111 -4 163 -11 140 -18 192 -15 231 13 65 46 109 109 123
174 5 23 17 36 44 49 20 9 50 33 66 52 28 33 31 46 49 197 14 119 19 220 17
390 -1 243 11 381 56 646 44 253 49 322 74 915 21 517 78 1096 131 1345 62
294 62 292 63 460 1 175 -2 192 -64 400 -39 129 -78 241 -138 390 -51 129
-150 436 -177 550 -22 95 -38 373 -31 540 7 141 8 147 42 215 46 90 187 480
217 600 44 177 124 691 147 945 23 255 42 449 51 518 24 191 -4 387 -99 697
-105 337 -179 470 -513 920 -69 93 -207 234 -269 275 -19 13 -56 42 -81 64
-25 23 -85 68 -133 101 -47 33 -117 84 -154 114 -37 29 -80 60 -97 68 -16 9
-46 28 -65 43 -77 59 -238 149 -295 165 -33 10 -86 30 -117 46 -31 16 -76 31
-100 35 -24 3 -70 14 -103 24 -33 10 -80 22 -105 25 -25 4 -67 13 -95 20 -70
20 -422 37 -466 24 -19 -6 -68 -10 -110 -10 -42 0 -101 -6 -130 -13 -30 -8
-83 -17 -119 -21 -92 -9 -345 -61 -410 -83 -30 -11 -77 -22 -105 -26 -66 -10
-399 -90 -500 -121 -44 -13 -174 -49 -290 -80 -189 -51 -225 -57 -365 -66
-192 -12 -295 -29 -530 -86 -248 -60 -298 -69 -412 -78 -75 -5 -108 -3 -145 8
-115 37 -377 62 -567 54 -83 -4 -162 -9 -176 -11 -117 -21 -232 -28 -389 -22
-157 6 -184 10 -263 36 -48 16 -109 41 -136 54 -46 24 -154 128 -189 184 -10
15 -34 50 -55 77 -122 165 -356 800 -504 1370 -35 138 -69 266 -74 285 -9 34
-8 37 38 79 150 138 241 238 310 336 175 248 239 408 249 621 5 108 3 125 -16
168 l-21 48 -51 -7 c-48 -7 -51 -6 -44 11 16 39 26 104 23 146 -3 39 -5 43
-33 46 -69 8 -206 -35 -272 -86 -39 -29 -41 -24 -9 27 76 119 216 437 274 621
37 116 71 253 91 370 12 63 28 149 37 190 17 82 32 505 20 584 -6 39 -10 44
-28 41 -12 -3 -25 -10 -29 -17 -17 -27 -89 -269 -124 -413 -72 -303 -86 -351
-162 -583 -63 -191 -186 -444 -248 -509 -69 -72 -103 -58 -183 73 -79 130 -79
124 -14 234 105 180 273 556 346 775 37 110 76 205 98 237 58 84 112 268 79
268 -25 0 -53 -23 -117 -98 -56 -65 -85 -115 -186 -322 -66 -135 -134 -267
-151 -295 -29 -46 -168 -245 -171 -245 -1 0 -2 66 -2 148 -3 379 -119 857
-258 1060 -56 82 -93 116 -118 107 -27 -11 -26 -51 2 -168 67 -269 83 -379 96
-637 9 -198 -26 -486 -75 -613 l-11 -27 -63 24 c-36 13 -77 31 -93 39 -16 8
-44 18 -61 22 -18 3 -33 9 -33 11 0 3 6 37 14 77 8 40 19 106 25 147 7 41 25
156 41 255 45 279 55 394 55 610 -1 199 -8 260 -41 326 -14 29 -35 41 -51 31z
m467 -2504 c-18 -63 -52 -95 -192 -181 -15 -9 -37 -17 -48 -17 -17 0 -20 4
-15 23 14 46 104 206 180 322 l80 120 3 -115 c2 -63 -2 -132 -8 -152z"/>
</g>
</svg>
